%FSLAX45Y45*%
G04 Gerber Fmt 4.5, Leading zero omitted, Abs format (unit mm)*
G04 Created by KiCad (PCBNEW 4.0.2-stable) date 11/12/2017 10:54:55 AM*
%MOMM*%
G01*
G04 APERTURE LIST*
%ADD10C,0.127000*%
%ADD11C,0.150000*%
%ADD12C,0.200000*%
%ADD13C,0.300000*%
G04 APERTURE END LIST*
D10*
D11*
X10200000Y-11100000D02*
X10200000Y-14400000D01*
X12400000Y-11100000D02*
X12400000Y-14400000D01*
X12400000Y-14400000D02*
X12400000Y-11100000D01*
X12400000Y-14400000D02*
X10200000Y-14400000D01*
X10200000Y-14400000D02*
X8000000Y-14400000D01*
X8000000Y-14400000D02*
X8000000Y-11100000D01*
X10200000Y-14400000D02*
X10200000Y-11100000D01*
X10200000Y-11100000D02*
X12400000Y-11100000D01*
X12400000Y-11100000D02*
X10200000Y-11100000D01*
X8000000Y-11100000D02*
X10200000Y-11100000D01*
X10200000Y-11100000D02*
X8000000Y-11100000D01*
X14600000Y-14400000D02*
X14600000Y-11100000D01*
X14600000Y-14400000D02*
X12400000Y-14400000D01*
X14600000Y-11100000D02*
X14600000Y-14400000D01*
X16800000Y-14400000D02*
X14600000Y-14400000D01*
X16800000Y-11100000D02*
X16800000Y-14400000D01*
X16800000Y-11100000D02*
X14600000Y-11100000D01*
X12400000Y-11100000D02*
X14600000Y-11100000D01*
X14600000Y-11100000D02*
X16800000Y-11100000D01*
X14600000Y-11100000D02*
X12400000Y-11100000D01*
X14600000Y-7800000D02*
X14600000Y-11100000D01*
X16800000Y-11100000D02*
X14600000Y-11100000D01*
X16800000Y-7800000D02*
X16800000Y-11100000D01*
X14600000Y-7800000D02*
X16800000Y-7800000D01*
X12400000Y-11100000D02*
X10200000Y-11100000D01*
X10200000Y-11100000D02*
X8000000Y-11100000D01*
X8000000Y-11100000D02*
X8000000Y-7800000D01*
X8000000Y-7800000D02*
X10200000Y-7800000D01*
X10200000Y-7800000D02*
X10200000Y-11100000D01*
X10200000Y-7800000D02*
X12400000Y-7800000D01*
X10200000Y-11100000D02*
X10200000Y-7800000D01*
X12400000Y-7800000D02*
X14600000Y-7800000D01*
X12400000Y-11100000D02*
X12400000Y-7800000D01*
X14600000Y-11100000D02*
X14600000Y-7800000D01*
X14600000Y-11100000D02*
X12400000Y-11100000D01*
X12400000Y-7800000D02*
X12400000Y-11100000D01*
X14600000Y-7800000D02*
X14600000Y-4500000D01*
X12400000Y-7800000D02*
X12400000Y-4500000D01*
X12400000Y-4500000D02*
X14600000Y-4500000D01*
X14600000Y-4500000D02*
X14600000Y-7800000D01*
X16800000Y-7800000D02*
X14600000Y-7800000D01*
X16800000Y-4500000D02*
X16800000Y-7800000D01*
X14600000Y-4500000D02*
X16800000Y-4500000D01*
X14600000Y-7800000D02*
X12400000Y-7800000D01*
X12400000Y-7800000D02*
X10200000Y-7800000D01*
X10200000Y-7800000D02*
X10200000Y-4500000D01*
X10200000Y-4500000D02*
X12400000Y-4500000D01*
X12400000Y-4500000D02*
X12400000Y-7800000D01*
X8000000Y-7800000D02*
X8000000Y-4500000D01*
X10200000Y-7800000D02*
X8000000Y-7800000D01*
X10200000Y-4500000D02*
X10200000Y-7800000D01*
X8000000Y-4500000D02*
X10200000Y-4500000D01*
D12*
X8122240Y-5371540D02*
X8162240Y-5411540D01*
X8162240Y-5371540D02*
X8122240Y-5411540D01*
X8122240Y-5457900D02*
X8162240Y-5497900D01*
X8162240Y-5457900D02*
X8122240Y-5497900D01*
X8122240Y-8671540D02*
X8162240Y-8711540D01*
X8162240Y-8671540D02*
X8122240Y-8711540D01*
X8122240Y-8757900D02*
X8162240Y-8797900D01*
X8162240Y-8757900D02*
X8122240Y-8797900D01*
X8122240Y-11971540D02*
X8162240Y-12011540D01*
X8162240Y-11971540D02*
X8122240Y-12011540D01*
X8122240Y-12057900D02*
X8162240Y-12097900D01*
X8162240Y-12057900D02*
X8122240Y-12097900D01*
X8284800Y-5683580D02*
X8324800Y-5723580D01*
X8324800Y-5683580D02*
X8284800Y-5723580D01*
X8284800Y-8983580D02*
X8324800Y-9023580D01*
X8324800Y-8983580D02*
X8284800Y-9023580D01*
X8284800Y-12283580D02*
X8324800Y-12323580D01*
X8324800Y-12283580D02*
X8284800Y-12323580D01*
X8287340Y-5764860D02*
X8327340Y-5804860D01*
X8327340Y-5764860D02*
X8287340Y-5804860D01*
X8287340Y-9064860D02*
X8327340Y-9104860D01*
X8327340Y-9064860D02*
X8287340Y-9104860D01*
X8287340Y-12364860D02*
X8327340Y-12404860D01*
X8327340Y-12364860D02*
X8287340Y-12404860D01*
X8409260Y-6204280D02*
X8449260Y-6244280D01*
X8449260Y-6204280D02*
X8409260Y-6244280D01*
X8409260Y-9504280D02*
X8449260Y-9544280D01*
X8449260Y-9504280D02*
X8409260Y-9544280D01*
X8409260Y-12804280D02*
X8449260Y-12844280D01*
X8449260Y-12804280D02*
X8409260Y-12844280D01*
X8652340Y-6490160D02*
X8692340Y-6530160D01*
X8692340Y-6490160D02*
X8652340Y-6530160D01*
X8652340Y-6640160D02*
X8692340Y-6680160D01*
X8692340Y-6640160D02*
X8652340Y-6680160D01*
X8652340Y-9790160D02*
X8692340Y-9830160D01*
X8692340Y-9790160D02*
X8652340Y-9830160D01*
X8652340Y-9940160D02*
X8692340Y-9980160D01*
X8692340Y-9940160D02*
X8652340Y-9980160D01*
X8652340Y-13090160D02*
X8692340Y-13130160D01*
X8692340Y-13090160D02*
X8652340Y-13130160D01*
X8652340Y-13240160D02*
X8692340Y-13280160D01*
X8692340Y-13240160D02*
X8652340Y-13280160D01*
X8722340Y-6490160D02*
X8762340Y-6530160D01*
X8762340Y-6490160D02*
X8722340Y-6530160D01*
X8722340Y-6640160D02*
X8762340Y-6680160D01*
X8762340Y-6640160D02*
X8722340Y-6680160D01*
X8722340Y-9790160D02*
X8762340Y-9830160D01*
X8762340Y-9790160D02*
X8722340Y-9830160D01*
X8722340Y-9940160D02*
X8762340Y-9980160D01*
X8762340Y-9940160D02*
X8722340Y-9980160D01*
X8722340Y-13090160D02*
X8762340Y-13130160D01*
X8762340Y-13090160D02*
X8722340Y-13130160D01*
X8722340Y-13240160D02*
X8762340Y-13280160D01*
X8762340Y-13240160D02*
X8722340Y-13280160D01*
X8792340Y-6490160D02*
X8832340Y-6530160D01*
X8832340Y-6490160D02*
X8792340Y-6530160D01*
X8792340Y-6640160D02*
X8832340Y-6680160D01*
X8832340Y-6640160D02*
X8792340Y-6680160D01*
X8792340Y-9790160D02*
X8832340Y-9830160D01*
X8832340Y-9790160D02*
X8792340Y-9830160D01*
X8792340Y-9940160D02*
X8832340Y-9980160D01*
X8832340Y-9940160D02*
X8792340Y-9980160D01*
X8792340Y-13090160D02*
X8832340Y-13130160D01*
X8832340Y-13090160D02*
X8792340Y-13130160D01*
X8792340Y-13240160D02*
X8832340Y-13280160D01*
X8832340Y-13240160D02*
X8792340Y-13280160D01*
X8990920Y-6940880D02*
X9030920Y-6980880D01*
X9030920Y-6940880D02*
X8990920Y-6980880D01*
X8990920Y-10240880D02*
X9030920Y-10280880D01*
X9030920Y-10240880D02*
X8990920Y-10280880D01*
X8990920Y-13540880D02*
X9030920Y-13580880D01*
X9030920Y-13540880D02*
X8990920Y-13580880D01*
X9145860Y-5353760D02*
X9185860Y-5393760D01*
X9185860Y-5353760D02*
X9145860Y-5393760D01*
X9145860Y-5427420D02*
X9185860Y-5467420D01*
X9185860Y-5427420D02*
X9145860Y-5467420D01*
X9145860Y-8653760D02*
X9185860Y-8693760D01*
X9185860Y-8653760D02*
X9145860Y-8693760D01*
X9145860Y-8727420D02*
X9185860Y-8767420D01*
X9185860Y-8727420D02*
X9145860Y-8767420D01*
X9145860Y-11953760D02*
X9185860Y-11993760D01*
X9185860Y-11953760D02*
X9145860Y-11993760D01*
X9145860Y-12027420D02*
X9185860Y-12067420D01*
X9185860Y-12027420D02*
X9145860Y-12067420D01*
X9176340Y-7324420D02*
X9216340Y-7364420D01*
X9216340Y-7324420D02*
X9176340Y-7364420D01*
X9176340Y-10624420D02*
X9216340Y-10664420D01*
X9216340Y-10624420D02*
X9176340Y-10664420D01*
X9176340Y-13924420D02*
X9216340Y-13964420D01*
X9216340Y-13924420D02*
X9176340Y-13964420D01*
X9214440Y-5708980D02*
X9254440Y-5748980D01*
X9254440Y-5708980D02*
X9214440Y-5748980D01*
X9214440Y-5777560D02*
X9254440Y-5817560D01*
X9254440Y-5777560D02*
X9214440Y-5817560D01*
X9214440Y-7019620D02*
X9254440Y-7059620D01*
X9254440Y-7019620D02*
X9214440Y-7059620D01*
X9214440Y-9008980D02*
X9254440Y-9048980D01*
X9254440Y-9008980D02*
X9214440Y-9048980D01*
X9214440Y-9077560D02*
X9254440Y-9117560D01*
X9254440Y-9077560D02*
X9214440Y-9117560D01*
X9214440Y-10319620D02*
X9254440Y-10359620D01*
X9254440Y-10319620D02*
X9214440Y-10359620D01*
X9214440Y-12308980D02*
X9254440Y-12348980D01*
X9254440Y-12308980D02*
X9214440Y-12348980D01*
X9214440Y-12377560D02*
X9254440Y-12417560D01*
X9254440Y-12377560D02*
X9214440Y-12417560D01*
X9214440Y-13619620D02*
X9254440Y-13659620D01*
X9254440Y-13619620D02*
X9214440Y-13659620D01*
X9321120Y-6156020D02*
X9361120Y-6196020D01*
X9361120Y-6156020D02*
X9321120Y-6196020D01*
X9321120Y-9456020D02*
X9361120Y-9496020D01*
X9361120Y-9456020D02*
X9321120Y-9496020D01*
X9321120Y-12756020D02*
X9361120Y-12796020D01*
X9361120Y-12756020D02*
X9321120Y-12796020D01*
X9521020Y-6480000D02*
X9561020Y-6520000D01*
X9561020Y-6480000D02*
X9521020Y-6520000D01*
X9521020Y-6630000D02*
X9561020Y-6670000D01*
X9561020Y-6630000D02*
X9521020Y-6670000D01*
X9521020Y-9780000D02*
X9561020Y-9820000D01*
X9561020Y-9780000D02*
X9521020Y-9820000D01*
X9521020Y-9930000D02*
X9561020Y-9970000D01*
X9561020Y-9930000D02*
X9521020Y-9970000D01*
X9521020Y-13080000D02*
X9561020Y-13120000D01*
X9561020Y-13080000D02*
X9521020Y-13120000D01*
X9521020Y-13230000D02*
X9561020Y-13270000D01*
X9561020Y-13230000D02*
X9521020Y-13270000D01*
X9591020Y-6480000D02*
X9631020Y-6520000D01*
X9631020Y-6480000D02*
X9591020Y-6520000D01*
X9591020Y-6630000D02*
X9631020Y-6670000D01*
X9631020Y-6630000D02*
X9591020Y-6670000D01*
X9591020Y-9780000D02*
X9631020Y-9820000D01*
X9631020Y-9780000D02*
X9591020Y-9820000D01*
X9591020Y-9930000D02*
X9631020Y-9970000D01*
X9631020Y-9930000D02*
X9591020Y-9970000D01*
X9591020Y-13080000D02*
X9631020Y-13120000D01*
X9631020Y-13080000D02*
X9591020Y-13120000D01*
X9591020Y-13230000D02*
X9631020Y-13270000D01*
X9631020Y-13230000D02*
X9591020Y-13270000D01*
X9661020Y-6480000D02*
X9701020Y-6520000D01*
X9701020Y-6480000D02*
X9661020Y-6520000D01*
X9661020Y-6630000D02*
X9701020Y-6670000D01*
X9701020Y-6630000D02*
X9661020Y-6670000D01*
X9661020Y-9780000D02*
X9701020Y-9820000D01*
X9701020Y-9780000D02*
X9661020Y-9820000D01*
X9661020Y-9930000D02*
X9701020Y-9970000D01*
X9701020Y-9930000D02*
X9661020Y-9970000D01*
X9661020Y-13080000D02*
X9701020Y-13120000D01*
X9701020Y-13080000D02*
X9661020Y-13120000D01*
X9661020Y-13230000D02*
X9701020Y-13270000D01*
X9701020Y-13230000D02*
X9661020Y-13270000D01*
X9858590Y-6820870D02*
X9898590Y-6860870D01*
X9898590Y-6820870D02*
X9858590Y-6860870D01*
X9858590Y-10120870D02*
X9898590Y-10160870D01*
X9898590Y-10120870D02*
X9858590Y-10160870D01*
X9858590Y-13420870D02*
X9898590Y-13460870D01*
X9898590Y-13420870D02*
X9858590Y-13460870D01*
X10050100Y-6953960D02*
X10090100Y-6993960D01*
X10090100Y-6953960D02*
X10050100Y-6993960D01*
X10050100Y-10253960D02*
X10090100Y-10293960D01*
X10090100Y-10253960D02*
X10050100Y-10293960D01*
X10050100Y-13553960D02*
X10090100Y-13593960D01*
X10090100Y-13553960D02*
X10050100Y-13593960D01*
X10322240Y-5371540D02*
X10362240Y-5411540D01*
X10362240Y-5371540D02*
X10322240Y-5411540D01*
X10322240Y-5457900D02*
X10362240Y-5497900D01*
X10362240Y-5457900D02*
X10322240Y-5497900D01*
X10322240Y-8671540D02*
X10362240Y-8711540D01*
X10362240Y-8671540D02*
X10322240Y-8711540D01*
X10322240Y-8757900D02*
X10362240Y-8797900D01*
X10362240Y-8757900D02*
X10322240Y-8797900D01*
X10322240Y-11971540D02*
X10362240Y-12011540D01*
X10362240Y-11971540D02*
X10322240Y-12011540D01*
X10322240Y-12057900D02*
X10362240Y-12097900D01*
X10362240Y-12057900D02*
X10322240Y-12097900D01*
X10484800Y-5683580D02*
X10524800Y-5723580D01*
X10524800Y-5683580D02*
X10484800Y-5723580D01*
X10484800Y-8983580D02*
X10524800Y-9023580D01*
X10524800Y-8983580D02*
X10484800Y-9023580D01*
X10484800Y-12283580D02*
X10524800Y-12323580D01*
X10524800Y-12283580D02*
X10484800Y-12323580D01*
X10487340Y-5764860D02*
X10527340Y-5804860D01*
X10527340Y-5764860D02*
X10487340Y-5804860D01*
X10487340Y-9064860D02*
X10527340Y-9104860D01*
X10527340Y-9064860D02*
X10487340Y-9104860D01*
X10487340Y-12364860D02*
X10527340Y-12404860D01*
X10527340Y-12364860D02*
X10487340Y-12404860D01*
X10609260Y-6204280D02*
X10649260Y-6244280D01*
X10649260Y-6204280D02*
X10609260Y-6244280D01*
X10609260Y-9504280D02*
X10649260Y-9544280D01*
X10649260Y-9504280D02*
X10609260Y-9544280D01*
X10609260Y-12804280D02*
X10649260Y-12844280D01*
X10649260Y-12804280D02*
X10609260Y-12844280D01*
X10852340Y-6490160D02*
X10892340Y-6530160D01*
X10892340Y-6490160D02*
X10852340Y-6530160D01*
X10852340Y-6640160D02*
X10892340Y-6680160D01*
X10892340Y-6640160D02*
X10852340Y-6680160D01*
X10852340Y-9790160D02*
X10892340Y-9830160D01*
X10892340Y-9790160D02*
X10852340Y-9830160D01*
X10852340Y-9940160D02*
X10892340Y-9980160D01*
X10892340Y-9940160D02*
X10852340Y-9980160D01*
X10852340Y-13090160D02*
X10892340Y-13130160D01*
X10892340Y-13090160D02*
X10852340Y-13130160D01*
X10852340Y-13240160D02*
X10892340Y-13280160D01*
X10892340Y-13240160D02*
X10852340Y-13280160D01*
X10922340Y-6490160D02*
X10962340Y-6530160D01*
X10962340Y-6490160D02*
X10922340Y-6530160D01*
X10922340Y-6640160D02*
X10962340Y-6680160D01*
X10962340Y-6640160D02*
X10922340Y-6680160D01*
X10922340Y-9790160D02*
X10962340Y-9830160D01*
X10962340Y-9790160D02*
X10922340Y-9830160D01*
X10922340Y-9940160D02*
X10962340Y-9980160D01*
X10962340Y-9940160D02*
X10922340Y-9980160D01*
X10922340Y-13090160D02*
X10962340Y-13130160D01*
X10962340Y-13090160D02*
X10922340Y-13130160D01*
X10922340Y-13240160D02*
X10962340Y-13280160D01*
X10962340Y-13240160D02*
X10922340Y-13280160D01*
X10992340Y-6490160D02*
X11032340Y-6530160D01*
X11032340Y-6490160D02*
X10992340Y-6530160D01*
X10992340Y-6640160D02*
X11032340Y-6680160D01*
X11032340Y-6640160D02*
X10992340Y-6680160D01*
X10992340Y-9790160D02*
X11032340Y-9830160D01*
X11032340Y-9790160D02*
X10992340Y-9830160D01*
X10992340Y-9940160D02*
X11032340Y-9980160D01*
X11032340Y-9940160D02*
X10992340Y-9980160D01*
X10992340Y-13090160D02*
X11032340Y-13130160D01*
X11032340Y-13090160D02*
X10992340Y-13130160D01*
X10992340Y-13240160D02*
X11032340Y-13280160D01*
X11032340Y-13240160D02*
X10992340Y-13280160D01*
X11190920Y-6940880D02*
X11230920Y-6980880D01*
X11230920Y-6940880D02*
X11190920Y-6980880D01*
X11190920Y-10240880D02*
X11230920Y-10280880D01*
X11230920Y-10240880D02*
X11190920Y-10280880D01*
X11190920Y-13540880D02*
X11230920Y-13580880D01*
X11230920Y-13540880D02*
X11190920Y-13580880D01*
X11345860Y-5353760D02*
X11385860Y-5393760D01*
X11385860Y-5353760D02*
X11345860Y-5393760D01*
X11345860Y-5427420D02*
X11385860Y-5467420D01*
X11385860Y-5427420D02*
X11345860Y-5467420D01*
X11345860Y-8653760D02*
X11385860Y-8693760D01*
X11385860Y-8653760D02*
X11345860Y-8693760D01*
X11345860Y-8727420D02*
X11385860Y-8767420D01*
X11385860Y-8727420D02*
X11345860Y-8767420D01*
X11345860Y-11953760D02*
X11385860Y-11993760D01*
X11385860Y-11953760D02*
X11345860Y-11993760D01*
X11345860Y-12027420D02*
X11385860Y-12067420D01*
X11385860Y-12027420D02*
X11345860Y-12067420D01*
X11376340Y-7324420D02*
X11416340Y-7364420D01*
X11416340Y-7324420D02*
X11376340Y-7364420D01*
X11376340Y-10624420D02*
X11416340Y-10664420D01*
X11416340Y-10624420D02*
X11376340Y-10664420D01*
X11376340Y-13924420D02*
X11416340Y-13964420D01*
X11416340Y-13924420D02*
X11376340Y-13964420D01*
X11414440Y-5708980D02*
X11454440Y-5748980D01*
X11454440Y-5708980D02*
X11414440Y-5748980D01*
X11414440Y-5777560D02*
X11454440Y-5817560D01*
X11454440Y-5777560D02*
X11414440Y-5817560D01*
X11414440Y-7019620D02*
X11454440Y-7059620D01*
X11454440Y-7019620D02*
X11414440Y-7059620D01*
X11414440Y-9008980D02*
X11454440Y-9048980D01*
X11454440Y-9008980D02*
X11414440Y-9048980D01*
X11414440Y-9077560D02*
X11454440Y-9117560D01*
X11454440Y-9077560D02*
X11414440Y-9117560D01*
X11414440Y-10319620D02*
X11454440Y-10359620D01*
X11454440Y-10319620D02*
X11414440Y-10359620D01*
X11414440Y-12308980D02*
X11454440Y-12348980D01*
X11454440Y-12308980D02*
X11414440Y-12348980D01*
X11414440Y-12377560D02*
X11454440Y-12417560D01*
X11454440Y-12377560D02*
X11414440Y-12417560D01*
X11414440Y-13619620D02*
X11454440Y-13659620D01*
X11454440Y-13619620D02*
X11414440Y-13659620D01*
X11521120Y-6156020D02*
X11561120Y-6196020D01*
X11561120Y-6156020D02*
X11521120Y-6196020D01*
X11521120Y-9456020D02*
X11561120Y-9496020D01*
X11561120Y-9456020D02*
X11521120Y-9496020D01*
X11521120Y-12756020D02*
X11561120Y-12796020D01*
X11561120Y-12756020D02*
X11521120Y-12796020D01*
X11721020Y-6480000D02*
X11761020Y-6520000D01*
X11761020Y-6480000D02*
X11721020Y-6520000D01*
X11721020Y-6630000D02*
X11761020Y-6670000D01*
X11761020Y-6630000D02*
X11721020Y-6670000D01*
X11721020Y-9780000D02*
X11761020Y-9820000D01*
X11761020Y-9780000D02*
X11721020Y-9820000D01*
X11721020Y-9930000D02*
X11761020Y-9970000D01*
X11761020Y-9930000D02*
X11721020Y-9970000D01*
X11721020Y-13080000D02*
X11761020Y-13120000D01*
X11761020Y-13080000D02*
X11721020Y-13120000D01*
X11721020Y-13230000D02*
X11761020Y-13270000D01*
X11761020Y-13230000D02*
X11721020Y-13270000D01*
X11791020Y-6480000D02*
X11831020Y-6520000D01*
X11831020Y-6480000D02*
X11791020Y-6520000D01*
X11791020Y-6630000D02*
X11831020Y-6670000D01*
X11831020Y-6630000D02*
X11791020Y-6670000D01*
X11791020Y-9780000D02*
X11831020Y-9820000D01*
X11831020Y-9780000D02*
X11791020Y-9820000D01*
X11791020Y-9930000D02*
X11831020Y-9970000D01*
X11831020Y-9930000D02*
X11791020Y-9970000D01*
X11791020Y-13080000D02*
X11831020Y-13120000D01*
X11831020Y-13080000D02*
X11791020Y-13120000D01*
X11791020Y-13230000D02*
X11831020Y-13270000D01*
X11831020Y-13230000D02*
X11791020Y-13270000D01*
X11861020Y-6480000D02*
X11901020Y-6520000D01*
X11901020Y-6480000D02*
X11861020Y-6520000D01*
X11861020Y-6630000D02*
X11901020Y-6670000D01*
X11901020Y-6630000D02*
X11861020Y-6670000D01*
X11861020Y-9780000D02*
X11901020Y-9820000D01*
X11901020Y-9780000D02*
X11861020Y-9820000D01*
X11861020Y-9930000D02*
X11901020Y-9970000D01*
X11901020Y-9930000D02*
X11861020Y-9970000D01*
X11861020Y-13080000D02*
X11901020Y-13120000D01*
X11901020Y-13080000D02*
X11861020Y-13120000D01*
X11861020Y-13230000D02*
X11901020Y-13270000D01*
X11901020Y-13230000D02*
X11861020Y-13270000D01*
X12058590Y-6820870D02*
X12098590Y-6860870D01*
X12098590Y-6820870D02*
X12058590Y-6860870D01*
X12058590Y-10120870D02*
X12098590Y-10160870D01*
X12098590Y-10120870D02*
X12058590Y-10160870D01*
X12058590Y-13420870D02*
X12098590Y-13460870D01*
X12098590Y-13420870D02*
X12058590Y-13460870D01*
X12250100Y-6953960D02*
X12290100Y-6993960D01*
X12290100Y-6953960D02*
X12250100Y-6993960D01*
X12250100Y-10253960D02*
X12290100Y-10293960D01*
X12290100Y-10253960D02*
X12250100Y-10293960D01*
X12250100Y-13553960D02*
X12290100Y-13593960D01*
X12290100Y-13553960D02*
X12250100Y-13593960D01*
X12522240Y-5371540D02*
X12562240Y-5411540D01*
X12562240Y-5371540D02*
X12522240Y-5411540D01*
X12522240Y-5457900D02*
X12562240Y-5497900D01*
X12562240Y-5457900D02*
X12522240Y-5497900D01*
X12522240Y-8671540D02*
X12562240Y-8711540D01*
X12562240Y-8671540D02*
X12522240Y-8711540D01*
X12522240Y-8757900D02*
X12562240Y-8797900D01*
X12562240Y-8757900D02*
X12522240Y-8797900D01*
X12522240Y-11971540D02*
X12562240Y-12011540D01*
X12562240Y-11971540D02*
X12522240Y-12011540D01*
X12522240Y-12057900D02*
X12562240Y-12097900D01*
X12562240Y-12057900D02*
X12522240Y-12097900D01*
X12684800Y-5683580D02*
X12724800Y-5723580D01*
X12724800Y-5683580D02*
X12684800Y-5723580D01*
X12684800Y-8983580D02*
X12724800Y-9023580D01*
X12724800Y-8983580D02*
X12684800Y-9023580D01*
X12684800Y-12283580D02*
X12724800Y-12323580D01*
X12724800Y-12283580D02*
X12684800Y-12323580D01*
X12687340Y-5764860D02*
X12727340Y-5804860D01*
X12727340Y-5764860D02*
X12687340Y-5804860D01*
X12687340Y-9064860D02*
X12727340Y-9104860D01*
X12727340Y-9064860D02*
X12687340Y-9104860D01*
X12687340Y-12364860D02*
X12727340Y-12404860D01*
X12727340Y-12364860D02*
X12687340Y-12404860D01*
X12809260Y-6204280D02*
X12849260Y-6244280D01*
X12849260Y-6204280D02*
X12809260Y-6244280D01*
X12809260Y-9504280D02*
X12849260Y-9544280D01*
X12849260Y-9504280D02*
X12809260Y-9544280D01*
X12809260Y-12804280D02*
X12849260Y-12844280D01*
X12849260Y-12804280D02*
X12809260Y-12844280D01*
X13052340Y-6490160D02*
X13092340Y-6530160D01*
X13092340Y-6490160D02*
X13052340Y-6530160D01*
X13052340Y-6640160D02*
X13092340Y-6680160D01*
X13092340Y-6640160D02*
X13052340Y-6680160D01*
X13052340Y-9790160D02*
X13092340Y-9830160D01*
X13092340Y-9790160D02*
X13052340Y-9830160D01*
X13052340Y-9940160D02*
X13092340Y-9980160D01*
X13092340Y-9940160D02*
X13052340Y-9980160D01*
X13052340Y-13090160D02*
X13092340Y-13130160D01*
X13092340Y-13090160D02*
X13052340Y-13130160D01*
X13052340Y-13240160D02*
X13092340Y-13280160D01*
X13092340Y-13240160D02*
X13052340Y-13280160D01*
X13122340Y-6490160D02*
X13162340Y-6530160D01*
X13162340Y-6490160D02*
X13122340Y-6530160D01*
X13122340Y-6640160D02*
X13162340Y-6680160D01*
X13162340Y-6640160D02*
X13122340Y-6680160D01*
X13122340Y-9790160D02*
X13162340Y-9830160D01*
X13162340Y-9790160D02*
X13122340Y-9830160D01*
X13122340Y-9940160D02*
X13162340Y-9980160D01*
X13162340Y-9940160D02*
X13122340Y-9980160D01*
X13122340Y-13090160D02*
X13162340Y-13130160D01*
X13162340Y-13090160D02*
X13122340Y-13130160D01*
X13122340Y-13240160D02*
X13162340Y-13280160D01*
X13162340Y-13240160D02*
X13122340Y-13280160D01*
X13192340Y-6490160D02*
X13232340Y-6530160D01*
X13232340Y-6490160D02*
X13192340Y-6530160D01*
X13192340Y-6640160D02*
X13232340Y-6680160D01*
X13232340Y-6640160D02*
X13192340Y-6680160D01*
X13192340Y-9790160D02*
X13232340Y-9830160D01*
X13232340Y-9790160D02*
X13192340Y-9830160D01*
X13192340Y-9940160D02*
X13232340Y-9980160D01*
X13232340Y-9940160D02*
X13192340Y-9980160D01*
X13192340Y-13090160D02*
X13232340Y-13130160D01*
X13232340Y-13090160D02*
X13192340Y-13130160D01*
X13192340Y-13240160D02*
X13232340Y-13280160D01*
X13232340Y-13240160D02*
X13192340Y-13280160D01*
X13390920Y-6940880D02*
X13430920Y-6980880D01*
X13430920Y-6940880D02*
X13390920Y-6980880D01*
X13390920Y-10240880D02*
X13430920Y-10280880D01*
X13430920Y-10240880D02*
X13390920Y-10280880D01*
X13390920Y-13540880D02*
X13430920Y-13580880D01*
X13430920Y-13540880D02*
X13390920Y-13580880D01*
X13545860Y-5353760D02*
X13585860Y-5393760D01*
X13585860Y-5353760D02*
X13545860Y-5393760D01*
X13545860Y-5427420D02*
X13585860Y-5467420D01*
X13585860Y-5427420D02*
X13545860Y-5467420D01*
X13545860Y-8653760D02*
X13585860Y-8693760D01*
X13585860Y-8653760D02*
X13545860Y-8693760D01*
X13545860Y-8727420D02*
X13585860Y-8767420D01*
X13585860Y-8727420D02*
X13545860Y-8767420D01*
X13545860Y-11953760D02*
X13585860Y-11993760D01*
X13585860Y-11953760D02*
X13545860Y-11993760D01*
X13545860Y-12027420D02*
X13585860Y-12067420D01*
X13585860Y-12027420D02*
X13545860Y-12067420D01*
X13576340Y-7324420D02*
X13616340Y-7364420D01*
X13616340Y-7324420D02*
X13576340Y-7364420D01*
X13576340Y-10624420D02*
X13616340Y-10664420D01*
X13616340Y-10624420D02*
X13576340Y-10664420D01*
X13576340Y-13924420D02*
X13616340Y-13964420D01*
X13616340Y-13924420D02*
X13576340Y-13964420D01*
X13614440Y-5708980D02*
X13654440Y-5748980D01*
X13654440Y-5708980D02*
X13614440Y-5748980D01*
X13614440Y-5777560D02*
X13654440Y-5817560D01*
X13654440Y-5777560D02*
X13614440Y-5817560D01*
X13614440Y-7019620D02*
X13654440Y-7059620D01*
X13654440Y-7019620D02*
X13614440Y-7059620D01*
X13614440Y-9008980D02*
X13654440Y-9048980D01*
X13654440Y-9008980D02*
X13614440Y-9048980D01*
X13614440Y-9077560D02*
X13654440Y-9117560D01*
X13654440Y-9077560D02*
X13614440Y-9117560D01*
X13614440Y-10319620D02*
X13654440Y-10359620D01*
X13654440Y-10319620D02*
X13614440Y-10359620D01*
X13614440Y-12308980D02*
X13654440Y-12348980D01*
X13654440Y-12308980D02*
X13614440Y-12348980D01*
X13614440Y-12377560D02*
X13654440Y-12417560D01*
X13654440Y-12377560D02*
X13614440Y-12417560D01*
X13614440Y-13619620D02*
X13654440Y-13659620D01*
X13654440Y-13619620D02*
X13614440Y-13659620D01*
X13721120Y-6156020D02*
X13761120Y-6196020D01*
X13761120Y-6156020D02*
X13721120Y-6196020D01*
X13721120Y-9456020D02*
X13761120Y-9496020D01*
X13761120Y-9456020D02*
X13721120Y-9496020D01*
X13721120Y-12756020D02*
X13761120Y-12796020D01*
X13761120Y-12756020D02*
X13721120Y-12796020D01*
X13921020Y-6480000D02*
X13961020Y-6520000D01*
X13961020Y-6480000D02*
X13921020Y-6520000D01*
X13921020Y-6630000D02*
X13961020Y-6670000D01*
X13961020Y-6630000D02*
X13921020Y-6670000D01*
X13921020Y-9780000D02*
X13961020Y-9820000D01*
X13961020Y-9780000D02*
X13921020Y-9820000D01*
X13921020Y-9930000D02*
X13961020Y-9970000D01*
X13961020Y-9930000D02*
X13921020Y-9970000D01*
X13921020Y-13080000D02*
X13961020Y-13120000D01*
X13961020Y-13080000D02*
X13921020Y-13120000D01*
X13921020Y-13230000D02*
X13961020Y-13270000D01*
X13961020Y-13230000D02*
X13921020Y-13270000D01*
X13991020Y-6480000D02*
X14031020Y-6520000D01*
X14031020Y-6480000D02*
X13991020Y-6520000D01*
X13991020Y-6630000D02*
X14031020Y-6670000D01*
X14031020Y-6630000D02*
X13991020Y-6670000D01*
X13991020Y-9780000D02*
X14031020Y-9820000D01*
X14031020Y-9780000D02*
X13991020Y-9820000D01*
X13991020Y-9930000D02*
X14031020Y-9970000D01*
X14031020Y-9930000D02*
X13991020Y-9970000D01*
X13991020Y-13080000D02*
X14031020Y-13120000D01*
X14031020Y-13080000D02*
X13991020Y-13120000D01*
X13991020Y-13230000D02*
X14031020Y-13270000D01*
X14031020Y-13230000D02*
X13991020Y-13270000D01*
X14061020Y-6480000D02*
X14101020Y-6520000D01*
X14101020Y-6480000D02*
X14061020Y-6520000D01*
X14061020Y-6630000D02*
X14101020Y-6670000D01*
X14101020Y-6630000D02*
X14061020Y-6670000D01*
X14061020Y-9780000D02*
X14101020Y-9820000D01*
X14101020Y-9780000D02*
X14061020Y-9820000D01*
X14061020Y-9930000D02*
X14101020Y-9970000D01*
X14101020Y-9930000D02*
X14061020Y-9970000D01*
X14061020Y-13080000D02*
X14101020Y-13120000D01*
X14101020Y-13080000D02*
X14061020Y-13120000D01*
X14061020Y-13230000D02*
X14101020Y-13270000D01*
X14101020Y-13230000D02*
X14061020Y-13270000D01*
X14258590Y-6820870D02*
X14298590Y-6860870D01*
X14298590Y-6820870D02*
X14258590Y-6860870D01*
X14258590Y-10120870D02*
X14298590Y-10160870D01*
X14298590Y-10120870D02*
X14258590Y-10160870D01*
X14258590Y-13420870D02*
X14298590Y-13460870D01*
X14298590Y-13420870D02*
X14258590Y-13460870D01*
X14450100Y-6953960D02*
X14490100Y-6993960D01*
X14490100Y-6953960D02*
X14450100Y-6993960D01*
X14450100Y-10253960D02*
X14490100Y-10293960D01*
X14490100Y-10253960D02*
X14450100Y-10293960D01*
X14450100Y-13553960D02*
X14490100Y-13593960D01*
X14490100Y-13553960D02*
X14450100Y-13593960D01*
X14722240Y-5371540D02*
X14762240Y-5411540D01*
X14762240Y-5371540D02*
X14722240Y-5411540D01*
X14722240Y-5457900D02*
X14762240Y-5497900D01*
X14762240Y-5457900D02*
X14722240Y-5497900D01*
X14722240Y-8671540D02*
X14762240Y-8711540D01*
X14762240Y-8671540D02*
X14722240Y-8711540D01*
X14722240Y-8757900D02*
X14762240Y-8797900D01*
X14762240Y-8757900D02*
X14722240Y-8797900D01*
X14722240Y-11971540D02*
X14762240Y-12011540D01*
X14762240Y-11971540D02*
X14722240Y-12011540D01*
X14722240Y-12057900D02*
X14762240Y-12097900D01*
X14762240Y-12057900D02*
X14722240Y-12097900D01*
X14884800Y-5683580D02*
X14924800Y-5723580D01*
X14924800Y-5683580D02*
X14884800Y-5723580D01*
X14884800Y-8983580D02*
X14924800Y-9023580D01*
X14924800Y-8983580D02*
X14884800Y-9023580D01*
X14884800Y-12283580D02*
X14924800Y-12323580D01*
X14924800Y-12283580D02*
X14884800Y-12323580D01*
X14887340Y-5764860D02*
X14927340Y-5804860D01*
X14927340Y-5764860D02*
X14887340Y-5804860D01*
X14887340Y-9064860D02*
X14927340Y-9104860D01*
X14927340Y-9064860D02*
X14887340Y-9104860D01*
X14887340Y-12364860D02*
X14927340Y-12404860D01*
X14927340Y-12364860D02*
X14887340Y-12404860D01*
X15009260Y-6204280D02*
X15049260Y-6244280D01*
X15049260Y-6204280D02*
X15009260Y-6244280D01*
X15009260Y-9504280D02*
X15049260Y-9544280D01*
X15049260Y-9504280D02*
X15009260Y-9544280D01*
X15009260Y-12804280D02*
X15049260Y-12844280D01*
X15049260Y-12804280D02*
X15009260Y-12844280D01*
X15252340Y-6490160D02*
X15292340Y-6530160D01*
X15292340Y-6490160D02*
X15252340Y-6530160D01*
X15252340Y-6640160D02*
X15292340Y-6680160D01*
X15292340Y-6640160D02*
X15252340Y-6680160D01*
X15252340Y-9790160D02*
X15292340Y-9830160D01*
X15292340Y-9790160D02*
X15252340Y-9830160D01*
X15252340Y-9940160D02*
X15292340Y-9980160D01*
X15292340Y-9940160D02*
X15252340Y-9980160D01*
X15252340Y-13090160D02*
X15292340Y-13130160D01*
X15292340Y-13090160D02*
X15252340Y-13130160D01*
X15252340Y-13240160D02*
X15292340Y-13280160D01*
X15292340Y-13240160D02*
X15252340Y-13280160D01*
X15322340Y-6490160D02*
X15362340Y-6530160D01*
X15362340Y-6490160D02*
X15322340Y-6530160D01*
X15322340Y-6640160D02*
X15362340Y-6680160D01*
X15362340Y-6640160D02*
X15322340Y-6680160D01*
X15322340Y-9790160D02*
X15362340Y-9830160D01*
X15362340Y-9790160D02*
X15322340Y-9830160D01*
X15322340Y-9940160D02*
X15362340Y-9980160D01*
X15362340Y-9940160D02*
X15322340Y-9980160D01*
X15322340Y-13090160D02*
X15362340Y-13130160D01*
X15362340Y-13090160D02*
X15322340Y-13130160D01*
X15322340Y-13240160D02*
X15362340Y-13280160D01*
X15362340Y-13240160D02*
X15322340Y-13280160D01*
X15392340Y-6490160D02*
X15432340Y-6530160D01*
X15432340Y-6490160D02*
X15392340Y-6530160D01*
X15392340Y-6640160D02*
X15432340Y-6680160D01*
X15432340Y-6640160D02*
X15392340Y-6680160D01*
X15392340Y-9790160D02*
X15432340Y-9830160D01*
X15432340Y-9790160D02*
X15392340Y-9830160D01*
X15392340Y-9940160D02*
X15432340Y-9980160D01*
X15432340Y-9940160D02*
X15392340Y-9980160D01*
X15392340Y-13090160D02*
X15432340Y-13130160D01*
X15432340Y-13090160D02*
X15392340Y-13130160D01*
X15392340Y-13240160D02*
X15432340Y-13280160D01*
X15432340Y-13240160D02*
X15392340Y-13280160D01*
X15590920Y-6940880D02*
X15630920Y-6980880D01*
X15630920Y-6940880D02*
X15590920Y-6980880D01*
X15590920Y-10240880D02*
X15630920Y-10280880D01*
X15630920Y-10240880D02*
X15590920Y-10280880D01*
X15590920Y-13540880D02*
X15630920Y-13580880D01*
X15630920Y-13540880D02*
X15590920Y-13580880D01*
X15745860Y-5353760D02*
X15785860Y-5393760D01*
X15785860Y-5353760D02*
X15745860Y-5393760D01*
X15745860Y-5427420D02*
X15785860Y-5467420D01*
X15785860Y-5427420D02*
X15745860Y-5467420D01*
X15745860Y-8653760D02*
X15785860Y-8693760D01*
X15785860Y-8653760D02*
X15745860Y-8693760D01*
X15745860Y-8727420D02*
X15785860Y-8767420D01*
X15785860Y-8727420D02*
X15745860Y-8767420D01*
X15745860Y-11953760D02*
X15785860Y-11993760D01*
X15785860Y-11953760D02*
X15745860Y-11993760D01*
X15745860Y-12027420D02*
X15785860Y-12067420D01*
X15785860Y-12027420D02*
X15745860Y-12067420D01*
X15776340Y-7324420D02*
X15816340Y-7364420D01*
X15816340Y-7324420D02*
X15776340Y-7364420D01*
X15776340Y-10624420D02*
X15816340Y-10664420D01*
X15816340Y-10624420D02*
X15776340Y-10664420D01*
X15776340Y-13924420D02*
X15816340Y-13964420D01*
X15816340Y-13924420D02*
X15776340Y-13964420D01*
X15814440Y-5708980D02*
X15854440Y-5748980D01*
X15854440Y-5708980D02*
X15814440Y-5748980D01*
X15814440Y-5777560D02*
X15854440Y-5817560D01*
X15854440Y-5777560D02*
X15814440Y-5817560D01*
X15814440Y-7019620D02*
X15854440Y-7059620D01*
X15854440Y-7019620D02*
X15814440Y-7059620D01*
X15814440Y-9008980D02*
X15854440Y-9048980D01*
X15854440Y-9008980D02*
X15814440Y-9048980D01*
X15814440Y-9077560D02*
X15854440Y-9117560D01*
X15854440Y-9077560D02*
X15814440Y-9117560D01*
X15814440Y-10319620D02*
X15854440Y-10359620D01*
X15854440Y-10319620D02*
X15814440Y-10359620D01*
X15814440Y-12308980D02*
X15854440Y-12348980D01*
X15854440Y-12308980D02*
X15814440Y-12348980D01*
X15814440Y-12377560D02*
X15854440Y-12417560D01*
X15854440Y-12377560D02*
X15814440Y-12417560D01*
X15814440Y-13619620D02*
X15854440Y-13659620D01*
X15854440Y-13619620D02*
X15814440Y-13659620D01*
X15921120Y-6156020D02*
X15961120Y-6196020D01*
X15961120Y-6156020D02*
X15921120Y-6196020D01*
X15921120Y-9456020D02*
X15961120Y-9496020D01*
X15961120Y-9456020D02*
X15921120Y-9496020D01*
X15921120Y-12756020D02*
X15961120Y-12796020D01*
X15961120Y-12756020D02*
X15921120Y-12796020D01*
X16121020Y-6480000D02*
X16161020Y-6520000D01*
X16161020Y-6480000D02*
X16121020Y-6520000D01*
X16121020Y-6630000D02*
X16161020Y-6670000D01*
X16161020Y-6630000D02*
X16121020Y-6670000D01*
X16121020Y-9780000D02*
X16161020Y-9820000D01*
X16161020Y-9780000D02*
X16121020Y-9820000D01*
X16121020Y-9930000D02*
X16161020Y-9970000D01*
X16161020Y-9930000D02*
X16121020Y-9970000D01*
X16121020Y-13080000D02*
X16161020Y-13120000D01*
X16161020Y-13080000D02*
X16121020Y-13120000D01*
X16121020Y-13230000D02*
X16161020Y-13270000D01*
X16161020Y-13230000D02*
X16121020Y-13270000D01*
X16191020Y-6480000D02*
X16231020Y-6520000D01*
X16231020Y-6480000D02*
X16191020Y-6520000D01*
X16191020Y-6630000D02*
X16231020Y-6670000D01*
X16231020Y-6630000D02*
X16191020Y-6670000D01*
X16191020Y-9780000D02*
X16231020Y-9820000D01*
X16231020Y-9780000D02*
X16191020Y-9820000D01*
X16191020Y-9930000D02*
X16231020Y-9970000D01*
X16231020Y-9930000D02*
X16191020Y-9970000D01*
X16191020Y-13080000D02*
X16231020Y-13120000D01*
X16231020Y-13080000D02*
X16191020Y-13120000D01*
X16191020Y-13230000D02*
X16231020Y-13270000D01*
X16231020Y-13230000D02*
X16191020Y-13270000D01*
X16261020Y-6480000D02*
X16301020Y-6520000D01*
X16301020Y-6480000D02*
X16261020Y-6520000D01*
X16261020Y-6630000D02*
X16301020Y-6670000D01*
X16301020Y-6630000D02*
X16261020Y-6670000D01*
X16261020Y-9780000D02*
X16301020Y-9820000D01*
X16301020Y-9780000D02*
X16261020Y-9820000D01*
X16261020Y-9930000D02*
X16301020Y-9970000D01*
X16301020Y-9930000D02*
X16261020Y-9970000D01*
X16261020Y-13080000D02*
X16301020Y-13120000D01*
X16301020Y-13080000D02*
X16261020Y-13120000D01*
X16261020Y-13230000D02*
X16301020Y-13270000D01*
X16301020Y-13230000D02*
X16261020Y-13270000D01*
X16458590Y-6820870D02*
X16498590Y-6860870D01*
X16498590Y-6820870D02*
X16458590Y-6860870D01*
X16458590Y-10120870D02*
X16498590Y-10160870D01*
X16498590Y-10120870D02*
X16458590Y-10160870D01*
X16458590Y-13420870D02*
X16498590Y-13460870D01*
X16498590Y-13420870D02*
X16458590Y-13460870D01*
X16650100Y-6953960D02*
X16690100Y-6993960D01*
X16690100Y-6953960D02*
X16650100Y-6993960D01*
X16650100Y-10253960D02*
X16690100Y-10293960D01*
X16690100Y-10253960D02*
X16650100Y-10293960D01*
X16650100Y-13553960D02*
X16690100Y-13593960D01*
X16690100Y-13553960D02*
X16650100Y-13593960D01*
X8237960Y-4687960D02*
G75*
G03X8237960Y-4687960I-50000J0D01*
G01*
X8237960Y-7987960D02*
G75*
G03X8237960Y-7987960I-50000J0D01*
G01*
X8237960Y-11287960D02*
G75*
G03X8237960Y-11287960I-50000J0D01*
G01*
X8263360Y-7585720D02*
G75*
G03X8263360Y-7585720I-50000J0D01*
G01*
X8263360Y-10885720D02*
G75*
G03X8263360Y-10885720I-50000J0D01*
G01*
X8263360Y-14185720D02*
G75*
G03X8263360Y-14185720I-50000J0D01*
G01*
X8491960Y-4687960D02*
G75*
G03X8491960Y-4687960I-50000J0D01*
G01*
X8491960Y-7987960D02*
G75*
G03X8491960Y-7987960I-50000J0D01*
G01*
X8491960Y-11287960D02*
G75*
G03X8491960Y-11287960I-50000J0D01*
G01*
X8517360Y-7585720D02*
G75*
G03X8517360Y-7585720I-50000J0D01*
G01*
X8517360Y-10885720D02*
G75*
G03X8517360Y-10885720I-50000J0D01*
G01*
X8517360Y-14185720D02*
G75*
G03X8517360Y-14185720I-50000J0D01*
G01*
X8745960Y-4687960D02*
G75*
G03X8745960Y-4687960I-50000J0D01*
G01*
X8745960Y-7987960D02*
G75*
G03X8745960Y-7987960I-50000J0D01*
G01*
X8745960Y-11287960D02*
G75*
G03X8745960Y-11287960I-50000J0D01*
G01*
X9523200Y-7611120D02*
G75*
G03X9523200Y-7611120I-50000J0D01*
G01*
X9523200Y-10911120D02*
G75*
G03X9523200Y-10911120I-50000J0D01*
G01*
X9523200Y-14211120D02*
G75*
G03X9523200Y-14211120I-50000J0D01*
G01*
X9556220Y-4690500D02*
G75*
G03X9556220Y-4690500I-50000J0D01*
G01*
X9556220Y-7990500D02*
G75*
G03X9556220Y-7990500I-50000J0D01*
G01*
X9556220Y-11290500D02*
G75*
G03X9556220Y-11290500I-50000J0D01*
G01*
X9777200Y-7611120D02*
G75*
G03X9777200Y-7611120I-50000J0D01*
G01*
X9777200Y-10911120D02*
G75*
G03X9777200Y-10911120I-50000J0D01*
G01*
X9777200Y-14211120D02*
G75*
G03X9777200Y-14211120I-50000J0D01*
G01*
X9810220Y-4690500D02*
G75*
G03X9810220Y-4690500I-50000J0D01*
G01*
X9810220Y-7990500D02*
G75*
G03X9810220Y-7990500I-50000J0D01*
G01*
X9810220Y-11290500D02*
G75*
G03X9810220Y-11290500I-50000J0D01*
G01*
X10031200Y-7611120D02*
G75*
G03X10031200Y-7611120I-50000J0D01*
G01*
X10031200Y-10911120D02*
G75*
G03X10031200Y-10911120I-50000J0D01*
G01*
X10031200Y-14211120D02*
G75*
G03X10031200Y-14211120I-50000J0D01*
G01*
X10064220Y-4690500D02*
G75*
G03X10064220Y-4690500I-50000J0D01*
G01*
X10064220Y-7990500D02*
G75*
G03X10064220Y-7990500I-50000J0D01*
G01*
X10064220Y-11290500D02*
G75*
G03X10064220Y-11290500I-50000J0D01*
G01*
X10437960Y-4687960D02*
G75*
G03X10437960Y-4687960I-50000J0D01*
G01*
X10437960Y-7987960D02*
G75*
G03X10437960Y-7987960I-50000J0D01*
G01*
X10437960Y-11287960D02*
G75*
G03X10437960Y-11287960I-50000J0D01*
G01*
X10463360Y-7585720D02*
G75*
G03X10463360Y-7585720I-50000J0D01*
G01*
X10463360Y-10885720D02*
G75*
G03X10463360Y-10885720I-50000J0D01*
G01*
X10463360Y-14185720D02*
G75*
G03X10463360Y-14185720I-50000J0D01*
G01*
X10691960Y-4687960D02*
G75*
G03X10691960Y-4687960I-50000J0D01*
G01*
X10691960Y-7987960D02*
G75*
G03X10691960Y-7987960I-50000J0D01*
G01*
X10691960Y-11287960D02*
G75*
G03X10691960Y-11287960I-50000J0D01*
G01*
X10717360Y-7585720D02*
G75*
G03X10717360Y-7585720I-50000J0D01*
G01*
X10717360Y-10885720D02*
G75*
G03X10717360Y-10885720I-50000J0D01*
G01*
X10717360Y-14185720D02*
G75*
G03X10717360Y-14185720I-50000J0D01*
G01*
X10945960Y-4687960D02*
G75*
G03X10945960Y-4687960I-50000J0D01*
G01*
X10945960Y-7987960D02*
G75*
G03X10945960Y-7987960I-50000J0D01*
G01*
X10945960Y-11287960D02*
G75*
G03X10945960Y-11287960I-50000J0D01*
G01*
X11723200Y-7611120D02*
G75*
G03X11723200Y-7611120I-50000J0D01*
G01*
X11723200Y-10911120D02*
G75*
G03X11723200Y-10911120I-50000J0D01*
G01*
X11723200Y-14211120D02*
G75*
G03X11723200Y-14211120I-50000J0D01*
G01*
X11756220Y-4690500D02*
G75*
G03X11756220Y-4690500I-50000J0D01*
G01*
X11756220Y-7990500D02*
G75*
G03X11756220Y-7990500I-50000J0D01*
G01*
X11756220Y-11290500D02*
G75*
G03X11756220Y-11290500I-50000J0D01*
G01*
X11977200Y-7611120D02*
G75*
G03X11977200Y-7611120I-50000J0D01*
G01*
X11977200Y-10911120D02*
G75*
G03X11977200Y-10911120I-50000J0D01*
G01*
X11977200Y-14211120D02*
G75*
G03X11977200Y-14211120I-50000J0D01*
G01*
X12010220Y-4690500D02*
G75*
G03X12010220Y-4690500I-50000J0D01*
G01*
X12010220Y-7990500D02*
G75*
G03X12010220Y-7990500I-50000J0D01*
G01*
X12010220Y-11290500D02*
G75*
G03X12010220Y-11290500I-50000J0D01*
G01*
X12231200Y-7611120D02*
G75*
G03X12231200Y-7611120I-50000J0D01*
G01*
X12231200Y-10911120D02*
G75*
G03X12231200Y-10911120I-50000J0D01*
G01*
X12231200Y-14211120D02*
G75*
G03X12231200Y-14211120I-50000J0D01*
G01*
X12264220Y-4690500D02*
G75*
G03X12264220Y-4690500I-50000J0D01*
G01*
X12264220Y-7990500D02*
G75*
G03X12264220Y-7990500I-50000J0D01*
G01*
X12264220Y-11290500D02*
G75*
G03X12264220Y-11290500I-50000J0D01*
G01*
X12637960Y-4687960D02*
G75*
G03X12637960Y-4687960I-50000J0D01*
G01*
X12637960Y-7987960D02*
G75*
G03X12637960Y-7987960I-50000J0D01*
G01*
X12637960Y-11287960D02*
G75*
G03X12637960Y-11287960I-50000J0D01*
G01*
X12663360Y-7585720D02*
G75*
G03X12663360Y-7585720I-50000J0D01*
G01*
X12663360Y-10885720D02*
G75*
G03X12663360Y-10885720I-50000J0D01*
G01*
X12663360Y-14185720D02*
G75*
G03X12663360Y-14185720I-50000J0D01*
G01*
X12891960Y-4687960D02*
G75*
G03X12891960Y-4687960I-50000J0D01*
G01*
X12891960Y-7987960D02*
G75*
G03X12891960Y-7987960I-50000J0D01*
G01*
X12891960Y-11287960D02*
G75*
G03X12891960Y-11287960I-50000J0D01*
G01*
X12917360Y-7585720D02*
G75*
G03X12917360Y-7585720I-50000J0D01*
G01*
X12917360Y-10885720D02*
G75*
G03X12917360Y-10885720I-50000J0D01*
G01*
X12917360Y-14185720D02*
G75*
G03X12917360Y-14185720I-50000J0D01*
G01*
X13145960Y-4687960D02*
G75*
G03X13145960Y-4687960I-50000J0D01*
G01*
X13145960Y-7987960D02*
G75*
G03X13145960Y-7987960I-50000J0D01*
G01*
X13145960Y-11287960D02*
G75*
G03X13145960Y-11287960I-50000J0D01*
G01*
X13923200Y-7611120D02*
G75*
G03X13923200Y-7611120I-50000J0D01*
G01*
X13923200Y-10911120D02*
G75*
G03X13923200Y-10911120I-50000J0D01*
G01*
X13923200Y-14211120D02*
G75*
G03X13923200Y-14211120I-50000J0D01*
G01*
X13956220Y-4690500D02*
G75*
G03X13956220Y-4690500I-50000J0D01*
G01*
X13956220Y-7990500D02*
G75*
G03X13956220Y-7990500I-50000J0D01*
G01*
X13956220Y-11290500D02*
G75*
G03X13956220Y-11290500I-50000J0D01*
G01*
X14177200Y-7611120D02*
G75*
G03X14177200Y-7611120I-50000J0D01*
G01*
X14177200Y-10911120D02*
G75*
G03X14177200Y-10911120I-50000J0D01*
G01*
X14177200Y-14211120D02*
G75*
G03X14177200Y-14211120I-50000J0D01*
G01*
X14210220Y-4690500D02*
G75*
G03X14210220Y-4690500I-50000J0D01*
G01*
X14210220Y-7990500D02*
G75*
G03X14210220Y-7990500I-50000J0D01*
G01*
X14210220Y-11290500D02*
G75*
G03X14210220Y-11290500I-50000J0D01*
G01*
X14431200Y-7611120D02*
G75*
G03X14431200Y-7611120I-50000J0D01*
G01*
X14431200Y-10911120D02*
G75*
G03X14431200Y-10911120I-50000J0D01*
G01*
X14431200Y-14211120D02*
G75*
G03X14431200Y-14211120I-50000J0D01*
G01*
X14464220Y-4690500D02*
G75*
G03X14464220Y-4690500I-50000J0D01*
G01*
X14464220Y-7990500D02*
G75*
G03X14464220Y-7990500I-50000J0D01*
G01*
X14464220Y-11290500D02*
G75*
G03X14464220Y-11290500I-50000J0D01*
G01*
X14837960Y-4687960D02*
G75*
G03X14837960Y-4687960I-50000J0D01*
G01*
X14837960Y-7987960D02*
G75*
G03X14837960Y-7987960I-50000J0D01*
G01*
X14837960Y-11287960D02*
G75*
G03X14837960Y-11287960I-50000J0D01*
G01*
X14863360Y-7585720D02*
G75*
G03X14863360Y-7585720I-50000J0D01*
G01*
X14863360Y-10885720D02*
G75*
G03X14863360Y-10885720I-50000J0D01*
G01*
X14863360Y-14185720D02*
G75*
G03X14863360Y-14185720I-50000J0D01*
G01*
X15091960Y-4687960D02*
G75*
G03X15091960Y-4687960I-50000J0D01*
G01*
X15091960Y-7987960D02*
G75*
G03X15091960Y-7987960I-50000J0D01*
G01*
X15091960Y-11287960D02*
G75*
G03X15091960Y-11287960I-50000J0D01*
G01*
X15117360Y-7585720D02*
G75*
G03X15117360Y-7585720I-50000J0D01*
G01*
X15117360Y-10885720D02*
G75*
G03X15117360Y-10885720I-50000J0D01*
G01*
X15117360Y-14185720D02*
G75*
G03X15117360Y-14185720I-50000J0D01*
G01*
X15345960Y-4687960D02*
G75*
G03X15345960Y-4687960I-50000J0D01*
G01*
X15345960Y-7987960D02*
G75*
G03X15345960Y-7987960I-50000J0D01*
G01*
X15345960Y-11287960D02*
G75*
G03X15345960Y-11287960I-50000J0D01*
G01*
X16123200Y-7611120D02*
G75*
G03X16123200Y-7611120I-50000J0D01*
G01*
X16123200Y-10911120D02*
G75*
G03X16123200Y-10911120I-50000J0D01*
G01*
X16123200Y-14211120D02*
G75*
G03X16123200Y-14211120I-50000J0D01*
G01*
X16156220Y-4690500D02*
G75*
G03X16156220Y-4690500I-50000J0D01*
G01*
X16156220Y-7990500D02*
G75*
G03X16156220Y-7990500I-50000J0D01*
G01*
X16156220Y-11290500D02*
G75*
G03X16156220Y-11290500I-50000J0D01*
G01*
X16377200Y-7611120D02*
G75*
G03X16377200Y-7611120I-50000J0D01*
G01*
X16377200Y-10911120D02*
G75*
G03X16377200Y-10911120I-50000J0D01*
G01*
X16377200Y-14211120D02*
G75*
G03X16377200Y-14211120I-50000J0D01*
G01*
X16410220Y-4690500D02*
G75*
G03X16410220Y-4690500I-50000J0D01*
G01*
X16410220Y-7990500D02*
G75*
G03X16410220Y-7990500I-50000J0D01*
G01*
X16410220Y-11290500D02*
G75*
G03X16410220Y-11290500I-50000J0D01*
G01*
X16631200Y-7611120D02*
G75*
G03X16631200Y-7611120I-50000J0D01*
G01*
X16631200Y-10911120D02*
G75*
G03X16631200Y-10911120I-50000J0D01*
G01*
X16631200Y-14211120D02*
G75*
G03X16631200Y-14211120I-50000J0D01*
G01*
X16664220Y-4690500D02*
G75*
G03X16664220Y-4690500I-50000J0D01*
G01*
X16664220Y-7990500D02*
G75*
G03X16664220Y-7990500I-50000J0D01*
G01*
X16664220Y-11290500D02*
G75*
G03X16664220Y-11290500I-50000J0D01*
G01*
D13*
X8263928Y-14873214D02*
X8263928Y-14573214D01*
X8335357Y-14573214D01*
X8378214Y-14587500D01*
X8406786Y-14616071D01*
X8421071Y-14644643D01*
X8435357Y-14701786D01*
X8435357Y-14744643D01*
X8421071Y-14801786D01*
X8406786Y-14830357D01*
X8378214Y-14858929D01*
X8335357Y-14873214D01*
X8263928Y-14873214D01*
X8563929Y-14873214D02*
X8563929Y-14673214D01*
X8563929Y-14730357D02*
X8578214Y-14701786D01*
X8592500Y-14687500D01*
X8621071Y-14673214D01*
X8649643Y-14673214D01*
X8749643Y-14873214D02*
X8749643Y-14673214D01*
X8749643Y-14573214D02*
X8735357Y-14587500D01*
X8749643Y-14601786D01*
X8763929Y-14587500D01*
X8749643Y-14573214D01*
X8749643Y-14601786D01*
X8935357Y-14873214D02*
X8906786Y-14858929D01*
X8892500Y-14830357D01*
X8892500Y-14573214D01*
X9092500Y-14873214D02*
X9063929Y-14858929D01*
X9049643Y-14830357D01*
X9049643Y-14573214D01*
X9435357Y-14873214D02*
X9435357Y-14573214D01*
X9535357Y-14787500D01*
X9635357Y-14573214D01*
X9635357Y-14873214D01*
X9906786Y-14873214D02*
X9906786Y-14716071D01*
X9892500Y-14687500D01*
X9863929Y-14673214D01*
X9806786Y-14673214D01*
X9778214Y-14687500D01*
X9906786Y-14858929D02*
X9878214Y-14873214D01*
X9806786Y-14873214D01*
X9778214Y-14858929D01*
X9763929Y-14830357D01*
X9763929Y-14801786D01*
X9778214Y-14773214D01*
X9806786Y-14758929D01*
X9878214Y-14758929D01*
X9906786Y-14744643D01*
X10049643Y-14673214D02*
X10049643Y-14973214D01*
X10049643Y-14687500D02*
X10078214Y-14673214D01*
X10135357Y-14673214D01*
X10163929Y-14687500D01*
X10178214Y-14701786D01*
X10192500Y-14730357D01*
X10192500Y-14816071D01*
X10178214Y-14844643D01*
X10163929Y-14858929D01*
X10135357Y-14873214D01*
X10078214Y-14873214D01*
X10049643Y-14858929D01*
X10321071Y-14844643D02*
X10335357Y-14858929D01*
X10321071Y-14873214D01*
X10306786Y-14858929D01*
X10321071Y-14844643D01*
X10321071Y-14873214D01*
X10321071Y-14687500D02*
X10335357Y-14701786D01*
X10321071Y-14716071D01*
X10306786Y-14701786D01*
X10321071Y-14687500D01*
X10321071Y-14716071D01*
X7952500Y-15347500D02*
X7992500Y-15387500D01*
X7992500Y-15347500D02*
X7952500Y-15387500D01*
X8321071Y-15203214D02*
X8349643Y-15203214D01*
X8378214Y-15217500D01*
X8392500Y-15231786D01*
X8406786Y-15260357D01*
X8421071Y-15317500D01*
X8421071Y-15388929D01*
X8406786Y-15446071D01*
X8392500Y-15474643D01*
X8378214Y-15488929D01*
X8349643Y-15503214D01*
X8321071Y-15503214D01*
X8292500Y-15488929D01*
X8278214Y-15474643D01*
X8263928Y-15446071D01*
X8249643Y-15388929D01*
X8249643Y-15317500D01*
X8263928Y-15260357D01*
X8278214Y-15231786D01*
X8292500Y-15217500D01*
X8321071Y-15203214D01*
X8549643Y-15474643D02*
X8563929Y-15488929D01*
X8549643Y-15503214D01*
X8535357Y-15488929D01*
X8549643Y-15474643D01*
X8549643Y-15503214D01*
X8821071Y-15303214D02*
X8821071Y-15503214D01*
X8749643Y-15188929D02*
X8678214Y-15403214D01*
X8863928Y-15403214D01*
X9035357Y-15203214D02*
X9063929Y-15203214D01*
X9092500Y-15217500D01*
X9106786Y-15231786D01*
X9121071Y-15260357D01*
X9135357Y-15317500D01*
X9135357Y-15388929D01*
X9121071Y-15446071D01*
X9106786Y-15474643D01*
X9092500Y-15488929D01*
X9063929Y-15503214D01*
X9035357Y-15503214D01*
X9006786Y-15488929D01*
X8992500Y-15474643D01*
X8978214Y-15446071D01*
X8963929Y-15388929D01*
X8963929Y-15317500D01*
X8978214Y-15260357D01*
X8992500Y-15231786D01*
X9006786Y-15217500D01*
X9035357Y-15203214D01*
X9263929Y-15503214D02*
X9263929Y-15303214D01*
X9263929Y-15331786D02*
X9278214Y-15317500D01*
X9306786Y-15303214D01*
X9349643Y-15303214D01*
X9378214Y-15317500D01*
X9392500Y-15346071D01*
X9392500Y-15503214D01*
X9392500Y-15346071D02*
X9406786Y-15317500D01*
X9435357Y-15303214D01*
X9478214Y-15303214D01*
X9506786Y-15317500D01*
X9521071Y-15346071D01*
X9521071Y-15503214D01*
X9663929Y-15503214D02*
X9663929Y-15303214D01*
X9663929Y-15331786D02*
X9678214Y-15317500D01*
X9706786Y-15303214D01*
X9749643Y-15303214D01*
X9778214Y-15317500D01*
X9792500Y-15346071D01*
X9792500Y-15503214D01*
X9792500Y-15346071D02*
X9806786Y-15317500D01*
X9835357Y-15303214D01*
X9878214Y-15303214D01*
X9906786Y-15317500D01*
X9921071Y-15346071D01*
X9921071Y-15503214D01*
X10506786Y-15188929D02*
X10249643Y-15574643D01*
X10892500Y-15203214D02*
X10921071Y-15203214D01*
X10949643Y-15217500D01*
X10963928Y-15231786D01*
X10978214Y-15260357D01*
X10992500Y-15317500D01*
X10992500Y-15388929D01*
X10978214Y-15446071D01*
X10963928Y-15474643D01*
X10949643Y-15488929D01*
X10921071Y-15503214D01*
X10892500Y-15503214D01*
X10863928Y-15488929D01*
X10849643Y-15474643D01*
X10835357Y-15446071D01*
X10821071Y-15388929D01*
X10821071Y-15317500D01*
X10835357Y-15260357D01*
X10849643Y-15231786D01*
X10863928Y-15217500D01*
X10892500Y-15203214D01*
X11121071Y-15474643D02*
X11135357Y-15488929D01*
X11121071Y-15503214D01*
X11106786Y-15488929D01*
X11121071Y-15474643D01*
X11121071Y-15503214D01*
X11321071Y-15203214D02*
X11349643Y-15203214D01*
X11378214Y-15217500D01*
X11392500Y-15231786D01*
X11406785Y-15260357D01*
X11421071Y-15317500D01*
X11421071Y-15388929D01*
X11406785Y-15446071D01*
X11392500Y-15474643D01*
X11378214Y-15488929D01*
X11349643Y-15503214D01*
X11321071Y-15503214D01*
X11292500Y-15488929D01*
X11278214Y-15474643D01*
X11263928Y-15446071D01*
X11249643Y-15388929D01*
X11249643Y-15317500D01*
X11263928Y-15260357D01*
X11278214Y-15231786D01*
X11292500Y-15217500D01*
X11321071Y-15203214D01*
X11706785Y-15503214D02*
X11535357Y-15503214D01*
X11621071Y-15503214D02*
X11621071Y-15203214D01*
X11592500Y-15246071D01*
X11563928Y-15274643D01*
X11535357Y-15288929D01*
X11963928Y-15203214D02*
X11906785Y-15203214D01*
X11878214Y-15217500D01*
X11863928Y-15231786D01*
X11835357Y-15274643D01*
X11821071Y-15331786D01*
X11821071Y-15446071D01*
X11835357Y-15474643D01*
X11849643Y-15488929D01*
X11878214Y-15503214D01*
X11935357Y-15503214D01*
X11963928Y-15488929D01*
X11978214Y-15474643D01*
X11992500Y-15446071D01*
X11992500Y-15374643D01*
X11978214Y-15346071D01*
X11963928Y-15331786D01*
X11935357Y-15317500D01*
X11878214Y-15317500D01*
X11849643Y-15331786D01*
X11835357Y-15346071D01*
X11821071Y-15374643D01*
X12106786Y-15203214D02*
X12106786Y-15260357D01*
X12221071Y-15203214D02*
X12221071Y-15260357D01*
X12663928Y-15617500D02*
X12649643Y-15603214D01*
X12621071Y-15560357D01*
X12606785Y-15531786D01*
X12592500Y-15488929D01*
X12578214Y-15417500D01*
X12578214Y-15360357D01*
X12592500Y-15288929D01*
X12606785Y-15246071D01*
X12621071Y-15217500D01*
X12649643Y-15174643D01*
X12663928Y-15160357D01*
X12749643Y-15203214D02*
X12935357Y-15203214D01*
X12835357Y-15317500D01*
X12878214Y-15317500D01*
X12906785Y-15331786D01*
X12921071Y-15346071D01*
X12935357Y-15374643D01*
X12935357Y-15446071D01*
X12921071Y-15474643D01*
X12906785Y-15488929D01*
X12878214Y-15503214D01*
X12792500Y-15503214D01*
X12763928Y-15488929D01*
X12749643Y-15474643D01*
X13049643Y-15231786D02*
X13063928Y-15217500D01*
X13092500Y-15203214D01*
X13163928Y-15203214D01*
X13192500Y-15217500D01*
X13206785Y-15231786D01*
X13221071Y-15260357D01*
X13221071Y-15288929D01*
X13206785Y-15331786D01*
X13035357Y-15503214D01*
X13221071Y-15503214D01*
X13478214Y-15303214D02*
X13478214Y-15503214D01*
X13406785Y-15188929D02*
X13335357Y-15403214D01*
X13521071Y-15403214D01*
X13863928Y-15503214D02*
X13863928Y-15203214D01*
X13992500Y-15503214D02*
X13992500Y-15346071D01*
X13978214Y-15317500D01*
X13949643Y-15303214D01*
X13906785Y-15303214D01*
X13878214Y-15317500D01*
X13863928Y-15331786D01*
X14178214Y-15503214D02*
X14149643Y-15488929D01*
X14135357Y-15474643D01*
X14121071Y-15446071D01*
X14121071Y-15360357D01*
X14135357Y-15331786D01*
X14149643Y-15317500D01*
X14178214Y-15303214D01*
X14221071Y-15303214D01*
X14249643Y-15317500D01*
X14263928Y-15331786D01*
X14278214Y-15360357D01*
X14278214Y-15446071D01*
X14263928Y-15474643D01*
X14249643Y-15488929D01*
X14221071Y-15503214D01*
X14178214Y-15503214D01*
X14449643Y-15503214D02*
X14421071Y-15488929D01*
X14406786Y-15460357D01*
X14406786Y-15203214D01*
X14678214Y-15488929D02*
X14649643Y-15503214D01*
X14592500Y-15503214D01*
X14563928Y-15488929D01*
X14549643Y-15460357D01*
X14549643Y-15346071D01*
X14563928Y-15317500D01*
X14592500Y-15303214D01*
X14649643Y-15303214D01*
X14678214Y-15317500D01*
X14692500Y-15346071D01*
X14692500Y-15374643D01*
X14549643Y-15403214D01*
X14806786Y-15488929D02*
X14835357Y-15503214D01*
X14892500Y-15503214D01*
X14921071Y-15488929D01*
X14935357Y-15460357D01*
X14935357Y-15446071D01*
X14921071Y-15417500D01*
X14892500Y-15403214D01*
X14849643Y-15403214D01*
X14821071Y-15388929D01*
X14806786Y-15360357D01*
X14806786Y-15346071D01*
X14821071Y-15317500D01*
X14849643Y-15303214D01*
X14892500Y-15303214D01*
X14921071Y-15317500D01*
X15035357Y-15617500D02*
X15049643Y-15603214D01*
X15078214Y-15560357D01*
X15092500Y-15531786D01*
X15106786Y-15488929D01*
X15121071Y-15417500D01*
X15121071Y-15360357D01*
X15106786Y-15288929D01*
X15092500Y-15246071D01*
X15078214Y-15217500D01*
X15049643Y-15174643D01*
X15035357Y-15160357D01*
X7992500Y-15763500D02*
G75*
G03X7992500Y-15763500I-50000J0D01*
G01*
X8421071Y-15899214D02*
X8249643Y-15899214D01*
X8335357Y-15899214D02*
X8335357Y-15599214D01*
X8306786Y-15642071D01*
X8278214Y-15670643D01*
X8249643Y-15684929D01*
X8549643Y-15870643D02*
X8563929Y-15884929D01*
X8549643Y-15899214D01*
X8535357Y-15884929D01*
X8549643Y-15870643D01*
X8549643Y-15899214D01*
X8749643Y-15599214D02*
X8778214Y-15599214D01*
X8806786Y-15613500D01*
X8821071Y-15627786D01*
X8835357Y-15656357D01*
X8849643Y-15713500D01*
X8849643Y-15784929D01*
X8835357Y-15842071D01*
X8821071Y-15870643D01*
X8806786Y-15884929D01*
X8778214Y-15899214D01*
X8749643Y-15899214D01*
X8721071Y-15884929D01*
X8706786Y-15870643D01*
X8692500Y-15842071D01*
X8678214Y-15784929D01*
X8678214Y-15713500D01*
X8692500Y-15656357D01*
X8706786Y-15627786D01*
X8721071Y-15613500D01*
X8749643Y-15599214D01*
X9035357Y-15599214D02*
X9063929Y-15599214D01*
X9092500Y-15613500D01*
X9106786Y-15627786D01*
X9121071Y-15656357D01*
X9135357Y-15713500D01*
X9135357Y-15784929D01*
X9121071Y-15842071D01*
X9106786Y-15870643D01*
X9092500Y-15884929D01*
X9063929Y-15899214D01*
X9035357Y-15899214D01*
X9006786Y-15884929D01*
X8992500Y-15870643D01*
X8978214Y-15842071D01*
X8963929Y-15784929D01*
X8963929Y-15713500D01*
X8978214Y-15656357D01*
X8992500Y-15627786D01*
X9006786Y-15613500D01*
X9035357Y-15599214D01*
X9263929Y-15899214D02*
X9263929Y-15699214D01*
X9263929Y-15727786D02*
X9278214Y-15713500D01*
X9306786Y-15699214D01*
X9349643Y-15699214D01*
X9378214Y-15713500D01*
X9392500Y-15742071D01*
X9392500Y-15899214D01*
X9392500Y-15742071D02*
X9406786Y-15713500D01*
X9435357Y-15699214D01*
X9478214Y-15699214D01*
X9506786Y-15713500D01*
X9521071Y-15742071D01*
X9521071Y-15899214D01*
X9663929Y-15899214D02*
X9663929Y-15699214D01*
X9663929Y-15727786D02*
X9678214Y-15713500D01*
X9706786Y-15699214D01*
X9749643Y-15699214D01*
X9778214Y-15713500D01*
X9792500Y-15742071D01*
X9792500Y-15899214D01*
X9792500Y-15742071D02*
X9806786Y-15713500D01*
X9835357Y-15699214D01*
X9878214Y-15699214D01*
X9906786Y-15713500D01*
X9921071Y-15742071D01*
X9921071Y-15899214D01*
X10506786Y-15584929D02*
X10249643Y-15970643D01*
X10892500Y-15599214D02*
X10921071Y-15599214D01*
X10949643Y-15613500D01*
X10963928Y-15627786D01*
X10978214Y-15656357D01*
X10992500Y-15713500D01*
X10992500Y-15784929D01*
X10978214Y-15842071D01*
X10963928Y-15870643D01*
X10949643Y-15884929D01*
X10921071Y-15899214D01*
X10892500Y-15899214D01*
X10863928Y-15884929D01*
X10849643Y-15870643D01*
X10835357Y-15842071D01*
X10821071Y-15784929D01*
X10821071Y-15713500D01*
X10835357Y-15656357D01*
X10849643Y-15627786D01*
X10863928Y-15613500D01*
X10892500Y-15599214D01*
X11121071Y-15870643D02*
X11135357Y-15884929D01*
X11121071Y-15899214D01*
X11106786Y-15884929D01*
X11121071Y-15870643D01*
X11121071Y-15899214D01*
X11321071Y-15599214D02*
X11349643Y-15599214D01*
X11378214Y-15613500D01*
X11392500Y-15627786D01*
X11406785Y-15656357D01*
X11421071Y-15713500D01*
X11421071Y-15784929D01*
X11406785Y-15842071D01*
X11392500Y-15870643D01*
X11378214Y-15884929D01*
X11349643Y-15899214D01*
X11321071Y-15899214D01*
X11292500Y-15884929D01*
X11278214Y-15870643D01*
X11263928Y-15842071D01*
X11249643Y-15784929D01*
X11249643Y-15713500D01*
X11263928Y-15656357D01*
X11278214Y-15627786D01*
X11292500Y-15613500D01*
X11321071Y-15599214D01*
X11521071Y-15599214D02*
X11706785Y-15599214D01*
X11606785Y-15713500D01*
X11649643Y-15713500D01*
X11678214Y-15727786D01*
X11692500Y-15742071D01*
X11706785Y-15770643D01*
X11706785Y-15842071D01*
X11692500Y-15870643D01*
X11678214Y-15884929D01*
X11649643Y-15899214D01*
X11563928Y-15899214D01*
X11535357Y-15884929D01*
X11521071Y-15870643D01*
X11849643Y-15899214D02*
X11906785Y-15899214D01*
X11935357Y-15884929D01*
X11949643Y-15870643D01*
X11978214Y-15827786D01*
X11992500Y-15770643D01*
X11992500Y-15656357D01*
X11978214Y-15627786D01*
X11963928Y-15613500D01*
X11935357Y-15599214D01*
X11878214Y-15599214D01*
X11849643Y-15613500D01*
X11835357Y-15627786D01*
X11821071Y-15656357D01*
X11821071Y-15727786D01*
X11835357Y-15756357D01*
X11849643Y-15770643D01*
X11878214Y-15784929D01*
X11935357Y-15784929D01*
X11963928Y-15770643D01*
X11978214Y-15756357D01*
X11992500Y-15727786D01*
X12106786Y-15599214D02*
X12106786Y-15656357D01*
X12221071Y-15599214D02*
X12221071Y-15656357D01*
X12663928Y-16013500D02*
X12649643Y-15999214D01*
X12621071Y-15956357D01*
X12606785Y-15927786D01*
X12592500Y-15884929D01*
X12578214Y-15813500D01*
X12578214Y-15756357D01*
X12592500Y-15684929D01*
X12606785Y-15642071D01*
X12621071Y-15613500D01*
X12649643Y-15570643D01*
X12663928Y-15556357D01*
X12935357Y-15899214D02*
X12763928Y-15899214D01*
X12849643Y-15899214D02*
X12849643Y-15599214D01*
X12821071Y-15642071D01*
X12792500Y-15670643D01*
X12763928Y-15684929D01*
X13035357Y-15599214D02*
X13221071Y-15599214D01*
X13121071Y-15713500D01*
X13163928Y-15713500D01*
X13192500Y-15727786D01*
X13206785Y-15742071D01*
X13221071Y-15770643D01*
X13221071Y-15842071D01*
X13206785Y-15870643D01*
X13192500Y-15884929D01*
X13163928Y-15899214D01*
X13078214Y-15899214D01*
X13049643Y-15884929D01*
X13035357Y-15870643D01*
X13335357Y-15627786D02*
X13349643Y-15613500D01*
X13378214Y-15599214D01*
X13449643Y-15599214D01*
X13478214Y-15613500D01*
X13492500Y-15627786D01*
X13506785Y-15656357D01*
X13506785Y-15684929D01*
X13492500Y-15727786D01*
X13321071Y-15899214D01*
X13506785Y-15899214D01*
X13863928Y-15899214D02*
X13863928Y-15599214D01*
X13992500Y-15899214D02*
X13992500Y-15742071D01*
X13978214Y-15713500D01*
X13949643Y-15699214D01*
X13906785Y-15699214D01*
X13878214Y-15713500D01*
X13863928Y-15727786D01*
X14178214Y-15899214D02*
X14149643Y-15884929D01*
X14135357Y-15870643D01*
X14121071Y-15842071D01*
X14121071Y-15756357D01*
X14135357Y-15727786D01*
X14149643Y-15713500D01*
X14178214Y-15699214D01*
X14221071Y-15699214D01*
X14249643Y-15713500D01*
X14263928Y-15727786D01*
X14278214Y-15756357D01*
X14278214Y-15842071D01*
X14263928Y-15870643D01*
X14249643Y-15884929D01*
X14221071Y-15899214D01*
X14178214Y-15899214D01*
X14449643Y-15899214D02*
X14421071Y-15884929D01*
X14406786Y-15856357D01*
X14406786Y-15599214D01*
X14678214Y-15884929D02*
X14649643Y-15899214D01*
X14592500Y-15899214D01*
X14563928Y-15884929D01*
X14549643Y-15856357D01*
X14549643Y-15742071D01*
X14563928Y-15713500D01*
X14592500Y-15699214D01*
X14649643Y-15699214D01*
X14678214Y-15713500D01*
X14692500Y-15742071D01*
X14692500Y-15770643D01*
X14549643Y-15799214D01*
X14806786Y-15884929D02*
X14835357Y-15899214D01*
X14892500Y-15899214D01*
X14921071Y-15884929D01*
X14935357Y-15856357D01*
X14935357Y-15842071D01*
X14921071Y-15813500D01*
X14892500Y-15799214D01*
X14849643Y-15799214D01*
X14821071Y-15784929D01*
X14806786Y-15756357D01*
X14806786Y-15742071D01*
X14821071Y-15713500D01*
X14849643Y-15699214D01*
X14892500Y-15699214D01*
X14921071Y-15713500D01*
X15035357Y-16013500D02*
X15049643Y-15999214D01*
X15078214Y-15956357D01*
X15092500Y-15927786D01*
X15106786Y-15884929D01*
X15121071Y-15813500D01*
X15121071Y-15756357D01*
X15106786Y-15684929D01*
X15092500Y-15642071D01*
X15078214Y-15613500D01*
X15049643Y-15570643D01*
X15035357Y-15556357D01*
M02*
