G04 #@! TF.FileFunction,Copper,L1,Top,Signal*
%FSLAX46Y46*%
G04 Gerber Fmt 4.6, Leading zero omitted, Abs format (unit mm)*
G04 Created by KiCad (PCBNEW 4.0.2-stable) date 11/12/2017 10:54:40 AM*
%MOMM*%
G01*
G04 APERTURE LIST*
%ADD10C,0.100000*%
%ADD11C,0.150000*%
%ADD12R,0.900000X1.700000*%
%ADD13R,1.700000X1.700000*%
%ADD14O,1.700000X1.700000*%
%ADD15R,0.700000X1.300000*%
%ADD16R,1.000000X1.250000*%
%ADD17C,0.600000*%
%ADD18R,1.600000X1.000000*%
%ADD19R,1.250000X1.000000*%
%ADD20R,1.300000X0.700000*%
%ADD21R,2.500000X1.800000*%
%ADD22R,0.900000X2.500000*%
%ADD23R,0.600000X1.550000*%
%ADD24R,1.175000X1.175000*%
%ADD25R,2.150000X5.500000*%
%ADD26C,0.750000*%
%ADD27C,1.000000*%
%ADD28C,0.250000*%
%ADD29C,0.500000*%
%ADD30C,1.500000*%
%ADD31C,0.254000*%
G04 APERTURE END LIST*
D10*
D11*
X102000000Y-111000000D02*
X102000000Y-144000000D01*
X124000000Y-111000000D02*
X124000000Y-144000000D01*
X124000000Y-144000000D02*
X124000000Y-111000000D01*
X124000000Y-144000000D02*
X102000000Y-144000000D01*
X102000000Y-144000000D02*
X80000000Y-144000000D01*
X80000000Y-144000000D02*
X80000000Y-111000000D01*
X102000000Y-144000000D02*
X102000000Y-111000000D01*
X102000000Y-111000000D02*
X124000000Y-111000000D01*
X124000000Y-111000000D02*
X102000000Y-111000000D01*
X80000000Y-111000000D02*
X102000000Y-111000000D01*
X102000000Y-111000000D02*
X80000000Y-111000000D01*
X146000000Y-144000000D02*
X146000000Y-111000000D01*
X146000000Y-144000000D02*
X124000000Y-144000000D01*
X146000000Y-111000000D02*
X146000000Y-144000000D01*
X168000000Y-144000000D02*
X146000000Y-144000000D01*
X168000000Y-111000000D02*
X168000000Y-144000000D01*
X168000000Y-111000000D02*
X146000000Y-111000000D01*
X124000000Y-111000000D02*
X146000000Y-111000000D01*
X146000000Y-111000000D02*
X168000000Y-111000000D01*
X146000000Y-111000000D02*
X124000000Y-111000000D01*
X146000000Y-78000000D02*
X146000000Y-111000000D01*
X168000000Y-111000000D02*
X146000000Y-111000000D01*
X168000000Y-78000000D02*
X168000000Y-111000000D01*
X146000000Y-78000000D02*
X168000000Y-78000000D01*
X124000000Y-111000000D02*
X102000000Y-111000000D01*
X102000000Y-111000000D02*
X80000000Y-111000000D01*
X80000000Y-111000000D02*
X80000000Y-78000000D01*
X80000000Y-78000000D02*
X102000000Y-78000000D01*
X102000000Y-78000000D02*
X102000000Y-111000000D01*
X102000000Y-78000000D02*
X124000000Y-78000000D01*
X102000000Y-111000000D02*
X102000000Y-78000000D01*
X124000000Y-78000000D02*
X146000000Y-78000000D01*
X124000000Y-111000000D02*
X124000000Y-78000000D01*
X146000000Y-111000000D02*
X146000000Y-78000000D01*
X146000000Y-111000000D02*
X124000000Y-111000000D01*
X124000000Y-78000000D02*
X124000000Y-111000000D01*
X146000000Y-78000000D02*
X146000000Y-45000000D01*
X124000000Y-78000000D02*
X124000000Y-45000000D01*
X124000000Y-45000000D02*
X146000000Y-45000000D01*
X146000000Y-45000000D02*
X146000000Y-78000000D01*
X168000000Y-78000000D02*
X146000000Y-78000000D01*
X168000000Y-45000000D02*
X168000000Y-78000000D01*
X146000000Y-45000000D02*
X168000000Y-45000000D01*
X146000000Y-78000000D02*
X124000000Y-78000000D01*
X124000000Y-78000000D02*
X102000000Y-78000000D01*
X102000000Y-78000000D02*
X102000000Y-45000000D01*
X102000000Y-45000000D02*
X124000000Y-45000000D01*
X124000000Y-45000000D02*
X124000000Y-78000000D01*
X80000000Y-78000000D02*
X80000000Y-45000000D01*
X102000000Y-78000000D02*
X80000000Y-78000000D01*
X102000000Y-45000000D02*
X102000000Y-78000000D01*
X80000000Y-45000000D02*
X102000000Y-45000000D01*
D12*
X124937600Y-135293400D03*
X127837600Y-135293400D03*
X127837600Y-137604800D03*
X124937600Y-137604800D03*
D13*
X128673600Y-141857200D03*
D14*
X126133600Y-141857200D03*
D15*
X131188200Y-137604800D03*
X129288200Y-137604800D03*
D16*
X132414000Y-139444200D03*
X134414000Y-139444200D03*
D15*
X132524200Y-137604800D03*
X134424200Y-137604800D03*
D17*
X130723400Y-132601600D03*
X132123400Y-132601600D03*
X131423400Y-132601600D03*
D18*
X126692400Y-121856800D03*
X126692400Y-124856800D03*
D19*
X126692400Y-128571800D03*
X126692400Y-126571800D03*
D20*
X128699000Y-126835200D03*
X128699000Y-124935200D03*
D21*
X129340600Y-122517200D03*
X133340600Y-122517200D03*
D19*
X136293600Y-128698800D03*
X136293600Y-126698800D03*
D18*
X136369800Y-121955600D03*
X136369800Y-124955600D03*
D22*
X133247800Y-125909800D03*
X130347800Y-125909800D03*
D12*
X127814400Y-132931200D03*
X124914400Y-132931200D03*
D17*
X131423400Y-131101600D03*
D23*
X129533900Y-134567700D03*
X130803900Y-134567700D03*
X132073900Y-134567700D03*
X133343900Y-134567700D03*
X133343900Y-129167700D03*
X132073900Y-129167700D03*
X130803900Y-129167700D03*
X129533900Y-129167700D03*
D24*
X132026400Y-131280200D03*
X130851400Y-131280200D03*
X132026400Y-132455200D03*
X130851400Y-132455200D03*
D17*
X130723400Y-131101600D03*
X132123400Y-131101600D03*
D12*
X124912200Y-130594400D03*
X127812200Y-130594400D03*
D17*
X139410200Y-132500000D03*
X140110200Y-132500000D03*
D23*
X138246100Y-134408700D03*
X139516100Y-134408700D03*
X140786100Y-134408700D03*
X142056100Y-134408700D03*
X142056100Y-129008700D03*
X140786100Y-129008700D03*
X139516100Y-129008700D03*
X138246100Y-129008700D03*
D24*
X140738600Y-131121200D03*
X139563600Y-131121200D03*
X140738600Y-132296200D03*
X139563600Y-132296200D03*
D17*
X140810200Y-131000000D03*
X140110200Y-131000000D03*
D18*
X125803400Y-118648200D03*
X125803400Y-115648200D03*
D25*
X128374200Y-117858000D03*
X132224200Y-117858000D03*
D13*
X125879600Y-112879600D03*
D14*
X128419600Y-112879600D03*
X130959600Y-112879600D03*
D18*
X135658600Y-118697600D03*
X135658600Y-115697600D03*
D13*
X139062200Y-112905000D03*
D14*
X141602200Y-112905000D03*
X144142200Y-112905000D03*
D25*
X138204000Y-117807200D03*
X142054000Y-117807200D03*
X160204000Y-117807200D03*
X164054000Y-117807200D03*
D13*
X161062200Y-112905000D03*
D14*
X163602200Y-112905000D03*
X166142200Y-112905000D03*
D21*
X160992600Y-122517200D03*
X164992600Y-122517200D03*
D16*
X154414000Y-139444200D03*
X156414000Y-139444200D03*
X162592800Y-139266400D03*
X164592800Y-139266400D03*
D15*
X162830000Y-137437600D03*
X164730000Y-137437600D03*
D13*
X165812000Y-142111200D03*
D14*
X163272000Y-142111200D03*
X160732000Y-142111200D03*
D15*
X161539800Y-137437600D03*
X159639800Y-137437600D03*
X154524200Y-137604800D03*
X156424200Y-137604800D03*
D18*
X158369800Y-121955600D03*
X158369800Y-124955600D03*
D21*
X151340600Y-122517200D03*
X155340600Y-122517200D03*
D25*
X150374200Y-117858000D03*
X154224200Y-117858000D03*
D18*
X157658600Y-118697600D03*
X157658600Y-115697600D03*
X147803400Y-118648200D03*
X147803400Y-115648200D03*
D20*
X160427200Y-126886000D03*
X160427200Y-124986000D03*
D23*
X160246100Y-134408700D03*
X161516100Y-134408700D03*
X162786100Y-134408700D03*
X164056100Y-134408700D03*
X164056100Y-129008700D03*
X162786100Y-129008700D03*
X161516100Y-129008700D03*
X160246100Y-129008700D03*
D24*
X162738600Y-131121200D03*
X161563600Y-131121200D03*
X162738600Y-132296200D03*
X161563600Y-132296200D03*
D19*
X158293600Y-128698800D03*
X158293600Y-126698800D03*
D23*
X151533900Y-134567700D03*
X152803900Y-134567700D03*
X154073900Y-134567700D03*
X155343900Y-134567700D03*
X155343900Y-129167700D03*
X154073900Y-129167700D03*
X152803900Y-129167700D03*
X151533900Y-129167700D03*
D24*
X154026400Y-131280200D03*
X152851400Y-131280200D03*
X154026400Y-132455200D03*
X152851400Y-132455200D03*
D22*
X165026800Y-125884400D03*
X162126800Y-125884400D03*
D13*
X147879600Y-112879600D03*
D14*
X150419600Y-112879600D03*
X152959600Y-112879600D03*
D17*
X162810200Y-131000000D03*
X161410200Y-132500000D03*
X162110200Y-131000000D03*
X162110200Y-132500000D03*
X162810200Y-132500000D03*
X161410200Y-131000000D03*
X152723400Y-131101600D03*
X154123400Y-131101600D03*
X152723400Y-132601600D03*
X154123400Y-132601600D03*
D12*
X149814400Y-132931200D03*
X146914400Y-132931200D03*
D17*
X153423400Y-131101600D03*
D12*
X146912200Y-130594400D03*
X149812200Y-130594400D03*
D17*
X153423400Y-132601600D03*
D18*
X148692400Y-121856800D03*
X148692400Y-124856800D03*
D22*
X155247800Y-125909800D03*
X152347800Y-125909800D03*
D20*
X150699000Y-126835200D03*
X150699000Y-124935200D03*
D19*
X148692400Y-128571800D03*
X148692400Y-126571800D03*
D16*
X140592800Y-139266400D03*
X142592800Y-139266400D03*
D15*
X140830000Y-137437600D03*
X142730000Y-137437600D03*
D13*
X143812000Y-142111200D03*
D14*
X141272000Y-142111200D03*
X138732000Y-142111200D03*
D15*
X139539800Y-137437600D03*
X137639800Y-137437600D03*
D17*
X140810200Y-132500000D03*
D20*
X138427200Y-126886000D03*
X138427200Y-124986000D03*
D22*
X143026800Y-125884400D03*
X140126800Y-125884400D03*
D21*
X138992600Y-122517200D03*
X142992600Y-122517200D03*
D17*
X139410200Y-131000000D03*
D12*
X146937600Y-135293400D03*
X149837600Y-135293400D03*
D15*
X153188200Y-137604800D03*
X151288200Y-137604800D03*
D12*
X149837600Y-137604800D03*
X146937600Y-137604800D03*
D13*
X150673600Y-141857200D03*
D14*
X148133600Y-141857200D03*
D15*
X88524200Y-137604800D03*
X90424200Y-137604800D03*
D16*
X88414000Y-139444200D03*
X90414000Y-139444200D03*
D15*
X87188200Y-137604800D03*
X85288200Y-137604800D03*
D17*
X88123400Y-132601600D03*
D12*
X105814400Y-132931200D03*
X102914400Y-132931200D03*
X102912200Y-130594400D03*
X105812200Y-130594400D03*
X105837600Y-137604800D03*
X102937600Y-137604800D03*
X102937600Y-135293400D03*
X105837600Y-135293400D03*
D13*
X106673600Y-141857200D03*
D14*
X104133600Y-141857200D03*
D13*
X99812000Y-142111200D03*
D14*
X97272000Y-142111200D03*
X94732000Y-142111200D03*
D15*
X96830000Y-137437600D03*
X98730000Y-137437600D03*
D16*
X96592800Y-139266400D03*
X98592800Y-139266400D03*
D15*
X95539800Y-137437600D03*
X93639800Y-137437600D03*
D17*
X96810200Y-132500000D03*
X96810200Y-131000000D03*
D23*
X94246100Y-134408700D03*
X95516100Y-134408700D03*
X96786100Y-134408700D03*
X98056100Y-134408700D03*
X98056100Y-129008700D03*
X96786100Y-129008700D03*
X95516100Y-129008700D03*
X94246100Y-129008700D03*
D24*
X96738600Y-131121200D03*
X95563600Y-131121200D03*
X96738600Y-132296200D03*
X95563600Y-132296200D03*
D17*
X95410200Y-131000000D03*
X96110200Y-131000000D03*
X95410200Y-132500000D03*
X96110200Y-132500000D03*
D13*
X84673600Y-141857200D03*
D14*
X82133600Y-141857200D03*
D12*
X83814400Y-132931200D03*
X80914400Y-132931200D03*
X83837600Y-137604800D03*
X80937600Y-137604800D03*
X80937600Y-135293400D03*
X83837600Y-135293400D03*
D17*
X87423400Y-132601600D03*
D21*
X107340600Y-122517200D03*
X111340600Y-122517200D03*
D25*
X106374200Y-117858000D03*
X110224200Y-117858000D03*
D18*
X114369800Y-121955600D03*
X114369800Y-124955600D03*
D22*
X121026800Y-125884400D03*
X118126800Y-125884400D03*
D20*
X116427200Y-126886000D03*
X116427200Y-124986000D03*
D13*
X117062200Y-112905000D03*
D14*
X119602200Y-112905000D03*
X122142200Y-112905000D03*
D25*
X116204000Y-117807200D03*
X120054000Y-117807200D03*
D21*
X116992600Y-122517200D03*
X120992600Y-122517200D03*
D18*
X113658600Y-118697600D03*
X113658600Y-115697600D03*
D17*
X108723400Y-132601600D03*
X110123400Y-132601600D03*
D15*
X109188200Y-137604800D03*
X107288200Y-137604800D03*
D16*
X110414000Y-139444200D03*
X112414000Y-139444200D03*
D15*
X110524200Y-137604800D03*
X112424200Y-137604800D03*
D17*
X109423400Y-132601600D03*
D15*
X118830000Y-137437600D03*
X120730000Y-137437600D03*
X117539800Y-137437600D03*
X115639800Y-137437600D03*
D16*
X118592800Y-139266400D03*
X120592800Y-139266400D03*
D13*
X121812000Y-142111200D03*
D14*
X119272000Y-142111200D03*
X116732000Y-142111200D03*
D17*
X110123400Y-131101600D03*
D19*
X114293600Y-128698800D03*
X114293600Y-126698800D03*
D23*
X107533900Y-134567700D03*
X108803900Y-134567700D03*
X110073900Y-134567700D03*
X111343900Y-134567700D03*
X111343900Y-129167700D03*
X110073900Y-129167700D03*
X108803900Y-129167700D03*
X107533900Y-129167700D03*
D24*
X110026400Y-131280200D03*
X108851400Y-131280200D03*
X110026400Y-132455200D03*
X108851400Y-132455200D03*
D17*
X109423400Y-131101600D03*
X108723400Y-131101600D03*
D22*
X111247800Y-125909800D03*
X108347800Y-125909800D03*
D17*
X118110200Y-132500000D03*
X118810200Y-132500000D03*
D23*
X116246100Y-134408700D03*
X117516100Y-134408700D03*
X118786100Y-134408700D03*
X120056100Y-134408700D03*
X120056100Y-129008700D03*
X118786100Y-129008700D03*
X117516100Y-129008700D03*
X116246100Y-129008700D03*
D24*
X118738600Y-131121200D03*
X117563600Y-131121200D03*
X118738600Y-132296200D03*
X117563600Y-132296200D03*
D17*
X118110200Y-131000000D03*
X118810200Y-131000000D03*
X117410200Y-131000000D03*
X117410200Y-132500000D03*
D13*
X103879600Y-112879600D03*
D14*
X106419600Y-112879600D03*
X108959600Y-112879600D03*
D18*
X91658600Y-118697600D03*
X91658600Y-115697600D03*
X92369800Y-121955600D03*
X92369800Y-124955600D03*
D13*
X95062200Y-112905000D03*
D14*
X97602200Y-112905000D03*
X100142200Y-112905000D03*
D21*
X94992600Y-122517200D03*
X98992600Y-122517200D03*
D22*
X99026800Y-125884400D03*
X96126800Y-125884400D03*
D20*
X94427200Y-126886000D03*
X94427200Y-124986000D03*
D19*
X92293600Y-128698800D03*
X92293600Y-126698800D03*
D25*
X94204000Y-117807200D03*
X98054000Y-117807200D03*
D21*
X85340600Y-122517200D03*
X89340600Y-122517200D03*
D25*
X84374200Y-117858000D03*
X88224200Y-117858000D03*
D22*
X89247800Y-125909800D03*
X86347800Y-125909800D03*
D20*
X84699000Y-126835200D03*
X84699000Y-124935200D03*
D18*
X82692400Y-121856800D03*
X82692400Y-124856800D03*
D13*
X81879600Y-112879600D03*
D14*
X84419600Y-112879600D03*
X86959600Y-112879600D03*
D18*
X81803400Y-118648200D03*
X81803400Y-115648200D03*
D19*
X82692400Y-128571800D03*
X82692400Y-126571800D03*
D12*
X80912200Y-130594400D03*
X83812200Y-130594400D03*
D23*
X85533900Y-134567700D03*
X86803900Y-134567700D03*
X88073900Y-134567700D03*
X89343900Y-134567700D03*
X89343900Y-129167700D03*
X88073900Y-129167700D03*
X86803900Y-129167700D03*
X85533900Y-129167700D03*
D24*
X88026400Y-131280200D03*
X86851400Y-131280200D03*
X88026400Y-132455200D03*
X86851400Y-132455200D03*
D17*
X86723400Y-132601600D03*
X88123400Y-131101600D03*
X87423400Y-131101600D03*
X86723400Y-131101600D03*
D19*
X104692400Y-128571800D03*
X104692400Y-126571800D03*
D20*
X106699000Y-126835200D03*
X106699000Y-124935200D03*
D18*
X104692400Y-121856800D03*
X104692400Y-124856800D03*
X103803400Y-118648200D03*
X103803400Y-115648200D03*
D15*
X139539800Y-104437600D03*
X137639800Y-104437600D03*
D13*
X143812000Y-109111200D03*
D14*
X141272000Y-109111200D03*
X138732000Y-109111200D03*
D15*
X140830000Y-104437600D03*
X142730000Y-104437600D03*
D16*
X140592800Y-106266400D03*
X142592800Y-106266400D03*
D17*
X139410200Y-99500000D03*
X140110200Y-99500000D03*
X140110200Y-98000000D03*
X140810200Y-99500000D03*
X139410200Y-98000000D03*
X140810200Y-98000000D03*
D21*
X138992600Y-89517200D03*
X142992600Y-89517200D03*
D20*
X138427200Y-93886000D03*
X138427200Y-91986000D03*
D13*
X139062200Y-79905000D03*
D14*
X141602200Y-79905000D03*
X144142200Y-79905000D03*
D22*
X143026800Y-92884400D03*
X140126800Y-92884400D03*
D25*
X138204000Y-84807200D03*
X142054000Y-84807200D03*
D13*
X128673600Y-108857200D03*
D14*
X126133600Y-108857200D03*
D12*
X127814400Y-99931200D03*
X124914400Y-99931200D03*
D15*
X132524200Y-104604800D03*
X134424200Y-104604800D03*
D16*
X132414000Y-106444200D03*
X134414000Y-106444200D03*
D17*
X130723400Y-99601600D03*
D15*
X131188200Y-104604800D03*
X129288200Y-104604800D03*
D12*
X124937600Y-102293400D03*
X127837600Y-102293400D03*
X127837600Y-104604800D03*
X124937600Y-104604800D03*
D18*
X136369800Y-88955600D03*
X136369800Y-91955600D03*
D22*
X133247800Y-92909800D03*
X130347800Y-92909800D03*
D20*
X128699000Y-93835200D03*
X128699000Y-91935200D03*
D18*
X135658600Y-85697600D03*
X135658600Y-82697600D03*
X126692400Y-88856800D03*
X126692400Y-91856800D03*
D25*
X128374200Y-84858000D03*
X132224200Y-84858000D03*
D21*
X129340600Y-89517200D03*
X133340600Y-89517200D03*
D23*
X138246100Y-101408700D03*
X139516100Y-101408700D03*
X140786100Y-101408700D03*
X142056100Y-101408700D03*
X142056100Y-96008700D03*
X140786100Y-96008700D03*
X139516100Y-96008700D03*
X138246100Y-96008700D03*
D24*
X140738600Y-98121200D03*
X139563600Y-98121200D03*
X140738600Y-99296200D03*
X139563600Y-99296200D03*
D17*
X132123400Y-99601600D03*
X131423400Y-99601600D03*
D23*
X129533900Y-101567700D03*
X130803900Y-101567700D03*
X132073900Y-101567700D03*
X133343900Y-101567700D03*
X133343900Y-96167700D03*
X132073900Y-96167700D03*
X130803900Y-96167700D03*
X129533900Y-96167700D03*
D24*
X132026400Y-98280200D03*
X130851400Y-98280200D03*
X132026400Y-99455200D03*
X130851400Y-99455200D03*
D19*
X136293600Y-95698800D03*
X136293600Y-93698800D03*
D17*
X130723400Y-98101600D03*
D19*
X126692400Y-95571800D03*
X126692400Y-93571800D03*
D12*
X124912200Y-97594400D03*
X127812200Y-97594400D03*
D17*
X132123400Y-98101600D03*
X131423400Y-98101600D03*
D18*
X113658600Y-85697600D03*
X113658600Y-82697600D03*
D13*
X125879600Y-79879600D03*
D14*
X128419600Y-79879600D03*
X130959600Y-79879600D03*
D18*
X125803400Y-85648200D03*
X125803400Y-82648200D03*
D13*
X117062200Y-79905000D03*
D14*
X119602200Y-79905000D03*
X122142200Y-79905000D03*
D25*
X116204000Y-84807200D03*
X120054000Y-84807200D03*
D12*
X146937600Y-102293400D03*
X149837600Y-102293400D03*
X146912200Y-97594400D03*
X149812200Y-97594400D03*
X149814400Y-99931200D03*
X146914400Y-99931200D03*
X149837600Y-104604800D03*
X146937600Y-104604800D03*
D13*
X150673600Y-108857200D03*
D14*
X148133600Y-108857200D03*
D15*
X154524200Y-104604800D03*
X156424200Y-104604800D03*
X153188200Y-104604800D03*
X151288200Y-104604800D03*
D16*
X154414000Y-106444200D03*
X156414000Y-106444200D03*
D15*
X162830000Y-104437600D03*
X164730000Y-104437600D03*
D13*
X165812000Y-109111200D03*
D14*
X163272000Y-109111200D03*
X160732000Y-109111200D03*
D16*
X162592800Y-106266400D03*
X164592800Y-106266400D03*
D15*
X161539800Y-104437600D03*
X159639800Y-104437600D03*
D17*
X162110200Y-99500000D03*
X162810200Y-99500000D03*
D18*
X147803400Y-85648200D03*
X147803400Y-82648200D03*
D13*
X147879600Y-79879600D03*
D14*
X150419600Y-79879600D03*
X152959600Y-79879600D03*
D25*
X150374200Y-84858000D03*
X154224200Y-84858000D03*
D19*
X148692400Y-95571800D03*
X148692400Y-93571800D03*
D20*
X150699000Y-93835200D03*
X150699000Y-91935200D03*
D18*
X148692400Y-88856800D03*
X148692400Y-91856800D03*
D22*
X155247800Y-92909800D03*
X152347800Y-92909800D03*
D21*
X151340600Y-89517200D03*
X155340600Y-89517200D03*
D18*
X157658600Y-85697600D03*
X157658600Y-82697600D03*
D13*
X161062200Y-79905000D03*
D14*
X163602200Y-79905000D03*
X166142200Y-79905000D03*
D21*
X160992600Y-89517200D03*
X164992600Y-89517200D03*
D20*
X160427200Y-93886000D03*
X160427200Y-91986000D03*
D25*
X160204000Y-84807200D03*
X164054000Y-84807200D03*
D18*
X158369800Y-88955600D03*
X158369800Y-91955600D03*
D22*
X165026800Y-92884400D03*
X162126800Y-92884400D03*
D17*
X152723400Y-98101600D03*
X154123400Y-98101600D03*
X152723400Y-99601600D03*
D23*
X151533900Y-101567700D03*
X152803900Y-101567700D03*
X154073900Y-101567700D03*
X155343900Y-101567700D03*
X155343900Y-96167700D03*
X154073900Y-96167700D03*
X152803900Y-96167700D03*
X151533900Y-96167700D03*
D24*
X154026400Y-98280200D03*
X152851400Y-98280200D03*
X154026400Y-99455200D03*
X152851400Y-99455200D03*
D17*
X153423400Y-98101600D03*
X153423400Y-99601600D03*
X154123400Y-99601600D03*
D19*
X158293600Y-95698800D03*
X158293600Y-93698800D03*
D17*
X161410200Y-99500000D03*
D23*
X160246100Y-101408700D03*
X161516100Y-101408700D03*
X162786100Y-101408700D03*
X164056100Y-101408700D03*
X164056100Y-96008700D03*
X162786100Y-96008700D03*
X161516100Y-96008700D03*
X160246100Y-96008700D03*
D24*
X162738600Y-98121200D03*
X161563600Y-98121200D03*
X162738600Y-99296200D03*
X161563600Y-99296200D03*
D17*
X162810200Y-98000000D03*
X162110200Y-98000000D03*
X161410200Y-98000000D03*
X110123400Y-98101600D03*
X109423400Y-98101600D03*
X110123400Y-99601600D03*
X108723400Y-99601600D03*
X109423400Y-99601600D03*
X108723400Y-98101600D03*
D25*
X94204000Y-84807200D03*
X98054000Y-84807200D03*
D21*
X94992600Y-89517200D03*
X98992600Y-89517200D03*
D13*
X95062200Y-79905000D03*
D14*
X97602200Y-79905000D03*
X100142200Y-79905000D03*
D18*
X103803400Y-85648200D03*
X103803400Y-82648200D03*
D13*
X103879600Y-79879600D03*
D14*
X106419600Y-79879600D03*
X108959600Y-79879600D03*
D25*
X106374200Y-84858000D03*
X110224200Y-84858000D03*
D21*
X107340600Y-89517200D03*
X111340600Y-89517200D03*
D18*
X104692400Y-88856800D03*
X104692400Y-91856800D03*
D20*
X106699000Y-93835200D03*
X106699000Y-91935200D03*
D22*
X111247800Y-92909800D03*
X108347800Y-92909800D03*
D19*
X92293600Y-95698800D03*
X92293600Y-93698800D03*
D20*
X94427200Y-93886000D03*
X94427200Y-91986000D03*
D22*
X99026800Y-92884400D03*
X96126800Y-92884400D03*
D23*
X94246100Y-101408700D03*
X95516100Y-101408700D03*
X96786100Y-101408700D03*
X98056100Y-101408700D03*
X98056100Y-96008700D03*
X96786100Y-96008700D03*
X95516100Y-96008700D03*
X94246100Y-96008700D03*
D24*
X96738600Y-98121200D03*
X95563600Y-98121200D03*
X96738600Y-99296200D03*
X95563600Y-99296200D03*
D17*
X96810200Y-99500000D03*
D12*
X105814400Y-99931200D03*
X102914400Y-99931200D03*
D17*
X96810200Y-98000000D03*
D12*
X102912200Y-97594400D03*
X105812200Y-97594400D03*
D19*
X104692400Y-95571800D03*
X104692400Y-93571800D03*
D17*
X96110200Y-98000000D03*
X95410200Y-99500000D03*
X96110200Y-99500000D03*
X95410200Y-98000000D03*
D21*
X116992600Y-89517200D03*
X120992600Y-89517200D03*
D22*
X121026800Y-92884400D03*
X118126800Y-92884400D03*
D18*
X114369800Y-88955600D03*
X114369800Y-91955600D03*
D19*
X114293600Y-95698800D03*
X114293600Y-93698800D03*
D20*
X116427200Y-93886000D03*
X116427200Y-91986000D03*
D23*
X107533900Y-101567700D03*
X108803900Y-101567700D03*
X110073900Y-101567700D03*
X111343900Y-101567700D03*
X111343900Y-96167700D03*
X110073900Y-96167700D03*
X108803900Y-96167700D03*
X107533900Y-96167700D03*
D24*
X110026400Y-98280200D03*
X108851400Y-98280200D03*
X110026400Y-99455200D03*
X108851400Y-99455200D03*
D17*
X118110200Y-99500000D03*
X117410200Y-99500000D03*
X118810200Y-99500000D03*
X118110200Y-98000000D03*
D23*
X116246100Y-101408700D03*
X117516100Y-101408700D03*
X118786100Y-101408700D03*
X120056100Y-101408700D03*
X120056100Y-96008700D03*
X118786100Y-96008700D03*
X117516100Y-96008700D03*
X116246100Y-96008700D03*
D24*
X118738600Y-98121200D03*
X117563600Y-98121200D03*
X118738600Y-99296200D03*
X117563600Y-99296200D03*
D17*
X118810200Y-98000000D03*
X117410200Y-98000000D03*
D12*
X105837600Y-104604800D03*
X102937600Y-104604800D03*
X102937600Y-102293400D03*
X105837600Y-102293400D03*
D15*
X110524200Y-104604800D03*
X112424200Y-104604800D03*
D16*
X110414000Y-106444200D03*
X112414000Y-106444200D03*
D13*
X106673600Y-108857200D03*
D14*
X104133600Y-108857200D03*
D15*
X109188200Y-104604800D03*
X107288200Y-104604800D03*
D13*
X99812000Y-109111200D03*
D14*
X97272000Y-109111200D03*
X94732000Y-109111200D03*
D16*
X96592800Y-106266400D03*
X98592800Y-106266400D03*
D15*
X95539800Y-104437600D03*
X93639800Y-104437600D03*
X96830000Y-104437600D03*
X98730000Y-104437600D03*
D16*
X118592800Y-106266400D03*
X120592800Y-106266400D03*
D15*
X117539800Y-104437600D03*
X115639800Y-104437600D03*
X118830000Y-104437600D03*
X120730000Y-104437600D03*
D13*
X121812000Y-109111200D03*
D14*
X119272000Y-109111200D03*
X116732000Y-109111200D03*
D23*
X85533900Y-101567700D03*
X86803900Y-101567700D03*
X88073900Y-101567700D03*
X89343900Y-101567700D03*
X89343900Y-96167700D03*
X88073900Y-96167700D03*
X86803900Y-96167700D03*
X85533900Y-96167700D03*
D24*
X88026400Y-98280200D03*
X86851400Y-98280200D03*
X88026400Y-99455200D03*
X86851400Y-99455200D03*
D17*
X86723400Y-98101600D03*
X88123400Y-98101600D03*
X86723400Y-99601600D03*
X87423400Y-98101600D03*
D18*
X81803400Y-85648200D03*
X81803400Y-82648200D03*
D25*
X84374200Y-84858000D03*
X88224200Y-84858000D03*
D13*
X81879600Y-79879600D03*
D14*
X84419600Y-79879600D03*
X86959600Y-79879600D03*
D18*
X91658600Y-85697600D03*
X91658600Y-82697600D03*
X92369800Y-88955600D03*
X92369800Y-91955600D03*
D22*
X89247800Y-92909800D03*
X86347800Y-92909800D03*
D20*
X84699000Y-93835200D03*
X84699000Y-91935200D03*
D12*
X80912200Y-97594400D03*
X83812200Y-97594400D03*
D19*
X82692400Y-95571800D03*
X82692400Y-93571800D03*
D18*
X82692400Y-88856800D03*
X82692400Y-91856800D03*
D21*
X85340600Y-89517200D03*
X89340600Y-89517200D03*
D16*
X88414000Y-106444200D03*
X90414000Y-106444200D03*
D15*
X88524200Y-104604800D03*
X90424200Y-104604800D03*
D17*
X87423400Y-99601600D03*
X88123400Y-99601600D03*
D12*
X83837600Y-104604800D03*
X80937600Y-104604800D03*
X80937600Y-102293400D03*
X83837600Y-102293400D03*
X83814400Y-99931200D03*
X80914400Y-99931200D03*
D15*
X87188200Y-104604800D03*
X85288200Y-104604800D03*
D13*
X84673600Y-108857200D03*
D14*
X82133600Y-108857200D03*
D23*
X151533900Y-68567700D03*
X152803900Y-68567700D03*
X154073900Y-68567700D03*
X155343900Y-68567700D03*
X155343900Y-63167700D03*
X154073900Y-63167700D03*
X152803900Y-63167700D03*
X151533900Y-63167700D03*
D24*
X154026400Y-65280200D03*
X152851400Y-65280200D03*
X154026400Y-66455200D03*
X152851400Y-66455200D03*
D15*
X153188200Y-71604800D03*
X151288200Y-71604800D03*
D12*
X149837600Y-71604800D03*
X146937600Y-71604800D03*
D13*
X150673600Y-75857200D03*
D14*
X148133600Y-75857200D03*
D12*
X146937600Y-69293400D03*
X149837600Y-69293400D03*
D17*
X153423400Y-66601600D03*
X154123400Y-65101600D03*
X154123400Y-66601600D03*
D12*
X149814400Y-66931200D03*
X146914400Y-66931200D03*
D17*
X152723400Y-65101600D03*
X153423400Y-65101600D03*
X140810200Y-65000000D03*
D15*
X140830000Y-71437600D03*
X142730000Y-71437600D03*
D13*
X143812000Y-76111200D03*
D14*
X141272000Y-76111200D03*
X138732000Y-76111200D03*
D15*
X139539800Y-71437600D03*
X137639800Y-71437600D03*
D16*
X140592800Y-73266400D03*
X142592800Y-73266400D03*
D17*
X139410200Y-65000000D03*
X140110200Y-65000000D03*
X139410200Y-66500000D03*
X140810200Y-66500000D03*
X140110200Y-66500000D03*
D15*
X161539800Y-71437600D03*
X159639800Y-71437600D03*
D16*
X154414000Y-73444200D03*
X156414000Y-73444200D03*
D13*
X165812000Y-76111200D03*
D14*
X163272000Y-76111200D03*
X160732000Y-76111200D03*
D15*
X162830000Y-71437600D03*
X164730000Y-71437600D03*
D16*
X162592800Y-73266400D03*
X164592800Y-73266400D03*
D15*
X154524200Y-71604800D03*
X156424200Y-71604800D03*
D23*
X138246100Y-68408700D03*
X139516100Y-68408700D03*
X140786100Y-68408700D03*
X142056100Y-68408700D03*
X142056100Y-63008700D03*
X140786100Y-63008700D03*
X139516100Y-63008700D03*
X138246100Y-63008700D03*
D24*
X140738600Y-65121200D03*
X139563600Y-65121200D03*
X140738600Y-66296200D03*
X139563600Y-66296200D03*
D25*
X138204000Y-51807200D03*
X142054000Y-51807200D03*
D18*
X136369800Y-55955600D03*
X136369800Y-58955600D03*
D20*
X138427200Y-60886000D03*
X138427200Y-58986000D03*
D19*
X136293600Y-62698800D03*
X136293600Y-60698800D03*
D13*
X139062200Y-46905000D03*
D14*
X141602200Y-46905000D03*
X144142200Y-46905000D03*
D21*
X138992600Y-56517200D03*
X142992600Y-56517200D03*
D22*
X143026800Y-59884400D03*
X140126800Y-59884400D03*
D17*
X162810200Y-66500000D03*
X162110200Y-66500000D03*
X162810200Y-65000000D03*
X162110200Y-65000000D03*
X161410200Y-66500000D03*
D23*
X160246100Y-68408700D03*
X161516100Y-68408700D03*
X162786100Y-68408700D03*
X164056100Y-68408700D03*
X164056100Y-63008700D03*
X162786100Y-63008700D03*
X161516100Y-63008700D03*
X160246100Y-63008700D03*
D24*
X162738600Y-65121200D03*
X161563600Y-65121200D03*
X162738600Y-66296200D03*
X161563600Y-66296200D03*
D18*
X157658600Y-52697600D03*
X157658600Y-49697600D03*
X158369800Y-55955600D03*
X158369800Y-58955600D03*
D25*
X160204000Y-51807200D03*
X164054000Y-51807200D03*
D13*
X161062200Y-46905000D03*
D14*
X163602200Y-46905000D03*
X166142200Y-46905000D03*
D21*
X160992600Y-56517200D03*
X164992600Y-56517200D03*
D17*
X161410200Y-65000000D03*
D20*
X160427200Y-60886000D03*
X160427200Y-58986000D03*
D19*
X158293600Y-62698800D03*
X158293600Y-60698800D03*
D22*
X165026800Y-59884400D03*
X162126800Y-59884400D03*
D18*
X147803400Y-52648200D03*
X147803400Y-49648200D03*
D13*
X147879600Y-46879600D03*
D14*
X150419600Y-46879600D03*
X152959600Y-46879600D03*
D25*
X150374200Y-51858000D03*
X154224200Y-51858000D03*
D21*
X151340600Y-56517200D03*
X155340600Y-56517200D03*
D18*
X148692400Y-55856800D03*
X148692400Y-58856800D03*
D22*
X155247800Y-59909800D03*
X152347800Y-59909800D03*
D20*
X150699000Y-60835200D03*
X150699000Y-58935200D03*
D12*
X146912200Y-64594400D03*
X149812200Y-64594400D03*
D17*
X152723400Y-66601600D03*
D19*
X148692400Y-62571800D03*
X148692400Y-60571800D03*
D15*
X132524200Y-71604800D03*
X134424200Y-71604800D03*
D16*
X132414000Y-73444200D03*
X134414000Y-73444200D03*
D13*
X128673600Y-75857200D03*
D14*
X126133600Y-75857200D03*
D15*
X131188200Y-71604800D03*
X129288200Y-71604800D03*
D12*
X127837600Y-71604800D03*
X124937600Y-71604800D03*
X124937600Y-69293400D03*
X127837600Y-69293400D03*
D18*
X135658600Y-52697600D03*
X135658600Y-49697600D03*
D13*
X125879600Y-46879600D03*
D14*
X128419600Y-46879600D03*
X130959600Y-46879600D03*
D25*
X128374200Y-51858000D03*
X132224200Y-51858000D03*
D18*
X125803400Y-52648200D03*
X125803400Y-49648200D03*
D12*
X124912200Y-64594400D03*
X127812200Y-64594400D03*
D17*
X130723400Y-65101600D03*
D12*
X127814400Y-66931200D03*
X124914400Y-66931200D03*
D19*
X126692400Y-62571800D03*
X126692400Y-60571800D03*
D20*
X128699000Y-60835200D03*
X128699000Y-58935200D03*
D21*
X129340600Y-56517200D03*
X133340600Y-56517200D03*
D22*
X133247800Y-59909800D03*
X130347800Y-59909800D03*
D18*
X126692400Y-55856800D03*
X126692400Y-58856800D03*
D17*
X131423400Y-65101600D03*
X132123400Y-66601600D03*
X131423400Y-66601600D03*
X132123400Y-65101600D03*
D23*
X129533900Y-68567700D03*
X130803900Y-68567700D03*
X132073900Y-68567700D03*
X133343900Y-68567700D03*
X133343900Y-63167700D03*
X132073900Y-63167700D03*
X130803900Y-63167700D03*
X129533900Y-63167700D03*
D24*
X132026400Y-65280200D03*
X130851400Y-65280200D03*
X132026400Y-66455200D03*
X130851400Y-66455200D03*
D17*
X130723400Y-66601600D03*
D16*
X118592800Y-73266400D03*
X120592800Y-73266400D03*
D13*
X121812000Y-76111200D03*
D14*
X119272000Y-76111200D03*
X116732000Y-76111200D03*
D15*
X118830000Y-71437600D03*
X120730000Y-71437600D03*
X117539800Y-71437600D03*
X115639800Y-71437600D03*
D17*
X118110200Y-66500000D03*
X117410200Y-65000000D03*
X117410200Y-66500000D03*
X118810200Y-66500000D03*
D19*
X104692400Y-62571800D03*
X104692400Y-60571800D03*
D23*
X107533900Y-68567700D03*
X108803900Y-68567700D03*
X110073900Y-68567700D03*
X111343900Y-68567700D03*
X111343900Y-63167700D03*
X110073900Y-63167700D03*
X108803900Y-63167700D03*
X107533900Y-63167700D03*
D24*
X110026400Y-65280200D03*
X108851400Y-65280200D03*
X110026400Y-66455200D03*
X108851400Y-66455200D03*
D12*
X102912200Y-64594400D03*
X105812200Y-64594400D03*
X102937600Y-69293400D03*
X105837600Y-69293400D03*
D17*
X108723400Y-66601600D03*
D12*
X105814400Y-66931200D03*
X102914400Y-66931200D03*
D17*
X108723400Y-65101600D03*
D16*
X110414000Y-73444200D03*
X112414000Y-73444200D03*
D15*
X110524200Y-71604800D03*
X112424200Y-71604800D03*
D12*
X105837600Y-71604800D03*
X102937600Y-71604800D03*
D15*
X109188200Y-71604800D03*
X107288200Y-71604800D03*
D13*
X106673600Y-75857200D03*
D14*
X104133600Y-75857200D03*
D17*
X110123400Y-65101600D03*
X109423400Y-65101600D03*
X110123400Y-66601600D03*
X109423400Y-66601600D03*
D18*
X113658600Y-52697600D03*
X113658600Y-49697600D03*
D21*
X116992600Y-56517200D03*
X120992600Y-56517200D03*
D13*
X117062200Y-46905000D03*
D14*
X119602200Y-46905000D03*
X122142200Y-46905000D03*
D25*
X116204000Y-51807200D03*
X120054000Y-51807200D03*
D18*
X114369800Y-55955600D03*
X114369800Y-58955600D03*
D22*
X121026800Y-59884400D03*
X118126800Y-59884400D03*
D20*
X116427200Y-60886000D03*
X116427200Y-58986000D03*
D23*
X116246100Y-68408700D03*
X117516100Y-68408700D03*
X118786100Y-68408700D03*
X120056100Y-68408700D03*
X120056100Y-63008700D03*
X118786100Y-63008700D03*
X117516100Y-63008700D03*
X116246100Y-63008700D03*
D24*
X118738600Y-65121200D03*
X117563600Y-65121200D03*
X118738600Y-66296200D03*
X117563600Y-66296200D03*
D17*
X118110200Y-65000000D03*
X118810200Y-65000000D03*
D19*
X114293600Y-62698800D03*
X114293600Y-60698800D03*
D18*
X103803400Y-52648200D03*
X103803400Y-49648200D03*
D25*
X106374200Y-51858000D03*
X110224200Y-51858000D03*
D18*
X104692400Y-55856800D03*
X104692400Y-58856800D03*
D21*
X107340600Y-56517200D03*
X111340600Y-56517200D03*
D20*
X106699000Y-60835200D03*
X106699000Y-58935200D03*
D13*
X103879600Y-46879600D03*
D14*
X106419600Y-46879600D03*
X108959600Y-46879600D03*
D22*
X111247800Y-59909800D03*
X108347800Y-59909800D03*
D17*
X87423400Y-66601600D03*
X86723400Y-66601600D03*
X88123400Y-65101600D03*
X87423400Y-65101600D03*
X88123400Y-66601600D03*
X86723400Y-65101600D03*
X96810200Y-66500000D03*
X96110200Y-66500000D03*
X95410200Y-66500000D03*
X96810200Y-65000000D03*
X96110200Y-65000000D03*
X95410200Y-65000000D03*
D18*
X92369800Y-55955600D03*
X92369800Y-58955600D03*
X82692400Y-55856800D03*
X82692400Y-58856800D03*
D25*
X84374200Y-51858000D03*
X88224200Y-51858000D03*
X94204000Y-51807200D03*
X98054000Y-51807200D03*
D13*
X84673600Y-75857200D03*
D14*
X82133600Y-75857200D03*
D13*
X81879600Y-46879600D03*
D14*
X84419600Y-46879600D03*
X86959600Y-46879600D03*
D13*
X99812000Y-76111200D03*
D14*
X97272000Y-76111200D03*
X94732000Y-76111200D03*
D13*
X95062200Y-46905000D03*
D14*
X97602200Y-46905000D03*
X100142200Y-46905000D03*
D15*
X87188200Y-71604800D03*
X85288200Y-71604800D03*
D20*
X84699000Y-60835200D03*
X84699000Y-58935200D03*
D15*
X96830000Y-71437600D03*
X98730000Y-71437600D03*
X88524200Y-71604800D03*
X90424200Y-71604800D03*
X95539800Y-71437600D03*
X93639800Y-71437600D03*
D20*
X94427200Y-60886000D03*
X94427200Y-58986000D03*
D12*
X83837600Y-71604800D03*
X80937600Y-71604800D03*
X80937600Y-69293400D03*
X83837600Y-69293400D03*
X83814400Y-66931200D03*
X80914400Y-66931200D03*
X80912200Y-64594400D03*
X83812200Y-64594400D03*
D23*
X85533900Y-68567700D03*
X86803900Y-68567700D03*
X88073900Y-68567700D03*
X89343900Y-68567700D03*
X89343900Y-63167700D03*
X88073900Y-63167700D03*
X86803900Y-63167700D03*
X85533900Y-63167700D03*
D24*
X88026400Y-65280200D03*
X86851400Y-65280200D03*
X88026400Y-66455200D03*
X86851400Y-66455200D03*
D23*
X94246100Y-68408700D03*
X95516100Y-68408700D03*
X96786100Y-68408700D03*
X98056100Y-68408700D03*
X98056100Y-63008700D03*
X96786100Y-63008700D03*
X95516100Y-63008700D03*
X94246100Y-63008700D03*
D24*
X96738600Y-65121200D03*
X95563600Y-65121200D03*
X96738600Y-66296200D03*
X95563600Y-66296200D03*
D21*
X85340600Y-56517200D03*
X89340600Y-56517200D03*
X94992600Y-56517200D03*
X98992600Y-56517200D03*
D19*
X92293600Y-62698800D03*
X92293600Y-60698800D03*
X82692400Y-62571800D03*
X82692400Y-60571800D03*
D16*
X96592800Y-73266400D03*
X98592800Y-73266400D03*
X88414000Y-73444200D03*
X90414000Y-73444200D03*
D22*
X89247800Y-59909800D03*
X86347800Y-59909800D03*
X99026800Y-59884400D03*
X96126800Y-59884400D03*
D18*
X81803400Y-52648200D03*
X81803400Y-49648200D03*
X91658600Y-52697600D03*
X91658600Y-49697600D03*
D17*
X157658600Y-119737600D03*
X157658600Y-120474200D03*
X91658600Y-119737600D03*
X81422400Y-120779000D03*
X81422400Y-119915400D03*
X91658600Y-120474200D03*
X103422400Y-119915400D03*
X103422400Y-120779000D03*
X147422400Y-119915400D03*
X147422400Y-120779000D03*
X125422400Y-119915400D03*
X125422400Y-120779000D03*
X135658600Y-120474200D03*
X135658600Y-119737600D03*
X113658600Y-120474200D03*
X113658600Y-119737600D03*
X91658600Y-87474200D03*
X91658600Y-86737600D03*
X103422400Y-87779000D03*
X103422400Y-86915400D03*
X81422400Y-87779000D03*
X81422400Y-86915400D03*
X157658600Y-87474200D03*
X157658600Y-86737600D03*
X125422400Y-86915400D03*
X125422400Y-87779000D03*
X113658600Y-87474200D03*
X113658600Y-86737600D03*
X135658600Y-87474200D03*
X135658600Y-86737600D03*
X147422400Y-87779000D03*
X147422400Y-86915400D03*
X147422400Y-53915400D03*
X147422400Y-54779000D03*
X157658600Y-53737600D03*
X157658600Y-54474200D03*
X125422400Y-53915400D03*
X125422400Y-54779000D03*
X135658600Y-53737600D03*
X135658600Y-54474200D03*
X113658600Y-54474200D03*
X113658600Y-53737600D03*
X103422400Y-53915400D03*
X103422400Y-54779000D03*
X81422400Y-54779000D03*
X81422400Y-53915400D03*
X91658600Y-54474200D03*
X91658600Y-53737600D03*
X158344400Y-123975600D03*
X149073400Y-123848600D03*
X149048000Y-123035800D03*
X158344400Y-123289800D03*
X159411200Y-127760200D03*
X150292600Y-128242800D03*
X156109200Y-135608800D03*
X164785900Y-134408700D03*
X157963400Y-139444200D03*
X83073400Y-123848600D03*
X84292600Y-128242800D03*
X83048000Y-123035800D03*
X92344400Y-123289800D03*
X105073400Y-123848600D03*
X106292600Y-128242800D03*
X105048000Y-123035800D03*
X93411200Y-127760200D03*
X91963400Y-139444200D03*
X90109200Y-135608800D03*
X98785900Y-134408700D03*
X92344400Y-123975600D03*
X113963400Y-139444200D03*
X120785900Y-134408700D03*
X112109200Y-135608800D03*
X115411200Y-127760200D03*
X142785900Y-134408700D03*
X134109200Y-135608800D03*
X135963400Y-139444200D03*
X127073400Y-123848600D03*
X127048000Y-123035800D03*
X128292600Y-128242800D03*
X136344400Y-123975600D03*
X137411200Y-127760200D03*
X136344400Y-123289800D03*
X114344400Y-123975600D03*
X114344400Y-123289800D03*
X91963400Y-106444200D03*
X90109200Y-102608800D03*
X98785900Y-101408700D03*
X92344400Y-90975600D03*
X93411200Y-94760200D03*
X92344400Y-90289800D03*
X105048000Y-90035800D03*
X105073400Y-90848600D03*
X106292600Y-95242800D03*
X113963400Y-106444200D03*
X120785900Y-101408700D03*
X112109200Y-102608800D03*
X83073400Y-90848600D03*
X84292600Y-95242800D03*
X83048000Y-90035800D03*
X156109200Y-102608800D03*
X157963400Y-106444200D03*
X142785900Y-101408700D03*
X150292600Y-95242800D03*
X149048000Y-90035800D03*
X158344400Y-90289800D03*
X149073400Y-90848600D03*
X159411200Y-94760200D03*
X164785900Y-101408700D03*
X158344400Y-90975600D03*
X127073400Y-90848600D03*
X134109200Y-102608800D03*
X135963400Y-106444200D03*
X137411200Y-94760200D03*
X136344400Y-90975600D03*
X127048000Y-90035800D03*
X128292600Y-95242800D03*
X114344400Y-90975600D03*
X115411200Y-94760200D03*
X114344400Y-90289800D03*
X136344400Y-90289800D03*
X150292600Y-62242800D03*
X149073400Y-57848600D03*
X149048000Y-57035800D03*
X158344400Y-57975600D03*
X158344400Y-57289800D03*
X159411200Y-61760200D03*
X156109200Y-69608800D03*
X157963400Y-73444200D03*
X164785900Y-68408700D03*
X128292600Y-62242800D03*
X127048000Y-57035800D03*
X127073400Y-57848600D03*
X137411200Y-61760200D03*
X142785900Y-68408700D03*
X134109200Y-69608800D03*
X135963400Y-73444200D03*
X136344400Y-57289800D03*
X136344400Y-57975600D03*
X114344400Y-57975600D03*
X114344400Y-57289800D03*
X115411200Y-61760200D03*
X113963400Y-73444200D03*
X120785900Y-68408700D03*
X112109200Y-69608800D03*
X105073400Y-57848600D03*
X106292600Y-62242800D03*
X105048000Y-57035800D03*
X98785900Y-68408700D03*
X91963400Y-73444200D03*
X84292600Y-62242800D03*
X93411200Y-61760200D03*
X90109200Y-69608800D03*
X92344400Y-57289800D03*
X92344400Y-57975600D03*
X83048000Y-57035800D03*
X83073400Y-57848600D03*
X158344400Y-136396200D03*
X92344400Y-136396200D03*
X114344400Y-136396200D03*
X136344400Y-136396200D03*
X92344400Y-103396200D03*
X114344400Y-103396200D03*
X158344400Y-103396200D03*
X136344400Y-103396200D03*
X158344400Y-70396200D03*
X136344400Y-70396200D03*
X114344400Y-70396200D03*
X92344400Y-70396200D03*
X166701000Y-135739600D03*
X100701000Y-135739600D03*
X122701000Y-135739600D03*
X144701000Y-135739600D03*
X100701000Y-102739600D03*
X144701000Y-102739600D03*
X166701000Y-102739600D03*
X122701000Y-102739600D03*
X166701000Y-69739600D03*
X144701000Y-69739600D03*
X122701000Y-69739600D03*
X100701000Y-69739600D03*
D26*
X138431000Y-121955600D02*
X138992600Y-122517200D01*
X136369800Y-121955600D02*
X138431000Y-121955600D01*
X128242400Y-121856800D02*
X126692400Y-121856800D01*
X128572000Y-122186400D02*
X128242400Y-121856800D01*
X129340600Y-122517200D02*
X128572000Y-122517200D01*
X128572000Y-122517200D02*
X128572000Y-122186400D01*
D27*
X125803400Y-118648200D02*
X125803400Y-119458200D01*
X126500200Y-121856800D02*
X125422400Y-120779000D01*
X125422400Y-119915400D02*
X125422400Y-120779000D01*
X125422400Y-119839200D02*
X125422400Y-119915400D01*
X126692400Y-121856800D02*
X126500200Y-121856800D01*
X125803400Y-119458200D02*
X125422400Y-119839200D01*
X135658600Y-119737600D02*
X135658600Y-118697600D01*
X135658600Y-121287000D02*
X135658600Y-119737600D01*
X136369800Y-121955600D02*
X136327200Y-121955600D01*
X136327200Y-121955600D02*
X135658600Y-121287000D01*
D28*
X127137600Y-137604800D02*
X127837600Y-137604800D01*
X126133600Y-138608800D02*
X126133600Y-141857200D01*
X126133600Y-138608800D02*
X127137600Y-137604800D01*
D26*
X158369800Y-121955600D02*
X160431000Y-121955600D01*
X160431000Y-121955600D02*
X160992600Y-122517200D01*
D28*
X149137600Y-137604800D02*
X149837600Y-137604800D01*
X148133600Y-138608800D02*
X148133600Y-141857200D01*
X148133600Y-138608800D02*
X149137600Y-137604800D01*
D27*
X157658600Y-121287000D02*
X157658600Y-119737600D01*
X158327200Y-121955600D02*
X157658600Y-121287000D01*
X158369800Y-121955600D02*
X158327200Y-121955600D01*
X157658600Y-119737600D02*
X157658600Y-118697600D01*
D26*
X151340600Y-122517200D02*
X150572000Y-122517200D01*
X150572000Y-122186400D02*
X150242400Y-121856800D01*
X150572000Y-122517200D02*
X150572000Y-122186400D01*
D27*
X147803400Y-118648200D02*
X147803400Y-119458200D01*
D26*
X150242400Y-121856800D02*
X148692400Y-121856800D01*
D27*
X147422400Y-119915400D02*
X147422400Y-120779000D01*
X147803400Y-119458200D02*
X147422400Y-119839200D01*
X147422400Y-119839200D02*
X147422400Y-119915400D01*
X148500200Y-121856800D02*
X147422400Y-120779000D01*
X148692400Y-121856800D02*
X148500200Y-121856800D01*
D28*
X104133600Y-138608800D02*
X105137600Y-137604800D01*
X104133600Y-138608800D02*
X104133600Y-141857200D01*
X105137600Y-137604800D02*
X105837600Y-137604800D01*
D26*
X107340600Y-122517200D02*
X106572000Y-122517200D01*
X106572000Y-122517200D02*
X106572000Y-122186400D01*
X116431000Y-121955600D02*
X116992600Y-122517200D01*
D27*
X104692400Y-121856800D02*
X104500200Y-121856800D01*
X104500200Y-121856800D02*
X103422400Y-120779000D01*
X103803400Y-118648200D02*
X103803400Y-119458200D01*
X103422400Y-119915400D02*
X103422400Y-120779000D01*
X103422400Y-119839200D02*
X103422400Y-119915400D01*
D26*
X106242400Y-121856800D02*
X104692400Y-121856800D01*
X106572000Y-122186400D02*
X106242400Y-121856800D01*
D27*
X103803400Y-119458200D02*
X103422400Y-119839200D01*
X113658600Y-119737600D02*
X113658600Y-118697600D01*
X113658600Y-121287000D02*
X113658600Y-119737600D01*
X114327200Y-121955600D02*
X113658600Y-121287000D01*
D26*
X114369800Y-121955600D02*
X116431000Y-121955600D01*
D27*
X114369800Y-121955600D02*
X114327200Y-121955600D01*
D28*
X82133600Y-138608800D02*
X83137600Y-137604800D01*
X83137600Y-137604800D02*
X83837600Y-137604800D01*
X82133600Y-138608800D02*
X82133600Y-141857200D01*
D26*
X84572000Y-122517200D02*
X84572000Y-122186400D01*
X85340600Y-122517200D02*
X84572000Y-122517200D01*
D27*
X91658600Y-119737600D02*
X91658600Y-118697600D01*
X92327200Y-121955600D02*
X91658600Y-121287000D01*
X92369800Y-121955600D02*
X92327200Y-121955600D01*
X91658600Y-121287000D02*
X91658600Y-119737600D01*
D26*
X92369800Y-121955600D02*
X94431000Y-121955600D01*
X94431000Y-121955600D02*
X94992600Y-122517200D01*
D27*
X81803400Y-119458200D02*
X81422400Y-119839200D01*
X82500200Y-121856800D02*
X81422400Y-120779000D01*
X81803400Y-118648200D02*
X81803400Y-119458200D01*
X81422400Y-119839200D02*
X81422400Y-119915400D01*
X82692400Y-121856800D02*
X82500200Y-121856800D01*
X81422400Y-119915400D02*
X81422400Y-120779000D01*
D26*
X84572000Y-122186400D02*
X84242400Y-121856800D01*
X84242400Y-121856800D02*
X82692400Y-121856800D01*
D27*
X114369800Y-88955600D02*
X114327200Y-88955600D01*
X114327200Y-88955600D02*
X113658600Y-88287000D01*
X113658600Y-86737600D02*
X113658600Y-85697600D01*
X113658600Y-88287000D02*
X113658600Y-86737600D01*
X104500200Y-88856800D02*
X103422400Y-87779000D01*
X103803400Y-86458200D02*
X103422400Y-86839200D01*
X103422400Y-86839200D02*
X103422400Y-86915400D01*
X103422400Y-86915400D02*
X103422400Y-87779000D01*
X103803400Y-85648200D02*
X103803400Y-86458200D01*
D26*
X107340600Y-89517200D02*
X106572000Y-89517200D01*
D27*
X104692400Y-88856800D02*
X104500200Y-88856800D01*
D26*
X106572000Y-89517200D02*
X106572000Y-89186400D01*
X106242400Y-88856800D02*
X104692400Y-88856800D01*
X106572000Y-89186400D02*
X106242400Y-88856800D01*
D28*
X104133600Y-105608800D02*
X105137600Y-104604800D01*
X105137600Y-104604800D02*
X105837600Y-104604800D01*
D26*
X114369800Y-88955600D02*
X116431000Y-88955600D01*
X116431000Y-88955600D02*
X116992600Y-89517200D01*
D28*
X127137600Y-104604800D02*
X127837600Y-104604800D01*
X126133600Y-105608800D02*
X126133600Y-108857200D01*
X126133600Y-105608800D02*
X127137600Y-104604800D01*
D26*
X150242400Y-88856800D02*
X148692400Y-88856800D01*
D27*
X148692400Y-88856800D02*
X148500200Y-88856800D01*
X147422400Y-86915400D02*
X147422400Y-87779000D01*
X148500200Y-88856800D02*
X147422400Y-87779000D01*
X147422400Y-86839200D02*
X147422400Y-86915400D01*
X147803400Y-85648200D02*
X147803400Y-86458200D01*
X147803400Y-86458200D02*
X147422400Y-86839200D01*
D28*
X149137600Y-104604800D02*
X149837600Y-104604800D01*
X148133600Y-105608800D02*
X148133600Y-108857200D01*
X148133600Y-105608800D02*
X149137600Y-104604800D01*
D27*
X125803400Y-85648200D02*
X125803400Y-86458200D01*
X135658600Y-86737600D02*
X135658600Y-85697600D01*
X135658600Y-88287000D02*
X135658600Y-86737600D01*
X136327200Y-88955600D02*
X135658600Y-88287000D01*
X136369800Y-88955600D02*
X136327200Y-88955600D01*
D26*
X138431000Y-88955600D02*
X138992600Y-89517200D01*
X136369800Y-88955600D02*
X138431000Y-88955600D01*
D27*
X125803400Y-86458200D02*
X125422400Y-86839200D01*
X125422400Y-86839200D02*
X125422400Y-86915400D01*
X125422400Y-86915400D02*
X125422400Y-87779000D01*
D26*
X128242400Y-88856800D02*
X126692400Y-88856800D01*
D27*
X126500200Y-88856800D02*
X125422400Y-87779000D01*
D26*
X128572000Y-89186400D02*
X128242400Y-88856800D01*
D27*
X126692400Y-88856800D02*
X126500200Y-88856800D01*
D26*
X128572000Y-89517200D02*
X128572000Y-89186400D01*
X129340600Y-89517200D02*
X128572000Y-89517200D01*
D27*
X91658600Y-86737600D02*
X91658600Y-85697600D01*
D26*
X94431000Y-88955600D02*
X94992600Y-89517200D01*
D27*
X92369800Y-88955600D02*
X92327200Y-88955600D01*
D26*
X92369800Y-88955600D02*
X94431000Y-88955600D01*
D27*
X92327200Y-88955600D02*
X91658600Y-88287000D01*
X91658600Y-88287000D02*
X91658600Y-86737600D01*
X82692400Y-88856800D02*
X82500200Y-88856800D01*
X81422400Y-86915400D02*
X81422400Y-87779000D01*
X82500200Y-88856800D02*
X81422400Y-87779000D01*
X81803400Y-85648200D02*
X81803400Y-86458200D01*
X81803400Y-86458200D02*
X81422400Y-86839200D01*
X81422400Y-86839200D02*
X81422400Y-86915400D01*
D28*
X104133600Y-105608800D02*
X104133600Y-108857200D01*
D26*
X84242400Y-88856800D02*
X82692400Y-88856800D01*
X84572000Y-89186400D02*
X84242400Y-88856800D01*
X85340600Y-89517200D02*
X84572000Y-89517200D01*
X84572000Y-89517200D02*
X84572000Y-89186400D01*
D28*
X82133600Y-105608800D02*
X82133600Y-108857200D01*
X83137600Y-104604800D02*
X83837600Y-104604800D01*
X82133600Y-105608800D02*
X83137600Y-104604800D01*
D27*
X158369800Y-88955600D02*
X158327200Y-88955600D01*
X158327200Y-88955600D02*
X157658600Y-88287000D01*
X157658600Y-86737600D02*
X157658600Y-85697600D01*
X157658600Y-88287000D02*
X157658600Y-86737600D01*
D26*
X160431000Y-88955600D02*
X160992600Y-89517200D01*
X150572000Y-89186400D02*
X150242400Y-88856800D01*
X158369800Y-88955600D02*
X160431000Y-88955600D01*
X151340600Y-89517200D02*
X150572000Y-89517200D01*
X150572000Y-89517200D02*
X150572000Y-89186400D01*
X158369800Y-55955600D02*
X160431000Y-55955600D01*
D27*
X158369800Y-55955600D02*
X158327200Y-55955600D01*
X157658600Y-53737600D02*
X157658600Y-52697600D01*
X158327200Y-55955600D02*
X157658600Y-55287000D01*
D26*
X150242400Y-55856800D02*
X148692400Y-55856800D01*
D27*
X147422400Y-53839200D02*
X147422400Y-53915400D01*
X147422400Y-53915400D02*
X147422400Y-54779000D01*
X147803400Y-53458200D02*
X147422400Y-53839200D01*
X147803400Y-52648200D02*
X147803400Y-53458200D01*
X157658600Y-55287000D02*
X157658600Y-53737600D01*
D26*
X160431000Y-55955600D02*
X160992600Y-56517200D01*
X151340600Y-56517200D02*
X150572000Y-56517200D01*
X150572000Y-56517200D02*
X150572000Y-56186400D01*
X150572000Y-56186400D02*
X150242400Y-55856800D01*
D27*
X126692400Y-55856800D02*
X126500200Y-55856800D01*
D26*
X128572000Y-56186400D02*
X128242400Y-55856800D01*
D27*
X126500200Y-55856800D02*
X125422400Y-54779000D01*
D26*
X128242400Y-55856800D02*
X126692400Y-55856800D01*
D28*
X148133600Y-72608800D02*
X149137600Y-71604800D01*
X148133600Y-72608800D02*
X148133600Y-75857200D01*
D27*
X148692400Y-55856800D02*
X148500200Y-55856800D01*
X148500200Y-55856800D02*
X147422400Y-54779000D01*
D28*
X149137600Y-71604800D02*
X149837600Y-71604800D01*
X126133600Y-72608800D02*
X127137600Y-71604800D01*
X127137600Y-71604800D02*
X127837600Y-71604800D01*
X126133600Y-72608800D02*
X126133600Y-75857200D01*
D26*
X138431000Y-55955600D02*
X138992600Y-56517200D01*
D27*
X125803400Y-53458200D02*
X125422400Y-53839200D01*
X125422400Y-53915400D02*
X125422400Y-54779000D01*
X125803400Y-52648200D02*
X125803400Y-53458200D01*
X125422400Y-53839200D02*
X125422400Y-53915400D01*
D26*
X129340600Y-56517200D02*
X128572000Y-56517200D01*
X136369800Y-55955600D02*
X138431000Y-55955600D01*
D27*
X135658600Y-53737600D02*
X135658600Y-52697600D01*
X135658600Y-55287000D02*
X135658600Y-53737600D01*
X136327200Y-55955600D02*
X135658600Y-55287000D01*
X136369800Y-55955600D02*
X136327200Y-55955600D01*
D26*
X128572000Y-56517200D02*
X128572000Y-56186400D01*
X107340600Y-56517200D02*
X106572000Y-56517200D01*
X106572000Y-56517200D02*
X106572000Y-56186400D01*
D28*
X105137600Y-71604800D02*
X105837600Y-71604800D01*
X104133600Y-72608800D02*
X105137600Y-71604800D01*
X104133600Y-72608800D02*
X104133600Y-75857200D01*
D26*
X116431000Y-55955600D02*
X116992600Y-56517200D01*
X114369800Y-55955600D02*
X116431000Y-55955600D01*
D27*
X114369800Y-55955600D02*
X114327200Y-55955600D01*
X114327200Y-55955600D02*
X113658600Y-55287000D01*
X113658600Y-53737600D02*
X113658600Y-52697600D01*
X113658600Y-55287000D02*
X113658600Y-53737600D01*
D26*
X106242400Y-55856800D02*
X104692400Y-55856800D01*
D27*
X103803400Y-52648200D02*
X103803400Y-53458200D01*
D26*
X106572000Y-56186400D02*
X106242400Y-55856800D01*
D27*
X103422400Y-53839200D02*
X103422400Y-53915400D01*
X103803400Y-53458200D02*
X103422400Y-53839200D01*
X103422400Y-53915400D02*
X103422400Y-54779000D01*
X104500200Y-55856800D02*
X103422400Y-54779000D01*
X104692400Y-55856800D02*
X104500200Y-55856800D01*
X82692400Y-55856800D02*
X82500200Y-55856800D01*
X82500200Y-55856800D02*
X81422400Y-54779000D01*
X81422400Y-53915400D02*
X81422400Y-54779000D01*
X81803400Y-53458200D02*
X81422400Y-53839200D01*
X81422400Y-53839200D02*
X81422400Y-53915400D01*
X81803400Y-52648200D02*
X81803400Y-53458200D01*
X91658600Y-55287000D02*
X91658600Y-53737600D01*
X91658600Y-53737600D02*
X91658600Y-52697600D01*
X92327200Y-55955600D02*
X91658600Y-55287000D01*
X92369800Y-55955600D02*
X92327200Y-55955600D01*
D26*
X92369800Y-55955600D02*
X94431000Y-55955600D01*
X94431000Y-55955600D02*
X94992600Y-56517200D01*
D28*
X82133600Y-72608800D02*
X82133600Y-75857200D01*
X82133600Y-72608800D02*
X83137600Y-71604800D01*
X83137600Y-71604800D02*
X83837600Y-71604800D01*
D26*
X84572000Y-56517200D02*
X84572000Y-56186400D01*
X84572000Y-56186400D02*
X84242400Y-55856800D01*
X84242400Y-55856800D02*
X82692400Y-55856800D01*
X85340600Y-56517200D02*
X84572000Y-56517200D01*
D28*
X127708400Y-127658600D02*
X128292600Y-128242800D01*
X127029200Y-127658600D02*
X127657600Y-127658600D01*
X126692400Y-127321800D02*
X127029200Y-127658600D01*
X127657600Y-127658600D02*
X127708400Y-127658600D01*
X126692400Y-126571800D02*
X126692400Y-127321800D01*
D27*
X138427200Y-124986000D02*
X139228400Y-124986000D01*
D29*
X136344400Y-123289800D02*
X136344400Y-123975600D01*
D28*
X136605000Y-127760200D02*
X137411200Y-127760200D01*
D26*
X136400200Y-124986000D02*
X136369800Y-124955600D01*
D29*
X136369800Y-124955600D02*
X136369800Y-124229600D01*
X136369800Y-124229600D02*
X136344400Y-124204200D01*
X136344400Y-124204200D02*
X136344400Y-123975600D01*
D26*
X138427200Y-124986000D02*
X136400200Y-124986000D01*
D28*
X136293600Y-126698800D02*
X136293600Y-127448800D01*
X136293600Y-127448800D02*
X136605000Y-127760200D01*
D27*
X129373200Y-124935200D02*
X130347800Y-125909800D01*
X128699000Y-124935200D02*
X129373200Y-124935200D01*
D29*
X126692400Y-124856800D02*
X126692400Y-124636000D01*
X126692400Y-124636000D02*
X127073400Y-124255000D01*
X127073400Y-124255000D02*
X127073400Y-123848600D01*
X127048000Y-123035800D02*
X127048000Y-123823200D01*
D26*
X126770800Y-124935200D02*
X126692400Y-124856800D01*
X128699000Y-124935200D02*
X126770800Y-124935200D01*
D29*
X127048000Y-123823200D02*
X127073400Y-123848600D01*
D26*
X136293600Y-125031800D02*
X136369800Y-124955600D01*
D28*
X134424200Y-137604800D02*
X134424200Y-139434000D01*
X135164000Y-139444200D02*
X135963400Y-139444200D01*
X133893900Y-134567700D02*
X134109200Y-134783000D01*
X134109200Y-134783000D02*
X134109200Y-135608800D01*
X133343900Y-134567700D02*
X133893900Y-134567700D01*
X134414000Y-139444200D02*
X135164000Y-139444200D01*
X134424200Y-139434000D02*
X134414000Y-139444200D01*
D27*
X161228400Y-124986000D02*
X162126800Y-125884400D01*
X160427200Y-124986000D02*
X161228400Y-124986000D01*
D26*
X160427200Y-124986000D02*
X158400200Y-124986000D01*
D28*
X164719800Y-137600200D02*
X164857000Y-137463000D01*
X164730000Y-137437600D02*
X164730000Y-139129200D01*
X164592800Y-139266400D02*
X165342800Y-139266400D01*
X165812000Y-139735600D02*
X165812000Y-141011200D01*
X164730000Y-139129200D02*
X164592800Y-139266400D01*
X165812000Y-141011200D02*
X165812000Y-142111200D01*
X165342800Y-139266400D02*
X165812000Y-139735600D01*
D29*
X164056100Y-134408700D02*
X164785900Y-134408700D01*
X149073400Y-124255000D02*
X149073400Y-123848600D01*
X148692400Y-124636000D02*
X149073400Y-124255000D01*
X148692400Y-124856800D02*
X148692400Y-124636000D01*
D26*
X148770800Y-124935200D02*
X148692400Y-124856800D01*
D28*
X149657600Y-127658600D02*
X149708400Y-127658600D01*
X148692400Y-127321800D02*
X149029200Y-127658600D01*
X149708400Y-127658600D02*
X150292600Y-128242800D01*
X149029200Y-127658600D02*
X149657600Y-127658600D01*
X148692400Y-126571800D02*
X148692400Y-127321800D01*
X142719800Y-137600200D02*
X142857000Y-137463000D01*
X142730000Y-137437600D02*
X142730000Y-139129200D01*
D29*
X142056100Y-134408700D02*
X142785900Y-134408700D01*
D28*
X143812000Y-141011200D02*
X143812000Y-142111200D01*
X143342800Y-139266400D02*
X143812000Y-139735600D01*
X142592800Y-139266400D02*
X143342800Y-139266400D01*
X142730000Y-139129200D02*
X142592800Y-139266400D01*
X143812000Y-139735600D02*
X143812000Y-141011200D01*
X155893900Y-134567700D02*
X156109200Y-134783000D01*
X156109200Y-134783000D02*
X156109200Y-135608800D01*
X155343900Y-134567700D02*
X155893900Y-134567700D01*
X156424200Y-137604800D02*
X156424200Y-139434000D01*
X156414000Y-139444200D02*
X157164000Y-139444200D01*
X157164000Y-139444200D02*
X157963400Y-139444200D01*
X156424200Y-139434000D02*
X156414000Y-139444200D01*
X158293600Y-126698800D02*
X158293600Y-127448800D01*
X158293600Y-127448800D02*
X158605000Y-127760200D01*
X158605000Y-127760200D02*
X159411200Y-127760200D01*
D26*
X158400200Y-124986000D02*
X158369800Y-124955600D01*
X158293600Y-125031800D02*
X158369800Y-124955600D01*
D29*
X158344400Y-124204200D02*
X158344400Y-123975600D01*
X158369800Y-124229600D02*
X158344400Y-124204200D01*
X158344400Y-123289800D02*
X158344400Y-123975600D01*
X158369800Y-124955600D02*
X158369800Y-124229600D01*
D26*
X150699000Y-124935200D02*
X148770800Y-124935200D01*
D27*
X150699000Y-124935200D02*
X151373200Y-124935200D01*
X151373200Y-124935200D02*
X152347800Y-125909800D01*
X139228400Y-124986000D02*
X140126800Y-125884400D01*
D29*
X149048000Y-123035800D02*
X149048000Y-123823200D01*
X149048000Y-123823200D02*
X149073400Y-123848600D01*
X105048000Y-123823200D02*
X105073400Y-123848600D01*
X105048000Y-123035800D02*
X105048000Y-123823200D01*
D26*
X106699000Y-124935200D02*
X104770800Y-124935200D01*
X104770800Y-124935200D02*
X104692400Y-124856800D01*
D29*
X105073400Y-124255000D02*
X105073400Y-123848600D01*
D27*
X106699000Y-124935200D02*
X107373200Y-124935200D01*
D29*
X104692400Y-124636000D02*
X105073400Y-124255000D01*
X104692400Y-124856800D02*
X104692400Y-124636000D01*
D28*
X105029200Y-127658600D02*
X105657600Y-127658600D01*
X104692400Y-127321800D02*
X105029200Y-127658600D01*
X104692400Y-126571800D02*
X104692400Y-127321800D01*
X105657600Y-127658600D02*
X105708400Y-127658600D01*
X105708400Y-127658600D02*
X106292600Y-128242800D01*
X112109200Y-134783000D02*
X112109200Y-135608800D01*
X111343900Y-134567700D02*
X111893900Y-134567700D01*
X111893900Y-134567700D02*
X112109200Y-134783000D01*
X112424200Y-139434000D02*
X112414000Y-139444200D01*
X112424200Y-137604800D02*
X112424200Y-139434000D01*
X113164000Y-139444200D02*
X113963400Y-139444200D01*
X112414000Y-139444200D02*
X113164000Y-139444200D01*
D27*
X107373200Y-124935200D02*
X108347800Y-125909800D01*
D28*
X121342800Y-139266400D02*
X121812000Y-139735600D01*
X121812000Y-139735600D02*
X121812000Y-141011200D01*
X121812000Y-141011200D02*
X121812000Y-142111200D01*
X120592800Y-139266400D02*
X121342800Y-139266400D01*
X120730000Y-139129200D02*
X120592800Y-139266400D01*
D29*
X120056100Y-134408700D02*
X120785900Y-134408700D01*
D28*
X120719800Y-137600200D02*
X120857000Y-137463000D01*
X120730000Y-137437600D02*
X120730000Y-139129200D01*
X114605000Y-127760200D02*
X115411200Y-127760200D01*
X114293600Y-127448800D02*
X114605000Y-127760200D01*
X114293600Y-126698800D02*
X114293600Y-127448800D01*
D27*
X117228400Y-124986000D02*
X118126800Y-125884400D01*
X116427200Y-124986000D02*
X117228400Y-124986000D01*
D29*
X114369800Y-124955600D02*
X114369800Y-124229600D01*
D26*
X116427200Y-124986000D02*
X114400200Y-124986000D01*
X114400200Y-124986000D02*
X114369800Y-124955600D01*
D29*
X114344400Y-124204200D02*
X114344400Y-123975600D01*
D26*
X114293600Y-125031800D02*
X114369800Y-124955600D01*
D29*
X114369800Y-124229600D02*
X114344400Y-124204200D01*
X114344400Y-123289800D02*
X114344400Y-123975600D01*
X98056100Y-134408700D02*
X98785900Y-134408700D01*
D28*
X98719800Y-137600200D02*
X98857000Y-137463000D01*
X98592800Y-139266400D02*
X99342800Y-139266400D01*
X99812000Y-139735600D02*
X99812000Y-141011200D01*
X99812000Y-141011200D02*
X99812000Y-142111200D01*
X99342800Y-139266400D02*
X99812000Y-139735600D01*
X98730000Y-139129200D02*
X98592800Y-139266400D01*
X98730000Y-137437600D02*
X98730000Y-139129200D01*
D27*
X94427200Y-124986000D02*
X95228400Y-124986000D01*
D28*
X92605000Y-127760200D02*
X93411200Y-127760200D01*
D27*
X85373200Y-124935200D02*
X86347800Y-125909800D01*
D28*
X83657600Y-127658600D02*
X83708400Y-127658600D01*
X82692400Y-126571800D02*
X82692400Y-127321800D01*
X83029200Y-127658600D02*
X83657600Y-127658600D01*
X82692400Y-127321800D02*
X83029200Y-127658600D01*
D27*
X84699000Y-124935200D02*
X85373200Y-124935200D01*
D29*
X83073400Y-124255000D02*
X83073400Y-123848600D01*
X83048000Y-123823200D02*
X83073400Y-123848600D01*
X83048000Y-123035800D02*
X83048000Y-123823200D01*
D28*
X83708400Y-127658600D02*
X84292600Y-128242800D01*
D27*
X95228400Y-124986000D02*
X96126800Y-125884400D01*
D26*
X94427200Y-124986000D02*
X92400200Y-124986000D01*
D29*
X92369800Y-124955600D02*
X92369800Y-124229600D01*
X92369800Y-124229600D02*
X92344400Y-124204200D01*
D28*
X92293600Y-126698800D02*
X92293600Y-127448800D01*
X92293600Y-127448800D02*
X92605000Y-127760200D01*
D26*
X92400200Y-124986000D02*
X92369800Y-124955600D01*
X92293600Y-125031800D02*
X92369800Y-124955600D01*
D29*
X92344400Y-123289800D02*
X92344400Y-123975600D01*
X92344400Y-124204200D02*
X92344400Y-123975600D01*
D28*
X89893900Y-134567700D02*
X90109200Y-134783000D01*
X90109200Y-134783000D02*
X90109200Y-135608800D01*
X89343900Y-134567700D02*
X89893900Y-134567700D01*
X90424200Y-139434000D02*
X90414000Y-139444200D01*
X90424200Y-137604800D02*
X90424200Y-139434000D01*
X91164000Y-139444200D02*
X91963400Y-139444200D01*
X90414000Y-139444200D02*
X91164000Y-139444200D01*
D29*
X82692400Y-124856800D02*
X82692400Y-124636000D01*
X82692400Y-124636000D02*
X83073400Y-124255000D01*
D26*
X82770800Y-124935200D02*
X82692400Y-124856800D01*
X84699000Y-124935200D02*
X82770800Y-124935200D01*
D28*
X105029200Y-94658600D02*
X105657600Y-94658600D01*
X104692400Y-94321800D02*
X105029200Y-94658600D01*
X105657600Y-94658600D02*
X105708400Y-94658600D01*
X104692400Y-93571800D02*
X104692400Y-94321800D01*
D27*
X107373200Y-91935200D02*
X108347800Y-92909800D01*
X106699000Y-91935200D02*
X107373200Y-91935200D01*
D26*
X104770800Y-91935200D02*
X104692400Y-91856800D01*
X106699000Y-91935200D02*
X104770800Y-91935200D01*
D29*
X105048000Y-90035800D02*
X105048000Y-90823200D01*
X105048000Y-90823200D02*
X105073400Y-90848600D01*
X105073400Y-91255000D02*
X105073400Y-90848600D01*
X104692400Y-91856800D02*
X104692400Y-91636000D01*
X104692400Y-91636000D02*
X105073400Y-91255000D01*
D28*
X105708400Y-94658600D02*
X106292600Y-95242800D01*
D29*
X120056100Y-101408700D02*
X120785900Y-101408700D01*
D28*
X121812000Y-108011200D02*
X121812000Y-109111200D01*
X120730000Y-106129200D02*
X120592800Y-106266400D01*
X121342800Y-106266400D02*
X121812000Y-106735600D01*
X121812000Y-106735600D02*
X121812000Y-108011200D01*
X120592800Y-106266400D02*
X121342800Y-106266400D01*
X120719800Y-104600200D02*
X120857000Y-104463000D01*
X120730000Y-104437600D02*
X120730000Y-106129200D01*
X112424200Y-106434000D02*
X112414000Y-106444200D01*
X112424200Y-104604800D02*
X112424200Y-106434000D01*
X113164000Y-106444200D02*
X113963400Y-106444200D01*
X112414000Y-106444200D02*
X113164000Y-106444200D01*
X112109200Y-101783000D02*
X112109200Y-102608800D01*
X111893900Y-101567700D02*
X112109200Y-101783000D01*
X111343900Y-101567700D02*
X111893900Y-101567700D01*
D29*
X114369800Y-91229600D02*
X114344400Y-91204200D01*
X114344400Y-91204200D02*
X114344400Y-90975600D01*
X114344400Y-90289800D02*
X114344400Y-90975600D01*
D26*
X114293600Y-92031800D02*
X114369800Y-91955600D01*
X114400200Y-91986000D02*
X114369800Y-91955600D01*
D29*
X114369800Y-91955600D02*
X114369800Y-91229600D01*
D26*
X116427200Y-91986000D02*
X114400200Y-91986000D01*
D27*
X116427200Y-91986000D02*
X117228400Y-91986000D01*
X117228400Y-91986000D02*
X118126800Y-92884400D01*
D28*
X114293600Y-93698800D02*
X114293600Y-94448800D01*
X114293600Y-94448800D02*
X114605000Y-94760200D01*
X114605000Y-94760200D02*
X115411200Y-94760200D01*
D29*
X149048000Y-90823200D02*
X149073400Y-90848600D01*
X149073400Y-91255000D02*
X149073400Y-90848600D01*
X149048000Y-90035800D02*
X149048000Y-90823200D01*
X148692400Y-91856800D02*
X148692400Y-91636000D01*
X148692400Y-91636000D02*
X149073400Y-91255000D01*
D28*
X149029200Y-94658600D02*
X149657600Y-94658600D01*
X149657600Y-94658600D02*
X149708400Y-94658600D01*
X149708400Y-94658600D02*
X150292600Y-95242800D01*
D26*
X150699000Y-91935200D02*
X148770800Y-91935200D01*
X148770800Y-91935200D02*
X148692400Y-91856800D01*
D28*
X148692400Y-94321800D02*
X149029200Y-94658600D01*
X148692400Y-93571800D02*
X148692400Y-94321800D01*
X136293600Y-93698800D02*
X136293600Y-94448800D01*
D26*
X136400200Y-91986000D02*
X136369800Y-91955600D01*
X136293600Y-92031800D02*
X136369800Y-91955600D01*
D29*
X136344400Y-91204200D02*
X136344400Y-90975600D01*
D28*
X136293600Y-94448800D02*
X136605000Y-94760200D01*
D29*
X136369800Y-91229600D02*
X136344400Y-91204200D01*
D26*
X138427200Y-91986000D02*
X136400200Y-91986000D01*
D29*
X136344400Y-90289800D02*
X136344400Y-90975600D01*
X136369800Y-91955600D02*
X136369800Y-91229600D01*
D27*
X138427200Y-91986000D02*
X139228400Y-91986000D01*
X139228400Y-91986000D02*
X140126800Y-92884400D01*
D28*
X136605000Y-94760200D02*
X137411200Y-94760200D01*
X142592800Y-106266400D02*
X143342800Y-106266400D01*
X143812000Y-106735600D02*
X143812000Y-108011200D01*
X143812000Y-108011200D02*
X143812000Y-109111200D01*
X143342800Y-106266400D02*
X143812000Y-106735600D01*
D29*
X142056100Y-101408700D02*
X142785900Y-101408700D01*
D28*
X142719800Y-104600200D02*
X142857000Y-104463000D01*
X134424200Y-104604800D02*
X134424200Y-106434000D01*
X134414000Y-106444200D02*
X135164000Y-106444200D01*
X134424200Y-106434000D02*
X134414000Y-106444200D01*
X135164000Y-106444200D02*
X135963400Y-106444200D01*
X133893900Y-101567700D02*
X134109200Y-101783000D01*
X133343900Y-101567700D02*
X133893900Y-101567700D01*
X142730000Y-104437600D02*
X142730000Y-106129200D01*
X142730000Y-106129200D02*
X142592800Y-106266400D01*
X134109200Y-101783000D02*
X134109200Y-102608800D01*
X127657600Y-94658600D02*
X127708400Y-94658600D01*
X127029200Y-94658600D02*
X127657600Y-94658600D01*
X127708400Y-94658600D02*
X128292600Y-95242800D01*
D27*
X129373200Y-91935200D02*
X130347800Y-92909800D01*
D29*
X127048000Y-90823200D02*
X127073400Y-90848600D01*
X127073400Y-91255000D02*
X127073400Y-90848600D01*
X127048000Y-90035800D02*
X127048000Y-90823200D01*
X126692400Y-91636000D02*
X127073400Y-91255000D01*
D28*
X126692400Y-94321800D02*
X127029200Y-94658600D01*
X126692400Y-93571800D02*
X126692400Y-94321800D01*
D26*
X128699000Y-91935200D02*
X126770800Y-91935200D01*
X126770800Y-91935200D02*
X126692400Y-91856800D01*
D27*
X128699000Y-91935200D02*
X129373200Y-91935200D01*
D29*
X126692400Y-91856800D02*
X126692400Y-91636000D01*
D27*
X94427200Y-91986000D02*
X95228400Y-91986000D01*
X95228400Y-91986000D02*
X96126800Y-92884400D01*
D29*
X92369800Y-91229600D02*
X92344400Y-91204200D01*
X92344400Y-91204200D02*
X92344400Y-90975600D01*
X92344400Y-90289800D02*
X92344400Y-90975600D01*
X92369800Y-91955600D02*
X92369800Y-91229600D01*
D26*
X94427200Y-91986000D02*
X92400200Y-91986000D01*
X92293600Y-92031800D02*
X92369800Y-91955600D01*
D28*
X92605000Y-94760200D02*
X93411200Y-94760200D01*
D26*
X92400200Y-91986000D02*
X92369800Y-91955600D01*
D28*
X92293600Y-93698800D02*
X92293600Y-94448800D01*
X92293600Y-94448800D02*
X92605000Y-94760200D01*
X89343900Y-101567700D02*
X89893900Y-101567700D01*
X89893900Y-101567700D02*
X90109200Y-101783000D01*
X90109200Y-101783000D02*
X90109200Y-102608800D01*
X99812000Y-108011200D02*
X99812000Y-109111200D01*
X99342800Y-106266400D02*
X99812000Y-106735600D01*
X99812000Y-106735600D02*
X99812000Y-108011200D01*
X98592800Y-106266400D02*
X99342800Y-106266400D01*
X98730000Y-104437600D02*
X98730000Y-106129200D01*
X98730000Y-106129200D02*
X98592800Y-106266400D01*
X98719800Y-104600200D02*
X98857000Y-104463000D01*
D29*
X98056100Y-101408700D02*
X98785900Y-101408700D01*
D27*
X85373200Y-91935200D02*
X86347800Y-92909800D01*
D26*
X82770800Y-91935200D02*
X82692400Y-91856800D01*
X84699000Y-91935200D02*
X82770800Y-91935200D01*
D29*
X82692400Y-91856800D02*
X82692400Y-91636000D01*
D27*
X84699000Y-91935200D02*
X85373200Y-91935200D01*
D28*
X83708400Y-94658600D02*
X84292600Y-95242800D01*
X83657600Y-94658600D02*
X83708400Y-94658600D01*
X82692400Y-93571800D02*
X82692400Y-94321800D01*
X82692400Y-94321800D02*
X83029200Y-94658600D01*
X83029200Y-94658600D02*
X83657600Y-94658600D01*
D29*
X83048000Y-90035800D02*
X83048000Y-90823200D01*
X83048000Y-90823200D02*
X83073400Y-90848600D01*
X83073400Y-91255000D02*
X83073400Y-90848600D01*
X82692400Y-91636000D02*
X83073400Y-91255000D01*
D28*
X90424200Y-104604800D02*
X90424200Y-106434000D01*
X90424200Y-106434000D02*
X90414000Y-106444200D01*
X90414000Y-106444200D02*
X91164000Y-106444200D01*
X91164000Y-106444200D02*
X91963400Y-106444200D01*
D27*
X161228400Y-91986000D02*
X162126800Y-92884400D01*
D28*
X158293600Y-93698800D02*
X158293600Y-94448800D01*
D26*
X158293600Y-92031800D02*
X158369800Y-91955600D01*
D29*
X158344400Y-91204200D02*
X158344400Y-90975600D01*
X158369800Y-91955600D02*
X158369800Y-91229600D01*
X158369800Y-91229600D02*
X158344400Y-91204200D01*
X158344400Y-90289800D02*
X158344400Y-90975600D01*
D28*
X158293600Y-94448800D02*
X158605000Y-94760200D01*
X158605000Y-94760200D02*
X159411200Y-94760200D01*
D27*
X160427200Y-91986000D02*
X161228400Y-91986000D01*
D26*
X160427200Y-91986000D02*
X158400200Y-91986000D01*
X158400200Y-91986000D02*
X158369800Y-91955600D01*
D29*
X164056100Y-101408700D02*
X164785900Y-101408700D01*
D28*
X164592800Y-106266400D02*
X165342800Y-106266400D01*
X165812000Y-108011200D02*
X165812000Y-109111200D01*
X165812000Y-106735600D02*
X165812000Y-108011200D01*
X165342800Y-106266400D02*
X165812000Y-106735600D01*
X164730000Y-104437600D02*
X164730000Y-106129200D01*
X164719800Y-104600200D02*
X164857000Y-104463000D01*
X164730000Y-106129200D02*
X164592800Y-106266400D01*
D27*
X151373200Y-91935200D02*
X152347800Y-92909800D01*
X150699000Y-91935200D02*
X151373200Y-91935200D01*
D28*
X157164000Y-106444200D02*
X157963400Y-106444200D01*
X156424200Y-106434000D02*
X156414000Y-106444200D01*
X156414000Y-106444200D02*
X157164000Y-106444200D01*
X155893900Y-101567700D02*
X156109200Y-101783000D01*
X155343900Y-101567700D02*
X155893900Y-101567700D01*
X156109200Y-101783000D02*
X156109200Y-102608800D01*
X156424200Y-104604800D02*
X156424200Y-106434000D01*
D27*
X160427200Y-58986000D02*
X161228400Y-58986000D01*
X161228400Y-58986000D02*
X162126800Y-59884400D01*
D26*
X158293600Y-59031800D02*
X158369800Y-58955600D01*
X158400200Y-58986000D02*
X158369800Y-58955600D01*
D29*
X158344400Y-58204200D02*
X158344400Y-57975600D01*
X158369800Y-58229600D02*
X158344400Y-58204200D01*
X158369800Y-58955600D02*
X158369800Y-58229600D01*
X158344400Y-57289800D02*
X158344400Y-57975600D01*
D28*
X158293600Y-60698800D02*
X158293600Y-61448800D01*
X158605000Y-61760200D02*
X159411200Y-61760200D01*
D26*
X160427200Y-58986000D02*
X158400200Y-58986000D01*
D28*
X158293600Y-61448800D02*
X158605000Y-61760200D01*
X164730000Y-73129200D02*
X164592800Y-73266400D01*
X164719800Y-71600200D02*
X164857000Y-71463000D01*
X164730000Y-71437600D02*
X164730000Y-73129200D01*
D29*
X164056100Y-68408700D02*
X164785900Y-68408700D01*
D28*
X165812000Y-75011200D02*
X165812000Y-76111200D01*
X165812000Y-73735600D02*
X165812000Y-75011200D01*
X165342800Y-73266400D02*
X165812000Y-73735600D01*
X164592800Y-73266400D02*
X165342800Y-73266400D01*
X157164000Y-73444200D02*
X157963400Y-73444200D01*
X149708400Y-61658600D02*
X150292600Y-62242800D01*
D27*
X151373200Y-58935200D02*
X152347800Y-59909800D01*
D26*
X150699000Y-58935200D02*
X148770800Y-58935200D01*
D27*
X150699000Y-58935200D02*
X151373200Y-58935200D01*
D28*
X156414000Y-73444200D02*
X157164000Y-73444200D01*
X156424200Y-71604800D02*
X156424200Y-73434000D01*
X156424200Y-73434000D02*
X156414000Y-73444200D01*
X155893900Y-68567700D02*
X156109200Y-68783000D01*
X155343900Y-68567700D02*
X155893900Y-68567700D01*
X156109200Y-68783000D02*
X156109200Y-69608800D01*
X135164000Y-73444200D02*
X135963400Y-73444200D01*
X134414000Y-73444200D02*
X135164000Y-73444200D01*
X134424200Y-73434000D02*
X134414000Y-73444200D01*
X134424200Y-71604800D02*
X134424200Y-73434000D01*
X142592800Y-73266400D02*
X143342800Y-73266400D01*
X143812000Y-73735600D02*
X143812000Y-75011200D01*
X143812000Y-75011200D02*
X143812000Y-76111200D01*
X142719800Y-71600200D02*
X142857000Y-71463000D01*
X142730000Y-73129200D02*
X142592800Y-73266400D01*
X142730000Y-71437600D02*
X142730000Y-73129200D01*
X143342800Y-73266400D02*
X143812000Y-73735600D01*
D29*
X149048000Y-57035800D02*
X149048000Y-57823200D01*
X148692400Y-58636000D02*
X149073400Y-58255000D01*
D26*
X148770800Y-58935200D02*
X148692400Y-58856800D01*
D29*
X149048000Y-57823200D02*
X149073400Y-57848600D01*
X149073400Y-58255000D02*
X149073400Y-57848600D01*
X148692400Y-58856800D02*
X148692400Y-58636000D01*
D28*
X148692400Y-60571800D02*
X148692400Y-61321800D01*
X149657600Y-61658600D02*
X149708400Y-61658600D01*
X149029200Y-61658600D02*
X149657600Y-61658600D01*
X148692400Y-61321800D02*
X149029200Y-61658600D01*
D29*
X142056100Y-68408700D02*
X142785900Y-68408700D01*
D28*
X134109200Y-68783000D02*
X134109200Y-69608800D01*
X133893900Y-68567700D02*
X134109200Y-68783000D01*
X133343900Y-68567700D02*
X133893900Y-68567700D01*
D29*
X136369800Y-58955600D02*
X136369800Y-58229600D01*
X136344400Y-57289800D02*
X136344400Y-57975600D01*
X136344400Y-58204200D02*
X136344400Y-57975600D01*
X136369800Y-58229600D02*
X136344400Y-58204200D01*
D26*
X136293600Y-59031800D02*
X136369800Y-58955600D01*
X136400200Y-58986000D02*
X136369800Y-58955600D01*
D28*
X136293600Y-61448800D02*
X136605000Y-61760200D01*
X136293600Y-60698800D02*
X136293600Y-61448800D01*
X136605000Y-61760200D02*
X137411200Y-61760200D01*
D26*
X138427200Y-58986000D02*
X136400200Y-58986000D01*
D27*
X139228400Y-58986000D02*
X140126800Y-59884400D01*
X138427200Y-58986000D02*
X139228400Y-58986000D01*
D28*
X127708400Y-61658600D02*
X128292600Y-62242800D01*
X127029200Y-61658600D02*
X127657600Y-61658600D01*
X126692400Y-60571800D02*
X126692400Y-61321800D01*
X126692400Y-61321800D02*
X127029200Y-61658600D01*
X127657600Y-61658600D02*
X127708400Y-61658600D01*
D26*
X126770800Y-58935200D02*
X126692400Y-58856800D01*
D27*
X128699000Y-58935200D02*
X129373200Y-58935200D01*
D29*
X126692400Y-58856800D02*
X126692400Y-58636000D01*
X126692400Y-58636000D02*
X127073400Y-58255000D01*
D26*
X128699000Y-58935200D02*
X126770800Y-58935200D01*
D29*
X127073400Y-58255000D02*
X127073400Y-57848600D01*
X127048000Y-57823200D02*
X127073400Y-57848600D01*
X127048000Y-57035800D02*
X127048000Y-57823200D01*
D27*
X129373200Y-58935200D02*
X130347800Y-59909800D01*
D29*
X105048000Y-57823200D02*
X105073400Y-57848600D01*
X105048000Y-57035800D02*
X105048000Y-57823200D01*
D27*
X106699000Y-58935200D02*
X107373200Y-58935200D01*
D26*
X104770800Y-58935200D02*
X104692400Y-58856800D01*
D29*
X104692400Y-58636000D02*
X105073400Y-58255000D01*
X104692400Y-58856800D02*
X104692400Y-58636000D01*
D26*
X106699000Y-58935200D02*
X104770800Y-58935200D01*
D29*
X105073400Y-58255000D02*
X105073400Y-57848600D01*
D28*
X105657600Y-61658600D02*
X105708400Y-61658600D01*
X105029200Y-61658600D02*
X105657600Y-61658600D01*
X104692400Y-60571800D02*
X104692400Y-61321800D01*
X105708400Y-61658600D02*
X106292600Y-62242800D01*
X104692400Y-61321800D02*
X105029200Y-61658600D01*
X114293600Y-61448800D02*
X114605000Y-61760200D01*
X114605000Y-61760200D02*
X115411200Y-61760200D01*
D26*
X114293600Y-59031800D02*
X114369800Y-58955600D01*
X114400200Y-58986000D02*
X114369800Y-58955600D01*
D29*
X114369800Y-58955600D02*
X114369800Y-58229600D01*
X114344400Y-58204200D02*
X114344400Y-57975600D01*
X114369800Y-58229600D02*
X114344400Y-58204200D01*
X114344400Y-57289800D02*
X114344400Y-57975600D01*
D28*
X114293600Y-60698800D02*
X114293600Y-61448800D01*
D26*
X116427200Y-58986000D02*
X114400200Y-58986000D01*
D27*
X116427200Y-58986000D02*
X117228400Y-58986000D01*
X117228400Y-58986000D02*
X118126800Y-59884400D01*
D28*
X112109200Y-68783000D02*
X112109200Y-69608800D01*
X111343900Y-68567700D02*
X111893900Y-68567700D01*
X111893900Y-68567700D02*
X112109200Y-68783000D01*
X112414000Y-73444200D02*
X113164000Y-73444200D01*
X113164000Y-73444200D02*
X113963400Y-73444200D01*
X112424200Y-73434000D02*
X112414000Y-73444200D01*
X112424200Y-71604800D02*
X112424200Y-73434000D01*
D27*
X107373200Y-58935200D02*
X108347800Y-59909800D01*
D28*
X120730000Y-71437600D02*
X120730000Y-73129200D01*
X120719800Y-71600200D02*
X120857000Y-71463000D01*
D29*
X120056100Y-68408700D02*
X120785900Y-68408700D01*
D28*
X121812000Y-75011200D02*
X121812000Y-76111200D01*
X120730000Y-73129200D02*
X120592800Y-73266400D01*
X121812000Y-73735600D02*
X121812000Y-75011200D01*
X121342800Y-73266400D02*
X121812000Y-73735600D01*
X120592800Y-73266400D02*
X121342800Y-73266400D01*
D29*
X98056100Y-68408700D02*
X98785900Y-68408700D01*
D27*
X94427200Y-58986000D02*
X95228400Y-58986000D01*
X95228400Y-58986000D02*
X96126800Y-59884400D01*
X84699000Y-58935200D02*
X85373200Y-58935200D01*
X85373200Y-58935200D02*
X86347800Y-59909800D01*
D28*
X91164000Y-73444200D02*
X91963400Y-73444200D01*
X90414000Y-73444200D02*
X91164000Y-73444200D01*
X98592800Y-73266400D02*
X99342800Y-73266400D01*
X99342800Y-73266400D02*
X99812000Y-73735600D01*
X99812000Y-73735600D02*
X99812000Y-75011200D01*
X99812000Y-75011200D02*
X99812000Y-76111200D01*
X83708400Y-61658600D02*
X84292600Y-62242800D01*
X83657600Y-61658600D02*
X83708400Y-61658600D01*
X83029200Y-61658600D02*
X83657600Y-61658600D01*
X82692400Y-60571800D02*
X82692400Y-61321800D01*
X82692400Y-61321800D02*
X83029200Y-61658600D01*
X92605000Y-61760200D02*
X93411200Y-61760200D01*
X92293600Y-60698800D02*
X92293600Y-61448800D01*
X92293600Y-61448800D02*
X92605000Y-61760200D01*
X90424200Y-71604800D02*
X90424200Y-73434000D01*
X90424200Y-73434000D02*
X90414000Y-73444200D01*
X98730000Y-71437600D02*
X98730000Y-73129200D01*
X98730000Y-73129200D02*
X98592800Y-73266400D01*
X98719800Y-71600200D02*
X98857000Y-71463000D01*
X90109200Y-68783000D02*
X90109200Y-69608800D01*
X89343900Y-68567700D02*
X89893900Y-68567700D01*
X89893900Y-68567700D02*
X90109200Y-68783000D01*
D29*
X83048000Y-57035800D02*
X83048000Y-57823200D01*
X83048000Y-57823200D02*
X83073400Y-57848600D01*
X92344400Y-57289800D02*
X92344400Y-57975600D01*
X92369800Y-58229600D02*
X92344400Y-58204200D01*
X92344400Y-58204200D02*
X92344400Y-57975600D01*
X92369800Y-58955600D02*
X92369800Y-58229600D01*
X83073400Y-58255000D02*
X83073400Y-57848600D01*
X82692400Y-58636000D02*
X83073400Y-58255000D01*
X82692400Y-58856800D02*
X82692400Y-58636000D01*
D26*
X94427200Y-58986000D02*
X92400200Y-58986000D01*
X92400200Y-58986000D02*
X92369800Y-58955600D01*
X92293600Y-59031800D02*
X92369800Y-58955600D01*
X84699000Y-58935200D02*
X82770800Y-58935200D01*
X82770800Y-58935200D02*
X82692400Y-58856800D01*
D28*
X127812200Y-130594400D02*
X128512200Y-130594400D01*
X127812200Y-130594400D02*
X127812200Y-129691600D01*
X127812200Y-130594400D02*
X127812200Y-129494400D01*
X128512200Y-130594400D02*
X128699000Y-130781200D01*
X127812200Y-129494400D02*
X128138900Y-129167700D01*
X128138900Y-129167700D02*
X128983900Y-129167700D01*
X127812200Y-129691600D02*
X126692400Y-128571800D01*
X128983900Y-129167700D02*
X129533900Y-129167700D01*
X135912600Y-129665200D02*
X136077200Y-129665200D01*
X135582400Y-129995400D02*
X135912600Y-129665200D01*
X138246100Y-129008700D02*
X136603500Y-129008700D01*
X136603500Y-129008700D02*
X136293600Y-128698800D01*
X136293600Y-129448800D02*
X136293600Y-128698800D01*
X136077200Y-129665200D02*
X136293600Y-129448800D01*
X129504299Y-133467699D02*
X135234301Y-133467699D01*
X135234301Y-133467699D02*
X135582400Y-133119600D01*
X135582400Y-133119600D02*
X135582400Y-129995400D01*
X128699000Y-130781200D02*
X128699000Y-132662400D01*
X128699000Y-132662400D02*
X129504299Y-133467699D01*
X150699000Y-130781200D02*
X150699000Y-132662400D01*
X150512200Y-130594400D02*
X150699000Y-130781200D01*
X149812200Y-129691600D02*
X148692400Y-128571800D01*
X149812200Y-130594400D02*
X149812200Y-129691600D01*
X149812200Y-130594400D02*
X150512200Y-130594400D01*
X149812200Y-130594400D02*
X149812200Y-129494400D01*
X149812200Y-129494400D02*
X150138900Y-129167700D01*
X158077200Y-129665200D02*
X158293600Y-129448800D01*
X158293600Y-129448800D02*
X158293600Y-128698800D01*
X158603500Y-129008700D02*
X158293600Y-128698800D01*
X157912600Y-129665200D02*
X158077200Y-129665200D01*
X157582400Y-129995400D02*
X157912600Y-129665200D01*
X151504299Y-133467699D02*
X157234301Y-133467699D01*
X150983900Y-129167700D02*
X151533900Y-129167700D01*
X150138900Y-129167700D02*
X150983900Y-129167700D01*
X157234301Y-133467699D02*
X157582400Y-133119600D01*
X157582400Y-133119600D02*
X157582400Y-129995400D01*
X150699000Y-132662400D02*
X151504299Y-133467699D01*
X160246100Y-129008700D02*
X158603500Y-129008700D01*
X105812200Y-129691600D02*
X104692400Y-128571800D01*
X106512200Y-130594400D02*
X106699000Y-130781200D01*
X106138900Y-129167700D02*
X106983900Y-129167700D01*
X106983900Y-129167700D02*
X107533900Y-129167700D01*
X105812200Y-129494400D02*
X106138900Y-129167700D01*
X105812200Y-130594400D02*
X105812200Y-129494400D01*
X113582400Y-129995400D02*
X113912600Y-129665200D01*
X113234301Y-133467699D02*
X113582400Y-133119600D01*
X113582400Y-133119600D02*
X113582400Y-129995400D01*
X107504299Y-133467699D02*
X113234301Y-133467699D01*
X106699000Y-130781200D02*
X106699000Y-132662400D01*
X105812200Y-130594400D02*
X105812200Y-129691600D01*
X105812200Y-130594400D02*
X106512200Y-130594400D01*
X106699000Y-132662400D02*
X107504299Y-133467699D01*
X114293600Y-129448800D02*
X114293600Y-128698800D01*
X116246100Y-129008700D02*
X114603500Y-129008700D01*
X114077200Y-129665200D02*
X114293600Y-129448800D01*
X113912600Y-129665200D02*
X114077200Y-129665200D01*
X114603500Y-129008700D02*
X114293600Y-128698800D01*
X83812200Y-129691600D02*
X82692400Y-128571800D01*
X94246100Y-129008700D02*
X92603500Y-129008700D01*
X83812200Y-130594400D02*
X83812200Y-129691600D01*
X83812200Y-130594400D02*
X83812200Y-129494400D01*
X84699000Y-130781200D02*
X84699000Y-132662400D01*
X83812200Y-130594400D02*
X84512200Y-130594400D01*
X84512200Y-130594400D02*
X84699000Y-130781200D01*
X84699000Y-132662400D02*
X85504299Y-133467699D01*
X83812200Y-129494400D02*
X84138900Y-129167700D01*
X84138900Y-129167700D02*
X84983900Y-129167700D01*
X84983900Y-129167700D02*
X85533900Y-129167700D01*
X91582400Y-133119600D02*
X91582400Y-129995400D01*
X85504299Y-133467699D02*
X91234301Y-133467699D01*
X91234301Y-133467699D02*
X91582400Y-133119600D01*
X92603500Y-129008700D02*
X92293600Y-128698800D01*
X91582400Y-129995400D02*
X91912600Y-129665200D01*
X91912600Y-129665200D02*
X92077200Y-129665200D01*
X92293600Y-129448800D02*
X92293600Y-128698800D01*
X92077200Y-129665200D02*
X92293600Y-129448800D01*
X106138900Y-96167700D02*
X106983900Y-96167700D01*
X105812200Y-96494400D02*
X106138900Y-96167700D01*
X113234301Y-100467699D02*
X113582400Y-100119600D01*
X113582400Y-96995400D02*
X113912600Y-96665200D01*
X113582400Y-100119600D02*
X113582400Y-96995400D01*
X114293600Y-96448800D02*
X114293600Y-95698800D01*
X114077200Y-96665200D02*
X114293600Y-96448800D01*
X113912600Y-96665200D02*
X114077200Y-96665200D01*
X114603500Y-96008700D02*
X114293600Y-95698800D01*
X107504299Y-100467699D02*
X113234301Y-100467699D01*
X106699000Y-99662400D02*
X107504299Y-100467699D01*
X106699000Y-97781200D02*
X106699000Y-99662400D01*
X105812200Y-96691600D02*
X104692400Y-95571800D01*
X105812200Y-97594400D02*
X106512200Y-97594400D01*
X106512200Y-97594400D02*
X106699000Y-97781200D01*
X105812200Y-97594400D02*
X105812200Y-96691600D01*
X105812200Y-97594400D02*
X105812200Y-96494400D01*
X106983900Y-96167700D02*
X107533900Y-96167700D01*
X116246100Y-96008700D02*
X114603500Y-96008700D01*
X128699000Y-97781200D02*
X128699000Y-99662400D01*
X128699000Y-99662400D02*
X129504299Y-100467699D01*
X128983900Y-96167700D02*
X129533900Y-96167700D01*
X127812200Y-97594400D02*
X128512200Y-97594400D01*
X128138900Y-96167700D02*
X128983900Y-96167700D01*
X127812200Y-96494400D02*
X128138900Y-96167700D01*
X128512200Y-97594400D02*
X128699000Y-97781200D01*
X127812200Y-97594400D02*
X127812200Y-96691600D01*
X149812200Y-96691600D02*
X148692400Y-95571800D01*
X136077200Y-96665200D02*
X136293600Y-96448800D01*
X136293600Y-96448800D02*
X136293600Y-95698800D01*
X136603500Y-96008700D02*
X136293600Y-95698800D01*
X138246100Y-96008700D02*
X136603500Y-96008700D01*
X135582400Y-100119600D02*
X135582400Y-96995400D01*
X135912600Y-96665200D02*
X136077200Y-96665200D01*
X135582400Y-96995400D02*
X135912600Y-96665200D01*
X135234301Y-100467699D02*
X135582400Y-100119600D01*
X127812200Y-96691600D02*
X126692400Y-95571800D01*
X127812200Y-97594400D02*
X127812200Y-96494400D01*
X129504299Y-100467699D02*
X135234301Y-100467699D01*
X92603500Y-96008700D02*
X92293600Y-95698800D01*
X91912600Y-96665200D02*
X92077200Y-96665200D01*
X92077200Y-96665200D02*
X92293600Y-96448800D01*
X91582400Y-96995400D02*
X91912600Y-96665200D01*
X92293600Y-96448800D02*
X92293600Y-95698800D01*
X94246100Y-96008700D02*
X92603500Y-96008700D01*
X91582400Y-100119600D02*
X91582400Y-96995400D01*
X91234301Y-100467699D02*
X91582400Y-100119600D01*
X85504299Y-100467699D02*
X91234301Y-100467699D01*
X83812200Y-96494400D02*
X84138900Y-96167700D01*
X83812200Y-97594400D02*
X83812200Y-96494400D01*
X84138900Y-96167700D02*
X84983900Y-96167700D01*
X83812200Y-97594400D02*
X84512200Y-97594400D01*
X83812200Y-97594400D02*
X83812200Y-96691600D01*
X84512200Y-97594400D02*
X84699000Y-97781200D01*
X84983900Y-96167700D02*
X85533900Y-96167700D01*
X83812200Y-96691600D02*
X82692400Y-95571800D01*
X84699000Y-97781200D02*
X84699000Y-99662400D01*
X84699000Y-99662400D02*
X85504299Y-100467699D01*
X158293600Y-96448800D02*
X158293600Y-95698800D01*
X158603500Y-96008700D02*
X158293600Y-95698800D01*
X158077200Y-96665200D02*
X158293600Y-96448800D01*
X160246100Y-96008700D02*
X158603500Y-96008700D01*
X157582400Y-100119600D02*
X157582400Y-96995400D01*
X157234301Y-100467699D02*
X157582400Y-100119600D01*
X157912600Y-96665200D02*
X158077200Y-96665200D01*
X157582400Y-96995400D02*
X157912600Y-96665200D01*
X150699000Y-97781200D02*
X150699000Y-99662400D01*
X150983900Y-96167700D02*
X151533900Y-96167700D01*
X149812200Y-96494400D02*
X150138900Y-96167700D01*
X150512200Y-97594400D02*
X150699000Y-97781200D01*
X149812200Y-97594400D02*
X149812200Y-96691600D01*
X149812200Y-97594400D02*
X150512200Y-97594400D01*
X150138900Y-96167700D02*
X150983900Y-96167700D01*
X149812200Y-97594400D02*
X149812200Y-96494400D01*
X150699000Y-99662400D02*
X151504299Y-100467699D01*
X151504299Y-100467699D02*
X157234301Y-100467699D01*
X157582400Y-63995400D02*
X157912600Y-63665200D01*
X158077200Y-63665200D02*
X158293600Y-63448800D01*
X157912600Y-63665200D02*
X158077200Y-63665200D01*
X157582400Y-67119600D02*
X157582400Y-63995400D01*
X158293600Y-63448800D02*
X158293600Y-62698800D01*
X160246100Y-63008700D02*
X158603500Y-63008700D01*
X158603500Y-63008700D02*
X158293600Y-62698800D01*
X150699000Y-64781200D02*
X150699000Y-66662400D01*
X149812200Y-63494400D02*
X150138900Y-63167700D01*
X149812200Y-64594400D02*
X150512200Y-64594400D01*
X150983900Y-63167700D02*
X151533900Y-63167700D01*
X150512200Y-64594400D02*
X150699000Y-64781200D01*
X150138900Y-63167700D02*
X150983900Y-63167700D01*
X157234301Y-67467699D02*
X157582400Y-67119600D01*
X151504299Y-67467699D02*
X157234301Y-67467699D01*
X150699000Y-66662400D02*
X151504299Y-67467699D01*
X127812200Y-64594400D02*
X127812200Y-63494400D01*
X127812200Y-64594400D02*
X127812200Y-63691600D01*
X128699000Y-66662400D02*
X129504299Y-67467699D01*
X135234301Y-67467699D02*
X135582400Y-67119600D01*
X129504299Y-67467699D02*
X135234301Y-67467699D01*
X149812200Y-63691600D02*
X148692400Y-62571800D01*
X149812200Y-64594400D02*
X149812200Y-63494400D01*
X149812200Y-64594400D02*
X149812200Y-63691600D01*
X138246100Y-63008700D02*
X136603500Y-63008700D01*
X136603500Y-63008700D02*
X136293600Y-62698800D01*
X135912600Y-63665200D02*
X136077200Y-63665200D01*
X136293600Y-63448800D02*
X136293600Y-62698800D01*
X136077200Y-63665200D02*
X136293600Y-63448800D01*
X127812200Y-63691600D02*
X126692400Y-62571800D01*
X128138900Y-63167700D02*
X128983900Y-63167700D01*
X127812200Y-63494400D02*
X128138900Y-63167700D01*
X128512200Y-64594400D02*
X128699000Y-64781200D01*
X127812200Y-64594400D02*
X128512200Y-64594400D01*
X128983900Y-63167700D02*
X129533900Y-63167700D01*
X128699000Y-64781200D02*
X128699000Y-66662400D01*
X135582400Y-67119600D02*
X135582400Y-63995400D01*
X135582400Y-63995400D02*
X135912600Y-63665200D01*
X105812200Y-64594400D02*
X106512200Y-64594400D01*
X105812200Y-63691600D02*
X104692400Y-62571800D01*
X105812200Y-64594400D02*
X105812200Y-63691600D01*
X105812200Y-63494400D02*
X106138900Y-63167700D01*
X105812200Y-64594400D02*
X105812200Y-63494400D01*
X106138900Y-63167700D02*
X106983900Y-63167700D01*
X114603500Y-63008700D02*
X114293600Y-62698800D01*
X116246100Y-63008700D02*
X114603500Y-63008700D01*
X114077200Y-63665200D02*
X114293600Y-63448800D01*
X113912600Y-63665200D02*
X114077200Y-63665200D01*
X114293600Y-63448800D02*
X114293600Y-62698800D01*
X113582400Y-63995400D02*
X113912600Y-63665200D01*
X113234301Y-67467699D02*
X113582400Y-67119600D01*
X106699000Y-66662400D02*
X107504299Y-67467699D01*
X107504299Y-67467699D02*
X113234301Y-67467699D01*
X113582400Y-67119600D02*
X113582400Y-63995400D01*
X106983900Y-63167700D02*
X107533900Y-63167700D01*
X106512200Y-64594400D02*
X106699000Y-64781200D01*
X106699000Y-64781200D02*
X106699000Y-66662400D01*
X83812200Y-64594400D02*
X84512200Y-64594400D01*
X84699000Y-64781200D02*
X84699000Y-66662400D01*
X91582400Y-63995400D02*
X91912600Y-63665200D01*
X91912600Y-63665200D02*
X92077200Y-63665200D01*
X84512200Y-64594400D02*
X84699000Y-64781200D01*
X84699000Y-66662400D02*
X85504299Y-67467699D01*
X85504299Y-67467699D02*
X91234301Y-67467699D01*
X91234301Y-67467699D02*
X91582400Y-67119600D01*
X91582400Y-67119600D02*
X91582400Y-63995400D01*
X92077200Y-63665200D02*
X92293600Y-63448800D01*
X92293600Y-63448800D02*
X92293600Y-62698800D01*
X83812200Y-64594400D02*
X83812200Y-63494400D01*
X83812200Y-63494400D02*
X84138900Y-63167700D01*
X84138900Y-63167700D02*
X84983900Y-63167700D01*
X84983900Y-63167700D02*
X85533900Y-63167700D01*
X83812200Y-64594400D02*
X83812200Y-63691600D01*
X83812200Y-63691600D02*
X82692400Y-62571800D01*
X94246100Y-63008700D02*
X92603500Y-63008700D01*
X92603500Y-63008700D02*
X92293600Y-62698800D01*
D27*
X128374200Y-117858000D02*
X128013200Y-117858000D01*
D30*
X128374200Y-117858000D02*
X128374200Y-112925000D01*
X128374200Y-112925000D02*
X128419600Y-112879600D01*
X128374200Y-116999800D02*
X128374200Y-117858000D01*
X127022600Y-115648200D02*
X128374200Y-116999800D01*
X125803400Y-115648200D02*
X127022600Y-115648200D01*
X149022600Y-115648200D02*
X150374200Y-116999800D01*
X150374200Y-112925000D02*
X150419600Y-112879600D01*
X150374200Y-117858000D02*
X150374200Y-112925000D01*
X150374200Y-116999800D02*
X150374200Y-117858000D01*
X147803400Y-115648200D02*
X149022600Y-115648200D01*
D27*
X150374200Y-117858000D02*
X150013200Y-117858000D01*
D30*
X106374200Y-117858000D02*
X106374200Y-112925000D01*
X103803400Y-115648200D02*
X105022600Y-115648200D01*
X105022600Y-115648200D02*
X106374200Y-116999800D01*
X106374200Y-116999800D02*
X106374200Y-117858000D01*
X106374200Y-112925000D02*
X106419600Y-112879600D01*
D27*
X106374200Y-117858000D02*
X106013200Y-117858000D01*
D30*
X84374200Y-116999800D02*
X84374200Y-117858000D01*
X83022600Y-115648200D02*
X84374200Y-116999800D01*
X81803400Y-115648200D02*
X83022600Y-115648200D01*
X84374200Y-112925000D02*
X84419600Y-112879600D01*
D27*
X84374200Y-117858000D02*
X84013200Y-117858000D01*
D30*
X84374200Y-117858000D02*
X84374200Y-112925000D01*
D27*
X106374200Y-84858000D02*
X106013200Y-84858000D01*
D30*
X106374200Y-83999800D02*
X106374200Y-84858000D01*
X106374200Y-84858000D02*
X106374200Y-79925000D01*
X103803400Y-82648200D02*
X105022600Y-82648200D01*
X105022600Y-82648200D02*
X106374200Y-83999800D01*
X106374200Y-79925000D02*
X106419600Y-79879600D01*
X149022600Y-82648200D02*
X150374200Y-83999800D01*
X147803400Y-82648200D02*
X149022600Y-82648200D01*
D27*
X150374200Y-84858000D02*
X150013200Y-84858000D01*
D30*
X125803400Y-82648200D02*
X127022600Y-82648200D01*
X127022600Y-82648200D02*
X128374200Y-83999800D01*
X128374200Y-83999800D02*
X128374200Y-84858000D01*
D27*
X128374200Y-84858000D02*
X128013200Y-84858000D01*
D30*
X128374200Y-84858000D02*
X128374200Y-79925000D01*
X128374200Y-79925000D02*
X128419600Y-79879600D01*
X84374200Y-84858000D02*
X84374200Y-79925000D01*
X83022600Y-82648200D02*
X84374200Y-83999800D01*
X84374200Y-83999800D02*
X84374200Y-84858000D01*
X84374200Y-79925000D02*
X84419600Y-79879600D01*
X81803400Y-82648200D02*
X83022600Y-82648200D01*
D27*
X84374200Y-84858000D02*
X84013200Y-84858000D01*
D30*
X150374200Y-79925000D02*
X150419600Y-79879600D01*
X150374200Y-83999800D02*
X150374200Y-84858000D01*
X150374200Y-84858000D02*
X150374200Y-79925000D01*
X150374200Y-46925000D02*
X150419600Y-46879600D01*
X150374200Y-51858000D02*
X150374200Y-46925000D01*
X150374200Y-50999800D02*
X150374200Y-51858000D01*
X149022600Y-49648200D02*
X150374200Y-50999800D01*
X147803400Y-49648200D02*
X149022600Y-49648200D01*
D27*
X150374200Y-51858000D02*
X150013200Y-51858000D01*
X128374200Y-51858000D02*
X128013200Y-51858000D01*
D30*
X128374200Y-51858000D02*
X128374200Y-46925000D01*
X125803400Y-49648200D02*
X127022600Y-49648200D01*
X127022600Y-49648200D02*
X128374200Y-50999800D01*
X128374200Y-50999800D02*
X128374200Y-51858000D01*
X128374200Y-46925000D02*
X128419600Y-46879600D01*
X106374200Y-46925000D02*
X106419600Y-46879600D01*
X106374200Y-51858000D02*
X106374200Y-46925000D01*
D27*
X106374200Y-51858000D02*
X106013200Y-51858000D01*
D30*
X106374200Y-50999800D02*
X106374200Y-51858000D01*
X105022600Y-49648200D02*
X106374200Y-50999800D01*
X103803400Y-49648200D02*
X105022600Y-49648200D01*
X83022600Y-49648200D02*
X84374200Y-50999800D01*
X84374200Y-50999800D02*
X84374200Y-51858000D01*
X81803400Y-49648200D02*
X83022600Y-49648200D01*
D27*
X84374200Y-51858000D02*
X84013200Y-51858000D01*
D30*
X84374200Y-51858000D02*
X84374200Y-46925000D01*
X84374200Y-46925000D02*
X84419600Y-46879600D01*
X135658600Y-115697600D02*
X135358600Y-115697600D01*
X137958600Y-115697600D02*
X135658600Y-115697600D01*
X138204000Y-115943000D02*
X137958600Y-115697600D01*
X138204000Y-117807200D02*
X138204000Y-115943000D01*
X135358600Y-115697600D02*
X132540600Y-112879600D01*
X132540600Y-112879600D02*
X130959600Y-112879600D01*
X160204000Y-115943000D02*
X159958600Y-115697600D01*
X160204000Y-117807200D02*
X160204000Y-115943000D01*
X159958600Y-115697600D02*
X157658600Y-115697600D01*
X157358600Y-115697600D02*
X154540600Y-112879600D01*
X157658600Y-115697600D02*
X157358600Y-115697600D01*
X154540600Y-112879600D02*
X152959600Y-112879600D01*
X110540600Y-112879600D02*
X108959600Y-112879600D01*
X113358600Y-115697600D02*
X110540600Y-112879600D01*
X116204000Y-115943000D02*
X115958600Y-115697600D01*
X116204000Y-117807200D02*
X116204000Y-115943000D01*
X115958600Y-115697600D02*
X113658600Y-115697600D01*
X113658600Y-115697600D02*
X113358600Y-115697600D01*
X94204000Y-115943000D02*
X93958600Y-115697600D01*
X93958600Y-115697600D02*
X91658600Y-115697600D01*
X94204000Y-117807200D02*
X94204000Y-115943000D01*
X91658600Y-115697600D02*
X91358600Y-115697600D01*
X88540600Y-112879600D02*
X86959600Y-112879600D01*
X91358600Y-115697600D02*
X88540600Y-112879600D01*
X113658600Y-82697600D02*
X113358600Y-82697600D01*
X113358600Y-82697600D02*
X110540600Y-79879600D01*
X116204000Y-82943000D02*
X115958600Y-82697600D01*
X115958600Y-82697600D02*
X113658600Y-82697600D01*
X110540600Y-79879600D02*
X108959600Y-79879600D01*
X116204000Y-84807200D02*
X116204000Y-82943000D01*
X135658600Y-82697600D02*
X135358600Y-82697600D01*
X138204000Y-84807200D02*
X138204000Y-82943000D01*
X138204000Y-82943000D02*
X137958600Y-82697600D01*
X137958600Y-82697600D02*
X135658600Y-82697600D01*
X132540600Y-79879600D02*
X130959600Y-79879600D01*
X135358600Y-82697600D02*
X132540600Y-79879600D01*
X91358600Y-82697600D02*
X88540600Y-79879600D01*
X91658600Y-82697600D02*
X91358600Y-82697600D01*
X94204000Y-84807200D02*
X94204000Y-82943000D01*
X93958600Y-82697600D02*
X91658600Y-82697600D01*
X94204000Y-82943000D02*
X93958600Y-82697600D01*
X88540600Y-79879600D02*
X86959600Y-79879600D01*
X160204000Y-84807200D02*
X160204000Y-82943000D01*
X160204000Y-82943000D02*
X159958600Y-82697600D01*
X159958600Y-82697600D02*
X157658600Y-82697600D01*
X157658600Y-82697600D02*
X157358600Y-82697600D01*
X157358600Y-82697600D02*
X154540600Y-79879600D01*
X154540600Y-79879600D02*
X152959600Y-79879600D01*
X160204000Y-51807200D02*
X160204000Y-49943000D01*
X159958600Y-49697600D02*
X157658600Y-49697600D01*
X157358600Y-49697600D02*
X154540600Y-46879600D01*
X157658600Y-49697600D02*
X157358600Y-49697600D01*
X160204000Y-49943000D02*
X159958600Y-49697600D01*
X154540600Y-46879600D02*
X152959600Y-46879600D01*
X135658600Y-49697600D02*
X135358600Y-49697600D01*
X135358600Y-49697600D02*
X132540600Y-46879600D01*
X138204000Y-49943000D02*
X137958600Y-49697600D01*
X138204000Y-51807200D02*
X138204000Y-49943000D01*
X132540600Y-46879600D02*
X130959600Y-46879600D01*
X137958600Y-49697600D02*
X135658600Y-49697600D01*
X115958600Y-49697600D02*
X113658600Y-49697600D01*
X110540600Y-46879600D02*
X108959600Y-46879600D01*
X116204000Y-51807200D02*
X116204000Y-49943000D01*
X113358600Y-49697600D02*
X110540600Y-46879600D01*
X113658600Y-49697600D02*
X113358600Y-49697600D01*
X116204000Y-49943000D02*
X115958600Y-49697600D01*
X91658600Y-49697600D02*
X91358600Y-49697600D01*
X91358600Y-49697600D02*
X88540600Y-46879600D01*
X88540600Y-46879600D02*
X86959600Y-46879600D01*
X94204000Y-51807200D02*
X94204000Y-49943000D01*
X94204000Y-49943000D02*
X93958600Y-49697600D01*
X93958600Y-49697600D02*
X91658600Y-49697600D01*
D28*
X130299200Y-136097400D02*
X130299200Y-138366800D01*
X130803900Y-135592700D02*
X130299200Y-136097400D01*
X132524200Y-137604800D02*
X132524200Y-139334000D01*
X130299200Y-138366800D02*
X131376600Y-139444200D01*
X131376600Y-139444200D02*
X132414000Y-139444200D01*
X130803900Y-134567700D02*
X130803900Y-135592700D01*
X132414000Y-139444200D02*
X132414000Y-140319200D01*
X132524200Y-139334000D02*
X132414000Y-139444200D01*
X132414000Y-140319200D02*
X134206000Y-142111200D01*
X137529919Y-142111200D02*
X138732000Y-142111200D01*
X134206000Y-142111200D02*
X137529919Y-142111200D01*
X159529919Y-142111200D02*
X160732000Y-142111200D01*
X152803900Y-134567700D02*
X152803900Y-135592700D01*
X156206000Y-142111200D02*
X159529919Y-142111200D01*
X154414000Y-139444200D02*
X154414000Y-140319200D01*
X154414000Y-140319200D02*
X156206000Y-142111200D01*
X154524200Y-137604800D02*
X154524200Y-139334000D01*
X152299200Y-138366800D02*
X153376600Y-139444200D01*
X154524200Y-139334000D02*
X154414000Y-139444200D01*
X153376600Y-139444200D02*
X154414000Y-139444200D01*
X152299200Y-136097400D02*
X152299200Y-138366800D01*
X152803900Y-135592700D02*
X152299200Y-136097400D01*
X108299200Y-138366800D02*
X109376600Y-139444200D01*
X108299200Y-136097400D02*
X108299200Y-138366800D01*
X108803900Y-135592700D02*
X108299200Y-136097400D01*
X108803900Y-134567700D02*
X108803900Y-135592700D01*
X110524200Y-137604800D02*
X110524200Y-139334000D01*
X109376600Y-139444200D02*
X110414000Y-139444200D01*
X110524200Y-139334000D02*
X110414000Y-139444200D01*
X110414000Y-139444200D02*
X110414000Y-140319200D01*
X112206000Y-142111200D02*
X115529919Y-142111200D01*
X110414000Y-140319200D02*
X112206000Y-142111200D01*
X115529919Y-142111200D02*
X116732000Y-142111200D01*
X86803900Y-135592700D02*
X86299200Y-136097400D01*
X86803900Y-134567700D02*
X86803900Y-135592700D01*
X86299200Y-138366800D02*
X87376600Y-139444200D01*
X86299200Y-136097400D02*
X86299200Y-138366800D01*
X88524200Y-137604800D02*
X88524200Y-139334000D01*
X88524200Y-139334000D02*
X88414000Y-139444200D01*
X87376600Y-139444200D02*
X88414000Y-139444200D01*
X88414000Y-139444200D02*
X88414000Y-140319200D01*
X88414000Y-140319200D02*
X90206000Y-142111200D01*
X90206000Y-142111200D02*
X93529919Y-142111200D01*
X93529919Y-142111200D02*
X94732000Y-142111200D01*
X108299200Y-103097400D02*
X108299200Y-105366800D01*
X108299200Y-105366800D02*
X109376600Y-106444200D01*
X110414000Y-107319200D02*
X112206000Y-109111200D01*
X110414000Y-106444200D02*
X110414000Y-107319200D01*
X109376600Y-106444200D02*
X110414000Y-106444200D01*
X110524200Y-104604800D02*
X110524200Y-106334000D01*
X110524200Y-106334000D02*
X110414000Y-106444200D01*
X112206000Y-109111200D02*
X115529919Y-109111200D01*
X115529919Y-109111200D02*
X116732000Y-109111200D01*
X108803900Y-102592700D02*
X108299200Y-103097400D01*
X108803900Y-101567700D02*
X108803900Y-102592700D01*
X132414000Y-106444200D02*
X132414000Y-107319200D01*
X132524200Y-106334000D02*
X132414000Y-106444200D01*
X132524200Y-104604800D02*
X132524200Y-106334000D01*
X131376600Y-106444200D02*
X132414000Y-106444200D01*
X130299200Y-105366800D02*
X131376600Y-106444200D01*
X130299200Y-103097400D02*
X130299200Y-105366800D01*
X130803900Y-102592700D02*
X130299200Y-103097400D01*
X130803900Y-101567700D02*
X130803900Y-102592700D01*
X132414000Y-107319200D02*
X134206000Y-109111200D01*
X137529919Y-109111200D02*
X138732000Y-109111200D01*
X134206000Y-109111200D02*
X137529919Y-109111200D01*
X86803900Y-102592700D02*
X86299200Y-103097400D01*
X86803900Y-101567700D02*
X86803900Y-102592700D01*
X88524200Y-104604800D02*
X88524200Y-106334000D01*
X86299200Y-103097400D02*
X86299200Y-105366800D01*
X87376600Y-106444200D02*
X88414000Y-106444200D01*
X88524200Y-106334000D02*
X88414000Y-106444200D01*
X86299200Y-105366800D02*
X87376600Y-106444200D01*
X93529919Y-109111200D02*
X94732000Y-109111200D01*
X88414000Y-106444200D02*
X88414000Y-107319200D01*
X88414000Y-107319200D02*
X90206000Y-109111200D01*
X90206000Y-109111200D02*
X93529919Y-109111200D01*
X152803900Y-101567700D02*
X152803900Y-102592700D01*
X159529919Y-109111200D02*
X160732000Y-109111200D01*
X154414000Y-106444200D02*
X154414000Y-107319200D01*
X156206000Y-109111200D02*
X159529919Y-109111200D01*
X154414000Y-107319200D02*
X156206000Y-109111200D01*
X154524200Y-106334000D02*
X154414000Y-106444200D01*
X152299200Y-103097400D02*
X152299200Y-105366800D01*
X152299200Y-105366800D02*
X153376600Y-106444200D01*
X154524200Y-104604800D02*
X154524200Y-106334000D01*
X153376600Y-106444200D02*
X154414000Y-106444200D01*
X152803900Y-102592700D02*
X152299200Y-103097400D01*
X159529919Y-76111200D02*
X160732000Y-76111200D01*
X154414000Y-74319200D02*
X156206000Y-76111200D01*
X154414000Y-73444200D02*
X154414000Y-74319200D01*
X156206000Y-76111200D02*
X159529919Y-76111200D01*
X154524200Y-71604800D02*
X154524200Y-73334000D01*
X154524200Y-73334000D02*
X154414000Y-73444200D01*
X152803900Y-69592700D02*
X152299200Y-70097400D01*
X152803900Y-68567700D02*
X152803900Y-69592700D01*
X153376600Y-73444200D02*
X154414000Y-73444200D01*
X152299200Y-72366800D02*
X153376600Y-73444200D01*
X152299200Y-70097400D02*
X152299200Y-72366800D01*
X130803900Y-69592700D02*
X130299200Y-70097400D01*
X130803900Y-68567700D02*
X130803900Y-69592700D01*
X137529919Y-76111200D02*
X138732000Y-76111200D01*
X134206000Y-76111200D02*
X137529919Y-76111200D01*
X131376600Y-73444200D02*
X132414000Y-73444200D01*
X132414000Y-73444200D02*
X132414000Y-74319200D01*
X132414000Y-74319200D02*
X134206000Y-76111200D01*
X132524200Y-73334000D02*
X132414000Y-73444200D01*
X130299200Y-70097400D02*
X130299200Y-72366800D01*
X132524200Y-71604800D02*
X132524200Y-73334000D01*
X130299200Y-72366800D02*
X131376600Y-73444200D01*
X112206000Y-76111200D02*
X115529919Y-76111200D01*
X115529919Y-76111200D02*
X116732000Y-76111200D01*
X110524200Y-73334000D02*
X110414000Y-73444200D01*
X110524200Y-71604800D02*
X110524200Y-73334000D01*
X109376600Y-73444200D02*
X110414000Y-73444200D01*
X108299200Y-72366800D02*
X109376600Y-73444200D01*
X110414000Y-74319200D02*
X112206000Y-76111200D01*
X110414000Y-73444200D02*
X110414000Y-74319200D01*
X108299200Y-70097400D02*
X108299200Y-72366800D01*
X108803900Y-69592700D02*
X108299200Y-70097400D01*
X108803900Y-68567700D02*
X108803900Y-69592700D01*
X88414000Y-73444200D02*
X88414000Y-74319200D01*
X88414000Y-74319200D02*
X90206000Y-76111200D01*
X90206000Y-76111200D02*
X93529919Y-76111200D01*
X93529919Y-76111200D02*
X94732000Y-76111200D01*
X86803900Y-68567700D02*
X86803900Y-69592700D01*
X86803900Y-69592700D02*
X86299200Y-70097400D01*
X86299200Y-70097400D02*
X86299200Y-72366800D01*
X86299200Y-72366800D02*
X87376600Y-73444200D01*
X87376600Y-73444200D02*
X88414000Y-73444200D01*
X88524200Y-71604800D02*
X88524200Y-73334000D01*
X88524200Y-73334000D02*
X88414000Y-73444200D01*
X162830000Y-139029200D02*
X162592800Y-139266400D01*
X162830000Y-137437600D02*
X162830000Y-139029200D01*
X163272000Y-139945600D02*
X162592800Y-139266400D01*
X163272000Y-142111200D02*
X163272000Y-139945600D01*
X160655800Y-138301200D02*
X161621000Y-139266400D01*
X161621000Y-139266400D02*
X162592800Y-139266400D01*
X161516100Y-135433700D02*
X160655800Y-136294000D01*
X161516100Y-134408700D02*
X161516100Y-135433700D01*
X140830000Y-137437600D02*
X140830000Y-139029200D01*
X140830000Y-139029200D02*
X140592800Y-139266400D01*
X139516100Y-135433700D02*
X138655800Y-136294000D01*
X139516100Y-134408700D02*
X139516100Y-135433700D01*
X138655800Y-138301200D02*
X139621000Y-139266400D01*
X139621000Y-139266400D02*
X140592800Y-139266400D01*
X138655800Y-136294000D02*
X138655800Y-138301200D01*
X141272000Y-142111200D02*
X141272000Y-139945600D01*
X141272000Y-139945600D02*
X140592800Y-139266400D01*
X160655800Y-136294000D02*
X160655800Y-138301200D01*
X116655800Y-136294000D02*
X116655800Y-138301200D01*
X117516100Y-135433700D02*
X116655800Y-136294000D01*
X117516100Y-134408700D02*
X117516100Y-135433700D01*
X116655800Y-138301200D02*
X117621000Y-139266400D01*
X117621000Y-139266400D02*
X118592800Y-139266400D01*
X119272000Y-142111200D02*
X119272000Y-139945600D01*
X119272000Y-139945600D02*
X118592800Y-139266400D01*
X118830000Y-137437600D02*
X118830000Y-139029200D01*
X118830000Y-139029200D02*
X118592800Y-139266400D01*
X97272000Y-139945600D02*
X96592800Y-139266400D01*
X97272000Y-142111200D02*
X97272000Y-139945600D01*
X95621000Y-139266400D02*
X96592800Y-139266400D01*
X94655800Y-138301200D02*
X95621000Y-139266400D01*
X96830000Y-139029200D02*
X96592800Y-139266400D01*
X96830000Y-137437600D02*
X96830000Y-139029200D01*
X95516100Y-134408700D02*
X95516100Y-135433700D01*
X94655800Y-136294000D02*
X94655800Y-138301200D01*
X95516100Y-135433700D02*
X94655800Y-136294000D01*
X117516100Y-101408700D02*
X117516100Y-102433700D01*
X119272000Y-109111200D02*
X119272000Y-106945600D01*
X118830000Y-104437600D02*
X118830000Y-106029200D01*
X117621000Y-106266400D02*
X118592800Y-106266400D01*
X118830000Y-106029200D02*
X118592800Y-106266400D01*
X119272000Y-106945600D02*
X118592800Y-106266400D01*
X116655800Y-103294000D02*
X116655800Y-105301200D01*
X116655800Y-105301200D02*
X117621000Y-106266400D01*
X117516100Y-102433700D02*
X116655800Y-103294000D01*
X140830000Y-104437600D02*
X140830000Y-106029200D01*
X141272000Y-109111200D02*
X141272000Y-106945600D01*
X138655800Y-103294000D02*
X138655800Y-105301200D01*
X138655800Y-105301200D02*
X139621000Y-106266400D01*
X140830000Y-106029200D02*
X140592800Y-106266400D01*
X141272000Y-106945600D02*
X140592800Y-106266400D01*
X139621000Y-106266400D02*
X140592800Y-106266400D01*
X139516100Y-102433700D02*
X138655800Y-103294000D01*
X139516100Y-101408700D02*
X139516100Y-102433700D01*
X97272000Y-109111200D02*
X97272000Y-106945600D01*
X95516100Y-101408700D02*
X95516100Y-102433700D01*
X94655800Y-103294000D02*
X94655800Y-105301200D01*
X97272000Y-106945600D02*
X96592800Y-106266400D01*
X95516100Y-102433700D02*
X94655800Y-103294000D01*
X96830000Y-106029200D02*
X96592800Y-106266400D01*
X94655800Y-105301200D02*
X95621000Y-106266400D01*
X96830000Y-104437600D02*
X96830000Y-106029200D01*
X95621000Y-106266400D02*
X96592800Y-106266400D01*
X163272000Y-109111200D02*
X163272000Y-106945600D01*
X161516100Y-102433700D02*
X160655800Y-103294000D01*
X161516100Y-101408700D02*
X161516100Y-102433700D01*
X163272000Y-106945600D02*
X162592800Y-106266400D01*
X162830000Y-106029200D02*
X162592800Y-106266400D01*
X162830000Y-104437600D02*
X162830000Y-106029200D01*
X160655800Y-105301200D02*
X161621000Y-106266400D01*
X161621000Y-106266400D02*
X162592800Y-106266400D01*
X160655800Y-103294000D02*
X160655800Y-105301200D01*
X163272000Y-73945600D02*
X162592800Y-73266400D01*
X163272000Y-76111200D02*
X163272000Y-73945600D01*
X160655800Y-72301200D02*
X161621000Y-73266400D01*
X162830000Y-71437600D02*
X162830000Y-73029200D01*
X161621000Y-73266400D02*
X162592800Y-73266400D01*
X162830000Y-73029200D02*
X162592800Y-73266400D01*
X161516100Y-68408700D02*
X161516100Y-69433700D01*
X161516100Y-69433700D02*
X160655800Y-70294000D01*
X160655800Y-70294000D02*
X160655800Y-72301200D01*
X141272000Y-76111200D02*
X141272000Y-73945600D01*
X141272000Y-73945600D02*
X140592800Y-73266400D01*
X139621000Y-73266400D02*
X140592800Y-73266400D01*
X138655800Y-72301200D02*
X139621000Y-73266400D01*
X140830000Y-73029200D02*
X140592800Y-73266400D01*
X140830000Y-71437600D02*
X140830000Y-73029200D01*
X139516100Y-68408700D02*
X139516100Y-69433700D01*
X138655800Y-70294000D02*
X138655800Y-72301200D01*
X139516100Y-69433700D02*
X138655800Y-70294000D01*
X116655800Y-70294000D02*
X116655800Y-72301200D01*
X117621000Y-73266400D02*
X118592800Y-73266400D01*
X116655800Y-72301200D02*
X117621000Y-73266400D01*
X117516100Y-69433700D02*
X116655800Y-70294000D01*
X117516100Y-68408700D02*
X117516100Y-69433700D01*
X118830000Y-73029200D02*
X118592800Y-73266400D01*
X118830000Y-71437600D02*
X118830000Y-73029200D01*
X119272000Y-73945600D02*
X118592800Y-73266400D01*
X119272000Y-76111200D02*
X119272000Y-73945600D01*
X97272000Y-76111200D02*
X97272000Y-73945600D01*
X97272000Y-73945600D02*
X96592800Y-73266400D01*
X96830000Y-71437600D02*
X96830000Y-73029200D01*
X96830000Y-73029200D02*
X96592800Y-73266400D01*
X94655800Y-72301200D02*
X95621000Y-73266400D01*
X95621000Y-73266400D02*
X96592800Y-73266400D01*
X94655800Y-70294000D02*
X94655800Y-72301200D01*
X95516100Y-69433700D02*
X94655800Y-70294000D01*
X95516100Y-68408700D02*
X95516100Y-69433700D01*
X131188200Y-137604800D02*
X131188200Y-136478400D01*
X132073900Y-135592700D02*
X132073900Y-134567700D01*
X131188200Y-136478400D02*
X132073900Y-135592700D01*
X132877400Y-136396200D02*
X132073900Y-135592700D01*
X136344400Y-136396200D02*
X132877400Y-136396200D01*
X154073900Y-135592700D02*
X154073900Y-134567700D01*
X158344400Y-136396200D02*
X154877400Y-136396200D01*
X154877400Y-136396200D02*
X154073900Y-135592700D01*
X153188200Y-137604800D02*
X153188200Y-136478400D01*
X153188200Y-136478400D02*
X154073900Y-135592700D01*
X109188200Y-137604800D02*
X109188200Y-136478400D01*
X109188200Y-136478400D02*
X110073900Y-135592700D01*
X110073900Y-135592700D02*
X110073900Y-134567700D01*
X110877400Y-136396200D02*
X110073900Y-135592700D01*
X114344400Y-136396200D02*
X110877400Y-136396200D01*
X87188200Y-137604800D02*
X87188200Y-136478400D01*
X87188200Y-136478400D02*
X88073900Y-135592700D01*
X88877400Y-136396200D02*
X88073900Y-135592700D01*
X88073900Y-135592700D02*
X88073900Y-134567700D01*
X92344400Y-136396200D02*
X88877400Y-136396200D01*
X109188200Y-103478400D02*
X110073900Y-102592700D01*
X109188200Y-104604800D02*
X109188200Y-103478400D01*
X114344400Y-103396200D02*
X110877400Y-103396200D01*
X110073900Y-102592700D02*
X110073900Y-101567700D01*
X110877400Y-103396200D02*
X110073900Y-102592700D01*
X131188200Y-104604800D02*
X131188200Y-103478400D01*
X132073900Y-102592700D02*
X132073900Y-101567700D01*
X131188200Y-103478400D02*
X132073900Y-102592700D01*
X132877400Y-103396200D02*
X132073900Y-102592700D01*
X136344400Y-103396200D02*
X132877400Y-103396200D01*
X92344400Y-103396200D02*
X88877400Y-103396200D01*
X87188200Y-103478400D02*
X88073900Y-102592700D01*
X88073900Y-102592700D02*
X88073900Y-101567700D01*
X88877400Y-103396200D02*
X88073900Y-102592700D01*
X87188200Y-104604800D02*
X87188200Y-103478400D01*
X154877400Y-103396200D02*
X154073900Y-102592700D01*
X154073900Y-102592700D02*
X154073900Y-101567700D01*
X153188200Y-104604800D02*
X153188200Y-103478400D01*
X153188200Y-103478400D02*
X154073900Y-102592700D01*
X158344400Y-103396200D02*
X154877400Y-103396200D01*
X158344400Y-70396200D02*
X154877400Y-70396200D01*
X153188200Y-70478400D02*
X154073900Y-69592700D01*
X154877400Y-70396200D02*
X154073900Y-69592700D01*
X154073900Y-69592700D02*
X154073900Y-68567700D01*
X153188200Y-71604800D02*
X153188200Y-70478400D01*
X131188200Y-70478400D02*
X132073900Y-69592700D01*
X131188200Y-71604800D02*
X131188200Y-70478400D01*
X136344400Y-70396200D02*
X132877400Y-70396200D01*
X132073900Y-69592700D02*
X132073900Y-68567700D01*
X132877400Y-70396200D02*
X132073900Y-69592700D01*
X114344400Y-70396200D02*
X110877400Y-70396200D01*
X110073900Y-69592700D02*
X110073900Y-68567700D01*
X110877400Y-70396200D02*
X110073900Y-69592700D01*
X109188200Y-70478400D02*
X110073900Y-69592700D01*
X109188200Y-71604800D02*
X109188200Y-70478400D01*
X92344400Y-70396200D02*
X88877400Y-70396200D01*
X88877400Y-70396200D02*
X88073900Y-69592700D01*
X87188200Y-71604800D02*
X87188200Y-70478400D01*
X87188200Y-70478400D02*
X88073900Y-69592700D01*
X88073900Y-69592700D02*
X88073900Y-68567700D01*
X166298400Y-136142200D02*
X166701000Y-135739600D01*
X163526000Y-136142200D02*
X166298400Y-136142200D01*
X162924100Y-135540300D02*
X163526000Y-136142200D01*
X162786100Y-135540300D02*
X162924100Y-135540300D01*
X161656600Y-137630200D02*
X161656600Y-137330200D01*
X161666800Y-137463000D02*
X161666800Y-137163000D01*
X161539800Y-137437600D02*
X161539800Y-136655200D01*
X162654700Y-135540300D02*
X162786100Y-135540300D01*
X162786100Y-135540300D02*
X162786100Y-135433700D01*
X162786100Y-135433700D02*
X162786100Y-135535900D01*
X161539800Y-136655200D02*
X162654700Y-135540300D01*
X162786100Y-135433700D02*
X162786100Y-134408700D01*
X140654700Y-135540300D02*
X140786100Y-135540300D01*
X139539800Y-136655200D02*
X140654700Y-135540300D01*
X140786100Y-135540300D02*
X140786100Y-135433700D01*
X140786100Y-135540300D02*
X140924100Y-135540300D01*
X141526000Y-136142200D02*
X144298400Y-136142200D01*
X140786100Y-135433700D02*
X140786100Y-135535900D01*
X140924100Y-135540300D02*
X141526000Y-136142200D01*
X140786100Y-135433700D02*
X140786100Y-134408700D01*
X144298400Y-136142200D02*
X144701000Y-135739600D01*
X139539800Y-137437600D02*
X139539800Y-136655200D01*
X139656600Y-137630200D02*
X139656600Y-137330200D01*
X139666800Y-137463000D02*
X139666800Y-137163000D01*
X117656600Y-137630200D02*
X117656600Y-137330200D01*
X117539800Y-137437600D02*
X117539800Y-136655200D01*
X117666800Y-137463000D02*
X117666800Y-137163000D01*
X122298400Y-136142200D02*
X122701000Y-135739600D01*
X119526000Y-136142200D02*
X122298400Y-136142200D01*
X118924100Y-135540300D02*
X119526000Y-136142200D01*
X118786100Y-135433700D02*
X118786100Y-134408700D01*
X118786100Y-135433700D02*
X118786100Y-135535900D01*
X118786100Y-135540300D02*
X118924100Y-135540300D01*
X118786100Y-135540300D02*
X118786100Y-135433700D01*
X117539800Y-136655200D02*
X118654700Y-135540300D01*
X118654700Y-135540300D02*
X118786100Y-135540300D01*
X97526000Y-136142200D02*
X100298400Y-136142200D01*
X96924100Y-135540300D02*
X97526000Y-136142200D01*
X96786100Y-135540300D02*
X96924100Y-135540300D01*
X100298400Y-136142200D02*
X100701000Y-135739600D01*
X95656600Y-137630200D02*
X95656600Y-137330200D01*
X95539800Y-136655200D02*
X96654700Y-135540300D01*
X95539800Y-137437600D02*
X95539800Y-136655200D01*
X95666800Y-137463000D02*
X95666800Y-137163000D01*
X96654700Y-135540300D02*
X96786100Y-135540300D01*
X96786100Y-135433700D02*
X96786100Y-134408700D01*
X96786100Y-135433700D02*
X96786100Y-135535900D01*
X96786100Y-135540300D02*
X96786100Y-135433700D01*
X122298400Y-103142200D02*
X122701000Y-102739600D01*
X118786100Y-102433700D02*
X118786100Y-102535900D01*
X118654700Y-102540300D02*
X118786100Y-102540300D01*
X118786100Y-102540300D02*
X118786100Y-102433700D01*
X118786100Y-102433700D02*
X118786100Y-101408700D01*
X118924100Y-102540300D02*
X119526000Y-103142200D01*
X119526000Y-103142200D02*
X122298400Y-103142200D01*
X118786100Y-102540300D02*
X118924100Y-102540300D01*
X117539800Y-104437600D02*
X117539800Y-103655200D01*
X117539800Y-103655200D02*
X118654700Y-102540300D01*
X117656600Y-104630200D02*
X117656600Y-104330200D01*
X117666800Y-104463000D02*
X117666800Y-104163000D01*
X140786100Y-102540300D02*
X140924100Y-102540300D01*
X140924100Y-102540300D02*
X141526000Y-103142200D01*
X140786100Y-102433700D02*
X140786100Y-102535900D01*
X140786100Y-102540300D02*
X140786100Y-102433700D01*
X141526000Y-103142200D02*
X144298400Y-103142200D01*
X144298400Y-103142200D02*
X144701000Y-102739600D01*
X139666800Y-104463000D02*
X139666800Y-104163000D01*
X139656600Y-104630200D02*
X139656600Y-104330200D01*
X139539800Y-104437600D02*
X139539800Y-103655200D01*
X140786100Y-102433700D02*
X140786100Y-101408700D01*
X139539800Y-103655200D02*
X140654700Y-102540300D01*
X140654700Y-102540300D02*
X140786100Y-102540300D01*
X100298400Y-103142200D02*
X100701000Y-102739600D01*
X97526000Y-103142200D02*
X100298400Y-103142200D01*
X96924100Y-102540300D02*
X97526000Y-103142200D01*
X96786100Y-102540300D02*
X96924100Y-102540300D01*
X96786100Y-102433700D02*
X96786100Y-102535900D01*
X96654700Y-102540300D02*
X96786100Y-102540300D01*
X96786100Y-102540300D02*
X96786100Y-102433700D01*
X96786100Y-102433700D02*
X96786100Y-101408700D01*
X95656600Y-104630200D02*
X95656600Y-104330200D01*
X95539800Y-104437600D02*
X95539800Y-103655200D01*
X95666800Y-104463000D02*
X95666800Y-104163000D01*
X95539800Y-103655200D02*
X96654700Y-102540300D01*
X163526000Y-103142200D02*
X166298400Y-103142200D01*
X166298400Y-103142200D02*
X166701000Y-102739600D01*
X162924100Y-102540300D02*
X163526000Y-103142200D01*
X162786100Y-102540300D02*
X162924100Y-102540300D01*
X162786100Y-102433700D02*
X162786100Y-102535900D01*
X162786100Y-102433700D02*
X162786100Y-101408700D01*
X162654700Y-102540300D02*
X162786100Y-102540300D01*
X162786100Y-102540300D02*
X162786100Y-102433700D01*
X161539800Y-103655200D02*
X162654700Y-102540300D01*
X161666800Y-104463000D02*
X161666800Y-104163000D01*
X161539800Y-104437600D02*
X161539800Y-103655200D01*
X161656600Y-104630200D02*
X161656600Y-104330200D01*
X163526000Y-70142200D02*
X166298400Y-70142200D01*
X162786100Y-69433700D02*
X162786100Y-69535900D01*
X162786100Y-69433700D02*
X162786100Y-68408700D01*
X166298400Y-70142200D02*
X166701000Y-69739600D01*
X162924100Y-69540300D02*
X163526000Y-70142200D01*
X162786100Y-69540300D02*
X162786100Y-69433700D01*
X161656600Y-71630200D02*
X161656600Y-71330200D01*
X161666800Y-71463000D02*
X161666800Y-71163000D01*
X162786100Y-69540300D02*
X162924100Y-69540300D01*
X161539800Y-71437600D02*
X161539800Y-70655200D01*
X161539800Y-70655200D02*
X162654700Y-69540300D01*
X162654700Y-69540300D02*
X162786100Y-69540300D01*
X141526000Y-70142200D02*
X144298400Y-70142200D01*
X144298400Y-70142200D02*
X144701000Y-69739600D01*
X140654700Y-69540300D02*
X140786100Y-69540300D01*
X140786100Y-69433700D02*
X140786100Y-68408700D01*
X139539800Y-71437600D02*
X139539800Y-70655200D01*
X139666800Y-71463000D02*
X139666800Y-71163000D01*
X139656600Y-71630200D02*
X139656600Y-71330200D01*
X140786100Y-69540300D02*
X140786100Y-69433700D01*
X140924100Y-69540300D02*
X141526000Y-70142200D01*
X140786100Y-69433700D02*
X140786100Y-69535900D01*
X139539800Y-70655200D02*
X140654700Y-69540300D01*
X140786100Y-69540300D02*
X140924100Y-69540300D01*
X117656600Y-71630200D02*
X117656600Y-71330200D01*
X117666800Y-71463000D02*
X117666800Y-71163000D01*
X117539800Y-71437600D02*
X117539800Y-70655200D01*
X118786100Y-69433700D02*
X118786100Y-68408700D01*
X118786100Y-69540300D02*
X118786100Y-69433700D01*
X118654700Y-69540300D02*
X118786100Y-69540300D01*
X117539800Y-70655200D02*
X118654700Y-69540300D01*
X118786100Y-69433700D02*
X118786100Y-69535900D01*
X122298400Y-70142200D02*
X122701000Y-69739600D01*
X118786100Y-69540300D02*
X118924100Y-69540300D01*
X118924100Y-69540300D02*
X119526000Y-70142200D01*
X119526000Y-70142200D02*
X122298400Y-70142200D01*
X100298400Y-70142200D02*
X100701000Y-69739600D01*
X97526000Y-70142200D02*
X100298400Y-70142200D01*
X96924100Y-69540300D02*
X97526000Y-70142200D01*
X96786100Y-69540300D02*
X96924100Y-69540300D01*
X95539800Y-70655200D02*
X96654700Y-69540300D01*
X96654700Y-69540300D02*
X96786100Y-69540300D01*
X95539800Y-71437600D02*
X95539800Y-70655200D01*
X95666800Y-71463000D02*
X95666800Y-71163000D01*
X95656600Y-71630200D02*
X95656600Y-71330200D01*
X96786100Y-69433700D02*
X96786100Y-69535900D01*
X96786100Y-69540300D02*
X96786100Y-69433700D01*
X96786100Y-69433700D02*
X96786100Y-68408700D01*
X129533900Y-135753900D02*
X129288200Y-135999600D01*
X129288200Y-135999600D02*
X129288200Y-137604800D01*
X129533900Y-134567700D02*
X129533900Y-135753900D01*
X151533900Y-135753900D02*
X151288200Y-135999600D01*
X151533900Y-134567700D02*
X151533900Y-135753900D01*
X151288200Y-135999600D02*
X151288200Y-137604800D01*
X107288200Y-135999600D02*
X107288200Y-137604800D01*
X107533900Y-134567700D02*
X107533900Y-135753900D01*
X107533900Y-135753900D02*
X107288200Y-135999600D01*
X85288200Y-135999600D02*
X85288200Y-137604800D01*
X85533900Y-135753900D02*
X85288200Y-135999600D01*
X85533900Y-134567700D02*
X85533900Y-135753900D01*
X107533900Y-102753900D02*
X107288200Y-102999600D01*
X107288200Y-102999600D02*
X107288200Y-104604800D01*
X107533900Y-101567700D02*
X107533900Y-102753900D01*
X129533900Y-102753900D02*
X129288200Y-102999600D01*
X129288200Y-102999600D02*
X129288200Y-104604800D01*
X129533900Y-101567700D02*
X129533900Y-102753900D01*
X85533900Y-101567700D02*
X85533900Y-102753900D01*
X85533900Y-102753900D02*
X85288200Y-102999600D01*
X85288200Y-102999600D02*
X85288200Y-104604800D01*
X151533900Y-102753900D02*
X151288200Y-102999600D01*
X151533900Y-101567700D02*
X151533900Y-102753900D01*
X151288200Y-102999600D02*
X151288200Y-104604800D01*
X151533900Y-69753900D02*
X151288200Y-69999600D01*
X151533900Y-68567700D02*
X151533900Y-69753900D01*
X151288200Y-69999600D02*
X151288200Y-71604800D01*
X129533900Y-68567700D02*
X129533900Y-69753900D01*
X129533900Y-69753900D02*
X129288200Y-69999600D01*
X129288200Y-69999600D02*
X129288200Y-71604800D01*
X107533900Y-69753900D02*
X107288200Y-69999600D01*
X107533900Y-68567700D02*
X107533900Y-69753900D01*
X107288200Y-69999600D02*
X107288200Y-71604800D01*
X85533900Y-68567700D02*
X85533900Y-69753900D01*
X85533900Y-69753900D02*
X85288200Y-69999600D01*
X85288200Y-69999600D02*
X85288200Y-71604800D01*
X129937000Y-127825800D02*
X129054600Y-127825800D01*
X129054600Y-127825800D02*
X128699000Y-127470200D01*
X128699000Y-127470200D02*
X128699000Y-126835200D01*
X130803900Y-129167700D02*
X130803900Y-128692700D01*
X130803900Y-128692700D02*
X129937000Y-127825800D01*
X150699000Y-127470200D02*
X150699000Y-126835200D01*
X151054600Y-127825800D02*
X150699000Y-127470200D01*
X152803900Y-128692700D02*
X151937000Y-127825800D01*
X152803900Y-129167700D02*
X152803900Y-128692700D01*
X151937000Y-127825800D02*
X151054600Y-127825800D01*
X106699000Y-127470200D02*
X106699000Y-126835200D01*
X108803900Y-129167700D02*
X108803900Y-128692700D01*
X108803900Y-128692700D02*
X107937000Y-127825800D01*
X107937000Y-127825800D02*
X107054600Y-127825800D01*
X107054600Y-127825800D02*
X106699000Y-127470200D01*
X86803900Y-128692700D02*
X85937000Y-127825800D01*
X86803900Y-129167700D02*
X86803900Y-128692700D01*
X84699000Y-127470200D02*
X84699000Y-126835200D01*
X85937000Y-127825800D02*
X85054600Y-127825800D01*
X85054600Y-127825800D02*
X84699000Y-127470200D01*
X108803900Y-96167700D02*
X108803900Y-95692700D01*
X108803900Y-95692700D02*
X107937000Y-94825800D01*
X107937000Y-94825800D02*
X107054600Y-94825800D01*
X107054600Y-94825800D02*
X106699000Y-94470200D01*
X106699000Y-94470200D02*
X106699000Y-93835200D01*
X129937000Y-94825800D02*
X129054600Y-94825800D01*
X130803900Y-95692700D02*
X129937000Y-94825800D01*
X130803900Y-96167700D02*
X130803900Y-95692700D01*
X129054600Y-94825800D02*
X128699000Y-94470200D01*
X128699000Y-94470200D02*
X128699000Y-93835200D01*
X85937000Y-94825800D02*
X85054600Y-94825800D01*
X86803900Y-96167700D02*
X86803900Y-95692700D01*
X86803900Y-95692700D02*
X85937000Y-94825800D01*
X85054600Y-94825800D02*
X84699000Y-94470200D01*
X84699000Y-94470200D02*
X84699000Y-93835200D01*
X151937000Y-94825800D02*
X151054600Y-94825800D01*
X150699000Y-94470200D02*
X150699000Y-93835200D01*
X151054600Y-94825800D02*
X150699000Y-94470200D01*
X152803900Y-96167700D02*
X152803900Y-95692700D01*
X152803900Y-95692700D02*
X151937000Y-94825800D01*
X151054600Y-61825800D02*
X150699000Y-61470200D01*
X152803900Y-62692700D02*
X151937000Y-61825800D01*
X151937000Y-61825800D02*
X151054600Y-61825800D01*
X152803900Y-63167700D02*
X152803900Y-62692700D01*
X150699000Y-61470200D02*
X150699000Y-60835200D01*
X129054600Y-61825800D02*
X128699000Y-61470200D01*
X128699000Y-61470200D02*
X128699000Y-60835200D01*
X129937000Y-61825800D02*
X129054600Y-61825800D01*
X130803900Y-63167700D02*
X130803900Y-62692700D01*
X130803900Y-62692700D02*
X129937000Y-61825800D01*
X106699000Y-61470200D02*
X106699000Y-60835200D01*
X107054600Y-61825800D02*
X106699000Y-61470200D01*
X108803900Y-63167700D02*
X108803900Y-62692700D01*
X108803900Y-62692700D02*
X107937000Y-61825800D01*
X107937000Y-61825800D02*
X107054600Y-61825800D01*
X85054600Y-61825800D02*
X84699000Y-61470200D01*
X84699000Y-61470200D02*
X84699000Y-60835200D01*
X85937000Y-61825800D02*
X85054600Y-61825800D01*
X86803900Y-63167700D02*
X86803900Y-62692700D01*
X86803900Y-62692700D02*
X85937000Y-61825800D01*
X138246100Y-135891500D02*
X138246100Y-134408700D01*
X137639800Y-136497800D02*
X138246100Y-135891500D01*
X137639800Y-137437600D02*
X137639800Y-136497800D01*
X159639800Y-136497800D02*
X160246100Y-135891500D01*
X160246100Y-135891500D02*
X160246100Y-134408700D01*
X159639800Y-137437600D02*
X159639800Y-136497800D01*
X115639800Y-137437600D02*
X115639800Y-136497800D01*
X115639800Y-136497800D02*
X116246100Y-135891500D01*
X116246100Y-135891500D02*
X116246100Y-134408700D01*
X94246100Y-135891500D02*
X94246100Y-134408700D01*
X93639800Y-137437600D02*
X93639800Y-136497800D01*
X93639800Y-136497800D02*
X94246100Y-135891500D01*
X116246100Y-102891500D02*
X116246100Y-101408700D01*
X115639800Y-103497800D02*
X116246100Y-102891500D01*
X115639800Y-104437600D02*
X115639800Y-103497800D01*
X137639800Y-104437600D02*
X137639800Y-103497800D01*
X137639800Y-103497800D02*
X138246100Y-102891500D01*
X138246100Y-102891500D02*
X138246100Y-101408700D01*
X93639800Y-104437600D02*
X93639800Y-103497800D01*
X94246100Y-102891500D02*
X94246100Y-101408700D01*
X93639800Y-103497800D02*
X94246100Y-102891500D01*
X159639800Y-104437600D02*
X159639800Y-103497800D01*
X159639800Y-103497800D02*
X160246100Y-102891500D01*
X160246100Y-102891500D02*
X160246100Y-101408700D01*
X159639800Y-71437600D02*
X159639800Y-70497800D01*
X160246100Y-69891500D02*
X160246100Y-68408700D01*
X159639800Y-70497800D02*
X160246100Y-69891500D01*
X137639800Y-70497800D02*
X138246100Y-69891500D01*
X138246100Y-69891500D02*
X138246100Y-68408700D01*
X137639800Y-71437600D02*
X137639800Y-70497800D01*
X115639800Y-71437600D02*
X115639800Y-70497800D01*
X115639800Y-70497800D02*
X116246100Y-69891500D01*
X116246100Y-69891500D02*
X116246100Y-68408700D01*
X93639800Y-70497800D02*
X94246100Y-69891500D01*
X94246100Y-69891500D02*
X94246100Y-68408700D01*
X93639800Y-71437600D02*
X93639800Y-70497800D01*
X138727200Y-126886000D02*
X138427200Y-126886000D01*
X160727200Y-126886000D02*
X160427200Y-126886000D01*
X161516100Y-127674900D02*
X160727200Y-126886000D01*
X161516100Y-129008700D02*
X161516100Y-127674900D01*
X139516100Y-127674900D02*
X138727200Y-126886000D01*
X139516100Y-129008700D02*
X139516100Y-127674900D01*
X116727200Y-126886000D02*
X116427200Y-126886000D01*
X117516100Y-127674900D02*
X116727200Y-126886000D01*
X117516100Y-129008700D02*
X117516100Y-127674900D01*
X94727200Y-126886000D02*
X94427200Y-126886000D01*
X95516100Y-127674900D02*
X94727200Y-126886000D01*
X95516100Y-129008700D02*
X95516100Y-127674900D01*
X117516100Y-96008700D02*
X117516100Y-94674900D01*
X116727200Y-93886000D02*
X116427200Y-93886000D01*
X117516100Y-94674900D02*
X116727200Y-93886000D01*
X138727200Y-93886000D02*
X138427200Y-93886000D01*
X139516100Y-94674900D02*
X138727200Y-93886000D01*
X139516100Y-96008700D02*
X139516100Y-94674900D01*
X94727200Y-93886000D02*
X94427200Y-93886000D01*
X95516100Y-94674900D02*
X94727200Y-93886000D01*
X95516100Y-96008700D02*
X95516100Y-94674900D01*
X161516100Y-94674900D02*
X160727200Y-93886000D01*
X161516100Y-96008700D02*
X161516100Y-94674900D01*
X160727200Y-93886000D02*
X160427200Y-93886000D01*
X160727200Y-60886000D02*
X160427200Y-60886000D01*
X161516100Y-61674900D02*
X160727200Y-60886000D01*
X161516100Y-63008700D02*
X161516100Y-61674900D01*
X138727200Y-60886000D02*
X138427200Y-60886000D01*
X139516100Y-63008700D02*
X139516100Y-61674900D01*
X139516100Y-61674900D02*
X138727200Y-60886000D01*
X116727200Y-60886000D02*
X116427200Y-60886000D01*
X117516100Y-63008700D02*
X117516100Y-61674900D01*
X117516100Y-61674900D02*
X116727200Y-60886000D01*
X95516100Y-63008700D02*
X95516100Y-61674900D01*
X95516100Y-61674900D02*
X94727200Y-60886000D01*
X94727200Y-60886000D02*
X94427200Y-60886000D01*
X146937600Y-137604800D02*
X146937600Y-135293400D01*
X124937600Y-137604800D02*
X124937600Y-135293400D01*
X80937600Y-137604800D02*
X80937600Y-135293400D01*
X102937600Y-137604800D02*
X102937600Y-135293400D01*
X124937600Y-104604800D02*
X124937600Y-102293400D01*
X146937600Y-104604800D02*
X146937600Y-102293400D01*
X102937600Y-104604800D02*
X102937600Y-102293400D01*
X80937600Y-104604800D02*
X80937600Y-102293400D01*
X146937600Y-71604800D02*
X146937600Y-69293400D01*
X124937600Y-71604800D02*
X124937600Y-69293400D01*
X102937600Y-71604800D02*
X102937600Y-69293400D01*
X80937600Y-71604800D02*
X80937600Y-69293400D01*
X127837600Y-132954400D02*
X127814400Y-132931200D01*
X127837600Y-135293400D02*
X127837600Y-132954400D01*
X149837600Y-132954400D02*
X149814400Y-132931200D01*
X149837600Y-135293400D02*
X149837600Y-132954400D01*
X105837600Y-135293400D02*
X105837600Y-132954400D01*
X105837600Y-132954400D02*
X105814400Y-132931200D01*
X83837600Y-135293400D02*
X83837600Y-132954400D01*
X83837600Y-132954400D02*
X83814400Y-132931200D01*
X105837600Y-99954400D02*
X105814400Y-99931200D01*
X105837600Y-102293400D02*
X105837600Y-99954400D01*
X127837600Y-102293400D02*
X127837600Y-99954400D01*
X127837600Y-99954400D02*
X127814400Y-99931200D01*
X83837600Y-99954400D02*
X83814400Y-99931200D01*
X83837600Y-102293400D02*
X83837600Y-99954400D01*
X149837600Y-99954400D02*
X149814400Y-99931200D01*
X149837600Y-102293400D02*
X149837600Y-99954400D01*
X127837600Y-66954400D02*
X127814400Y-66931200D01*
X127837600Y-69293400D02*
X127837600Y-66954400D01*
X149837600Y-66954400D02*
X149814400Y-66931200D01*
X149837600Y-69293400D02*
X149837600Y-66954400D01*
X105837600Y-66954400D02*
X105814400Y-66931200D01*
X105837600Y-69293400D02*
X105837600Y-66954400D01*
X83837600Y-69293400D02*
X83837600Y-66954400D01*
X83837600Y-66954400D02*
X83814400Y-66931200D01*
X146914400Y-130596600D02*
X146912200Y-130594400D01*
X146914400Y-132931200D02*
X146914400Y-130596600D01*
X124914400Y-130596600D02*
X124912200Y-130594400D01*
X124914400Y-132931200D02*
X124914400Y-130596600D01*
X80914400Y-130596600D02*
X80912200Y-130594400D01*
X80914400Y-132931200D02*
X80914400Y-130596600D01*
X102914400Y-132931200D02*
X102914400Y-130596600D01*
X102914400Y-130596600D02*
X102912200Y-130594400D01*
X124914400Y-97596600D02*
X124912200Y-97594400D01*
X124914400Y-99931200D02*
X124914400Y-97596600D01*
X102914400Y-99931200D02*
X102914400Y-97596600D01*
X102914400Y-97596600D02*
X102912200Y-97594400D01*
X146914400Y-99931200D02*
X146914400Y-97596600D01*
X146914400Y-97596600D02*
X146912200Y-97594400D01*
X80914400Y-97596600D02*
X80912200Y-97594400D01*
X80914400Y-99931200D02*
X80914400Y-97596600D01*
X124914400Y-64596600D02*
X124912200Y-64594400D01*
X124914400Y-66931200D02*
X124914400Y-64596600D01*
X146914400Y-66931200D02*
X146914400Y-64596600D01*
X146914400Y-64596600D02*
X146912200Y-64594400D01*
X102914400Y-64596600D02*
X102912200Y-64594400D01*
X102914400Y-66931200D02*
X102914400Y-64596600D01*
X80914400Y-66931200D02*
X80914400Y-64596600D01*
X80914400Y-64596600D02*
X80912200Y-64594400D01*
D29*
X133343900Y-129167700D02*
X133402300Y-129167700D01*
X131423400Y-131101600D02*
X132123400Y-131101600D01*
X130723400Y-131101600D02*
X131423400Y-131101600D01*
D28*
X133340600Y-122940600D02*
X134000000Y-123600000D01*
D30*
X132224200Y-119554400D02*
X132777800Y-119554400D01*
X132224200Y-117858000D02*
X132224200Y-119554400D01*
X133340600Y-120117200D02*
X133340600Y-122517200D01*
D28*
X133340600Y-122517200D02*
X133340600Y-122940600D01*
D30*
X132777800Y-119554400D02*
X133340600Y-120117200D01*
D29*
X130723400Y-131101600D02*
X130723400Y-132601600D01*
X133255600Y-132601600D02*
X133343900Y-132513300D01*
X133343900Y-132513300D02*
X133343900Y-129167700D01*
X132123400Y-132601600D02*
X133255600Y-132601600D01*
X130723400Y-132601600D02*
X131423400Y-132601600D01*
X131423400Y-132601600D02*
X132123400Y-132601600D01*
X154123400Y-132601600D02*
X155255600Y-132601600D01*
X153423400Y-131101600D02*
X154123400Y-131101600D01*
X152723400Y-131101600D02*
X152723400Y-132601600D01*
X153423400Y-132601600D02*
X154123400Y-132601600D01*
X152723400Y-131101600D02*
X153423400Y-131101600D01*
X155343900Y-132513300D02*
X155343900Y-129167700D01*
X155255600Y-132601600D02*
X155343900Y-132513300D01*
X152723400Y-132601600D02*
X153423400Y-132601600D01*
D30*
X155340600Y-120117200D02*
X155340600Y-122517200D01*
X154777800Y-119554400D02*
X155340600Y-120117200D01*
X154224200Y-119554400D02*
X154777800Y-119554400D01*
X154224200Y-117858000D02*
X154224200Y-119554400D01*
D28*
X155340600Y-122940600D02*
X156000000Y-123600000D01*
X155340600Y-122517200D02*
X155340600Y-122940600D01*
D29*
X155343900Y-129167700D02*
X155402300Y-129167700D01*
D28*
X111340600Y-122940600D02*
X112000000Y-123600000D01*
X111340600Y-122517200D02*
X111340600Y-122940600D01*
D29*
X111343900Y-132513300D02*
X111343900Y-129167700D01*
X111343900Y-129167700D02*
X111402300Y-129167700D01*
X111255600Y-132601600D02*
X111343900Y-132513300D01*
X110123400Y-132601600D02*
X111255600Y-132601600D01*
X108723400Y-131101600D02*
X108723400Y-132601600D01*
X108723400Y-132601600D02*
X109423400Y-132601600D01*
X108723400Y-131101600D02*
X109423400Y-131101600D01*
X109423400Y-132601600D02*
X110123400Y-132601600D01*
X109423400Y-131101600D02*
X110123400Y-131101600D01*
D30*
X110224200Y-117858000D02*
X110224200Y-119554400D01*
X110224200Y-119554400D02*
X110777800Y-119554400D01*
X110777800Y-119554400D02*
X111340600Y-120117200D01*
X111340600Y-120117200D02*
X111340600Y-122517200D01*
D29*
X86723400Y-132601600D02*
X87423400Y-132601600D01*
X87423400Y-131101600D02*
X88123400Y-131101600D01*
X89255600Y-132601600D02*
X89343900Y-132513300D01*
X89343900Y-132513300D02*
X89343900Y-129167700D01*
X88123400Y-132601600D02*
X89255600Y-132601600D01*
X87423400Y-132601600D02*
X88123400Y-132601600D01*
D28*
X89340600Y-122517200D02*
X89340600Y-122940600D01*
D29*
X89343900Y-129167700D02*
X89402300Y-129167700D01*
D28*
X89340600Y-122940600D02*
X90000000Y-123600000D01*
D29*
X86723400Y-131101600D02*
X87423400Y-131101600D01*
X86723400Y-131101600D02*
X86723400Y-132601600D01*
D30*
X88777800Y-119554400D02*
X89340600Y-120117200D01*
X89340600Y-120117200D02*
X89340600Y-122517200D01*
X88224200Y-119554400D02*
X88777800Y-119554400D01*
X88224200Y-117858000D02*
X88224200Y-119554400D01*
D28*
X111340600Y-89940600D02*
X112000000Y-90600000D01*
D29*
X111343900Y-96167700D02*
X111402300Y-96167700D01*
D28*
X111340600Y-89517200D02*
X111340600Y-89940600D01*
D30*
X110224200Y-84858000D02*
X110224200Y-86554400D01*
X110777800Y-86554400D02*
X111340600Y-87117200D01*
X110224200Y-86554400D02*
X110777800Y-86554400D01*
X111340600Y-87117200D02*
X111340600Y-89517200D01*
D29*
X111343900Y-99513300D02*
X111343900Y-96167700D01*
X108723400Y-98101600D02*
X108723400Y-99601600D01*
X109423400Y-99601600D02*
X110123400Y-99601600D01*
X111255600Y-99601600D02*
X111343900Y-99513300D01*
X108723400Y-99601600D02*
X109423400Y-99601600D01*
X110123400Y-99601600D02*
X111255600Y-99601600D01*
X109423400Y-98101600D02*
X110123400Y-98101600D01*
X108723400Y-98101600D02*
X109423400Y-98101600D01*
X130723400Y-98101600D02*
X130723400Y-99601600D01*
X131423400Y-98101600D02*
X132123400Y-98101600D01*
X130723400Y-99601600D02*
X131423400Y-99601600D01*
X132123400Y-99601600D02*
X133255600Y-99601600D01*
X130723400Y-98101600D02*
X131423400Y-98101600D01*
D30*
X132224200Y-84858000D02*
X132224200Y-86554400D01*
X132777800Y-86554400D02*
X133340600Y-87117200D01*
X132224200Y-86554400D02*
X132777800Y-86554400D01*
X133340600Y-87117200D02*
X133340600Y-89517200D01*
D28*
X133340600Y-89940600D02*
X134000000Y-90600000D01*
D29*
X131423400Y-99601600D02*
X132123400Y-99601600D01*
D28*
X133340600Y-89517200D02*
X133340600Y-89940600D01*
D29*
X133343900Y-96167700D02*
X133402300Y-96167700D01*
X133343900Y-99513300D02*
X133343900Y-96167700D01*
X133255600Y-99601600D02*
X133343900Y-99513300D01*
D30*
X88224200Y-84858000D02*
X88224200Y-86554400D01*
X88224200Y-86554400D02*
X88777800Y-86554400D01*
X88777800Y-86554400D02*
X89340600Y-87117200D01*
X89340600Y-87117200D02*
X89340600Y-89517200D01*
D29*
X86723400Y-98101600D02*
X86723400Y-99601600D01*
X86723400Y-99601600D02*
X87423400Y-99601600D01*
X87423400Y-99601600D02*
X88123400Y-99601600D01*
X86723400Y-98101600D02*
X87423400Y-98101600D01*
X87423400Y-98101600D02*
X88123400Y-98101600D01*
X88123400Y-99601600D02*
X89255600Y-99601600D01*
X89255600Y-99601600D02*
X89343900Y-99513300D01*
D28*
X89340600Y-89517200D02*
X89340600Y-89940600D01*
D29*
X89343900Y-96167700D02*
X89402300Y-96167700D01*
X89343900Y-99513300D02*
X89343900Y-96167700D01*
D28*
X89340600Y-89940600D02*
X90000000Y-90600000D01*
D30*
X154224200Y-84858000D02*
X154224200Y-86554400D01*
X154224200Y-86554400D02*
X154777800Y-86554400D01*
X154777800Y-86554400D02*
X155340600Y-87117200D01*
X155340600Y-87117200D02*
X155340600Y-89517200D01*
D29*
X155255600Y-99601600D02*
X155343900Y-99513300D01*
X155343900Y-99513300D02*
X155343900Y-96167700D01*
X153423400Y-98101600D02*
X154123400Y-98101600D01*
X155343900Y-96167700D02*
X155402300Y-96167700D01*
D28*
X155340600Y-89517200D02*
X155340600Y-89940600D01*
X155340600Y-89940600D02*
X156000000Y-90600000D01*
D29*
X152723400Y-99601600D02*
X153423400Y-99601600D01*
X152723400Y-98101600D02*
X153423400Y-98101600D01*
X152723400Y-98101600D02*
X152723400Y-99601600D01*
X154123400Y-99601600D02*
X155255600Y-99601600D01*
X153423400Y-99601600D02*
X154123400Y-99601600D01*
D30*
X154224200Y-51858000D02*
X154224200Y-53554400D01*
X154224200Y-53554400D02*
X154777800Y-53554400D01*
X155340600Y-54117200D02*
X155340600Y-56517200D01*
X154777800Y-53554400D02*
X155340600Y-54117200D01*
D28*
X155340600Y-56517200D02*
X155340600Y-56940600D01*
X155340600Y-56940600D02*
X156000000Y-57600000D01*
D29*
X155343900Y-66513300D02*
X155343900Y-63167700D01*
X155343900Y-63167700D02*
X155402300Y-63167700D01*
X154123400Y-66601600D02*
X155255600Y-66601600D01*
X153423400Y-65101600D02*
X154123400Y-65101600D01*
X152723400Y-65101600D02*
X153423400Y-65101600D01*
X152723400Y-66601600D02*
X153423400Y-66601600D01*
X153423400Y-66601600D02*
X154123400Y-66601600D01*
X155255600Y-66601600D02*
X155343900Y-66513300D01*
X152723400Y-65101600D02*
X152723400Y-66601600D01*
X132123400Y-66601600D02*
X133255600Y-66601600D01*
X133255600Y-66601600D02*
X133343900Y-66513300D01*
D30*
X132224200Y-53554400D02*
X132777800Y-53554400D01*
X132777800Y-53554400D02*
X133340600Y-54117200D01*
X133340600Y-54117200D02*
X133340600Y-56517200D01*
X132224200Y-51858000D02*
X132224200Y-53554400D01*
D28*
X133340600Y-56517200D02*
X133340600Y-56940600D01*
D29*
X133343900Y-63167700D02*
X133402300Y-63167700D01*
D28*
X133340600Y-56940600D02*
X134000000Y-57600000D01*
D29*
X131423400Y-65101600D02*
X132123400Y-65101600D01*
X133343900Y-66513300D02*
X133343900Y-63167700D01*
X130723400Y-65101600D02*
X131423400Y-65101600D01*
X130723400Y-65101600D02*
X130723400Y-66601600D01*
X130723400Y-66601600D02*
X131423400Y-66601600D01*
X131423400Y-66601600D02*
X132123400Y-66601600D01*
D28*
X111340600Y-56940600D02*
X112000000Y-57600000D01*
X111340600Y-56517200D02*
X111340600Y-56940600D01*
D29*
X110123400Y-66601600D02*
X111255600Y-66601600D01*
X111255600Y-66601600D02*
X111343900Y-66513300D01*
X108723400Y-65101600D02*
X109423400Y-65101600D01*
X108723400Y-65101600D02*
X108723400Y-66601600D01*
X108723400Y-66601600D02*
X109423400Y-66601600D01*
X109423400Y-66601600D02*
X110123400Y-66601600D01*
X109423400Y-65101600D02*
X110123400Y-65101600D01*
X111343900Y-63167700D02*
X111402300Y-63167700D01*
X111343900Y-66513300D02*
X111343900Y-63167700D01*
D30*
X110224200Y-51858000D02*
X110224200Y-53554400D01*
X111340600Y-54117200D02*
X111340600Y-56517200D01*
X110777800Y-53554400D02*
X111340600Y-54117200D01*
X110224200Y-53554400D02*
X110777800Y-53554400D01*
X88224200Y-53554400D02*
X88777800Y-53554400D01*
X88777800Y-53554400D02*
X89340600Y-54117200D01*
X89340600Y-54117200D02*
X89340600Y-56517200D01*
X88224200Y-51858000D02*
X88224200Y-53554400D01*
D29*
X89255600Y-66601600D02*
X89343900Y-66513300D01*
X89343900Y-66513300D02*
X89343900Y-63167700D01*
X88123400Y-66601600D02*
X89255600Y-66601600D01*
X87423400Y-66601600D02*
X88123400Y-66601600D01*
X86723400Y-66601600D02*
X87423400Y-66601600D01*
X86723400Y-65101600D02*
X86723400Y-66601600D01*
X87423400Y-65101600D02*
X88123400Y-65101600D01*
X86723400Y-65101600D02*
X87423400Y-65101600D01*
D28*
X89340600Y-56517200D02*
X89340600Y-56940600D01*
X89340600Y-56940600D02*
X90000000Y-57600000D01*
D29*
X89343900Y-63167700D02*
X89402300Y-63167700D01*
X165467400Y-122517200D02*
X166193000Y-123242800D01*
X166193000Y-128119600D02*
X165303900Y-129008700D01*
D28*
X164992600Y-122792600D02*
X165750000Y-123550000D01*
D29*
X166193000Y-123242800D02*
X166193000Y-128119600D01*
D28*
X164992600Y-122517200D02*
X164992600Y-122792600D01*
D29*
X164992600Y-122517200D02*
X165467400Y-122517200D01*
D30*
X164992600Y-119832600D02*
X164992600Y-122517200D01*
X164054000Y-118894000D02*
X164992600Y-119832600D01*
X164054000Y-117807200D02*
X164054000Y-118894000D01*
D29*
X165303900Y-129008700D02*
X164056100Y-129008700D01*
X164056100Y-131294100D02*
X164056100Y-129008700D01*
X163150199Y-132200001D02*
X164056100Y-131294100D01*
X162110200Y-131000000D02*
X162810200Y-131000000D01*
X161410200Y-131000000D02*
X162110200Y-131000000D01*
X162810200Y-132500000D02*
X162110200Y-132500000D01*
X163110199Y-132200001D02*
X163150199Y-132200001D01*
X162810200Y-131000000D02*
X162810200Y-132500000D01*
X162110200Y-132500000D02*
X161410200Y-132500000D01*
X162810200Y-132500000D02*
X163110199Y-132200001D01*
X140810200Y-132500000D02*
X141110199Y-132200001D01*
X140810200Y-131000000D02*
X140810200Y-132500000D01*
X140810200Y-132500000D02*
X140110200Y-132500000D01*
X140110200Y-132500000D02*
X139410200Y-132500000D01*
X141110199Y-132200001D02*
X141150199Y-132200001D01*
X142056100Y-131294100D02*
X142056100Y-129008700D01*
X141150199Y-132200001D02*
X142056100Y-131294100D01*
X140110200Y-131000000D02*
X140810200Y-131000000D01*
X139410200Y-131000000D02*
X140110200Y-131000000D01*
X143303900Y-129008700D02*
X142056100Y-129008700D01*
X144193000Y-128119600D02*
X143303900Y-129008700D01*
X144193000Y-123242800D02*
X144193000Y-128119600D01*
D30*
X142054000Y-117807200D02*
X142054000Y-118894000D01*
D29*
X143467400Y-122517200D02*
X144193000Y-123242800D01*
X142992600Y-122517200D02*
X143467400Y-122517200D01*
D30*
X142992600Y-119832600D02*
X142992600Y-122517200D01*
D28*
X142992600Y-122792600D02*
X143750000Y-123550000D01*
X142992600Y-122517200D02*
X142992600Y-122792600D01*
D30*
X142054000Y-118894000D02*
X142992600Y-119832600D01*
D29*
X119150199Y-132200001D02*
X120056100Y-131294100D01*
X119110199Y-132200001D02*
X119150199Y-132200001D01*
X118810200Y-132500000D02*
X119110199Y-132200001D01*
X118810200Y-131000000D02*
X118810200Y-132500000D01*
X118110200Y-132500000D02*
X117410200Y-132500000D01*
X117410200Y-131000000D02*
X118110200Y-131000000D01*
X118110200Y-131000000D02*
X118810200Y-131000000D01*
X118810200Y-132500000D02*
X118110200Y-132500000D01*
X120056100Y-131294100D02*
X120056100Y-129008700D01*
X121303900Y-129008700D02*
X120056100Y-129008700D01*
X122193000Y-123242800D02*
X122193000Y-128119600D01*
X122193000Y-128119600D02*
X121303900Y-129008700D01*
X121467400Y-122517200D02*
X122193000Y-123242800D01*
D30*
X120054000Y-117807200D02*
X120054000Y-118894000D01*
X120054000Y-118894000D02*
X120992600Y-119832600D01*
X120992600Y-119832600D02*
X120992600Y-122517200D01*
D28*
X120992600Y-122517200D02*
X120992600Y-122792600D01*
D29*
X120992600Y-122517200D02*
X121467400Y-122517200D01*
D28*
X120992600Y-122792600D02*
X121750000Y-123550000D01*
D29*
X96810200Y-132500000D02*
X97110199Y-132200001D01*
X97150199Y-132200001D02*
X98056100Y-131294100D01*
X99303900Y-129008700D02*
X98056100Y-129008700D01*
X100193000Y-128119600D02*
X99303900Y-129008700D01*
X98056100Y-131294100D02*
X98056100Y-129008700D01*
X97110199Y-132200001D02*
X97150199Y-132200001D01*
X95410200Y-131000000D02*
X96110200Y-131000000D01*
X96810200Y-132500000D02*
X96110200Y-132500000D01*
X96810200Y-131000000D02*
X96810200Y-132500000D01*
X96110200Y-132500000D02*
X95410200Y-132500000D01*
X96110200Y-131000000D02*
X96810200Y-131000000D01*
D28*
X98992600Y-122517200D02*
X98992600Y-122792600D01*
X98992600Y-122792600D02*
X99750000Y-123550000D01*
D29*
X100193000Y-123242800D02*
X100193000Y-128119600D01*
X98992600Y-122517200D02*
X99467400Y-122517200D01*
X99467400Y-122517200D02*
X100193000Y-123242800D01*
D30*
X98054000Y-118894000D02*
X98992600Y-119832600D01*
X98992600Y-119832600D02*
X98992600Y-122517200D01*
X98054000Y-117807200D02*
X98054000Y-118894000D01*
D29*
X118810200Y-98000000D02*
X118810200Y-99500000D01*
X118810200Y-99500000D02*
X119110199Y-99200001D01*
X118810200Y-99500000D02*
X118110200Y-99500000D01*
X118110200Y-99500000D02*
X117410200Y-99500000D01*
X117410200Y-98000000D02*
X118110200Y-98000000D01*
X119110199Y-99200001D02*
X119150199Y-99200001D01*
X120056100Y-98294100D02*
X120056100Y-96008700D01*
X119150199Y-99200001D02*
X120056100Y-98294100D01*
X118110200Y-98000000D02*
X118810200Y-98000000D01*
X122193000Y-90242800D02*
X122193000Y-95119600D01*
D30*
X120054000Y-84807200D02*
X120054000Y-85894000D01*
X120992600Y-86832600D02*
X120992600Y-89517200D01*
D29*
X121467400Y-89517200D02*
X122193000Y-90242800D01*
D28*
X120992600Y-89517200D02*
X120992600Y-89792600D01*
X120992600Y-89792600D02*
X121750000Y-90550000D01*
D30*
X120054000Y-85894000D02*
X120992600Y-86832600D01*
D29*
X120992600Y-89517200D02*
X121467400Y-89517200D01*
X122193000Y-95119600D02*
X121303900Y-96008700D01*
X121303900Y-96008700D02*
X120056100Y-96008700D01*
D30*
X142054000Y-84807200D02*
X142054000Y-85894000D01*
X142992600Y-86832600D02*
X142992600Y-89517200D01*
X142054000Y-85894000D02*
X142992600Y-86832600D01*
D29*
X141150199Y-99200001D02*
X142056100Y-98294100D01*
X143303900Y-96008700D02*
X142056100Y-96008700D01*
X141110199Y-99200001D02*
X141150199Y-99200001D01*
X142056100Y-98294100D02*
X142056100Y-96008700D01*
X140810200Y-99500000D02*
X141110199Y-99200001D01*
X144193000Y-90242800D02*
X144193000Y-95119600D01*
X144193000Y-95119600D02*
X143303900Y-96008700D01*
D28*
X142992600Y-89792600D02*
X143750000Y-90550000D01*
X142992600Y-89517200D02*
X142992600Y-89792600D01*
D29*
X143467400Y-89517200D02*
X144193000Y-90242800D01*
X142992600Y-89517200D02*
X143467400Y-89517200D01*
X140110200Y-99500000D02*
X139410200Y-99500000D01*
X139410200Y-98000000D02*
X140110200Y-98000000D01*
X140110200Y-98000000D02*
X140810200Y-98000000D01*
X140810200Y-98000000D02*
X140810200Y-99500000D01*
X140810200Y-99500000D02*
X140110200Y-99500000D01*
X98992600Y-89517200D02*
X99467400Y-89517200D01*
D30*
X98992600Y-86832600D02*
X98992600Y-89517200D01*
X98054000Y-85894000D02*
X98992600Y-86832600D01*
D28*
X98992600Y-89517200D02*
X98992600Y-89792600D01*
D30*
X98054000Y-84807200D02*
X98054000Y-85894000D01*
D28*
X98992600Y-89792600D02*
X99750000Y-90550000D01*
D29*
X99467400Y-89517200D02*
X100193000Y-90242800D01*
X100193000Y-90242800D02*
X100193000Y-95119600D01*
X96810200Y-99500000D02*
X97110199Y-99200001D01*
X97110199Y-99200001D02*
X97150199Y-99200001D01*
X98056100Y-98294100D02*
X98056100Y-96008700D01*
X99303900Y-96008700D02*
X98056100Y-96008700D01*
X100193000Y-95119600D02*
X99303900Y-96008700D01*
X97150199Y-99200001D02*
X98056100Y-98294100D01*
X96110200Y-98000000D02*
X96810200Y-98000000D01*
X96810200Y-98000000D02*
X96810200Y-99500000D01*
X96810200Y-99500000D02*
X96110200Y-99500000D01*
X96110200Y-99500000D02*
X95410200Y-99500000D01*
X95410200Y-98000000D02*
X96110200Y-98000000D01*
X166193000Y-90242800D02*
X166193000Y-95119600D01*
X165467400Y-89517200D02*
X166193000Y-90242800D01*
D28*
X164992600Y-89792600D02*
X165750000Y-90550000D01*
D29*
X164056100Y-98294100D02*
X164056100Y-96008700D01*
X162810200Y-99500000D02*
X162110200Y-99500000D01*
X162810200Y-98000000D02*
X162810200Y-99500000D01*
X162110200Y-99500000D02*
X161410200Y-99500000D01*
X162110200Y-98000000D02*
X162810200Y-98000000D01*
X162810200Y-99500000D02*
X163110199Y-99200001D01*
X161410200Y-98000000D02*
X162110200Y-98000000D01*
X164992600Y-89517200D02*
X165467400Y-89517200D01*
D28*
X164992600Y-89517200D02*
X164992600Y-89792600D01*
D30*
X164992600Y-86832600D02*
X164992600Y-89517200D01*
X164054000Y-85894000D02*
X164992600Y-86832600D01*
X164054000Y-84807200D02*
X164054000Y-85894000D01*
D29*
X165303900Y-96008700D02*
X164056100Y-96008700D01*
X166193000Y-95119600D02*
X165303900Y-96008700D01*
X163150199Y-99200001D02*
X164056100Y-98294100D01*
X163110199Y-99200001D02*
X163150199Y-99200001D01*
D30*
X164992600Y-53832600D02*
X164992600Y-56517200D01*
X164054000Y-51807200D02*
X164054000Y-52894000D01*
X164054000Y-52894000D02*
X164992600Y-53832600D01*
D28*
X164992600Y-56517200D02*
X164992600Y-56792600D01*
D29*
X164992600Y-56517200D02*
X165467400Y-56517200D01*
D28*
X164992600Y-56792600D02*
X165750000Y-57550000D01*
D29*
X165467400Y-56517200D02*
X166193000Y-57242800D01*
X166193000Y-57242800D02*
X166193000Y-62119600D01*
X163110199Y-66200001D02*
X163150199Y-66200001D01*
X164056100Y-65294100D02*
X164056100Y-63008700D01*
X166193000Y-62119600D02*
X165303900Y-63008700D01*
X165303900Y-63008700D02*
X164056100Y-63008700D01*
X163150199Y-66200001D02*
X164056100Y-65294100D01*
X162810200Y-66500000D02*
X162110200Y-66500000D01*
X162110200Y-65000000D02*
X162810200Y-65000000D01*
X162110200Y-66500000D02*
X161410200Y-66500000D01*
X161410200Y-65000000D02*
X162110200Y-65000000D01*
X162810200Y-65000000D02*
X162810200Y-66500000D01*
X162810200Y-66500000D02*
X163110199Y-66200001D01*
X141150199Y-66200001D02*
X142056100Y-65294100D01*
X140810200Y-66500000D02*
X141110199Y-66200001D01*
X140110200Y-66500000D02*
X139410200Y-66500000D01*
X141110199Y-66200001D02*
X141150199Y-66200001D01*
X140810200Y-66500000D02*
X140110200Y-66500000D01*
X140110200Y-65000000D02*
X140810200Y-65000000D01*
X140810200Y-65000000D02*
X140810200Y-66500000D01*
X139410200Y-65000000D02*
X140110200Y-65000000D01*
X142992600Y-56517200D02*
X143467400Y-56517200D01*
D30*
X142054000Y-52894000D02*
X142992600Y-53832600D01*
X142054000Y-51807200D02*
X142054000Y-52894000D01*
X142992600Y-53832600D02*
X142992600Y-56517200D01*
D29*
X143467400Y-56517200D02*
X144193000Y-57242800D01*
X144193000Y-57242800D02*
X144193000Y-62119600D01*
D28*
X142992600Y-56517200D02*
X142992600Y-56792600D01*
X142992600Y-56792600D02*
X143750000Y-57550000D01*
D29*
X144193000Y-62119600D02*
X143303900Y-63008700D01*
X143303900Y-63008700D02*
X142056100Y-63008700D01*
X142056100Y-65294100D02*
X142056100Y-63008700D01*
X122193000Y-62119600D02*
X121303900Y-63008700D01*
X121303900Y-63008700D02*
X120056100Y-63008700D01*
D28*
X120992600Y-56792600D02*
X121750000Y-57550000D01*
D29*
X120992600Y-56517200D02*
X121467400Y-56517200D01*
X121467400Y-56517200D02*
X122193000Y-57242800D01*
D28*
X120992600Y-56517200D02*
X120992600Y-56792600D01*
D29*
X122193000Y-57242800D02*
X122193000Y-62119600D01*
X118810200Y-66500000D02*
X118110200Y-66500000D01*
X118810200Y-66500000D02*
X119110199Y-66200001D01*
X118110200Y-66500000D02*
X117410200Y-66500000D01*
X119110199Y-66200001D02*
X119150199Y-66200001D01*
X117410200Y-65000000D02*
X118110200Y-65000000D01*
X118110200Y-65000000D02*
X118810200Y-65000000D01*
X118810200Y-65000000D02*
X118810200Y-66500000D01*
X120056100Y-65294100D02*
X120056100Y-63008700D01*
X119150199Y-66200001D02*
X120056100Y-65294100D01*
D30*
X120054000Y-51807200D02*
X120054000Y-52894000D01*
X120992600Y-53832600D02*
X120992600Y-56517200D01*
X120054000Y-52894000D02*
X120992600Y-53832600D01*
D29*
X100193000Y-62119600D02*
X99303900Y-63008700D01*
X99303900Y-63008700D02*
X98056100Y-63008700D01*
X100193000Y-57242800D02*
X100193000Y-62119600D01*
X99467400Y-56517200D02*
X100193000Y-57242800D01*
X98992600Y-56517200D02*
X99467400Y-56517200D01*
D30*
X98054000Y-52894000D02*
X98992600Y-53832600D01*
X98992600Y-53832600D02*
X98992600Y-56517200D01*
X98054000Y-51807200D02*
X98054000Y-52894000D01*
D29*
X97150199Y-66200001D02*
X98056100Y-65294100D01*
X98056100Y-65294100D02*
X98056100Y-63008700D01*
X96810200Y-66500000D02*
X97110199Y-66200001D01*
X97110199Y-66200001D02*
X97150199Y-66200001D01*
X96110200Y-66500000D02*
X95410200Y-66500000D01*
X96810200Y-66500000D02*
X96110200Y-66500000D01*
X96810200Y-65000000D02*
X96810200Y-66500000D01*
X96110200Y-65000000D02*
X96810200Y-65000000D01*
X95410200Y-65000000D02*
X96110200Y-65000000D01*
D28*
X98992600Y-56517200D02*
X98992600Y-56792600D01*
X98992600Y-56792600D02*
X99750000Y-57550000D01*
D26*
X132047800Y-127909800D02*
X133247800Y-126709800D01*
X133247800Y-126709800D02*
X133247800Y-125909800D01*
X132047800Y-128311000D02*
X132047800Y-127909800D01*
X132073900Y-128337100D02*
X132047800Y-128311000D01*
X132073900Y-129167700D02*
X132073900Y-128337100D01*
X155247800Y-126709800D02*
X155247800Y-125909800D01*
X154073900Y-128337100D02*
X154047800Y-128311000D01*
X154073900Y-129167700D02*
X154073900Y-128337100D01*
X154047800Y-127909800D02*
X155247800Y-126709800D01*
X154047800Y-128311000D02*
X154047800Y-127909800D01*
X110047800Y-127909800D02*
X111247800Y-126709800D01*
X111247800Y-126709800D02*
X111247800Y-125909800D01*
X110073900Y-128337100D02*
X110047800Y-128311000D01*
X110047800Y-128311000D02*
X110047800Y-127909800D01*
X110073900Y-129167700D02*
X110073900Y-128337100D01*
X88073900Y-129167700D02*
X88073900Y-128337100D01*
X88073900Y-128337100D02*
X88047800Y-128311000D01*
X88047800Y-128311000D02*
X88047800Y-127909800D01*
X88047800Y-127909800D02*
X89247800Y-126709800D01*
X89247800Y-126709800D02*
X89247800Y-125909800D01*
X110073900Y-95337100D02*
X110047800Y-95311000D01*
X111247800Y-93709800D02*
X111247800Y-92909800D01*
X110047800Y-95311000D02*
X110047800Y-94909800D01*
X110047800Y-94909800D02*
X111247800Y-93709800D01*
X110073900Y-96167700D02*
X110073900Y-95337100D01*
X132073900Y-96167700D02*
X132073900Y-95337100D01*
X132073900Y-95337100D02*
X132047800Y-95311000D01*
X133247800Y-93709800D02*
X133247800Y-92909800D01*
X132047800Y-94909800D02*
X133247800Y-93709800D01*
X132047800Y-95311000D02*
X132047800Y-94909800D01*
X88073900Y-95337100D02*
X88047800Y-95311000D01*
X88073900Y-96167700D02*
X88073900Y-95337100D01*
X88047800Y-94909800D02*
X89247800Y-93709800D01*
X88047800Y-95311000D02*
X88047800Y-94909800D01*
X89247800Y-93709800D02*
X89247800Y-92909800D01*
X155247800Y-93709800D02*
X155247800Y-92909800D01*
X154047800Y-95311000D02*
X154047800Y-94909800D01*
X154047800Y-94909800D02*
X155247800Y-93709800D01*
X154073900Y-95337100D02*
X154047800Y-95311000D01*
X154073900Y-96167700D02*
X154073900Y-95337100D01*
X155247800Y-60709800D02*
X155247800Y-59909800D01*
X154073900Y-62337100D02*
X154047800Y-62311000D01*
X154047800Y-62311000D02*
X154047800Y-61909800D01*
X154047800Y-61909800D02*
X155247800Y-60709800D01*
X154073900Y-63167700D02*
X154073900Y-62337100D01*
X132047800Y-62311000D02*
X132047800Y-61909800D01*
X132073900Y-62337100D02*
X132047800Y-62311000D01*
X132047800Y-61909800D02*
X133247800Y-60709800D01*
X133247800Y-60709800D02*
X133247800Y-59909800D01*
X132073900Y-63167700D02*
X132073900Y-62337100D01*
X111247800Y-60709800D02*
X111247800Y-59909800D01*
X110047800Y-61909800D02*
X111247800Y-60709800D01*
X110073900Y-63167700D02*
X110073900Y-62337100D01*
X110073900Y-62337100D02*
X110047800Y-62311000D01*
X110047800Y-62311000D02*
X110047800Y-61909800D01*
X88073900Y-62337100D02*
X88047800Y-62311000D01*
X88047800Y-62311000D02*
X88047800Y-61909800D01*
X88047800Y-61909800D02*
X89247800Y-60709800D01*
X89247800Y-60709800D02*
X89247800Y-59909800D01*
X88073900Y-63167700D02*
X88073900Y-62337100D01*
X163826800Y-125884400D02*
X165026800Y-125884400D01*
X163322800Y-126388400D02*
X163826800Y-125884400D01*
X163322800Y-127484600D02*
X163322800Y-126388400D01*
X162786100Y-128021300D02*
X163322800Y-127484600D01*
X162786100Y-129008700D02*
X162786100Y-128021300D01*
X141322800Y-127484600D02*
X141322800Y-126388400D01*
X141826800Y-125884400D02*
X143026800Y-125884400D01*
X141322800Y-126388400D02*
X141826800Y-125884400D01*
X140786100Y-129008700D02*
X140786100Y-128021300D01*
X140786100Y-128021300D02*
X141322800Y-127484600D01*
X118786100Y-128021300D02*
X119322800Y-127484600D01*
X118786100Y-129008700D02*
X118786100Y-128021300D01*
X119322800Y-126388400D02*
X119826800Y-125884400D01*
X119826800Y-125884400D02*
X121026800Y-125884400D01*
X119322800Y-127484600D02*
X119322800Y-126388400D01*
X97322800Y-127484600D02*
X97322800Y-126388400D01*
X96786100Y-129008700D02*
X96786100Y-128021300D01*
X96786100Y-128021300D02*
X97322800Y-127484600D01*
X97322800Y-126388400D02*
X97826800Y-125884400D01*
X97826800Y-125884400D02*
X99026800Y-125884400D01*
X119826800Y-92884400D02*
X121026800Y-92884400D01*
X119322800Y-93388400D02*
X119826800Y-92884400D01*
X119322800Y-94484600D02*
X119322800Y-93388400D01*
X118786100Y-95021300D02*
X119322800Y-94484600D01*
X118786100Y-96008700D02*
X118786100Y-95021300D01*
X140786100Y-96008700D02*
X140786100Y-95021300D01*
X140786100Y-95021300D02*
X141322800Y-94484600D01*
X141322800Y-94484600D02*
X141322800Y-93388400D01*
X141826800Y-92884400D02*
X143026800Y-92884400D01*
X141322800Y-93388400D02*
X141826800Y-92884400D01*
X97322800Y-93388400D02*
X97826800Y-92884400D01*
X97322800Y-94484600D02*
X97322800Y-93388400D01*
X96786100Y-96008700D02*
X96786100Y-95021300D01*
X96786100Y-95021300D02*
X97322800Y-94484600D01*
X97826800Y-92884400D02*
X99026800Y-92884400D01*
X163322800Y-93388400D02*
X163826800Y-92884400D01*
X163826800Y-92884400D02*
X165026800Y-92884400D01*
X163322800Y-94484600D02*
X163322800Y-93388400D01*
X162786100Y-95021300D02*
X163322800Y-94484600D01*
X162786100Y-96008700D02*
X162786100Y-95021300D01*
X163826800Y-59884400D02*
X165026800Y-59884400D01*
X163322800Y-60388400D02*
X163826800Y-59884400D01*
X163322800Y-61484600D02*
X163322800Y-60388400D01*
X162786100Y-63008700D02*
X162786100Y-62021300D01*
X162786100Y-62021300D02*
X163322800Y-61484600D01*
X141322800Y-61484600D02*
X141322800Y-60388400D01*
X141322800Y-60388400D02*
X141826800Y-59884400D01*
X140786100Y-63008700D02*
X140786100Y-62021300D01*
X140786100Y-62021300D02*
X141322800Y-61484600D01*
X141826800Y-59884400D02*
X143026800Y-59884400D01*
X119826800Y-59884400D02*
X121026800Y-59884400D01*
X119322800Y-60388400D02*
X119826800Y-59884400D01*
X119322800Y-61484600D02*
X119322800Y-60388400D01*
X118786100Y-62021300D02*
X119322800Y-61484600D01*
X118786100Y-63008700D02*
X118786100Y-62021300D01*
X97322800Y-61484600D02*
X97322800Y-60388400D01*
X97322800Y-60388400D02*
X97826800Y-59884400D01*
X97826800Y-59884400D02*
X99026800Y-59884400D01*
X96786100Y-62021300D02*
X97322800Y-61484600D01*
X96786100Y-63008700D02*
X96786100Y-62021300D01*
D31*
G36*
X100751800Y-61906833D02*
X100509930Y-63503178D01*
X100508365Y-63504247D01*
X100481085Y-63546641D01*
X100472414Y-63594681D01*
X100521304Y-66894731D01*
X93538268Y-66891000D01*
X92141200Y-66891000D01*
X92141200Y-64351000D01*
X97780000Y-64351000D01*
X97829410Y-64340994D01*
X97871035Y-64312553D01*
X97898315Y-64270159D01*
X97906899Y-64218924D01*
X97889203Y-63776524D01*
X97881600Y-63745427D01*
X97881600Y-62055327D01*
X99734877Y-62068797D01*
X99784358Y-62059150D01*
X99826189Y-62031013D01*
X99853776Y-61988818D01*
X99862799Y-61941290D01*
X99859669Y-61162027D01*
X99865264Y-61134400D01*
X99865264Y-58634400D01*
X99849175Y-58548895D01*
X99837911Y-55744200D01*
X100751800Y-55744200D01*
X100751800Y-61906833D01*
X100751800Y-61906833D01*
G37*
X100751800Y-61906833D02*
X100509930Y-63503178D01*
X100508365Y-63504247D01*
X100481085Y-63546641D01*
X100472414Y-63594681D01*
X100521304Y-66894731D01*
X93538268Y-66891000D01*
X92141200Y-66891000D01*
X92141200Y-64351000D01*
X97780000Y-64351000D01*
X97829410Y-64340994D01*
X97871035Y-64312553D01*
X97898315Y-64270159D01*
X97906899Y-64218924D01*
X97889203Y-63776524D01*
X97881600Y-63745427D01*
X97881600Y-62055327D01*
X99734877Y-62068797D01*
X99784358Y-62059150D01*
X99826189Y-62031013D01*
X99853776Y-61988818D01*
X99862799Y-61941290D01*
X99859669Y-61162027D01*
X99865264Y-61134400D01*
X99865264Y-58634400D01*
X99849175Y-58548895D01*
X99837911Y-55744200D01*
X100751800Y-55744200D01*
X100751800Y-61906833D01*
G36*
X91035639Y-55909961D02*
X91049000Y-55923322D01*
X91049000Y-66891000D01*
X85643192Y-66891000D01*
X85207000Y-66454808D01*
X85207000Y-64605000D01*
X89042400Y-64605000D01*
X89091810Y-64594994D01*
X89133435Y-64566553D01*
X89160715Y-64524159D01*
X89169400Y-64478000D01*
X89169400Y-62217876D01*
X90057925Y-62221199D01*
X90107372Y-62211378D01*
X90149103Y-62183093D01*
X90176541Y-62140801D01*
X90185398Y-62093521D01*
X90159998Y-57343721D01*
X90149728Y-57294365D01*
X90121065Y-57252893D01*
X90078526Y-57225840D01*
X90028240Y-57217489D01*
X88229600Y-57284947D01*
X88229600Y-55715000D01*
X90905370Y-55715000D01*
X91035639Y-55909961D01*
X91035639Y-55909961D01*
G37*
X91035639Y-55909961D02*
X91049000Y-55923322D01*
X91049000Y-66891000D01*
X85643192Y-66891000D01*
X85207000Y-66454808D01*
X85207000Y-64605000D01*
X89042400Y-64605000D01*
X89091810Y-64594994D01*
X89133435Y-64566553D01*
X89160715Y-64524159D01*
X89169400Y-64478000D01*
X89169400Y-62217876D01*
X90057925Y-62221199D01*
X90107372Y-62211378D01*
X90149103Y-62183093D01*
X90176541Y-62140801D01*
X90185398Y-62093521D01*
X90159998Y-57343721D01*
X90149728Y-57294365D01*
X90121065Y-57252893D01*
X90078526Y-57225840D01*
X90028240Y-57217489D01*
X88229600Y-57284947D01*
X88229600Y-55715000D01*
X90905370Y-55715000D01*
X91035639Y-55909961D01*
G36*
X113035639Y-55909961D02*
X113049000Y-55923322D01*
X113049000Y-66891000D01*
X107643192Y-66891000D01*
X107207000Y-66454808D01*
X107207000Y-64605000D01*
X111042400Y-64605000D01*
X111091810Y-64594994D01*
X111133435Y-64566553D01*
X111160715Y-64524159D01*
X111169400Y-64478000D01*
X111169400Y-62217876D01*
X112057925Y-62221199D01*
X112107372Y-62211378D01*
X112149103Y-62183093D01*
X112176541Y-62140801D01*
X112185398Y-62093521D01*
X112159998Y-57343721D01*
X112149728Y-57294365D01*
X112121065Y-57252893D01*
X112078526Y-57225840D01*
X112028240Y-57217489D01*
X110229600Y-57284947D01*
X110229600Y-55715000D01*
X112905370Y-55715000D01*
X113035639Y-55909961D01*
X113035639Y-55909961D01*
G37*
X113035639Y-55909961D02*
X113049000Y-55923322D01*
X113049000Y-66891000D01*
X107643192Y-66891000D01*
X107207000Y-66454808D01*
X107207000Y-64605000D01*
X111042400Y-64605000D01*
X111091810Y-64594994D01*
X111133435Y-64566553D01*
X111160715Y-64524159D01*
X111169400Y-64478000D01*
X111169400Y-62217876D01*
X112057925Y-62221199D01*
X112107372Y-62211378D01*
X112149103Y-62183093D01*
X112176541Y-62140801D01*
X112185398Y-62093521D01*
X112159998Y-57343721D01*
X112149728Y-57294365D01*
X112121065Y-57252893D01*
X112078526Y-57225840D01*
X112028240Y-57217489D01*
X110229600Y-57284947D01*
X110229600Y-55715000D01*
X112905370Y-55715000D01*
X113035639Y-55909961D01*
G36*
X122751800Y-61906833D02*
X122509930Y-63503178D01*
X122508365Y-63504247D01*
X122481085Y-63546641D01*
X122472414Y-63594681D01*
X122521304Y-66894731D01*
X115538268Y-66891000D01*
X114141200Y-66891000D01*
X114141200Y-64351000D01*
X119780000Y-64351000D01*
X119829410Y-64340994D01*
X119871035Y-64312553D01*
X119898315Y-64270159D01*
X119906899Y-64218924D01*
X119889203Y-63776524D01*
X119881600Y-63745427D01*
X119881600Y-62055327D01*
X121734877Y-62068797D01*
X121784358Y-62059150D01*
X121826189Y-62031013D01*
X121853776Y-61988818D01*
X121862799Y-61941290D01*
X121859669Y-61162027D01*
X121865264Y-61134400D01*
X121865264Y-58634400D01*
X121849175Y-58548895D01*
X121837911Y-55744200D01*
X122751800Y-55744200D01*
X122751800Y-61906833D01*
X122751800Y-61906833D01*
G37*
X122751800Y-61906833D02*
X122509930Y-63503178D01*
X122508365Y-63504247D01*
X122481085Y-63546641D01*
X122472414Y-63594681D01*
X122521304Y-66894731D01*
X115538268Y-66891000D01*
X114141200Y-66891000D01*
X114141200Y-64351000D01*
X119780000Y-64351000D01*
X119829410Y-64340994D01*
X119871035Y-64312553D01*
X119898315Y-64270159D01*
X119906899Y-64218924D01*
X119889203Y-63776524D01*
X119881600Y-63745427D01*
X119881600Y-62055327D01*
X121734877Y-62068797D01*
X121784358Y-62059150D01*
X121826189Y-62031013D01*
X121853776Y-61988818D01*
X121862799Y-61941290D01*
X121859669Y-61162027D01*
X121865264Y-61134400D01*
X121865264Y-58634400D01*
X121849175Y-58548895D01*
X121837911Y-55744200D01*
X122751800Y-55744200D01*
X122751800Y-61906833D01*
G36*
X135035639Y-55909961D02*
X135049000Y-55923322D01*
X135049000Y-66891000D01*
X129643192Y-66891000D01*
X129207000Y-66454808D01*
X129207000Y-64605000D01*
X133042400Y-64605000D01*
X133091810Y-64594994D01*
X133133435Y-64566553D01*
X133160715Y-64524159D01*
X133169400Y-64478000D01*
X133169400Y-62217876D01*
X134057925Y-62221199D01*
X134107372Y-62211378D01*
X134149103Y-62183093D01*
X134176541Y-62140801D01*
X134185398Y-62093521D01*
X134159998Y-57343721D01*
X134149728Y-57294365D01*
X134121065Y-57252893D01*
X134078526Y-57225840D01*
X134028240Y-57217489D01*
X132229600Y-57284947D01*
X132229600Y-55715000D01*
X134905370Y-55715000D01*
X135035639Y-55909961D01*
X135035639Y-55909961D01*
G37*
X135035639Y-55909961D02*
X135049000Y-55923322D01*
X135049000Y-66891000D01*
X129643192Y-66891000D01*
X129207000Y-66454808D01*
X129207000Y-64605000D01*
X133042400Y-64605000D01*
X133091810Y-64594994D01*
X133133435Y-64566553D01*
X133160715Y-64524159D01*
X133169400Y-64478000D01*
X133169400Y-62217876D01*
X134057925Y-62221199D01*
X134107372Y-62211378D01*
X134149103Y-62183093D01*
X134176541Y-62140801D01*
X134185398Y-62093521D01*
X134159998Y-57343721D01*
X134149728Y-57294365D01*
X134121065Y-57252893D01*
X134078526Y-57225840D01*
X134028240Y-57217489D01*
X132229600Y-57284947D01*
X132229600Y-55715000D01*
X134905370Y-55715000D01*
X135035639Y-55909961D01*
G36*
X144751800Y-61906833D02*
X144509930Y-63503178D01*
X144508365Y-63504247D01*
X144481085Y-63546641D01*
X144472414Y-63594681D01*
X144521304Y-66894731D01*
X137538268Y-66891000D01*
X136141200Y-66891000D01*
X136141200Y-64351000D01*
X141780000Y-64351000D01*
X141829410Y-64340994D01*
X141871035Y-64312553D01*
X141898315Y-64270159D01*
X141906899Y-64218924D01*
X141889203Y-63776524D01*
X141881600Y-63745427D01*
X141881600Y-62055327D01*
X143734877Y-62068797D01*
X143784358Y-62059150D01*
X143826189Y-62031013D01*
X143853776Y-61988818D01*
X143862799Y-61941290D01*
X143859669Y-61162027D01*
X143865264Y-61134400D01*
X143865264Y-58634400D01*
X143849175Y-58548895D01*
X143837911Y-55744200D01*
X144751800Y-55744200D01*
X144751800Y-61906833D01*
X144751800Y-61906833D01*
G37*
X144751800Y-61906833D02*
X144509930Y-63503178D01*
X144508365Y-63504247D01*
X144481085Y-63546641D01*
X144472414Y-63594681D01*
X144521304Y-66894731D01*
X137538268Y-66891000D01*
X136141200Y-66891000D01*
X136141200Y-64351000D01*
X141780000Y-64351000D01*
X141829410Y-64340994D01*
X141871035Y-64312553D01*
X141898315Y-64270159D01*
X141906899Y-64218924D01*
X141889203Y-63776524D01*
X141881600Y-63745427D01*
X141881600Y-62055327D01*
X143734877Y-62068797D01*
X143784358Y-62059150D01*
X143826189Y-62031013D01*
X143853776Y-61988818D01*
X143862799Y-61941290D01*
X143859669Y-61162027D01*
X143865264Y-61134400D01*
X143865264Y-58634400D01*
X143849175Y-58548895D01*
X143837911Y-55744200D01*
X144751800Y-55744200D01*
X144751800Y-61906833D01*
G36*
X157035639Y-55909961D02*
X157049000Y-55923322D01*
X157049000Y-66891000D01*
X151643192Y-66891000D01*
X151207000Y-66454808D01*
X151207000Y-64605000D01*
X155042400Y-64605000D01*
X155091810Y-64594994D01*
X155133435Y-64566553D01*
X155160715Y-64524159D01*
X155169400Y-64478000D01*
X155169400Y-62217876D01*
X156057925Y-62221199D01*
X156107372Y-62211378D01*
X156149103Y-62183093D01*
X156176541Y-62140801D01*
X156185398Y-62093521D01*
X156159998Y-57343721D01*
X156149728Y-57294365D01*
X156121065Y-57252893D01*
X156078526Y-57225840D01*
X156028240Y-57217489D01*
X154229600Y-57284947D01*
X154229600Y-55715000D01*
X156905370Y-55715000D01*
X157035639Y-55909961D01*
X157035639Y-55909961D01*
G37*
X157035639Y-55909961D02*
X157049000Y-55923322D01*
X157049000Y-66891000D01*
X151643192Y-66891000D01*
X151207000Y-66454808D01*
X151207000Y-64605000D01*
X155042400Y-64605000D01*
X155091810Y-64594994D01*
X155133435Y-64566553D01*
X155160715Y-64524159D01*
X155169400Y-64478000D01*
X155169400Y-62217876D01*
X156057925Y-62221199D01*
X156107372Y-62211378D01*
X156149103Y-62183093D01*
X156176541Y-62140801D01*
X156185398Y-62093521D01*
X156159998Y-57343721D01*
X156149728Y-57294365D01*
X156121065Y-57252893D01*
X156078526Y-57225840D01*
X156028240Y-57217489D01*
X154229600Y-57284947D01*
X154229600Y-55715000D01*
X156905370Y-55715000D01*
X157035639Y-55909961D01*
G36*
X166751800Y-61906833D02*
X166509930Y-63503178D01*
X166508365Y-63504247D01*
X166481085Y-63546641D01*
X166472414Y-63594681D01*
X166521304Y-66894731D01*
X159538268Y-66891000D01*
X158141200Y-66891000D01*
X158141200Y-64351000D01*
X163780000Y-64351000D01*
X163829410Y-64340994D01*
X163871035Y-64312553D01*
X163898315Y-64270159D01*
X163906899Y-64218924D01*
X163889203Y-63776524D01*
X163881600Y-63745427D01*
X163881600Y-62055327D01*
X165734877Y-62068797D01*
X165784358Y-62059150D01*
X165826189Y-62031013D01*
X165853776Y-61988818D01*
X165862799Y-61941290D01*
X165859669Y-61162027D01*
X165865264Y-61134400D01*
X165865264Y-58634400D01*
X165849175Y-58548895D01*
X165837911Y-55744200D01*
X166751800Y-55744200D01*
X166751800Y-61906833D01*
X166751800Y-61906833D01*
G37*
X166751800Y-61906833D02*
X166509930Y-63503178D01*
X166508365Y-63504247D01*
X166481085Y-63546641D01*
X166472414Y-63594681D01*
X166521304Y-66894731D01*
X159538268Y-66891000D01*
X158141200Y-66891000D01*
X158141200Y-64351000D01*
X163780000Y-64351000D01*
X163829410Y-64340994D01*
X163871035Y-64312553D01*
X163898315Y-64270159D01*
X163906899Y-64218924D01*
X163889203Y-63776524D01*
X163881600Y-63745427D01*
X163881600Y-62055327D01*
X165734877Y-62068797D01*
X165784358Y-62059150D01*
X165826189Y-62031013D01*
X165853776Y-61988818D01*
X165862799Y-61941290D01*
X165859669Y-61162027D01*
X165865264Y-61134400D01*
X165865264Y-58634400D01*
X165849175Y-58548895D01*
X165837911Y-55744200D01*
X166751800Y-55744200D01*
X166751800Y-61906833D01*
G36*
X157035639Y-88909961D02*
X157049000Y-88923322D01*
X157049000Y-99891000D01*
X151643192Y-99891000D01*
X151207000Y-99454808D01*
X151207000Y-97605000D01*
X155042400Y-97605000D01*
X155091810Y-97594994D01*
X155133435Y-97566553D01*
X155160715Y-97524159D01*
X155169400Y-97478000D01*
X155169400Y-95217876D01*
X156057925Y-95221199D01*
X156107372Y-95211378D01*
X156149103Y-95183093D01*
X156176541Y-95140801D01*
X156185398Y-95093521D01*
X156159998Y-90343721D01*
X156149728Y-90294365D01*
X156121065Y-90252893D01*
X156078526Y-90225840D01*
X156028240Y-90217489D01*
X154229600Y-90284947D01*
X154229600Y-88715000D01*
X156905370Y-88715000D01*
X157035639Y-88909961D01*
X157035639Y-88909961D01*
G37*
X157035639Y-88909961D02*
X157049000Y-88923322D01*
X157049000Y-99891000D01*
X151643192Y-99891000D01*
X151207000Y-99454808D01*
X151207000Y-97605000D01*
X155042400Y-97605000D01*
X155091810Y-97594994D01*
X155133435Y-97566553D01*
X155160715Y-97524159D01*
X155169400Y-97478000D01*
X155169400Y-95217876D01*
X156057925Y-95221199D01*
X156107372Y-95211378D01*
X156149103Y-95183093D01*
X156176541Y-95140801D01*
X156185398Y-95093521D01*
X156159998Y-90343721D01*
X156149728Y-90294365D01*
X156121065Y-90252893D01*
X156078526Y-90225840D01*
X156028240Y-90217489D01*
X154229600Y-90284947D01*
X154229600Y-88715000D01*
X156905370Y-88715000D01*
X157035639Y-88909961D01*
G36*
X166751800Y-94906833D02*
X166509930Y-96503178D01*
X166508365Y-96504247D01*
X166481085Y-96546641D01*
X166472414Y-96594681D01*
X166521304Y-99894731D01*
X159538268Y-99891000D01*
X158141200Y-99891000D01*
X158141200Y-97351000D01*
X163780000Y-97351000D01*
X163829410Y-97340994D01*
X163871035Y-97312553D01*
X163898315Y-97270159D01*
X163906899Y-97218924D01*
X163889203Y-96776524D01*
X163881600Y-96745427D01*
X163881600Y-95055327D01*
X165734877Y-95068797D01*
X165784358Y-95059150D01*
X165826189Y-95031013D01*
X165853776Y-94988818D01*
X165862799Y-94941290D01*
X165859669Y-94162027D01*
X165865264Y-94134400D01*
X165865264Y-91634400D01*
X165849175Y-91548895D01*
X165837911Y-88744200D01*
X166751800Y-88744200D01*
X166751800Y-94906833D01*
X166751800Y-94906833D01*
G37*
X166751800Y-94906833D02*
X166509930Y-96503178D01*
X166508365Y-96504247D01*
X166481085Y-96546641D01*
X166472414Y-96594681D01*
X166521304Y-99894731D01*
X159538268Y-99891000D01*
X158141200Y-99891000D01*
X158141200Y-97351000D01*
X163780000Y-97351000D01*
X163829410Y-97340994D01*
X163871035Y-97312553D01*
X163898315Y-97270159D01*
X163906899Y-97218924D01*
X163889203Y-96776524D01*
X163881600Y-96745427D01*
X163881600Y-95055327D01*
X165734877Y-95068797D01*
X165784358Y-95059150D01*
X165826189Y-95031013D01*
X165853776Y-94988818D01*
X165862799Y-94941290D01*
X165859669Y-94162027D01*
X165865264Y-94134400D01*
X165865264Y-91634400D01*
X165849175Y-91548895D01*
X165837911Y-88744200D01*
X166751800Y-88744200D01*
X166751800Y-94906833D01*
G36*
X91035639Y-88909961D02*
X91049000Y-88923322D01*
X91049000Y-99891000D01*
X85643192Y-99891000D01*
X85207000Y-99454808D01*
X85207000Y-97605000D01*
X89042400Y-97605000D01*
X89091810Y-97594994D01*
X89133435Y-97566553D01*
X89160715Y-97524159D01*
X89169400Y-97478000D01*
X89169400Y-95217876D01*
X90057925Y-95221199D01*
X90107372Y-95211378D01*
X90149103Y-95183093D01*
X90176541Y-95140801D01*
X90185398Y-95093521D01*
X90159998Y-90343721D01*
X90149728Y-90294365D01*
X90121065Y-90252893D01*
X90078526Y-90225840D01*
X90028240Y-90217489D01*
X88229600Y-90284947D01*
X88229600Y-88715000D01*
X90905370Y-88715000D01*
X91035639Y-88909961D01*
X91035639Y-88909961D01*
G37*
X91035639Y-88909961D02*
X91049000Y-88923322D01*
X91049000Y-99891000D01*
X85643192Y-99891000D01*
X85207000Y-99454808D01*
X85207000Y-97605000D01*
X89042400Y-97605000D01*
X89091810Y-97594994D01*
X89133435Y-97566553D01*
X89160715Y-97524159D01*
X89169400Y-97478000D01*
X89169400Y-95217876D01*
X90057925Y-95221199D01*
X90107372Y-95211378D01*
X90149103Y-95183093D01*
X90176541Y-95140801D01*
X90185398Y-95093521D01*
X90159998Y-90343721D01*
X90149728Y-90294365D01*
X90121065Y-90252893D01*
X90078526Y-90225840D01*
X90028240Y-90217489D01*
X88229600Y-90284947D01*
X88229600Y-88715000D01*
X90905370Y-88715000D01*
X91035639Y-88909961D01*
G36*
X100751800Y-94906833D02*
X100509930Y-96503178D01*
X100508365Y-96504247D01*
X100481085Y-96546641D01*
X100472414Y-96594681D01*
X100521304Y-99894731D01*
X93538268Y-99891000D01*
X92141200Y-99891000D01*
X92141200Y-97351000D01*
X97780000Y-97351000D01*
X97829410Y-97340994D01*
X97871035Y-97312553D01*
X97898315Y-97270159D01*
X97906899Y-97218924D01*
X97889203Y-96776524D01*
X97881600Y-96745427D01*
X97881600Y-95055327D01*
X99734877Y-95068797D01*
X99784358Y-95059150D01*
X99826189Y-95031013D01*
X99853776Y-94988818D01*
X99862799Y-94941290D01*
X99859669Y-94162027D01*
X99865264Y-94134400D01*
X99865264Y-91634400D01*
X99849175Y-91548895D01*
X99837911Y-88744200D01*
X100751800Y-88744200D01*
X100751800Y-94906833D01*
X100751800Y-94906833D01*
G37*
X100751800Y-94906833D02*
X100509930Y-96503178D01*
X100508365Y-96504247D01*
X100481085Y-96546641D01*
X100472414Y-96594681D01*
X100521304Y-99894731D01*
X93538268Y-99891000D01*
X92141200Y-99891000D01*
X92141200Y-97351000D01*
X97780000Y-97351000D01*
X97829410Y-97340994D01*
X97871035Y-97312553D01*
X97898315Y-97270159D01*
X97906899Y-97218924D01*
X97889203Y-96776524D01*
X97881600Y-96745427D01*
X97881600Y-95055327D01*
X99734877Y-95068797D01*
X99784358Y-95059150D01*
X99826189Y-95031013D01*
X99853776Y-94988818D01*
X99862799Y-94941290D01*
X99859669Y-94162027D01*
X99865264Y-94134400D01*
X99865264Y-91634400D01*
X99849175Y-91548895D01*
X99837911Y-88744200D01*
X100751800Y-88744200D01*
X100751800Y-94906833D01*
G36*
X135035639Y-88909961D02*
X135049000Y-88923322D01*
X135049000Y-99891000D01*
X129643192Y-99891000D01*
X129207000Y-99454808D01*
X129207000Y-97605000D01*
X133042400Y-97605000D01*
X133091810Y-97594994D01*
X133133435Y-97566553D01*
X133160715Y-97524159D01*
X133169400Y-97478000D01*
X133169400Y-95217876D01*
X134057925Y-95221199D01*
X134107372Y-95211378D01*
X134149103Y-95183093D01*
X134176541Y-95140801D01*
X134185398Y-95093521D01*
X134159998Y-90343721D01*
X134149728Y-90294365D01*
X134121065Y-90252893D01*
X134078526Y-90225840D01*
X134028240Y-90217489D01*
X132229600Y-90284947D01*
X132229600Y-88715000D01*
X134905370Y-88715000D01*
X135035639Y-88909961D01*
X135035639Y-88909961D01*
G37*
X135035639Y-88909961D02*
X135049000Y-88923322D01*
X135049000Y-99891000D01*
X129643192Y-99891000D01*
X129207000Y-99454808D01*
X129207000Y-97605000D01*
X133042400Y-97605000D01*
X133091810Y-97594994D01*
X133133435Y-97566553D01*
X133160715Y-97524159D01*
X133169400Y-97478000D01*
X133169400Y-95217876D01*
X134057925Y-95221199D01*
X134107372Y-95211378D01*
X134149103Y-95183093D01*
X134176541Y-95140801D01*
X134185398Y-95093521D01*
X134159998Y-90343721D01*
X134149728Y-90294365D01*
X134121065Y-90252893D01*
X134078526Y-90225840D01*
X134028240Y-90217489D01*
X132229600Y-90284947D01*
X132229600Y-88715000D01*
X134905370Y-88715000D01*
X135035639Y-88909961D01*
G36*
X144751800Y-94906833D02*
X144509930Y-96503178D01*
X144508365Y-96504247D01*
X144481085Y-96546641D01*
X144472414Y-96594681D01*
X144521304Y-99894731D01*
X137538268Y-99891000D01*
X136141200Y-99891000D01*
X136141200Y-97351000D01*
X141780000Y-97351000D01*
X141829410Y-97340994D01*
X141871035Y-97312553D01*
X141898315Y-97270159D01*
X141906899Y-97218924D01*
X141889203Y-96776524D01*
X141881600Y-96745427D01*
X141881600Y-95055327D01*
X143734877Y-95068797D01*
X143784358Y-95059150D01*
X143826189Y-95031013D01*
X143853776Y-94988818D01*
X143862799Y-94941290D01*
X143859669Y-94162027D01*
X143865264Y-94134400D01*
X143865264Y-91634400D01*
X143849175Y-91548895D01*
X143837911Y-88744200D01*
X144751800Y-88744200D01*
X144751800Y-94906833D01*
X144751800Y-94906833D01*
G37*
X144751800Y-94906833D02*
X144509930Y-96503178D01*
X144508365Y-96504247D01*
X144481085Y-96546641D01*
X144472414Y-96594681D01*
X144521304Y-99894731D01*
X137538268Y-99891000D01*
X136141200Y-99891000D01*
X136141200Y-97351000D01*
X141780000Y-97351000D01*
X141829410Y-97340994D01*
X141871035Y-97312553D01*
X141898315Y-97270159D01*
X141906899Y-97218924D01*
X141889203Y-96776524D01*
X141881600Y-96745427D01*
X141881600Y-95055327D01*
X143734877Y-95068797D01*
X143784358Y-95059150D01*
X143826189Y-95031013D01*
X143853776Y-94988818D01*
X143862799Y-94941290D01*
X143859669Y-94162027D01*
X143865264Y-94134400D01*
X143865264Y-91634400D01*
X143849175Y-91548895D01*
X143837911Y-88744200D01*
X144751800Y-88744200D01*
X144751800Y-94906833D01*
G36*
X113035639Y-88909961D02*
X113049000Y-88923322D01*
X113049000Y-99891000D01*
X107643192Y-99891000D01*
X107207000Y-99454808D01*
X107207000Y-97605000D01*
X111042400Y-97605000D01*
X111091810Y-97594994D01*
X111133435Y-97566553D01*
X111160715Y-97524159D01*
X111169400Y-97478000D01*
X111169400Y-95217876D01*
X112057925Y-95221199D01*
X112107372Y-95211378D01*
X112149103Y-95183093D01*
X112176541Y-95140801D01*
X112185398Y-95093521D01*
X112159998Y-90343721D01*
X112149728Y-90294365D01*
X112121065Y-90252893D01*
X112078526Y-90225840D01*
X112028240Y-90217489D01*
X110229600Y-90284947D01*
X110229600Y-88715000D01*
X112905370Y-88715000D01*
X113035639Y-88909961D01*
X113035639Y-88909961D01*
G37*
X113035639Y-88909961D02*
X113049000Y-88923322D01*
X113049000Y-99891000D01*
X107643192Y-99891000D01*
X107207000Y-99454808D01*
X107207000Y-97605000D01*
X111042400Y-97605000D01*
X111091810Y-97594994D01*
X111133435Y-97566553D01*
X111160715Y-97524159D01*
X111169400Y-97478000D01*
X111169400Y-95217876D01*
X112057925Y-95221199D01*
X112107372Y-95211378D01*
X112149103Y-95183093D01*
X112176541Y-95140801D01*
X112185398Y-95093521D01*
X112159998Y-90343721D01*
X112149728Y-90294365D01*
X112121065Y-90252893D01*
X112078526Y-90225840D01*
X112028240Y-90217489D01*
X110229600Y-90284947D01*
X110229600Y-88715000D01*
X112905370Y-88715000D01*
X113035639Y-88909961D01*
G36*
X122751800Y-94906833D02*
X122509930Y-96503178D01*
X122508365Y-96504247D01*
X122481085Y-96546641D01*
X122472414Y-96594681D01*
X122521304Y-99894731D01*
X115538268Y-99891000D01*
X114141200Y-99891000D01*
X114141200Y-97351000D01*
X119780000Y-97351000D01*
X119829410Y-97340994D01*
X119871035Y-97312553D01*
X119898315Y-97270159D01*
X119906899Y-97218924D01*
X119889203Y-96776524D01*
X119881600Y-96745427D01*
X119881600Y-95055327D01*
X121734877Y-95068797D01*
X121784358Y-95059150D01*
X121826189Y-95031013D01*
X121853776Y-94988818D01*
X121862799Y-94941290D01*
X121859669Y-94162027D01*
X121865264Y-94134400D01*
X121865264Y-91634400D01*
X121849175Y-91548895D01*
X121837911Y-88744200D01*
X122751800Y-88744200D01*
X122751800Y-94906833D01*
X122751800Y-94906833D01*
G37*
X122751800Y-94906833D02*
X122509930Y-96503178D01*
X122508365Y-96504247D01*
X122481085Y-96546641D01*
X122472414Y-96594681D01*
X122521304Y-99894731D01*
X115538268Y-99891000D01*
X114141200Y-99891000D01*
X114141200Y-97351000D01*
X119780000Y-97351000D01*
X119829410Y-97340994D01*
X119871035Y-97312553D01*
X119898315Y-97270159D01*
X119906899Y-97218924D01*
X119889203Y-96776524D01*
X119881600Y-96745427D01*
X119881600Y-95055327D01*
X121734877Y-95068797D01*
X121784358Y-95059150D01*
X121826189Y-95031013D01*
X121853776Y-94988818D01*
X121862799Y-94941290D01*
X121859669Y-94162027D01*
X121865264Y-94134400D01*
X121865264Y-91634400D01*
X121849175Y-91548895D01*
X121837911Y-88744200D01*
X122751800Y-88744200D01*
X122751800Y-94906833D01*
G36*
X91035639Y-121909961D02*
X91049000Y-121923322D01*
X91049000Y-132891000D01*
X85643192Y-132891000D01*
X85207000Y-132454808D01*
X85207000Y-130605000D01*
X89042400Y-130605000D01*
X89091810Y-130594994D01*
X89133435Y-130566553D01*
X89160715Y-130524159D01*
X89169400Y-130478000D01*
X89169400Y-128217876D01*
X90057925Y-128221199D01*
X90107372Y-128211378D01*
X90149103Y-128183093D01*
X90176541Y-128140801D01*
X90185398Y-128093521D01*
X90159998Y-123343721D01*
X90149728Y-123294365D01*
X90121065Y-123252893D01*
X90078526Y-123225840D01*
X90028240Y-123217489D01*
X88229600Y-123284947D01*
X88229600Y-121715000D01*
X90905370Y-121715000D01*
X91035639Y-121909961D01*
X91035639Y-121909961D01*
G37*
X91035639Y-121909961D02*
X91049000Y-121923322D01*
X91049000Y-132891000D01*
X85643192Y-132891000D01*
X85207000Y-132454808D01*
X85207000Y-130605000D01*
X89042400Y-130605000D01*
X89091810Y-130594994D01*
X89133435Y-130566553D01*
X89160715Y-130524159D01*
X89169400Y-130478000D01*
X89169400Y-128217876D01*
X90057925Y-128221199D01*
X90107372Y-128211378D01*
X90149103Y-128183093D01*
X90176541Y-128140801D01*
X90185398Y-128093521D01*
X90159998Y-123343721D01*
X90149728Y-123294365D01*
X90121065Y-123252893D01*
X90078526Y-123225840D01*
X90028240Y-123217489D01*
X88229600Y-123284947D01*
X88229600Y-121715000D01*
X90905370Y-121715000D01*
X91035639Y-121909961D01*
G36*
X100751800Y-127906833D02*
X100509930Y-129503178D01*
X100508365Y-129504247D01*
X100481085Y-129546641D01*
X100472414Y-129594681D01*
X100521304Y-132894731D01*
X93538268Y-132891000D01*
X92141200Y-132891000D01*
X92141200Y-130351000D01*
X97780000Y-130351000D01*
X97829410Y-130340994D01*
X97871035Y-130312553D01*
X97898315Y-130270159D01*
X97906899Y-130218924D01*
X97889203Y-129776524D01*
X97881600Y-129745427D01*
X97881600Y-128055327D01*
X99734877Y-128068797D01*
X99784358Y-128059150D01*
X99826189Y-128031013D01*
X99853776Y-127988818D01*
X99862799Y-127941290D01*
X99859669Y-127162027D01*
X99865264Y-127134400D01*
X99865264Y-124634400D01*
X99849175Y-124548895D01*
X99837911Y-121744200D01*
X100751800Y-121744200D01*
X100751800Y-127906833D01*
X100751800Y-127906833D01*
G37*
X100751800Y-127906833D02*
X100509930Y-129503178D01*
X100508365Y-129504247D01*
X100481085Y-129546641D01*
X100472414Y-129594681D01*
X100521304Y-132894731D01*
X93538268Y-132891000D01*
X92141200Y-132891000D01*
X92141200Y-130351000D01*
X97780000Y-130351000D01*
X97829410Y-130340994D01*
X97871035Y-130312553D01*
X97898315Y-130270159D01*
X97906899Y-130218924D01*
X97889203Y-129776524D01*
X97881600Y-129745427D01*
X97881600Y-128055327D01*
X99734877Y-128068797D01*
X99784358Y-128059150D01*
X99826189Y-128031013D01*
X99853776Y-127988818D01*
X99862799Y-127941290D01*
X99859669Y-127162027D01*
X99865264Y-127134400D01*
X99865264Y-124634400D01*
X99849175Y-124548895D01*
X99837911Y-121744200D01*
X100751800Y-121744200D01*
X100751800Y-127906833D01*
G36*
X122751800Y-127906833D02*
X122509930Y-129503178D01*
X122508365Y-129504247D01*
X122481085Y-129546641D01*
X122472414Y-129594681D01*
X122521304Y-132894731D01*
X115538268Y-132891000D01*
X114141200Y-132891000D01*
X114141200Y-130351000D01*
X119780000Y-130351000D01*
X119829410Y-130340994D01*
X119871035Y-130312553D01*
X119898315Y-130270159D01*
X119906899Y-130218924D01*
X119889203Y-129776524D01*
X119881600Y-129745427D01*
X119881600Y-128055327D01*
X121734877Y-128068797D01*
X121784358Y-128059150D01*
X121826189Y-128031013D01*
X121853776Y-127988818D01*
X121862799Y-127941290D01*
X121859669Y-127162027D01*
X121865264Y-127134400D01*
X121865264Y-124634400D01*
X121849175Y-124548895D01*
X121837911Y-121744200D01*
X122751800Y-121744200D01*
X122751800Y-127906833D01*
X122751800Y-127906833D01*
G37*
X122751800Y-127906833D02*
X122509930Y-129503178D01*
X122508365Y-129504247D01*
X122481085Y-129546641D01*
X122472414Y-129594681D01*
X122521304Y-132894731D01*
X115538268Y-132891000D01*
X114141200Y-132891000D01*
X114141200Y-130351000D01*
X119780000Y-130351000D01*
X119829410Y-130340994D01*
X119871035Y-130312553D01*
X119898315Y-130270159D01*
X119906899Y-130218924D01*
X119889203Y-129776524D01*
X119881600Y-129745427D01*
X119881600Y-128055327D01*
X121734877Y-128068797D01*
X121784358Y-128059150D01*
X121826189Y-128031013D01*
X121853776Y-127988818D01*
X121862799Y-127941290D01*
X121859669Y-127162027D01*
X121865264Y-127134400D01*
X121865264Y-124634400D01*
X121849175Y-124548895D01*
X121837911Y-121744200D01*
X122751800Y-121744200D01*
X122751800Y-127906833D01*
G36*
X113035639Y-121909961D02*
X113049000Y-121923322D01*
X113049000Y-132891000D01*
X107643192Y-132891000D01*
X107207000Y-132454808D01*
X107207000Y-130605000D01*
X111042400Y-130605000D01*
X111091810Y-130594994D01*
X111133435Y-130566553D01*
X111160715Y-130524159D01*
X111169400Y-130478000D01*
X111169400Y-128217876D01*
X112057925Y-128221199D01*
X112107372Y-128211378D01*
X112149103Y-128183093D01*
X112176541Y-128140801D01*
X112185398Y-128093521D01*
X112159998Y-123343721D01*
X112149728Y-123294365D01*
X112121065Y-123252893D01*
X112078526Y-123225840D01*
X112028240Y-123217489D01*
X110229600Y-123284947D01*
X110229600Y-121715000D01*
X112905370Y-121715000D01*
X113035639Y-121909961D01*
X113035639Y-121909961D01*
G37*
X113035639Y-121909961D02*
X113049000Y-121923322D01*
X113049000Y-132891000D01*
X107643192Y-132891000D01*
X107207000Y-132454808D01*
X107207000Y-130605000D01*
X111042400Y-130605000D01*
X111091810Y-130594994D01*
X111133435Y-130566553D01*
X111160715Y-130524159D01*
X111169400Y-130478000D01*
X111169400Y-128217876D01*
X112057925Y-128221199D01*
X112107372Y-128211378D01*
X112149103Y-128183093D01*
X112176541Y-128140801D01*
X112185398Y-128093521D01*
X112159998Y-123343721D01*
X112149728Y-123294365D01*
X112121065Y-123252893D01*
X112078526Y-123225840D01*
X112028240Y-123217489D01*
X110229600Y-123284947D01*
X110229600Y-121715000D01*
X112905370Y-121715000D01*
X113035639Y-121909961D01*
G36*
X157035639Y-121909961D02*
X157049000Y-121923322D01*
X157049000Y-132891000D01*
X151643192Y-132891000D01*
X151207000Y-132454808D01*
X151207000Y-130605000D01*
X155042400Y-130605000D01*
X155091810Y-130594994D01*
X155133435Y-130566553D01*
X155160715Y-130524159D01*
X155169400Y-130478000D01*
X155169400Y-128217876D01*
X156057925Y-128221199D01*
X156107372Y-128211378D01*
X156149103Y-128183093D01*
X156176541Y-128140801D01*
X156185398Y-128093521D01*
X156159998Y-123343721D01*
X156149728Y-123294365D01*
X156121065Y-123252893D01*
X156078526Y-123225840D01*
X156028240Y-123217489D01*
X154229600Y-123284947D01*
X154229600Y-121715000D01*
X156905370Y-121715000D01*
X157035639Y-121909961D01*
X157035639Y-121909961D01*
G37*
X157035639Y-121909961D02*
X157049000Y-121923322D01*
X157049000Y-132891000D01*
X151643192Y-132891000D01*
X151207000Y-132454808D01*
X151207000Y-130605000D01*
X155042400Y-130605000D01*
X155091810Y-130594994D01*
X155133435Y-130566553D01*
X155160715Y-130524159D01*
X155169400Y-130478000D01*
X155169400Y-128217876D01*
X156057925Y-128221199D01*
X156107372Y-128211378D01*
X156149103Y-128183093D01*
X156176541Y-128140801D01*
X156185398Y-128093521D01*
X156159998Y-123343721D01*
X156149728Y-123294365D01*
X156121065Y-123252893D01*
X156078526Y-123225840D01*
X156028240Y-123217489D01*
X154229600Y-123284947D01*
X154229600Y-121715000D01*
X156905370Y-121715000D01*
X157035639Y-121909961D01*
G36*
X166751800Y-127906833D02*
X166509930Y-129503178D01*
X166508365Y-129504247D01*
X166481085Y-129546641D01*
X166472414Y-129594681D01*
X166521304Y-132894731D01*
X159538268Y-132891000D01*
X158141200Y-132891000D01*
X158141200Y-130351000D01*
X163780000Y-130351000D01*
X163829410Y-130340994D01*
X163871035Y-130312553D01*
X163898315Y-130270159D01*
X163906899Y-130218924D01*
X163889203Y-129776524D01*
X163881600Y-129745427D01*
X163881600Y-128055327D01*
X165734877Y-128068797D01*
X165784358Y-128059150D01*
X165826189Y-128031013D01*
X165853776Y-127988818D01*
X165862799Y-127941290D01*
X165859669Y-127162027D01*
X165865264Y-127134400D01*
X165865264Y-124634400D01*
X165849175Y-124548895D01*
X165837911Y-121744200D01*
X166751800Y-121744200D01*
X166751800Y-127906833D01*
X166751800Y-127906833D01*
G37*
X166751800Y-127906833D02*
X166509930Y-129503178D01*
X166508365Y-129504247D01*
X166481085Y-129546641D01*
X166472414Y-129594681D01*
X166521304Y-132894731D01*
X159538268Y-132891000D01*
X158141200Y-132891000D01*
X158141200Y-130351000D01*
X163780000Y-130351000D01*
X163829410Y-130340994D01*
X163871035Y-130312553D01*
X163898315Y-130270159D01*
X163906899Y-130218924D01*
X163889203Y-129776524D01*
X163881600Y-129745427D01*
X163881600Y-128055327D01*
X165734877Y-128068797D01*
X165784358Y-128059150D01*
X165826189Y-128031013D01*
X165853776Y-127988818D01*
X165862799Y-127941290D01*
X165859669Y-127162027D01*
X165865264Y-127134400D01*
X165865264Y-124634400D01*
X165849175Y-124548895D01*
X165837911Y-121744200D01*
X166751800Y-121744200D01*
X166751800Y-127906833D01*
G36*
X135035639Y-121909961D02*
X135049000Y-121923322D01*
X135049000Y-132891000D01*
X129643192Y-132891000D01*
X129207000Y-132454808D01*
X129207000Y-130605000D01*
X133042400Y-130605000D01*
X133091810Y-130594994D01*
X133133435Y-130566553D01*
X133160715Y-130524159D01*
X133169400Y-130478000D01*
X133169400Y-128217876D01*
X134057925Y-128221199D01*
X134107372Y-128211378D01*
X134149103Y-128183093D01*
X134176541Y-128140801D01*
X134185398Y-128093521D01*
X134159998Y-123343721D01*
X134149728Y-123294365D01*
X134121065Y-123252893D01*
X134078526Y-123225840D01*
X134028240Y-123217489D01*
X132229600Y-123284947D01*
X132229600Y-121715000D01*
X134905370Y-121715000D01*
X135035639Y-121909961D01*
X135035639Y-121909961D01*
G37*
X135035639Y-121909961D02*
X135049000Y-121923322D01*
X135049000Y-132891000D01*
X129643192Y-132891000D01*
X129207000Y-132454808D01*
X129207000Y-130605000D01*
X133042400Y-130605000D01*
X133091810Y-130594994D01*
X133133435Y-130566553D01*
X133160715Y-130524159D01*
X133169400Y-130478000D01*
X133169400Y-128217876D01*
X134057925Y-128221199D01*
X134107372Y-128211378D01*
X134149103Y-128183093D01*
X134176541Y-128140801D01*
X134185398Y-128093521D01*
X134159998Y-123343721D01*
X134149728Y-123294365D01*
X134121065Y-123252893D01*
X134078526Y-123225840D01*
X134028240Y-123217489D01*
X132229600Y-123284947D01*
X132229600Y-121715000D01*
X134905370Y-121715000D01*
X135035639Y-121909961D01*
G36*
X144751800Y-127906833D02*
X144509930Y-129503178D01*
X144508365Y-129504247D01*
X144481085Y-129546641D01*
X144472414Y-129594681D01*
X144521304Y-132894731D01*
X137538268Y-132891000D01*
X136141200Y-132891000D01*
X136141200Y-130351000D01*
X141780000Y-130351000D01*
X141829410Y-130340994D01*
X141871035Y-130312553D01*
X141898315Y-130270159D01*
X141906899Y-130218924D01*
X141889203Y-129776524D01*
X141881600Y-129745427D01*
X141881600Y-128055327D01*
X143734877Y-128068797D01*
X143784358Y-128059150D01*
X143826189Y-128031013D01*
X143853776Y-127988818D01*
X143862799Y-127941290D01*
X143859669Y-127162027D01*
X143865264Y-127134400D01*
X143865264Y-124634400D01*
X143849175Y-124548895D01*
X143837911Y-121744200D01*
X144751800Y-121744200D01*
X144751800Y-127906833D01*
X144751800Y-127906833D01*
G37*
X144751800Y-127906833D02*
X144509930Y-129503178D01*
X144508365Y-129504247D01*
X144481085Y-129546641D01*
X144472414Y-129594681D01*
X144521304Y-132894731D01*
X137538268Y-132891000D01*
X136141200Y-132891000D01*
X136141200Y-130351000D01*
X141780000Y-130351000D01*
X141829410Y-130340994D01*
X141871035Y-130312553D01*
X141898315Y-130270159D01*
X141906899Y-130218924D01*
X141889203Y-129776524D01*
X141881600Y-129745427D01*
X141881600Y-128055327D01*
X143734877Y-128068797D01*
X143784358Y-128059150D01*
X143826189Y-128031013D01*
X143853776Y-127988818D01*
X143862799Y-127941290D01*
X143859669Y-127162027D01*
X143865264Y-127134400D01*
X143865264Y-124634400D01*
X143849175Y-124548895D01*
X143837911Y-121744200D01*
X144751800Y-121744200D01*
X144751800Y-127906833D01*
M02*
