G04 #@! TF.FileFunction,Soldermask,Top*
%FSLAX46Y46*%
G04 Gerber Fmt 4.6, Leading zero omitted, Abs format (unit mm)*
G04 Created by KiCad (PCBNEW 4.0.2-stable) date 11/12/2017 10:54:44 AM*
%MOMM*%
G01*
G04 APERTURE LIST*
%ADD10C,0.100000*%
%ADD11C,0.150000*%
%ADD12R,0.900000X1.700000*%
%ADD13R,1.700000X1.700000*%
%ADD14O,1.700000X1.700000*%
%ADD15R,0.700000X1.300000*%
%ADD16R,1.000000X1.250000*%
%ADD17R,1.600000X1.000000*%
%ADD18R,1.250000X1.000000*%
%ADD19R,1.300000X0.700000*%
%ADD20R,2.500000X1.800000*%
%ADD21R,0.900000X2.500000*%
%ADD22R,0.600000X1.550000*%
%ADD23R,1.175000X1.175000*%
%ADD24R,2.150000X5.500000*%
G04 APERTURE END LIST*
D10*
D11*
X102000000Y-111000000D02*
X102000000Y-144000000D01*
X124000000Y-111000000D02*
X124000000Y-144000000D01*
X124000000Y-144000000D02*
X124000000Y-111000000D01*
X124000000Y-144000000D02*
X102000000Y-144000000D01*
X102000000Y-144000000D02*
X80000000Y-144000000D01*
X80000000Y-144000000D02*
X80000000Y-111000000D01*
X102000000Y-144000000D02*
X102000000Y-111000000D01*
X102000000Y-111000000D02*
X124000000Y-111000000D01*
X124000000Y-111000000D02*
X102000000Y-111000000D01*
X80000000Y-111000000D02*
X102000000Y-111000000D01*
X102000000Y-111000000D02*
X80000000Y-111000000D01*
X146000000Y-144000000D02*
X146000000Y-111000000D01*
X146000000Y-144000000D02*
X124000000Y-144000000D01*
X146000000Y-111000000D02*
X146000000Y-144000000D01*
X168000000Y-144000000D02*
X146000000Y-144000000D01*
X168000000Y-111000000D02*
X168000000Y-144000000D01*
X168000000Y-111000000D02*
X146000000Y-111000000D01*
X124000000Y-111000000D02*
X146000000Y-111000000D01*
X146000000Y-111000000D02*
X168000000Y-111000000D01*
X146000000Y-111000000D02*
X124000000Y-111000000D01*
X146000000Y-78000000D02*
X146000000Y-111000000D01*
X168000000Y-111000000D02*
X146000000Y-111000000D01*
X168000000Y-78000000D02*
X168000000Y-111000000D01*
X146000000Y-78000000D02*
X168000000Y-78000000D01*
X124000000Y-111000000D02*
X102000000Y-111000000D01*
X102000000Y-111000000D02*
X80000000Y-111000000D01*
X80000000Y-111000000D02*
X80000000Y-78000000D01*
X80000000Y-78000000D02*
X102000000Y-78000000D01*
X102000000Y-78000000D02*
X102000000Y-111000000D01*
X102000000Y-78000000D02*
X124000000Y-78000000D01*
X102000000Y-111000000D02*
X102000000Y-78000000D01*
X124000000Y-78000000D02*
X146000000Y-78000000D01*
X124000000Y-111000000D02*
X124000000Y-78000000D01*
X146000000Y-111000000D02*
X146000000Y-78000000D01*
X146000000Y-111000000D02*
X124000000Y-111000000D01*
X124000000Y-78000000D02*
X124000000Y-111000000D01*
X146000000Y-78000000D02*
X146000000Y-45000000D01*
X124000000Y-78000000D02*
X124000000Y-45000000D01*
X124000000Y-45000000D02*
X146000000Y-45000000D01*
X146000000Y-45000000D02*
X146000000Y-78000000D01*
X168000000Y-78000000D02*
X146000000Y-78000000D01*
X168000000Y-45000000D02*
X168000000Y-78000000D01*
X146000000Y-45000000D02*
X168000000Y-45000000D01*
X146000000Y-78000000D02*
X124000000Y-78000000D01*
X124000000Y-78000000D02*
X102000000Y-78000000D01*
X102000000Y-78000000D02*
X102000000Y-45000000D01*
X102000000Y-45000000D02*
X124000000Y-45000000D01*
X124000000Y-45000000D02*
X124000000Y-78000000D01*
X80000000Y-78000000D02*
X80000000Y-45000000D01*
X102000000Y-78000000D02*
X80000000Y-78000000D01*
X102000000Y-45000000D02*
X102000000Y-78000000D01*
X80000000Y-45000000D02*
X102000000Y-45000000D01*
D12*
X124937600Y-135293400D03*
X127837600Y-135293400D03*
X127837600Y-137604800D03*
X124937600Y-137604800D03*
D13*
X128673600Y-141857200D03*
D14*
X126133600Y-141857200D03*
D15*
X131188200Y-137604800D03*
X129288200Y-137604800D03*
D16*
X132414000Y-139444200D03*
X134414000Y-139444200D03*
D15*
X132524200Y-137604800D03*
X134424200Y-137604800D03*
D17*
X126692400Y-121856800D03*
X126692400Y-124856800D03*
D18*
X126692400Y-128571800D03*
X126692400Y-126571800D03*
D19*
X128699000Y-126835200D03*
X128699000Y-124935200D03*
D20*
X129340600Y-122517200D03*
X133340600Y-122517200D03*
D18*
X136293600Y-128698800D03*
X136293600Y-126698800D03*
D17*
X136369800Y-121955600D03*
X136369800Y-124955600D03*
D21*
X133247800Y-125909800D03*
X130347800Y-125909800D03*
D12*
X127814400Y-132931200D03*
X124914400Y-132931200D03*
D22*
X129533900Y-134567700D03*
X130803900Y-134567700D03*
X132073900Y-134567700D03*
X133343900Y-134567700D03*
X133343900Y-129167700D03*
X132073900Y-129167700D03*
X130803900Y-129167700D03*
X129533900Y-129167700D03*
D23*
X132026400Y-131280200D03*
X130851400Y-131280200D03*
X132026400Y-132455200D03*
X130851400Y-132455200D03*
D12*
X124912200Y-130594400D03*
X127812200Y-130594400D03*
D22*
X138246100Y-134408700D03*
X139516100Y-134408700D03*
X140786100Y-134408700D03*
X142056100Y-134408700D03*
X142056100Y-129008700D03*
X140786100Y-129008700D03*
X139516100Y-129008700D03*
X138246100Y-129008700D03*
D23*
X140738600Y-131121200D03*
X139563600Y-131121200D03*
X140738600Y-132296200D03*
X139563600Y-132296200D03*
D17*
X125803400Y-118648200D03*
X125803400Y-115648200D03*
D24*
X128374200Y-117858000D03*
X132224200Y-117858000D03*
D13*
X125879600Y-112879600D03*
D14*
X128419600Y-112879600D03*
X130959600Y-112879600D03*
D17*
X135658600Y-118697600D03*
X135658600Y-115697600D03*
D13*
X139062200Y-112905000D03*
D14*
X141602200Y-112905000D03*
X144142200Y-112905000D03*
D24*
X138204000Y-117807200D03*
X142054000Y-117807200D03*
X160204000Y-117807200D03*
X164054000Y-117807200D03*
D13*
X161062200Y-112905000D03*
D14*
X163602200Y-112905000D03*
X166142200Y-112905000D03*
D20*
X160992600Y-122517200D03*
X164992600Y-122517200D03*
D16*
X154414000Y-139444200D03*
X156414000Y-139444200D03*
X162592800Y-139266400D03*
X164592800Y-139266400D03*
D15*
X162830000Y-137437600D03*
X164730000Y-137437600D03*
D13*
X165812000Y-142111200D03*
D14*
X163272000Y-142111200D03*
X160732000Y-142111200D03*
D15*
X161539800Y-137437600D03*
X159639800Y-137437600D03*
X154524200Y-137604800D03*
X156424200Y-137604800D03*
D17*
X158369800Y-121955600D03*
X158369800Y-124955600D03*
D20*
X151340600Y-122517200D03*
X155340600Y-122517200D03*
D24*
X150374200Y-117858000D03*
X154224200Y-117858000D03*
D17*
X157658600Y-118697600D03*
X157658600Y-115697600D03*
X147803400Y-118648200D03*
X147803400Y-115648200D03*
D19*
X160427200Y-126886000D03*
X160427200Y-124986000D03*
D22*
X160246100Y-134408700D03*
X161516100Y-134408700D03*
X162786100Y-134408700D03*
X164056100Y-134408700D03*
X164056100Y-129008700D03*
X162786100Y-129008700D03*
X161516100Y-129008700D03*
X160246100Y-129008700D03*
D23*
X162738600Y-131121200D03*
X161563600Y-131121200D03*
X162738600Y-132296200D03*
X161563600Y-132296200D03*
D18*
X158293600Y-128698800D03*
X158293600Y-126698800D03*
D22*
X151533900Y-134567700D03*
X152803900Y-134567700D03*
X154073900Y-134567700D03*
X155343900Y-134567700D03*
X155343900Y-129167700D03*
X154073900Y-129167700D03*
X152803900Y-129167700D03*
X151533900Y-129167700D03*
D23*
X154026400Y-131280200D03*
X152851400Y-131280200D03*
X154026400Y-132455200D03*
X152851400Y-132455200D03*
D21*
X165026800Y-125884400D03*
X162126800Y-125884400D03*
D13*
X147879600Y-112879600D03*
D14*
X150419600Y-112879600D03*
X152959600Y-112879600D03*
D12*
X149814400Y-132931200D03*
X146914400Y-132931200D03*
X146912200Y-130594400D03*
X149812200Y-130594400D03*
D17*
X148692400Y-121856800D03*
X148692400Y-124856800D03*
D21*
X155247800Y-125909800D03*
X152347800Y-125909800D03*
D19*
X150699000Y-126835200D03*
X150699000Y-124935200D03*
D18*
X148692400Y-128571800D03*
X148692400Y-126571800D03*
D16*
X140592800Y-139266400D03*
X142592800Y-139266400D03*
D15*
X140830000Y-137437600D03*
X142730000Y-137437600D03*
D13*
X143812000Y-142111200D03*
D14*
X141272000Y-142111200D03*
X138732000Y-142111200D03*
D15*
X139539800Y-137437600D03*
X137639800Y-137437600D03*
D19*
X138427200Y-126886000D03*
X138427200Y-124986000D03*
D21*
X143026800Y-125884400D03*
X140126800Y-125884400D03*
D20*
X138992600Y-122517200D03*
X142992600Y-122517200D03*
D12*
X146937600Y-135293400D03*
X149837600Y-135293400D03*
D15*
X153188200Y-137604800D03*
X151288200Y-137604800D03*
D12*
X149837600Y-137604800D03*
X146937600Y-137604800D03*
D13*
X150673600Y-141857200D03*
D14*
X148133600Y-141857200D03*
D15*
X88524200Y-137604800D03*
X90424200Y-137604800D03*
D16*
X88414000Y-139444200D03*
X90414000Y-139444200D03*
D15*
X87188200Y-137604800D03*
X85288200Y-137604800D03*
D12*
X105814400Y-132931200D03*
X102914400Y-132931200D03*
X102912200Y-130594400D03*
X105812200Y-130594400D03*
X105837600Y-137604800D03*
X102937600Y-137604800D03*
X102937600Y-135293400D03*
X105837600Y-135293400D03*
D13*
X106673600Y-141857200D03*
D14*
X104133600Y-141857200D03*
D13*
X99812000Y-142111200D03*
D14*
X97272000Y-142111200D03*
X94732000Y-142111200D03*
D15*
X96830000Y-137437600D03*
X98730000Y-137437600D03*
D16*
X96592800Y-139266400D03*
X98592800Y-139266400D03*
D15*
X95539800Y-137437600D03*
X93639800Y-137437600D03*
D22*
X94246100Y-134408700D03*
X95516100Y-134408700D03*
X96786100Y-134408700D03*
X98056100Y-134408700D03*
X98056100Y-129008700D03*
X96786100Y-129008700D03*
X95516100Y-129008700D03*
X94246100Y-129008700D03*
D23*
X96738600Y-131121200D03*
X95563600Y-131121200D03*
X96738600Y-132296200D03*
X95563600Y-132296200D03*
D13*
X84673600Y-141857200D03*
D14*
X82133600Y-141857200D03*
D12*
X83814400Y-132931200D03*
X80914400Y-132931200D03*
X83837600Y-137604800D03*
X80937600Y-137604800D03*
X80937600Y-135293400D03*
X83837600Y-135293400D03*
D20*
X107340600Y-122517200D03*
X111340600Y-122517200D03*
D24*
X106374200Y-117858000D03*
X110224200Y-117858000D03*
D17*
X114369800Y-121955600D03*
X114369800Y-124955600D03*
D21*
X121026800Y-125884400D03*
X118126800Y-125884400D03*
D19*
X116427200Y-126886000D03*
X116427200Y-124986000D03*
D13*
X117062200Y-112905000D03*
D14*
X119602200Y-112905000D03*
X122142200Y-112905000D03*
D24*
X116204000Y-117807200D03*
X120054000Y-117807200D03*
D20*
X116992600Y-122517200D03*
X120992600Y-122517200D03*
D17*
X113658600Y-118697600D03*
X113658600Y-115697600D03*
D15*
X109188200Y-137604800D03*
X107288200Y-137604800D03*
D16*
X110414000Y-139444200D03*
X112414000Y-139444200D03*
D15*
X110524200Y-137604800D03*
X112424200Y-137604800D03*
X118830000Y-137437600D03*
X120730000Y-137437600D03*
X117539800Y-137437600D03*
X115639800Y-137437600D03*
D16*
X118592800Y-139266400D03*
X120592800Y-139266400D03*
D13*
X121812000Y-142111200D03*
D14*
X119272000Y-142111200D03*
X116732000Y-142111200D03*
D18*
X114293600Y-128698800D03*
X114293600Y-126698800D03*
D22*
X107533900Y-134567700D03*
X108803900Y-134567700D03*
X110073900Y-134567700D03*
X111343900Y-134567700D03*
X111343900Y-129167700D03*
X110073900Y-129167700D03*
X108803900Y-129167700D03*
X107533900Y-129167700D03*
D23*
X110026400Y-131280200D03*
X108851400Y-131280200D03*
X110026400Y-132455200D03*
X108851400Y-132455200D03*
D21*
X111247800Y-125909800D03*
X108347800Y-125909800D03*
D22*
X116246100Y-134408700D03*
X117516100Y-134408700D03*
X118786100Y-134408700D03*
X120056100Y-134408700D03*
X120056100Y-129008700D03*
X118786100Y-129008700D03*
X117516100Y-129008700D03*
X116246100Y-129008700D03*
D23*
X118738600Y-131121200D03*
X117563600Y-131121200D03*
X118738600Y-132296200D03*
X117563600Y-132296200D03*
D13*
X103879600Y-112879600D03*
D14*
X106419600Y-112879600D03*
X108959600Y-112879600D03*
D17*
X91658600Y-118697600D03*
X91658600Y-115697600D03*
X92369800Y-121955600D03*
X92369800Y-124955600D03*
D13*
X95062200Y-112905000D03*
D14*
X97602200Y-112905000D03*
X100142200Y-112905000D03*
D20*
X94992600Y-122517200D03*
X98992600Y-122517200D03*
D21*
X99026800Y-125884400D03*
X96126800Y-125884400D03*
D19*
X94427200Y-126886000D03*
X94427200Y-124986000D03*
D18*
X92293600Y-128698800D03*
X92293600Y-126698800D03*
D24*
X94204000Y-117807200D03*
X98054000Y-117807200D03*
D20*
X85340600Y-122517200D03*
X89340600Y-122517200D03*
D24*
X84374200Y-117858000D03*
X88224200Y-117858000D03*
D21*
X89247800Y-125909800D03*
X86347800Y-125909800D03*
D19*
X84699000Y-126835200D03*
X84699000Y-124935200D03*
D17*
X82692400Y-121856800D03*
X82692400Y-124856800D03*
D13*
X81879600Y-112879600D03*
D14*
X84419600Y-112879600D03*
X86959600Y-112879600D03*
D17*
X81803400Y-118648200D03*
X81803400Y-115648200D03*
D18*
X82692400Y-128571800D03*
X82692400Y-126571800D03*
D12*
X80912200Y-130594400D03*
X83812200Y-130594400D03*
D22*
X85533900Y-134567700D03*
X86803900Y-134567700D03*
X88073900Y-134567700D03*
X89343900Y-134567700D03*
X89343900Y-129167700D03*
X88073900Y-129167700D03*
X86803900Y-129167700D03*
X85533900Y-129167700D03*
D23*
X88026400Y-131280200D03*
X86851400Y-131280200D03*
X88026400Y-132455200D03*
X86851400Y-132455200D03*
D18*
X104692400Y-128571800D03*
X104692400Y-126571800D03*
D19*
X106699000Y-126835200D03*
X106699000Y-124935200D03*
D17*
X104692400Y-121856800D03*
X104692400Y-124856800D03*
X103803400Y-118648200D03*
X103803400Y-115648200D03*
D15*
X139539800Y-104437600D03*
X137639800Y-104437600D03*
D13*
X143812000Y-109111200D03*
D14*
X141272000Y-109111200D03*
X138732000Y-109111200D03*
D15*
X140830000Y-104437600D03*
X142730000Y-104437600D03*
D16*
X140592800Y-106266400D03*
X142592800Y-106266400D03*
D20*
X138992600Y-89517200D03*
X142992600Y-89517200D03*
D19*
X138427200Y-93886000D03*
X138427200Y-91986000D03*
D13*
X139062200Y-79905000D03*
D14*
X141602200Y-79905000D03*
X144142200Y-79905000D03*
D21*
X143026800Y-92884400D03*
X140126800Y-92884400D03*
D24*
X138204000Y-84807200D03*
X142054000Y-84807200D03*
D13*
X128673600Y-108857200D03*
D14*
X126133600Y-108857200D03*
D12*
X127814400Y-99931200D03*
X124914400Y-99931200D03*
D15*
X132524200Y-104604800D03*
X134424200Y-104604800D03*
D16*
X132414000Y-106444200D03*
X134414000Y-106444200D03*
D15*
X131188200Y-104604800D03*
X129288200Y-104604800D03*
D12*
X124937600Y-102293400D03*
X127837600Y-102293400D03*
X127837600Y-104604800D03*
X124937600Y-104604800D03*
D17*
X136369800Y-88955600D03*
X136369800Y-91955600D03*
D21*
X133247800Y-92909800D03*
X130347800Y-92909800D03*
D19*
X128699000Y-93835200D03*
X128699000Y-91935200D03*
D17*
X135658600Y-85697600D03*
X135658600Y-82697600D03*
X126692400Y-88856800D03*
X126692400Y-91856800D03*
D24*
X128374200Y-84858000D03*
X132224200Y-84858000D03*
D20*
X129340600Y-89517200D03*
X133340600Y-89517200D03*
D22*
X138246100Y-101408700D03*
X139516100Y-101408700D03*
X140786100Y-101408700D03*
X142056100Y-101408700D03*
X142056100Y-96008700D03*
X140786100Y-96008700D03*
X139516100Y-96008700D03*
X138246100Y-96008700D03*
D23*
X140738600Y-98121200D03*
X139563600Y-98121200D03*
X140738600Y-99296200D03*
X139563600Y-99296200D03*
D22*
X129533900Y-101567700D03*
X130803900Y-101567700D03*
X132073900Y-101567700D03*
X133343900Y-101567700D03*
X133343900Y-96167700D03*
X132073900Y-96167700D03*
X130803900Y-96167700D03*
X129533900Y-96167700D03*
D23*
X132026400Y-98280200D03*
X130851400Y-98280200D03*
X132026400Y-99455200D03*
X130851400Y-99455200D03*
D18*
X136293600Y-95698800D03*
X136293600Y-93698800D03*
X126692400Y-95571800D03*
X126692400Y-93571800D03*
D12*
X124912200Y-97594400D03*
X127812200Y-97594400D03*
D17*
X113658600Y-85697600D03*
X113658600Y-82697600D03*
D13*
X125879600Y-79879600D03*
D14*
X128419600Y-79879600D03*
X130959600Y-79879600D03*
D17*
X125803400Y-85648200D03*
X125803400Y-82648200D03*
D13*
X117062200Y-79905000D03*
D14*
X119602200Y-79905000D03*
X122142200Y-79905000D03*
D24*
X116204000Y-84807200D03*
X120054000Y-84807200D03*
D12*
X146937600Y-102293400D03*
X149837600Y-102293400D03*
X146912200Y-97594400D03*
X149812200Y-97594400D03*
X149814400Y-99931200D03*
X146914400Y-99931200D03*
X149837600Y-104604800D03*
X146937600Y-104604800D03*
D13*
X150673600Y-108857200D03*
D14*
X148133600Y-108857200D03*
D15*
X154524200Y-104604800D03*
X156424200Y-104604800D03*
X153188200Y-104604800D03*
X151288200Y-104604800D03*
D16*
X154414000Y-106444200D03*
X156414000Y-106444200D03*
D15*
X162830000Y-104437600D03*
X164730000Y-104437600D03*
D13*
X165812000Y-109111200D03*
D14*
X163272000Y-109111200D03*
X160732000Y-109111200D03*
D16*
X162592800Y-106266400D03*
X164592800Y-106266400D03*
D15*
X161539800Y-104437600D03*
X159639800Y-104437600D03*
D17*
X147803400Y-85648200D03*
X147803400Y-82648200D03*
D13*
X147879600Y-79879600D03*
D14*
X150419600Y-79879600D03*
X152959600Y-79879600D03*
D24*
X150374200Y-84858000D03*
X154224200Y-84858000D03*
D18*
X148692400Y-95571800D03*
X148692400Y-93571800D03*
D19*
X150699000Y-93835200D03*
X150699000Y-91935200D03*
D17*
X148692400Y-88856800D03*
X148692400Y-91856800D03*
D21*
X155247800Y-92909800D03*
X152347800Y-92909800D03*
D20*
X151340600Y-89517200D03*
X155340600Y-89517200D03*
D17*
X157658600Y-85697600D03*
X157658600Y-82697600D03*
D13*
X161062200Y-79905000D03*
D14*
X163602200Y-79905000D03*
X166142200Y-79905000D03*
D20*
X160992600Y-89517200D03*
X164992600Y-89517200D03*
D19*
X160427200Y-93886000D03*
X160427200Y-91986000D03*
D24*
X160204000Y-84807200D03*
X164054000Y-84807200D03*
D17*
X158369800Y-88955600D03*
X158369800Y-91955600D03*
D21*
X165026800Y-92884400D03*
X162126800Y-92884400D03*
D22*
X151533900Y-101567700D03*
X152803900Y-101567700D03*
X154073900Y-101567700D03*
X155343900Y-101567700D03*
X155343900Y-96167700D03*
X154073900Y-96167700D03*
X152803900Y-96167700D03*
X151533900Y-96167700D03*
D23*
X154026400Y-98280200D03*
X152851400Y-98280200D03*
X154026400Y-99455200D03*
X152851400Y-99455200D03*
D18*
X158293600Y-95698800D03*
X158293600Y-93698800D03*
D22*
X160246100Y-101408700D03*
X161516100Y-101408700D03*
X162786100Y-101408700D03*
X164056100Y-101408700D03*
X164056100Y-96008700D03*
X162786100Y-96008700D03*
X161516100Y-96008700D03*
X160246100Y-96008700D03*
D23*
X162738600Y-98121200D03*
X161563600Y-98121200D03*
X162738600Y-99296200D03*
X161563600Y-99296200D03*
D24*
X94204000Y-84807200D03*
X98054000Y-84807200D03*
D20*
X94992600Y-89517200D03*
X98992600Y-89517200D03*
D13*
X95062200Y-79905000D03*
D14*
X97602200Y-79905000D03*
X100142200Y-79905000D03*
D17*
X103803400Y-85648200D03*
X103803400Y-82648200D03*
D13*
X103879600Y-79879600D03*
D14*
X106419600Y-79879600D03*
X108959600Y-79879600D03*
D24*
X106374200Y-84858000D03*
X110224200Y-84858000D03*
D20*
X107340600Y-89517200D03*
X111340600Y-89517200D03*
D17*
X104692400Y-88856800D03*
X104692400Y-91856800D03*
D19*
X106699000Y-93835200D03*
X106699000Y-91935200D03*
D21*
X111247800Y-92909800D03*
X108347800Y-92909800D03*
D18*
X92293600Y-95698800D03*
X92293600Y-93698800D03*
D19*
X94427200Y-93886000D03*
X94427200Y-91986000D03*
D21*
X99026800Y-92884400D03*
X96126800Y-92884400D03*
D22*
X94246100Y-101408700D03*
X95516100Y-101408700D03*
X96786100Y-101408700D03*
X98056100Y-101408700D03*
X98056100Y-96008700D03*
X96786100Y-96008700D03*
X95516100Y-96008700D03*
X94246100Y-96008700D03*
D23*
X96738600Y-98121200D03*
X95563600Y-98121200D03*
X96738600Y-99296200D03*
X95563600Y-99296200D03*
D12*
X105814400Y-99931200D03*
X102914400Y-99931200D03*
X102912200Y-97594400D03*
X105812200Y-97594400D03*
D18*
X104692400Y-95571800D03*
X104692400Y-93571800D03*
D20*
X116992600Y-89517200D03*
X120992600Y-89517200D03*
D21*
X121026800Y-92884400D03*
X118126800Y-92884400D03*
D17*
X114369800Y-88955600D03*
X114369800Y-91955600D03*
D18*
X114293600Y-95698800D03*
X114293600Y-93698800D03*
D19*
X116427200Y-93886000D03*
X116427200Y-91986000D03*
D22*
X107533900Y-101567700D03*
X108803900Y-101567700D03*
X110073900Y-101567700D03*
X111343900Y-101567700D03*
X111343900Y-96167700D03*
X110073900Y-96167700D03*
X108803900Y-96167700D03*
X107533900Y-96167700D03*
D23*
X110026400Y-98280200D03*
X108851400Y-98280200D03*
X110026400Y-99455200D03*
X108851400Y-99455200D03*
D22*
X116246100Y-101408700D03*
X117516100Y-101408700D03*
X118786100Y-101408700D03*
X120056100Y-101408700D03*
X120056100Y-96008700D03*
X118786100Y-96008700D03*
X117516100Y-96008700D03*
X116246100Y-96008700D03*
D23*
X118738600Y-98121200D03*
X117563600Y-98121200D03*
X118738600Y-99296200D03*
X117563600Y-99296200D03*
D12*
X105837600Y-104604800D03*
X102937600Y-104604800D03*
X102937600Y-102293400D03*
X105837600Y-102293400D03*
D15*
X110524200Y-104604800D03*
X112424200Y-104604800D03*
D16*
X110414000Y-106444200D03*
X112414000Y-106444200D03*
D13*
X106673600Y-108857200D03*
D14*
X104133600Y-108857200D03*
D15*
X109188200Y-104604800D03*
X107288200Y-104604800D03*
D13*
X99812000Y-109111200D03*
D14*
X97272000Y-109111200D03*
X94732000Y-109111200D03*
D16*
X96592800Y-106266400D03*
X98592800Y-106266400D03*
D15*
X95539800Y-104437600D03*
X93639800Y-104437600D03*
X96830000Y-104437600D03*
X98730000Y-104437600D03*
D16*
X118592800Y-106266400D03*
X120592800Y-106266400D03*
D15*
X117539800Y-104437600D03*
X115639800Y-104437600D03*
X118830000Y-104437600D03*
X120730000Y-104437600D03*
D13*
X121812000Y-109111200D03*
D14*
X119272000Y-109111200D03*
X116732000Y-109111200D03*
D22*
X85533900Y-101567700D03*
X86803900Y-101567700D03*
X88073900Y-101567700D03*
X89343900Y-101567700D03*
X89343900Y-96167700D03*
X88073900Y-96167700D03*
X86803900Y-96167700D03*
X85533900Y-96167700D03*
D23*
X88026400Y-98280200D03*
X86851400Y-98280200D03*
X88026400Y-99455200D03*
X86851400Y-99455200D03*
D17*
X81803400Y-85648200D03*
X81803400Y-82648200D03*
D24*
X84374200Y-84858000D03*
X88224200Y-84858000D03*
D13*
X81879600Y-79879600D03*
D14*
X84419600Y-79879600D03*
X86959600Y-79879600D03*
D17*
X91658600Y-85697600D03*
X91658600Y-82697600D03*
X92369800Y-88955600D03*
X92369800Y-91955600D03*
D21*
X89247800Y-92909800D03*
X86347800Y-92909800D03*
D19*
X84699000Y-93835200D03*
X84699000Y-91935200D03*
D12*
X80912200Y-97594400D03*
X83812200Y-97594400D03*
D18*
X82692400Y-95571800D03*
X82692400Y-93571800D03*
D17*
X82692400Y-88856800D03*
X82692400Y-91856800D03*
D20*
X85340600Y-89517200D03*
X89340600Y-89517200D03*
D16*
X88414000Y-106444200D03*
X90414000Y-106444200D03*
D15*
X88524200Y-104604800D03*
X90424200Y-104604800D03*
D12*
X83837600Y-104604800D03*
X80937600Y-104604800D03*
X80937600Y-102293400D03*
X83837600Y-102293400D03*
X83814400Y-99931200D03*
X80914400Y-99931200D03*
D15*
X87188200Y-104604800D03*
X85288200Y-104604800D03*
D13*
X84673600Y-108857200D03*
D14*
X82133600Y-108857200D03*
D22*
X151533900Y-68567700D03*
X152803900Y-68567700D03*
X154073900Y-68567700D03*
X155343900Y-68567700D03*
X155343900Y-63167700D03*
X154073900Y-63167700D03*
X152803900Y-63167700D03*
X151533900Y-63167700D03*
D23*
X154026400Y-65280200D03*
X152851400Y-65280200D03*
X154026400Y-66455200D03*
X152851400Y-66455200D03*
D15*
X153188200Y-71604800D03*
X151288200Y-71604800D03*
D12*
X149837600Y-71604800D03*
X146937600Y-71604800D03*
D13*
X150673600Y-75857200D03*
D14*
X148133600Y-75857200D03*
D12*
X146937600Y-69293400D03*
X149837600Y-69293400D03*
X149814400Y-66931200D03*
X146914400Y-66931200D03*
D15*
X140830000Y-71437600D03*
X142730000Y-71437600D03*
D13*
X143812000Y-76111200D03*
D14*
X141272000Y-76111200D03*
X138732000Y-76111200D03*
D15*
X139539800Y-71437600D03*
X137639800Y-71437600D03*
D16*
X140592800Y-73266400D03*
X142592800Y-73266400D03*
D15*
X161539800Y-71437600D03*
X159639800Y-71437600D03*
D16*
X154414000Y-73444200D03*
X156414000Y-73444200D03*
D13*
X165812000Y-76111200D03*
D14*
X163272000Y-76111200D03*
X160732000Y-76111200D03*
D15*
X162830000Y-71437600D03*
X164730000Y-71437600D03*
D16*
X162592800Y-73266400D03*
X164592800Y-73266400D03*
D15*
X154524200Y-71604800D03*
X156424200Y-71604800D03*
D22*
X138246100Y-68408700D03*
X139516100Y-68408700D03*
X140786100Y-68408700D03*
X142056100Y-68408700D03*
X142056100Y-63008700D03*
X140786100Y-63008700D03*
X139516100Y-63008700D03*
X138246100Y-63008700D03*
D23*
X140738600Y-65121200D03*
X139563600Y-65121200D03*
X140738600Y-66296200D03*
X139563600Y-66296200D03*
D24*
X138204000Y-51807200D03*
X142054000Y-51807200D03*
D17*
X136369800Y-55955600D03*
X136369800Y-58955600D03*
D19*
X138427200Y-60886000D03*
X138427200Y-58986000D03*
D18*
X136293600Y-62698800D03*
X136293600Y-60698800D03*
D13*
X139062200Y-46905000D03*
D14*
X141602200Y-46905000D03*
X144142200Y-46905000D03*
D20*
X138992600Y-56517200D03*
X142992600Y-56517200D03*
D21*
X143026800Y-59884400D03*
X140126800Y-59884400D03*
D22*
X160246100Y-68408700D03*
X161516100Y-68408700D03*
X162786100Y-68408700D03*
X164056100Y-68408700D03*
X164056100Y-63008700D03*
X162786100Y-63008700D03*
X161516100Y-63008700D03*
X160246100Y-63008700D03*
D23*
X162738600Y-65121200D03*
X161563600Y-65121200D03*
X162738600Y-66296200D03*
X161563600Y-66296200D03*
D17*
X157658600Y-52697600D03*
X157658600Y-49697600D03*
X158369800Y-55955600D03*
X158369800Y-58955600D03*
D24*
X160204000Y-51807200D03*
X164054000Y-51807200D03*
D13*
X161062200Y-46905000D03*
D14*
X163602200Y-46905000D03*
X166142200Y-46905000D03*
D20*
X160992600Y-56517200D03*
X164992600Y-56517200D03*
D19*
X160427200Y-60886000D03*
X160427200Y-58986000D03*
D18*
X158293600Y-62698800D03*
X158293600Y-60698800D03*
D21*
X165026800Y-59884400D03*
X162126800Y-59884400D03*
D17*
X147803400Y-52648200D03*
X147803400Y-49648200D03*
D13*
X147879600Y-46879600D03*
D14*
X150419600Y-46879600D03*
X152959600Y-46879600D03*
D24*
X150374200Y-51858000D03*
X154224200Y-51858000D03*
D20*
X151340600Y-56517200D03*
X155340600Y-56517200D03*
D17*
X148692400Y-55856800D03*
X148692400Y-58856800D03*
D21*
X155247800Y-59909800D03*
X152347800Y-59909800D03*
D19*
X150699000Y-60835200D03*
X150699000Y-58935200D03*
D12*
X146912200Y-64594400D03*
X149812200Y-64594400D03*
D18*
X148692400Y-62571800D03*
X148692400Y-60571800D03*
D15*
X132524200Y-71604800D03*
X134424200Y-71604800D03*
D16*
X132414000Y-73444200D03*
X134414000Y-73444200D03*
D13*
X128673600Y-75857200D03*
D14*
X126133600Y-75857200D03*
D15*
X131188200Y-71604800D03*
X129288200Y-71604800D03*
D12*
X127837600Y-71604800D03*
X124937600Y-71604800D03*
X124937600Y-69293400D03*
X127837600Y-69293400D03*
D17*
X135658600Y-52697600D03*
X135658600Y-49697600D03*
D13*
X125879600Y-46879600D03*
D14*
X128419600Y-46879600D03*
X130959600Y-46879600D03*
D24*
X128374200Y-51858000D03*
X132224200Y-51858000D03*
D17*
X125803400Y-52648200D03*
X125803400Y-49648200D03*
D12*
X124912200Y-64594400D03*
X127812200Y-64594400D03*
X127814400Y-66931200D03*
X124914400Y-66931200D03*
D18*
X126692400Y-62571800D03*
X126692400Y-60571800D03*
D19*
X128699000Y-60835200D03*
X128699000Y-58935200D03*
D20*
X129340600Y-56517200D03*
X133340600Y-56517200D03*
D21*
X133247800Y-59909800D03*
X130347800Y-59909800D03*
D17*
X126692400Y-55856800D03*
X126692400Y-58856800D03*
D22*
X129533900Y-68567700D03*
X130803900Y-68567700D03*
X132073900Y-68567700D03*
X133343900Y-68567700D03*
X133343900Y-63167700D03*
X132073900Y-63167700D03*
X130803900Y-63167700D03*
X129533900Y-63167700D03*
D23*
X132026400Y-65280200D03*
X130851400Y-65280200D03*
X132026400Y-66455200D03*
X130851400Y-66455200D03*
D16*
X118592800Y-73266400D03*
X120592800Y-73266400D03*
D13*
X121812000Y-76111200D03*
D14*
X119272000Y-76111200D03*
X116732000Y-76111200D03*
D15*
X118830000Y-71437600D03*
X120730000Y-71437600D03*
X117539800Y-71437600D03*
X115639800Y-71437600D03*
D18*
X104692400Y-62571800D03*
X104692400Y-60571800D03*
D22*
X107533900Y-68567700D03*
X108803900Y-68567700D03*
X110073900Y-68567700D03*
X111343900Y-68567700D03*
X111343900Y-63167700D03*
X110073900Y-63167700D03*
X108803900Y-63167700D03*
X107533900Y-63167700D03*
D23*
X110026400Y-65280200D03*
X108851400Y-65280200D03*
X110026400Y-66455200D03*
X108851400Y-66455200D03*
D12*
X102912200Y-64594400D03*
X105812200Y-64594400D03*
X102937600Y-69293400D03*
X105837600Y-69293400D03*
X105814400Y-66931200D03*
X102914400Y-66931200D03*
D16*
X110414000Y-73444200D03*
X112414000Y-73444200D03*
D15*
X110524200Y-71604800D03*
X112424200Y-71604800D03*
D12*
X105837600Y-71604800D03*
X102937600Y-71604800D03*
D15*
X109188200Y-71604800D03*
X107288200Y-71604800D03*
D13*
X106673600Y-75857200D03*
D14*
X104133600Y-75857200D03*
D17*
X113658600Y-52697600D03*
X113658600Y-49697600D03*
D20*
X116992600Y-56517200D03*
X120992600Y-56517200D03*
D13*
X117062200Y-46905000D03*
D14*
X119602200Y-46905000D03*
X122142200Y-46905000D03*
D24*
X116204000Y-51807200D03*
X120054000Y-51807200D03*
D17*
X114369800Y-55955600D03*
X114369800Y-58955600D03*
D21*
X121026800Y-59884400D03*
X118126800Y-59884400D03*
D19*
X116427200Y-60886000D03*
X116427200Y-58986000D03*
D22*
X116246100Y-68408700D03*
X117516100Y-68408700D03*
X118786100Y-68408700D03*
X120056100Y-68408700D03*
X120056100Y-63008700D03*
X118786100Y-63008700D03*
X117516100Y-63008700D03*
X116246100Y-63008700D03*
D23*
X118738600Y-65121200D03*
X117563600Y-65121200D03*
X118738600Y-66296200D03*
X117563600Y-66296200D03*
D18*
X114293600Y-62698800D03*
X114293600Y-60698800D03*
D17*
X103803400Y-52648200D03*
X103803400Y-49648200D03*
D24*
X106374200Y-51858000D03*
X110224200Y-51858000D03*
D17*
X104692400Y-55856800D03*
X104692400Y-58856800D03*
D20*
X107340600Y-56517200D03*
X111340600Y-56517200D03*
D19*
X106699000Y-60835200D03*
X106699000Y-58935200D03*
D13*
X103879600Y-46879600D03*
D14*
X106419600Y-46879600D03*
X108959600Y-46879600D03*
D21*
X111247800Y-59909800D03*
X108347800Y-59909800D03*
D17*
X92369800Y-55955600D03*
X92369800Y-58955600D03*
X82692400Y-55856800D03*
X82692400Y-58856800D03*
D24*
X84374200Y-51858000D03*
X88224200Y-51858000D03*
X94204000Y-51807200D03*
X98054000Y-51807200D03*
D13*
X84673600Y-75857200D03*
D14*
X82133600Y-75857200D03*
D13*
X81879600Y-46879600D03*
D14*
X84419600Y-46879600D03*
X86959600Y-46879600D03*
D13*
X99812000Y-76111200D03*
D14*
X97272000Y-76111200D03*
X94732000Y-76111200D03*
D13*
X95062200Y-46905000D03*
D14*
X97602200Y-46905000D03*
X100142200Y-46905000D03*
D15*
X87188200Y-71604800D03*
X85288200Y-71604800D03*
D19*
X84699000Y-60835200D03*
X84699000Y-58935200D03*
D15*
X96830000Y-71437600D03*
X98730000Y-71437600D03*
X88524200Y-71604800D03*
X90424200Y-71604800D03*
X95539800Y-71437600D03*
X93639800Y-71437600D03*
D19*
X94427200Y-60886000D03*
X94427200Y-58986000D03*
D12*
X83837600Y-71604800D03*
X80937600Y-71604800D03*
X80937600Y-69293400D03*
X83837600Y-69293400D03*
X83814400Y-66931200D03*
X80914400Y-66931200D03*
X80912200Y-64594400D03*
X83812200Y-64594400D03*
D22*
X85533900Y-68567700D03*
X86803900Y-68567700D03*
X88073900Y-68567700D03*
X89343900Y-68567700D03*
X89343900Y-63167700D03*
X88073900Y-63167700D03*
X86803900Y-63167700D03*
X85533900Y-63167700D03*
D23*
X88026400Y-65280200D03*
X86851400Y-65280200D03*
X88026400Y-66455200D03*
X86851400Y-66455200D03*
D22*
X94246100Y-68408700D03*
X95516100Y-68408700D03*
X96786100Y-68408700D03*
X98056100Y-68408700D03*
X98056100Y-63008700D03*
X96786100Y-63008700D03*
X95516100Y-63008700D03*
X94246100Y-63008700D03*
D23*
X96738600Y-65121200D03*
X95563600Y-65121200D03*
X96738600Y-66296200D03*
X95563600Y-66296200D03*
D20*
X85340600Y-56517200D03*
X89340600Y-56517200D03*
X94992600Y-56517200D03*
X98992600Y-56517200D03*
D18*
X92293600Y-62698800D03*
X92293600Y-60698800D03*
X82692400Y-62571800D03*
X82692400Y-60571800D03*
D16*
X96592800Y-73266400D03*
X98592800Y-73266400D03*
X88414000Y-73444200D03*
X90414000Y-73444200D03*
D21*
X89247800Y-59909800D03*
X86347800Y-59909800D03*
X99026800Y-59884400D03*
X96126800Y-59884400D03*
D17*
X81803400Y-52648200D03*
X81803400Y-49648200D03*
X91658600Y-52697600D03*
X91658600Y-49697600D03*
M02*
