M48
;DRILL file {KiCad 4.0.2-stable} date 11/12/2017 10:54:53 AM
;FORMAT={3:3/ absolute / metric / suppress leading zeros}
FMAT,2
METRIC,TZ
T1C0.400
T2C1.000
%
G90
G05
M71
T1
X81422Y-53915
X81422Y-54779
X81422Y-86915
X81422Y-87779
X81422Y-119915
X81422Y-120779
X83048Y-57036
X83048Y-90036
X83048Y-123036
X83073Y-57849
X83073Y-90849
X83073Y-123849
X84293Y-62243
X84293Y-95243
X84293Y-128243
X86723Y-65102
X86723Y-66602
X86723Y-98102
X86723Y-99602
X86723Y-131102
X86723Y-132602
X87423Y-65102
X87423Y-66602
X87423Y-98102
X87423Y-99602
X87423Y-131102
X87423Y-132602
X88123Y-65102
X88123Y-66602
X88123Y-98102
X88123Y-99602
X88123Y-131102
X88123Y-132602
X90109Y-69609
X90109Y-102609
X90109Y-135609
X91659Y-53738
X91659Y-54474
X91659Y-86738
X91659Y-87474
X91659Y-119738
X91659Y-120474
X91963Y-73444
X91963Y-106444
X91963Y-139444
X92344Y-57290
X92344Y-57976
X92344Y-70396
X92344Y-90290
X92344Y-90976
X92344Y-103396
X92344Y-123290
X92344Y-123976
X92344Y-136396
X93411Y-61760
X93411Y-94760
X93411Y-127760
X95410Y-65000
X95410Y-66500
X95410Y-98000
X95410Y-99500
X95410Y-131000
X95410Y-132500
X96110Y-65000
X96110Y-66500
X96110Y-98000
X96110Y-99500
X96110Y-131000
X96110Y-132500
X96810Y-65000
X96810Y-66500
X96810Y-98000
X96810Y-99500
X96810Y-131000
X96810Y-132500
X98786Y-68409
X98786Y-101409
X98786Y-134409
X100701Y-69740
X100701Y-102740
X100701Y-135740
X103422Y-53915
X103422Y-54779
X103422Y-86915
X103422Y-87779
X103422Y-119915
X103422Y-120779
X105048Y-57036
X105048Y-90036
X105048Y-123036
X105073Y-57849
X105073Y-90849
X105073Y-123849
X106293Y-62243
X106293Y-95243
X106293Y-128243
X108723Y-65102
X108723Y-66602
X108723Y-98102
X108723Y-99602
X108723Y-131102
X108723Y-132602
X109423Y-65102
X109423Y-66602
X109423Y-98102
X109423Y-99602
X109423Y-131102
X109423Y-132602
X110123Y-65102
X110123Y-66602
X110123Y-98102
X110123Y-99602
X110123Y-131102
X110123Y-132602
X112109Y-69609
X112109Y-102609
X112109Y-135609
X113659Y-53738
X113659Y-54474
X113659Y-86738
X113659Y-87474
X113659Y-119738
X113659Y-120474
X113963Y-73444
X113963Y-106444
X113963Y-139444
X114344Y-57290
X114344Y-57976
X114344Y-70396
X114344Y-90290
X114344Y-90976
X114344Y-103396
X114344Y-123290
X114344Y-123976
X114344Y-136396
X115411Y-61760
X115411Y-94760
X115411Y-127760
X117410Y-65000
X117410Y-66500
X117410Y-98000
X117410Y-99500
X117410Y-131000
X117410Y-132500
X118110Y-65000
X118110Y-66500
X118110Y-98000
X118110Y-99500
X118110Y-131000
X118110Y-132500
X118810Y-65000
X118810Y-66500
X118810Y-98000
X118810Y-99500
X118810Y-131000
X118810Y-132500
X120786Y-68409
X120786Y-101409
X120786Y-134409
X122701Y-69740
X122701Y-102740
X122701Y-135740
X125422Y-53915
X125422Y-54779
X125422Y-86915
X125422Y-87779
X125422Y-119915
X125422Y-120779
X127048Y-57036
X127048Y-90036
X127048Y-123036
X127073Y-57849
X127073Y-90849
X127073Y-123849
X128293Y-62243
X128293Y-95243
X128293Y-128243
X130723Y-65102
X130723Y-66602
X130723Y-98102
X130723Y-99602
X130723Y-131102
X130723Y-132602
X131423Y-65102
X131423Y-66602
X131423Y-98102
X131423Y-99602
X131423Y-131102
X131423Y-132602
X132123Y-65102
X132123Y-66602
X132123Y-98102
X132123Y-99602
X132123Y-131102
X132123Y-132602
X134109Y-69609
X134109Y-102609
X134109Y-135609
X135659Y-53738
X135659Y-54474
X135659Y-86738
X135659Y-87474
X135659Y-119738
X135659Y-120474
X135963Y-73444
X135963Y-106444
X135963Y-139444
X136344Y-57290
X136344Y-57976
X136344Y-70396
X136344Y-90290
X136344Y-90976
X136344Y-103396
X136344Y-123290
X136344Y-123976
X136344Y-136396
X137411Y-61760
X137411Y-94760
X137411Y-127760
X139410Y-65000
X139410Y-66500
X139410Y-98000
X139410Y-99500
X139410Y-131000
X139410Y-132500
X140110Y-65000
X140110Y-66500
X140110Y-98000
X140110Y-99500
X140110Y-131000
X140110Y-132500
X140810Y-65000
X140810Y-66500
X140810Y-98000
X140810Y-99500
X140810Y-131000
X140810Y-132500
X142786Y-68409
X142786Y-101409
X142786Y-134409
X144701Y-69740
X144701Y-102740
X144701Y-135740
X147422Y-53915
X147422Y-54779
X147422Y-86915
X147422Y-87779
X147422Y-119915
X147422Y-120779
X149048Y-57036
X149048Y-90036
X149048Y-123036
X149073Y-57849
X149073Y-90849
X149073Y-123849
X150293Y-62243
X150293Y-95243
X150293Y-128243
X152723Y-65102
X152723Y-66602
X152723Y-98102
X152723Y-99602
X152723Y-131102
X152723Y-132602
X153423Y-65102
X153423Y-66602
X153423Y-98102
X153423Y-99602
X153423Y-131102
X153423Y-132602
X154123Y-65102
X154123Y-66602
X154123Y-98102
X154123Y-99602
X154123Y-131102
X154123Y-132602
X156109Y-69609
X156109Y-102609
X156109Y-135609
X157659Y-53738
X157659Y-54474
X157659Y-86738
X157659Y-87474
X157659Y-119738
X157659Y-120474
X157963Y-73444
X157963Y-106444
X157963Y-139444
X158344Y-57290
X158344Y-57976
X158344Y-70396
X158344Y-90290
X158344Y-90976
X158344Y-103396
X158344Y-123290
X158344Y-123976
X158344Y-136396
X159411Y-61760
X159411Y-94760
X159411Y-127760
X161410Y-65000
X161410Y-66500
X161410Y-98000
X161410Y-99500
X161410Y-131000
X161410Y-132500
X162110Y-65000
X162110Y-66500
X162110Y-98000
X162110Y-99500
X162110Y-131000
X162110Y-132500
X162810Y-65000
X162810Y-66500
X162810Y-98000
X162810Y-99500
X162810Y-131000
X162810Y-132500
X164786Y-68409
X164786Y-101409
X164786Y-134409
X166701Y-69740
X166701Y-102740
X166701Y-135740
T2
X81880Y-46880
X81880Y-79880
X81880Y-112880
X82134Y-75857
X82134Y-108857
X82134Y-141857
X84420Y-46880
X84420Y-79880
X84420Y-112880
X84674Y-75857
X84674Y-108857
X84674Y-141857
X86960Y-46880
X86960Y-79880
X86960Y-112880
X94732Y-76111
X94732Y-109111
X94732Y-142111
X95062Y-46905
X95062Y-79905
X95062Y-112905
X97272Y-76111
X97272Y-109111
X97272Y-142111
X97602Y-46905
X97602Y-79905
X97602Y-112905
X99812Y-76111
X99812Y-109111
X99812Y-142111
X100142Y-46905
X100142Y-79905
X100142Y-112905
X103880Y-46880
X103880Y-79880
X103880Y-112880
X104134Y-75857
X104134Y-108857
X104134Y-141857
X106420Y-46880
X106420Y-79880
X106420Y-112880
X106674Y-75857
X106674Y-108857
X106674Y-141857
X108960Y-46880
X108960Y-79880
X108960Y-112880
X116732Y-76111
X116732Y-109111
X116732Y-142111
X117062Y-46905
X117062Y-79905
X117062Y-112905
X119272Y-76111
X119272Y-109111
X119272Y-142111
X119602Y-46905
X119602Y-79905
X119602Y-112905
X121812Y-76111
X121812Y-109111
X121812Y-142111
X122142Y-46905
X122142Y-79905
X122142Y-112905
X125880Y-46880
X125880Y-79880
X125880Y-112880
X126134Y-75857
X126134Y-108857
X126134Y-141857
X128420Y-46880
X128420Y-79880
X128420Y-112880
X128674Y-75857
X128674Y-108857
X128674Y-141857
X130960Y-46880
X130960Y-79880
X130960Y-112880
X138732Y-76111
X138732Y-109111
X138732Y-142111
X139062Y-46905
X139062Y-79905
X139062Y-112905
X141272Y-76111
X141272Y-109111
X141272Y-142111
X141602Y-46905
X141602Y-79905
X141602Y-112905
X143812Y-76111
X143812Y-109111
X143812Y-142111
X144142Y-46905
X144142Y-79905
X144142Y-112905
X147880Y-46880
X147880Y-79880
X147880Y-112880
X148134Y-75857
X148134Y-108857
X148134Y-141857
X150420Y-46880
X150420Y-79880
X150420Y-112880
X150674Y-75857
X150674Y-108857
X150674Y-141857
X152960Y-46880
X152960Y-79880
X152960Y-112880
X160732Y-76111
X160732Y-109111
X160732Y-142111
X161062Y-46905
X161062Y-79905
X161062Y-112905
X163272Y-76111
X163272Y-109111
X163272Y-142111
X163602Y-46905
X163602Y-79905
X163602Y-112905
X165812Y-76111
X165812Y-109111
X165812Y-142111
X166142Y-46905
X166142Y-79905
X166142Y-112905
T0
M30
