G04 #@! TF.FileFunction,Profile,NP*
%FSLAX46Y46*%
G04 Gerber Fmt 4.6, Leading zero omitted, Abs format (unit mm)*
G04 Created by KiCad (PCBNEW 4.0.2-stable) date 11/12/2017 10:54:44 AM*
%MOMM*%
G01*
G04 APERTURE LIST*
%ADD10C,0.100000*%
%ADD11C,0.150000*%
G04 APERTURE END LIST*
D10*
D11*
X102000000Y-111000000D02*
X102000000Y-144000000D01*
X124000000Y-111000000D02*
X124000000Y-144000000D01*
X124000000Y-144000000D02*
X124000000Y-111000000D01*
X124000000Y-144000000D02*
X102000000Y-144000000D01*
X102000000Y-144000000D02*
X80000000Y-144000000D01*
X80000000Y-144000000D02*
X80000000Y-111000000D01*
X102000000Y-144000000D02*
X102000000Y-111000000D01*
X102000000Y-111000000D02*
X124000000Y-111000000D01*
X124000000Y-111000000D02*
X102000000Y-111000000D01*
X80000000Y-111000000D02*
X102000000Y-111000000D01*
X102000000Y-111000000D02*
X80000000Y-111000000D01*
X146000000Y-144000000D02*
X146000000Y-111000000D01*
X146000000Y-144000000D02*
X124000000Y-144000000D01*
X146000000Y-111000000D02*
X146000000Y-144000000D01*
X168000000Y-144000000D02*
X146000000Y-144000000D01*
X168000000Y-111000000D02*
X168000000Y-144000000D01*
X168000000Y-111000000D02*
X146000000Y-111000000D01*
X124000000Y-111000000D02*
X146000000Y-111000000D01*
X146000000Y-111000000D02*
X168000000Y-111000000D01*
X146000000Y-111000000D02*
X124000000Y-111000000D01*
X146000000Y-78000000D02*
X146000000Y-111000000D01*
X168000000Y-111000000D02*
X146000000Y-111000000D01*
X168000000Y-78000000D02*
X168000000Y-111000000D01*
X146000000Y-78000000D02*
X168000000Y-78000000D01*
X124000000Y-111000000D02*
X102000000Y-111000000D01*
X102000000Y-111000000D02*
X80000000Y-111000000D01*
X80000000Y-111000000D02*
X80000000Y-78000000D01*
X80000000Y-78000000D02*
X102000000Y-78000000D01*
X102000000Y-78000000D02*
X102000000Y-111000000D01*
X102000000Y-78000000D02*
X124000000Y-78000000D01*
X102000000Y-111000000D02*
X102000000Y-78000000D01*
X124000000Y-78000000D02*
X146000000Y-78000000D01*
X124000000Y-111000000D02*
X124000000Y-78000000D01*
X146000000Y-111000000D02*
X146000000Y-78000000D01*
X146000000Y-111000000D02*
X124000000Y-111000000D01*
X124000000Y-78000000D02*
X124000000Y-111000000D01*
X146000000Y-78000000D02*
X146000000Y-45000000D01*
X124000000Y-78000000D02*
X124000000Y-45000000D01*
X124000000Y-45000000D02*
X146000000Y-45000000D01*
X146000000Y-45000000D02*
X146000000Y-78000000D01*
X168000000Y-78000000D02*
X146000000Y-78000000D01*
X168000000Y-45000000D02*
X168000000Y-78000000D01*
X146000000Y-45000000D02*
X168000000Y-45000000D01*
X146000000Y-78000000D02*
X124000000Y-78000000D01*
X124000000Y-78000000D02*
X102000000Y-78000000D01*
X102000000Y-78000000D02*
X102000000Y-45000000D01*
X102000000Y-45000000D02*
X124000000Y-45000000D01*
X124000000Y-45000000D02*
X124000000Y-78000000D01*
X80000000Y-78000000D02*
X80000000Y-45000000D01*
X102000000Y-78000000D02*
X80000000Y-78000000D01*
X102000000Y-45000000D02*
X102000000Y-78000000D01*
X80000000Y-45000000D02*
X102000000Y-45000000D01*
M02*
