M48
;DRILL file {KiCad 4.0.2-stable} date 6/22/2017 3:55:47 PM
;FORMAT={3:3/ absolute / metric / suppress leading zeros}
FMAT,2
METRIC,TZ
T1C0.400
T2C1.000
%
G90
G05
M71
T1
X103048Y-107036
X103073Y-107849
X104293Y-112243
X106723Y-115102
X106723Y-116602
X107423Y-115102
X107423Y-116602
X108123Y-115102
X108123Y-116602
X110109Y-119609
X111811Y-122454
X112344Y-107290
X112344Y-107976
X112344Y-120396
X113411Y-111760
X115410Y-115000
X115410Y-116500
X116110Y-115000
X116110Y-116500
X116810Y-115000
X116810Y-116500
X119685Y-119253
X119888Y-117628
T2
X102032Y-102108
X102134Y-125857
X104572Y-102108
X104674Y-125857
X107112Y-102108
X114732Y-126111
X114960Y-101981
X117272Y-126111
X117500Y-101981
X119812Y-126111
X120040Y-101981
T0
M30
