G04 #@! TF.FileFunction,Copper,L2,Bot,Signal*
%FSLAX46Y46*%
G04 Gerber Fmt 4.6, Leading zero omitted, Abs format (unit mm)*
G04 Created by KiCad (PCBNEW 4.0.2-stable) date 6/22/2017 3:55:45 PM*
%MOMM*%
G01*
G04 APERTURE LIST*
%ADD10C,0.100000*%
%ADD11C,0.150000*%
%ADD12C,0.600000*%
%ADD13R,2.150000X5.500000*%
%ADD14R,1.700000X1.700000*%
%ADD15O,1.700000X1.700000*%
%ADD16C,1.750000*%
%ADD17C,0.750000*%
%ADD18C,0.250000*%
%ADD19C,1.000000*%
%ADD20C,0.500000*%
%ADD21C,2.300000*%
G04 APERTURE END LIST*
D10*
D11*
X100000000Y-128000000D02*
X100000000Y-100000000D01*
X122000000Y-128000000D02*
X100000000Y-128000000D01*
X122000000Y-100000000D02*
X122000000Y-128000000D01*
X100000000Y-100000000D02*
X122000000Y-100000000D01*
D12*
X107423400Y-116601600D03*
X106723400Y-116601600D03*
X108123400Y-115101600D03*
X107423400Y-115101600D03*
X108123400Y-116601600D03*
X106723400Y-115101600D03*
X116810200Y-116500000D03*
X116110200Y-116500000D03*
X115410200Y-116500000D03*
X116810200Y-115000000D03*
X116110200Y-115000000D03*
X115410200Y-115000000D03*
D13*
X105598800Y-108371400D03*
X109448800Y-108371400D03*
X115225400Y-108396800D03*
X119075400Y-108396800D03*
D14*
X104673600Y-125857200D03*
D15*
X102133600Y-125857200D03*
D14*
X102031800Y-102108000D03*
D15*
X104571800Y-102108000D03*
X107111800Y-102108000D03*
D14*
X119812000Y-126111200D03*
D15*
X117272000Y-126111200D03*
X114732000Y-126111200D03*
D14*
X114960400Y-101981000D03*
D15*
X117500400Y-101981000D03*
X120040400Y-101981000D03*
D12*
X111811000Y-122453600D03*
X104292600Y-112242800D03*
X113411200Y-111760200D03*
X119888200Y-117627600D03*
X110109200Y-119608800D03*
X112344400Y-107289800D03*
X112344400Y-107975600D03*
X103048000Y-107035800D03*
X103073400Y-107848600D03*
X112344400Y-120396200D03*
X119685000Y-119253200D03*
D16*
X102133600Y-124221000D02*
X102133600Y-125857200D01*
X102031800Y-104917200D02*
X102031800Y-102108000D01*
X102133600Y-124221000D02*
X101422400Y-123509800D01*
X101422400Y-123509800D02*
X101422400Y-105526600D01*
X101422400Y-105526600D02*
X102031800Y-104917200D01*
D17*
X105598800Y-108371400D02*
X105598800Y-104871400D01*
X105598800Y-104871400D02*
X104571800Y-103844400D01*
X104571800Y-103844400D02*
X104571800Y-102108000D01*
X115225400Y-108396800D02*
X115225400Y-104896800D01*
X107111800Y-103596000D02*
X107111800Y-102108000D01*
X115225400Y-104896800D02*
X114305800Y-103977200D01*
X114305800Y-103977200D02*
X107493000Y-103977200D01*
X107493000Y-103977200D02*
X107111800Y-103596000D01*
D18*
X112979400Y-120396200D02*
X112344400Y-120396200D01*
X118542000Y-120396200D02*
X119685000Y-119253200D01*
X116967200Y-120396200D02*
X118542000Y-120396200D01*
X113403664Y-120396200D02*
X116967200Y-120396200D01*
X112979400Y-120396200D02*
X113403664Y-120396200D01*
D19*
X108123400Y-115101600D02*
X109412000Y-115101600D01*
X109412000Y-115101600D02*
X109448800Y-115138400D01*
D20*
X108123400Y-116601600D02*
X108123400Y-115101600D01*
D21*
X108813800Y-115773400D02*
X106731000Y-115773400D01*
X109448800Y-115138400D02*
X108813800Y-115773400D01*
X109448800Y-113817600D02*
X109448800Y-115138400D01*
X109448800Y-108371400D02*
X109448800Y-113817600D01*
D19*
X116810200Y-115000000D02*
X119075400Y-112734800D01*
X119075400Y-112734800D02*
X119075400Y-108396800D01*
D21*
X119075400Y-113446800D02*
X115500000Y-115750000D01*
X116772200Y-115750000D02*
X115500000Y-115750000D01*
X119075400Y-108396800D02*
X119075400Y-113446800D01*
D18*
G36*
X121546000Y-127546000D02*
X100454000Y-127546000D01*
X100454000Y-124274257D01*
X100535688Y-124396512D01*
X100879600Y-124740424D01*
X100879600Y-125857200D01*
X100975055Y-126337085D01*
X101246888Y-126743912D01*
X101653715Y-127015745D01*
X102133600Y-127111200D01*
X102613485Y-127015745D01*
X103020312Y-126743912D01*
X103292145Y-126337085D01*
X103343889Y-126076950D01*
X103444600Y-126076950D01*
X103444600Y-126782588D01*
X103502299Y-126921886D01*
X103608914Y-127028501D01*
X103748212Y-127086200D01*
X104453850Y-127086200D01*
X104548600Y-126991450D01*
X104548600Y-125982200D01*
X104798600Y-125982200D01*
X104798600Y-126991450D01*
X104893350Y-127086200D01*
X105598988Y-127086200D01*
X105738286Y-127028501D01*
X105844901Y-126921886D01*
X105902600Y-126782588D01*
X105902600Y-126087122D01*
X113503000Y-126087122D01*
X113503000Y-126135278D01*
X113596552Y-126605596D01*
X113862966Y-127004312D01*
X114261682Y-127270726D01*
X114732000Y-127364278D01*
X115202318Y-127270726D01*
X115601034Y-127004312D01*
X115867448Y-126605596D01*
X115961000Y-126135278D01*
X115961000Y-126087122D01*
X116043000Y-126087122D01*
X116043000Y-126135278D01*
X116136552Y-126605596D01*
X116402966Y-127004312D01*
X116801682Y-127270726D01*
X117272000Y-127364278D01*
X117742318Y-127270726D01*
X118141034Y-127004312D01*
X118407448Y-126605596D01*
X118462078Y-126330950D01*
X118583000Y-126330950D01*
X118583000Y-127036588D01*
X118640699Y-127175886D01*
X118747314Y-127282501D01*
X118886612Y-127340200D01*
X119592250Y-127340200D01*
X119687000Y-127245450D01*
X119687000Y-126236200D01*
X119937000Y-126236200D01*
X119937000Y-127245450D01*
X120031750Y-127340200D01*
X120737388Y-127340200D01*
X120876686Y-127282501D01*
X120983301Y-127175886D01*
X121041000Y-127036588D01*
X121041000Y-126330950D01*
X120946250Y-126236200D01*
X119937000Y-126236200D01*
X119687000Y-126236200D01*
X118677750Y-126236200D01*
X118583000Y-126330950D01*
X118462078Y-126330950D01*
X118501000Y-126135278D01*
X118501000Y-126087122D01*
X118407448Y-125616804D01*
X118141034Y-125218088D01*
X118092730Y-125185812D01*
X118583000Y-125185812D01*
X118583000Y-125891450D01*
X118677750Y-125986200D01*
X119687000Y-125986200D01*
X119687000Y-124976950D01*
X119937000Y-124976950D01*
X119937000Y-125986200D01*
X120946250Y-125986200D01*
X121041000Y-125891450D01*
X121041000Y-125185812D01*
X120983301Y-125046514D01*
X120876686Y-124939899D01*
X120737388Y-124882200D01*
X120031750Y-124882200D01*
X119937000Y-124976950D01*
X119687000Y-124976950D01*
X119592250Y-124882200D01*
X118886612Y-124882200D01*
X118747314Y-124939899D01*
X118640699Y-125046514D01*
X118583000Y-125185812D01*
X118092730Y-125185812D01*
X117742318Y-124951674D01*
X117272000Y-124858122D01*
X116801682Y-124951674D01*
X116402966Y-125218088D01*
X116136552Y-125616804D01*
X116043000Y-126087122D01*
X115961000Y-126087122D01*
X115867448Y-125616804D01*
X115601034Y-125218088D01*
X115202318Y-124951674D01*
X114732000Y-124858122D01*
X114261682Y-124951674D01*
X113862966Y-125218088D01*
X113596552Y-125616804D01*
X113503000Y-126087122D01*
X105902600Y-126087122D01*
X105902600Y-126076950D01*
X105807850Y-125982200D01*
X104798600Y-125982200D01*
X104548600Y-125982200D01*
X103539350Y-125982200D01*
X103444600Y-126076950D01*
X103343889Y-126076950D01*
X103387600Y-125857200D01*
X103387600Y-124931812D01*
X103444600Y-124931812D01*
X103444600Y-125637450D01*
X103539350Y-125732200D01*
X104548600Y-125732200D01*
X104548600Y-124722950D01*
X104798600Y-124722950D01*
X104798600Y-125732200D01*
X105807850Y-125732200D01*
X105902600Y-125637450D01*
X105902600Y-124931812D01*
X105844901Y-124792514D01*
X105738286Y-124685899D01*
X105598988Y-124628200D01*
X104893350Y-124628200D01*
X104798600Y-124722950D01*
X104548600Y-124722950D01*
X104453850Y-124628200D01*
X103748212Y-124628200D01*
X103608914Y-124685899D01*
X103502299Y-124792514D01*
X103444600Y-124931812D01*
X103387600Y-124931812D01*
X103387600Y-124221000D01*
X103292145Y-123741115D01*
X103020312Y-123334288D01*
X102676400Y-122990376D01*
X102676400Y-120530669D01*
X111665283Y-120530669D01*
X111768436Y-120780320D01*
X111959275Y-120971492D01*
X112208746Y-121075081D01*
X112478869Y-121075317D01*
X112728520Y-120972164D01*
X112800610Y-120900200D01*
X118542000Y-120900200D01*
X118734873Y-120861835D01*
X118898382Y-120752582D01*
X119718735Y-119932229D01*
X119819469Y-119932317D01*
X120069120Y-119829164D01*
X120260292Y-119638325D01*
X120363881Y-119388854D01*
X120364117Y-119118731D01*
X120260964Y-118869080D01*
X120070125Y-118677908D01*
X119820654Y-118574319D01*
X119550531Y-118574083D01*
X119300880Y-118677236D01*
X119109708Y-118868075D01*
X119006119Y-119117546D01*
X119006030Y-119219406D01*
X118333236Y-119892200D01*
X112800693Y-119892200D01*
X112729525Y-119820908D01*
X112480054Y-119717319D01*
X112209931Y-119717083D01*
X111960280Y-119820236D01*
X111769108Y-120011075D01*
X111665519Y-120260546D01*
X111665283Y-120530669D01*
X102676400Y-120530669D01*
X102676400Y-115773400D01*
X105202000Y-115773400D01*
X105318388Y-116358523D01*
X105649834Y-116854566D01*
X106145877Y-117186012D01*
X106557347Y-117267858D01*
X106587746Y-117280481D01*
X106620951Y-117280510D01*
X106731000Y-117302400D01*
X108813800Y-117302400D01*
X109398923Y-117186012D01*
X109894966Y-116854566D01*
X110529967Y-116219566D01*
X110843720Y-115750000D01*
X113971000Y-115750000D01*
X113997899Y-115885232D01*
X113995586Y-116023095D01*
X114055533Y-116174978D01*
X114087388Y-116335123D01*
X114163991Y-116449767D01*
X114214612Y-116578021D01*
X114328119Y-116695402D01*
X114418834Y-116831166D01*
X114533478Y-116907769D01*
X114629326Y-117006888D01*
X114779110Y-117071895D01*
X114914877Y-117162612D01*
X115050113Y-117189512D01*
X115176593Y-117244405D01*
X115339851Y-117247144D01*
X115500000Y-117279000D01*
X116772200Y-117279000D01*
X117357323Y-117162612D01*
X117853366Y-116831166D01*
X118184812Y-116335123D01*
X118297936Y-115766409D01*
X119903421Y-114732188D01*
X120020802Y-114618681D01*
X120156566Y-114527966D01*
X120233169Y-114413322D01*
X120332288Y-114317474D01*
X120397295Y-114167690D01*
X120488012Y-114031923D01*
X120514912Y-113896688D01*
X120569805Y-113770208D01*
X120572544Y-113606949D01*
X120604400Y-113446800D01*
X120604400Y-108396800D01*
X120536825Y-108057077D01*
X120536825Y-105646800D01*
X120510398Y-105506351D01*
X120427392Y-105377357D01*
X120300741Y-105290820D01*
X120150400Y-105260375D01*
X118000400Y-105260375D01*
X117859951Y-105286802D01*
X117730957Y-105369808D01*
X117644420Y-105496459D01*
X117613975Y-105646800D01*
X117613975Y-108057077D01*
X117546400Y-108396800D01*
X117546400Y-112612968D01*
X114671979Y-114464612D01*
X114554598Y-114578119D01*
X114418834Y-114668834D01*
X114342231Y-114783478D01*
X114243112Y-114879326D01*
X114178105Y-115029110D01*
X114087388Y-115164877D01*
X114060488Y-115300113D01*
X114005595Y-115426593D01*
X114002856Y-115589851D01*
X113971000Y-115750000D01*
X110843720Y-115750000D01*
X110861412Y-115723523D01*
X110977800Y-115138400D01*
X110977800Y-108371400D01*
X110910225Y-108031677D01*
X110910225Y-105621400D01*
X110883798Y-105480951D01*
X110800792Y-105351957D01*
X110674141Y-105265420D01*
X110523800Y-105234975D01*
X108373800Y-105234975D01*
X108233351Y-105261402D01*
X108104357Y-105344408D01*
X108017820Y-105471059D01*
X107987375Y-105621400D01*
X107987375Y-108031677D01*
X107919800Y-108371400D01*
X107919800Y-114244400D01*
X106731000Y-114244400D01*
X106145877Y-114360788D01*
X105649834Y-114692234D01*
X105318388Y-115188277D01*
X105202000Y-115773400D01*
X102676400Y-115773400D01*
X102676400Y-106046024D01*
X102918512Y-105803912D01*
X103190345Y-105397085D01*
X103285800Y-104917200D01*
X103285800Y-102108000D01*
X103281011Y-102083922D01*
X103342800Y-102083922D01*
X103342800Y-102132078D01*
X103436352Y-102602396D01*
X103702766Y-103001112D01*
X103817800Y-103077975D01*
X103817800Y-103844395D01*
X103817799Y-103844400D01*
X103875195Y-104132943D01*
X104038641Y-104377559D01*
X104844800Y-105183717D01*
X104844800Y-105234975D01*
X104523800Y-105234975D01*
X104383351Y-105261402D01*
X104254357Y-105344408D01*
X104167820Y-105471059D01*
X104137375Y-105621400D01*
X104137375Y-111121400D01*
X104163802Y-111261849D01*
X104246808Y-111390843D01*
X104373459Y-111477380D01*
X104523800Y-111507825D01*
X106673800Y-111507825D01*
X106814249Y-111481398D01*
X106943243Y-111398392D01*
X107029780Y-111271741D01*
X107060225Y-111121400D01*
X107060225Y-105621400D01*
X107033798Y-105480951D01*
X106950792Y-105351957D01*
X106824141Y-105265420D01*
X106673800Y-105234975D01*
X106352800Y-105234975D01*
X106352800Y-104871400D01*
X106306749Y-104639888D01*
X106295405Y-104582856D01*
X106229938Y-104484877D01*
X106131959Y-104338241D01*
X106131956Y-104338239D01*
X105325800Y-103532082D01*
X105325800Y-103077975D01*
X105440834Y-103001112D01*
X105707248Y-102602396D01*
X105800800Y-102132078D01*
X105800800Y-102083922D01*
X105882800Y-102083922D01*
X105882800Y-102132078D01*
X105976352Y-102602396D01*
X106242766Y-103001112D01*
X106357800Y-103077975D01*
X106357800Y-103595995D01*
X106357799Y-103596000D01*
X106415195Y-103884543D01*
X106578641Y-104129159D01*
X106959839Y-104510356D01*
X106959841Y-104510359D01*
X107068343Y-104582857D01*
X107204456Y-104673805D01*
X107493000Y-104731201D01*
X107493005Y-104731200D01*
X113993482Y-104731200D01*
X114471400Y-105209117D01*
X114471400Y-105260375D01*
X114150400Y-105260375D01*
X114009951Y-105286802D01*
X113880957Y-105369808D01*
X113794420Y-105496459D01*
X113763975Y-105646800D01*
X113763975Y-111146800D01*
X113790402Y-111287249D01*
X113873408Y-111416243D01*
X114000059Y-111502780D01*
X114150400Y-111533225D01*
X116300400Y-111533225D01*
X116440849Y-111506798D01*
X116569843Y-111423792D01*
X116656380Y-111297141D01*
X116686825Y-111146800D01*
X116686825Y-105646800D01*
X116660398Y-105506351D01*
X116577392Y-105377357D01*
X116450741Y-105290820D01*
X116300400Y-105260375D01*
X115979400Y-105260375D01*
X115979400Y-104896805D01*
X115979401Y-104896800D01*
X115922005Y-104608257D01*
X115807786Y-104437315D01*
X115758559Y-104363641D01*
X115758556Y-104363639D01*
X114838959Y-103444041D01*
X114594343Y-103280595D01*
X114305800Y-103223199D01*
X114305795Y-103223200D01*
X107865800Y-103223200D01*
X107865800Y-103077975D01*
X107980834Y-103001112D01*
X108247248Y-102602396D01*
X108327140Y-102200750D01*
X113731400Y-102200750D01*
X113731400Y-102906388D01*
X113789099Y-103045686D01*
X113895714Y-103152301D01*
X114035012Y-103210000D01*
X114740650Y-103210000D01*
X114835400Y-103115250D01*
X114835400Y-102106000D01*
X115085400Y-102106000D01*
X115085400Y-103115250D01*
X115180150Y-103210000D01*
X115885788Y-103210000D01*
X116025086Y-103152301D01*
X116131701Y-103045686D01*
X116189400Y-102906388D01*
X116189400Y-102200750D01*
X116094650Y-102106000D01*
X115085400Y-102106000D01*
X114835400Y-102106000D01*
X113826150Y-102106000D01*
X113731400Y-102200750D01*
X108327140Y-102200750D01*
X108340800Y-102132078D01*
X108340800Y-102083922D01*
X108315539Y-101956922D01*
X116271400Y-101956922D01*
X116271400Y-102005078D01*
X116364952Y-102475396D01*
X116631366Y-102874112D01*
X117030082Y-103140526D01*
X117500400Y-103234078D01*
X117970718Y-103140526D01*
X118369434Y-102874112D01*
X118635848Y-102475396D01*
X118729400Y-102005078D01*
X118729400Y-101956922D01*
X118811400Y-101956922D01*
X118811400Y-102005078D01*
X118904952Y-102475396D01*
X119171366Y-102874112D01*
X119570082Y-103140526D01*
X120040400Y-103234078D01*
X120510718Y-103140526D01*
X120909434Y-102874112D01*
X121175848Y-102475396D01*
X121269400Y-102005078D01*
X121269400Y-101956922D01*
X121175848Y-101486604D01*
X120909434Y-101087888D01*
X120510718Y-100821474D01*
X120040400Y-100727922D01*
X119570082Y-100821474D01*
X119171366Y-101087888D01*
X118904952Y-101486604D01*
X118811400Y-101956922D01*
X118729400Y-101956922D01*
X118635848Y-101486604D01*
X118369434Y-101087888D01*
X117970718Y-100821474D01*
X117500400Y-100727922D01*
X117030082Y-100821474D01*
X116631366Y-101087888D01*
X116364952Y-101486604D01*
X116271400Y-101956922D01*
X108315539Y-101956922D01*
X108247248Y-101613604D01*
X107980834Y-101214888D01*
X107742462Y-101055612D01*
X113731400Y-101055612D01*
X113731400Y-101761250D01*
X113826150Y-101856000D01*
X114835400Y-101856000D01*
X114835400Y-100846750D01*
X115085400Y-100846750D01*
X115085400Y-101856000D01*
X116094650Y-101856000D01*
X116189400Y-101761250D01*
X116189400Y-101055612D01*
X116131701Y-100916314D01*
X116025086Y-100809699D01*
X115885788Y-100752000D01*
X115180150Y-100752000D01*
X115085400Y-100846750D01*
X114835400Y-100846750D01*
X114740650Y-100752000D01*
X114035012Y-100752000D01*
X113895714Y-100809699D01*
X113789099Y-100916314D01*
X113731400Y-101055612D01*
X107742462Y-101055612D01*
X107582118Y-100948474D01*
X107111800Y-100854922D01*
X106641482Y-100948474D01*
X106242766Y-101214888D01*
X105976352Y-101613604D01*
X105882800Y-102083922D01*
X105800800Y-102083922D01*
X105707248Y-101613604D01*
X105440834Y-101214888D01*
X105042118Y-100948474D01*
X104571800Y-100854922D01*
X104101482Y-100948474D01*
X103702766Y-101214888D01*
X103436352Y-101613604D01*
X103342800Y-102083922D01*
X103281011Y-102083922D01*
X103268225Y-102019644D01*
X103268225Y-101258000D01*
X103241798Y-101117551D01*
X103158792Y-100988557D01*
X103032141Y-100902020D01*
X102881800Y-100871575D01*
X102120156Y-100871575D01*
X102031800Y-100854000D01*
X101943444Y-100871575D01*
X101181800Y-100871575D01*
X101041351Y-100898002D01*
X100912357Y-100981008D01*
X100825820Y-101107659D01*
X100795375Y-101258000D01*
X100795375Y-102019644D01*
X100777800Y-102108000D01*
X100777800Y-104397776D01*
X100535688Y-104639888D01*
X100454000Y-104762143D01*
X100454000Y-100454000D01*
X121546000Y-100454000D01*
X121546000Y-127546000D01*
X121546000Y-127546000D01*
G37*
X121546000Y-127546000D02*
X100454000Y-127546000D01*
X100454000Y-124274257D01*
X100535688Y-124396512D01*
X100879600Y-124740424D01*
X100879600Y-125857200D01*
X100975055Y-126337085D01*
X101246888Y-126743912D01*
X101653715Y-127015745D01*
X102133600Y-127111200D01*
X102613485Y-127015745D01*
X103020312Y-126743912D01*
X103292145Y-126337085D01*
X103343889Y-126076950D01*
X103444600Y-126076950D01*
X103444600Y-126782588D01*
X103502299Y-126921886D01*
X103608914Y-127028501D01*
X103748212Y-127086200D01*
X104453850Y-127086200D01*
X104548600Y-126991450D01*
X104548600Y-125982200D01*
X104798600Y-125982200D01*
X104798600Y-126991450D01*
X104893350Y-127086200D01*
X105598988Y-127086200D01*
X105738286Y-127028501D01*
X105844901Y-126921886D01*
X105902600Y-126782588D01*
X105902600Y-126087122D01*
X113503000Y-126087122D01*
X113503000Y-126135278D01*
X113596552Y-126605596D01*
X113862966Y-127004312D01*
X114261682Y-127270726D01*
X114732000Y-127364278D01*
X115202318Y-127270726D01*
X115601034Y-127004312D01*
X115867448Y-126605596D01*
X115961000Y-126135278D01*
X115961000Y-126087122D01*
X116043000Y-126087122D01*
X116043000Y-126135278D01*
X116136552Y-126605596D01*
X116402966Y-127004312D01*
X116801682Y-127270726D01*
X117272000Y-127364278D01*
X117742318Y-127270726D01*
X118141034Y-127004312D01*
X118407448Y-126605596D01*
X118462078Y-126330950D01*
X118583000Y-126330950D01*
X118583000Y-127036588D01*
X118640699Y-127175886D01*
X118747314Y-127282501D01*
X118886612Y-127340200D01*
X119592250Y-127340200D01*
X119687000Y-127245450D01*
X119687000Y-126236200D01*
X119937000Y-126236200D01*
X119937000Y-127245450D01*
X120031750Y-127340200D01*
X120737388Y-127340200D01*
X120876686Y-127282501D01*
X120983301Y-127175886D01*
X121041000Y-127036588D01*
X121041000Y-126330950D01*
X120946250Y-126236200D01*
X119937000Y-126236200D01*
X119687000Y-126236200D01*
X118677750Y-126236200D01*
X118583000Y-126330950D01*
X118462078Y-126330950D01*
X118501000Y-126135278D01*
X118501000Y-126087122D01*
X118407448Y-125616804D01*
X118141034Y-125218088D01*
X118092730Y-125185812D01*
X118583000Y-125185812D01*
X118583000Y-125891450D01*
X118677750Y-125986200D01*
X119687000Y-125986200D01*
X119687000Y-124976950D01*
X119937000Y-124976950D01*
X119937000Y-125986200D01*
X120946250Y-125986200D01*
X121041000Y-125891450D01*
X121041000Y-125185812D01*
X120983301Y-125046514D01*
X120876686Y-124939899D01*
X120737388Y-124882200D01*
X120031750Y-124882200D01*
X119937000Y-124976950D01*
X119687000Y-124976950D01*
X119592250Y-124882200D01*
X118886612Y-124882200D01*
X118747314Y-124939899D01*
X118640699Y-125046514D01*
X118583000Y-125185812D01*
X118092730Y-125185812D01*
X117742318Y-124951674D01*
X117272000Y-124858122D01*
X116801682Y-124951674D01*
X116402966Y-125218088D01*
X116136552Y-125616804D01*
X116043000Y-126087122D01*
X115961000Y-126087122D01*
X115867448Y-125616804D01*
X115601034Y-125218088D01*
X115202318Y-124951674D01*
X114732000Y-124858122D01*
X114261682Y-124951674D01*
X113862966Y-125218088D01*
X113596552Y-125616804D01*
X113503000Y-126087122D01*
X105902600Y-126087122D01*
X105902600Y-126076950D01*
X105807850Y-125982200D01*
X104798600Y-125982200D01*
X104548600Y-125982200D01*
X103539350Y-125982200D01*
X103444600Y-126076950D01*
X103343889Y-126076950D01*
X103387600Y-125857200D01*
X103387600Y-124931812D01*
X103444600Y-124931812D01*
X103444600Y-125637450D01*
X103539350Y-125732200D01*
X104548600Y-125732200D01*
X104548600Y-124722950D01*
X104798600Y-124722950D01*
X104798600Y-125732200D01*
X105807850Y-125732200D01*
X105902600Y-125637450D01*
X105902600Y-124931812D01*
X105844901Y-124792514D01*
X105738286Y-124685899D01*
X105598988Y-124628200D01*
X104893350Y-124628200D01*
X104798600Y-124722950D01*
X104548600Y-124722950D01*
X104453850Y-124628200D01*
X103748212Y-124628200D01*
X103608914Y-124685899D01*
X103502299Y-124792514D01*
X103444600Y-124931812D01*
X103387600Y-124931812D01*
X103387600Y-124221000D01*
X103292145Y-123741115D01*
X103020312Y-123334288D01*
X102676400Y-122990376D01*
X102676400Y-120530669D01*
X111665283Y-120530669D01*
X111768436Y-120780320D01*
X111959275Y-120971492D01*
X112208746Y-121075081D01*
X112478869Y-121075317D01*
X112728520Y-120972164D01*
X112800610Y-120900200D01*
X118542000Y-120900200D01*
X118734873Y-120861835D01*
X118898382Y-120752582D01*
X119718735Y-119932229D01*
X119819469Y-119932317D01*
X120069120Y-119829164D01*
X120260292Y-119638325D01*
X120363881Y-119388854D01*
X120364117Y-119118731D01*
X120260964Y-118869080D01*
X120070125Y-118677908D01*
X119820654Y-118574319D01*
X119550531Y-118574083D01*
X119300880Y-118677236D01*
X119109708Y-118868075D01*
X119006119Y-119117546D01*
X119006030Y-119219406D01*
X118333236Y-119892200D01*
X112800693Y-119892200D01*
X112729525Y-119820908D01*
X112480054Y-119717319D01*
X112209931Y-119717083D01*
X111960280Y-119820236D01*
X111769108Y-120011075D01*
X111665519Y-120260546D01*
X111665283Y-120530669D01*
X102676400Y-120530669D01*
X102676400Y-115773400D01*
X105202000Y-115773400D01*
X105318388Y-116358523D01*
X105649834Y-116854566D01*
X106145877Y-117186012D01*
X106557347Y-117267858D01*
X106587746Y-117280481D01*
X106620951Y-117280510D01*
X106731000Y-117302400D01*
X108813800Y-117302400D01*
X109398923Y-117186012D01*
X109894966Y-116854566D01*
X110529967Y-116219566D01*
X110843720Y-115750000D01*
X113971000Y-115750000D01*
X113997899Y-115885232D01*
X113995586Y-116023095D01*
X114055533Y-116174978D01*
X114087388Y-116335123D01*
X114163991Y-116449767D01*
X114214612Y-116578021D01*
X114328119Y-116695402D01*
X114418834Y-116831166D01*
X114533478Y-116907769D01*
X114629326Y-117006888D01*
X114779110Y-117071895D01*
X114914877Y-117162612D01*
X115050113Y-117189512D01*
X115176593Y-117244405D01*
X115339851Y-117247144D01*
X115500000Y-117279000D01*
X116772200Y-117279000D01*
X117357323Y-117162612D01*
X117853366Y-116831166D01*
X118184812Y-116335123D01*
X118297936Y-115766409D01*
X119903421Y-114732188D01*
X120020802Y-114618681D01*
X120156566Y-114527966D01*
X120233169Y-114413322D01*
X120332288Y-114317474D01*
X120397295Y-114167690D01*
X120488012Y-114031923D01*
X120514912Y-113896688D01*
X120569805Y-113770208D01*
X120572544Y-113606949D01*
X120604400Y-113446800D01*
X120604400Y-108396800D01*
X120536825Y-108057077D01*
X120536825Y-105646800D01*
X120510398Y-105506351D01*
X120427392Y-105377357D01*
X120300741Y-105290820D01*
X120150400Y-105260375D01*
X118000400Y-105260375D01*
X117859951Y-105286802D01*
X117730957Y-105369808D01*
X117644420Y-105496459D01*
X117613975Y-105646800D01*
X117613975Y-108057077D01*
X117546400Y-108396800D01*
X117546400Y-112612968D01*
X114671979Y-114464612D01*
X114554598Y-114578119D01*
X114418834Y-114668834D01*
X114342231Y-114783478D01*
X114243112Y-114879326D01*
X114178105Y-115029110D01*
X114087388Y-115164877D01*
X114060488Y-115300113D01*
X114005595Y-115426593D01*
X114002856Y-115589851D01*
X113971000Y-115750000D01*
X110843720Y-115750000D01*
X110861412Y-115723523D01*
X110977800Y-115138400D01*
X110977800Y-108371400D01*
X110910225Y-108031677D01*
X110910225Y-105621400D01*
X110883798Y-105480951D01*
X110800792Y-105351957D01*
X110674141Y-105265420D01*
X110523800Y-105234975D01*
X108373800Y-105234975D01*
X108233351Y-105261402D01*
X108104357Y-105344408D01*
X108017820Y-105471059D01*
X107987375Y-105621400D01*
X107987375Y-108031677D01*
X107919800Y-108371400D01*
X107919800Y-114244400D01*
X106731000Y-114244400D01*
X106145877Y-114360788D01*
X105649834Y-114692234D01*
X105318388Y-115188277D01*
X105202000Y-115773400D01*
X102676400Y-115773400D01*
X102676400Y-106046024D01*
X102918512Y-105803912D01*
X103190345Y-105397085D01*
X103285800Y-104917200D01*
X103285800Y-102108000D01*
X103281011Y-102083922D01*
X103342800Y-102083922D01*
X103342800Y-102132078D01*
X103436352Y-102602396D01*
X103702766Y-103001112D01*
X103817800Y-103077975D01*
X103817800Y-103844395D01*
X103817799Y-103844400D01*
X103875195Y-104132943D01*
X104038641Y-104377559D01*
X104844800Y-105183717D01*
X104844800Y-105234975D01*
X104523800Y-105234975D01*
X104383351Y-105261402D01*
X104254357Y-105344408D01*
X104167820Y-105471059D01*
X104137375Y-105621400D01*
X104137375Y-111121400D01*
X104163802Y-111261849D01*
X104246808Y-111390843D01*
X104373459Y-111477380D01*
X104523800Y-111507825D01*
X106673800Y-111507825D01*
X106814249Y-111481398D01*
X106943243Y-111398392D01*
X107029780Y-111271741D01*
X107060225Y-111121400D01*
X107060225Y-105621400D01*
X107033798Y-105480951D01*
X106950792Y-105351957D01*
X106824141Y-105265420D01*
X106673800Y-105234975D01*
X106352800Y-105234975D01*
X106352800Y-104871400D01*
X106306749Y-104639888D01*
X106295405Y-104582856D01*
X106229938Y-104484877D01*
X106131959Y-104338241D01*
X106131956Y-104338239D01*
X105325800Y-103532082D01*
X105325800Y-103077975D01*
X105440834Y-103001112D01*
X105707248Y-102602396D01*
X105800800Y-102132078D01*
X105800800Y-102083922D01*
X105882800Y-102083922D01*
X105882800Y-102132078D01*
X105976352Y-102602396D01*
X106242766Y-103001112D01*
X106357800Y-103077975D01*
X106357800Y-103595995D01*
X106357799Y-103596000D01*
X106415195Y-103884543D01*
X106578641Y-104129159D01*
X106959839Y-104510356D01*
X106959841Y-104510359D01*
X107068343Y-104582857D01*
X107204456Y-104673805D01*
X107493000Y-104731201D01*
X107493005Y-104731200D01*
X113993482Y-104731200D01*
X114471400Y-105209117D01*
X114471400Y-105260375D01*
X114150400Y-105260375D01*
X114009951Y-105286802D01*
X113880957Y-105369808D01*
X113794420Y-105496459D01*
X113763975Y-105646800D01*
X113763975Y-111146800D01*
X113790402Y-111287249D01*
X113873408Y-111416243D01*
X114000059Y-111502780D01*
X114150400Y-111533225D01*
X116300400Y-111533225D01*
X116440849Y-111506798D01*
X116569843Y-111423792D01*
X116656380Y-111297141D01*
X116686825Y-111146800D01*
X116686825Y-105646800D01*
X116660398Y-105506351D01*
X116577392Y-105377357D01*
X116450741Y-105290820D01*
X116300400Y-105260375D01*
X115979400Y-105260375D01*
X115979400Y-104896805D01*
X115979401Y-104896800D01*
X115922005Y-104608257D01*
X115807786Y-104437315D01*
X115758559Y-104363641D01*
X115758556Y-104363639D01*
X114838959Y-103444041D01*
X114594343Y-103280595D01*
X114305800Y-103223199D01*
X114305795Y-103223200D01*
X107865800Y-103223200D01*
X107865800Y-103077975D01*
X107980834Y-103001112D01*
X108247248Y-102602396D01*
X108327140Y-102200750D01*
X113731400Y-102200750D01*
X113731400Y-102906388D01*
X113789099Y-103045686D01*
X113895714Y-103152301D01*
X114035012Y-103210000D01*
X114740650Y-103210000D01*
X114835400Y-103115250D01*
X114835400Y-102106000D01*
X115085400Y-102106000D01*
X115085400Y-103115250D01*
X115180150Y-103210000D01*
X115885788Y-103210000D01*
X116025086Y-103152301D01*
X116131701Y-103045686D01*
X116189400Y-102906388D01*
X116189400Y-102200750D01*
X116094650Y-102106000D01*
X115085400Y-102106000D01*
X114835400Y-102106000D01*
X113826150Y-102106000D01*
X113731400Y-102200750D01*
X108327140Y-102200750D01*
X108340800Y-102132078D01*
X108340800Y-102083922D01*
X108315539Y-101956922D01*
X116271400Y-101956922D01*
X116271400Y-102005078D01*
X116364952Y-102475396D01*
X116631366Y-102874112D01*
X117030082Y-103140526D01*
X117500400Y-103234078D01*
X117970718Y-103140526D01*
X118369434Y-102874112D01*
X118635848Y-102475396D01*
X118729400Y-102005078D01*
X118729400Y-101956922D01*
X118811400Y-101956922D01*
X118811400Y-102005078D01*
X118904952Y-102475396D01*
X119171366Y-102874112D01*
X119570082Y-103140526D01*
X120040400Y-103234078D01*
X120510718Y-103140526D01*
X120909434Y-102874112D01*
X121175848Y-102475396D01*
X121269400Y-102005078D01*
X121269400Y-101956922D01*
X121175848Y-101486604D01*
X120909434Y-101087888D01*
X120510718Y-100821474D01*
X120040400Y-100727922D01*
X119570082Y-100821474D01*
X119171366Y-101087888D01*
X118904952Y-101486604D01*
X118811400Y-101956922D01*
X118729400Y-101956922D01*
X118635848Y-101486604D01*
X118369434Y-101087888D01*
X117970718Y-100821474D01*
X117500400Y-100727922D01*
X117030082Y-100821474D01*
X116631366Y-101087888D01*
X116364952Y-101486604D01*
X116271400Y-101956922D01*
X108315539Y-101956922D01*
X108247248Y-101613604D01*
X107980834Y-101214888D01*
X107742462Y-101055612D01*
X113731400Y-101055612D01*
X113731400Y-101761250D01*
X113826150Y-101856000D01*
X114835400Y-101856000D01*
X114835400Y-100846750D01*
X115085400Y-100846750D01*
X115085400Y-101856000D01*
X116094650Y-101856000D01*
X116189400Y-101761250D01*
X116189400Y-101055612D01*
X116131701Y-100916314D01*
X116025086Y-100809699D01*
X115885788Y-100752000D01*
X115180150Y-100752000D01*
X115085400Y-100846750D01*
X114835400Y-100846750D01*
X114740650Y-100752000D01*
X114035012Y-100752000D01*
X113895714Y-100809699D01*
X113789099Y-100916314D01*
X113731400Y-101055612D01*
X107742462Y-101055612D01*
X107582118Y-100948474D01*
X107111800Y-100854922D01*
X106641482Y-100948474D01*
X106242766Y-101214888D01*
X105976352Y-101613604D01*
X105882800Y-102083922D01*
X105800800Y-102083922D01*
X105707248Y-101613604D01*
X105440834Y-101214888D01*
X105042118Y-100948474D01*
X104571800Y-100854922D01*
X104101482Y-100948474D01*
X103702766Y-101214888D01*
X103436352Y-101613604D01*
X103342800Y-102083922D01*
X103281011Y-102083922D01*
X103268225Y-102019644D01*
X103268225Y-101258000D01*
X103241798Y-101117551D01*
X103158792Y-100988557D01*
X103032141Y-100902020D01*
X102881800Y-100871575D01*
X102120156Y-100871575D01*
X102031800Y-100854000D01*
X101943444Y-100871575D01*
X101181800Y-100871575D01*
X101041351Y-100898002D01*
X100912357Y-100981008D01*
X100825820Y-101107659D01*
X100795375Y-101258000D01*
X100795375Y-102019644D01*
X100777800Y-102108000D01*
X100777800Y-104397776D01*
X100535688Y-104639888D01*
X100454000Y-104762143D01*
X100454000Y-100454000D01*
X121546000Y-100454000D01*
X121546000Y-127546000D01*
M02*
