G04 #@! TF.FileFunction,Legend,Top*
%FSLAX46Y46*%
G04 Gerber Fmt 4.6, Leading zero omitted, Abs format (unit mm)*
G04 Created by KiCad (PCBNEW 4.0.2-stable) date 6/22/2017 3:55:45 PM*
%MOMM*%
G01*
G04 APERTURE LIST*
%ADD10C,0.100000*%
%ADD11C,0.300000*%
%ADD12C,0.150000*%
%ADD13C,0.120000*%
G04 APERTURE END LIST*
D10*
X120517933Y-112390333D02*
X120517933Y-112057000D01*
X121217933Y-112057000D01*
X120517933Y-112623667D02*
X121217933Y-112623667D01*
X120517933Y-113023667D01*
X121217933Y-113023667D01*
X121151267Y-113323666D02*
X121184600Y-113357000D01*
X121217933Y-113423666D01*
X121217933Y-113590333D01*
X121184600Y-113657000D01*
X121151267Y-113690333D01*
X121084600Y-113723666D01*
X121017933Y-113723666D01*
X120917933Y-113690333D01*
X120517933Y-113290333D01*
X120517933Y-113723666D01*
X121217933Y-114357000D02*
X121217933Y-114023667D01*
X120884600Y-113990333D01*
X120917933Y-114023667D01*
X120951267Y-114090333D01*
X120951267Y-114257000D01*
X120917933Y-114323667D01*
X120884600Y-114357000D01*
X120817933Y-114390333D01*
X120651267Y-114390333D01*
X120584600Y-114357000D01*
X120551267Y-114323667D01*
X120517933Y-114257000D01*
X120517933Y-114090333D01*
X120551267Y-114023667D01*
X120584600Y-113990333D01*
X120984600Y-114990334D02*
X120517933Y-114990334D01*
X121251267Y-114823667D02*
X120751267Y-114657000D01*
X120751267Y-115090334D01*
X120984600Y-115657001D02*
X120517933Y-115657001D01*
X121251267Y-115490334D02*
X120751267Y-115323667D01*
X120751267Y-115757001D01*
X120451267Y-115857001D02*
X120451267Y-116390334D01*
X121151267Y-116523667D02*
X121184600Y-116557001D01*
X121217933Y-116623667D01*
X121217933Y-116790334D01*
X121184600Y-116857001D01*
X121151267Y-116890334D01*
X121084600Y-116923667D01*
X121017933Y-116923667D01*
X120917933Y-116890334D01*
X120517933Y-116490334D01*
X120517933Y-116923667D01*
X120551267Y-117523668D02*
X120517933Y-117457001D01*
X120517933Y-117323668D01*
X120551267Y-117257001D01*
X120584600Y-117223668D01*
X120651267Y-117190334D01*
X120851267Y-117190334D01*
X120917933Y-117223668D01*
X120951267Y-117257001D01*
X120984600Y-117323668D01*
X120984600Y-117457001D01*
X120951267Y-117523668D01*
X120517933Y-117823668D02*
X121217933Y-117823668D01*
X120517933Y-118123668D02*
X120884600Y-118123668D01*
X120951267Y-118090334D01*
X120984600Y-118023668D01*
X120984600Y-117923668D01*
X120951267Y-117857001D01*
X120917933Y-117823668D01*
X120451267Y-118290334D02*
X120451267Y-118823667D01*
X120584600Y-119390334D02*
X120551267Y-119357000D01*
X120517933Y-119257000D01*
X120517933Y-119190334D01*
X120551267Y-119090334D01*
X120617933Y-119023667D01*
X120684600Y-118990334D01*
X120817933Y-118957000D01*
X120917933Y-118957000D01*
X121051267Y-118990334D01*
X121117933Y-119023667D01*
X121184600Y-119090334D01*
X121217933Y-119190334D01*
X121217933Y-119257000D01*
X121184600Y-119357000D01*
X121151267Y-119390334D01*
X121217933Y-119623667D02*
X120517933Y-119790334D01*
X121017933Y-119923667D01*
X120517933Y-120057000D01*
X121217933Y-120223667D01*
X121217933Y-120423667D02*
X120517933Y-120590334D01*
X121017933Y-120723667D01*
X120517933Y-120857000D01*
X121217933Y-121023667D01*
X121217933Y-121723667D02*
X120517933Y-121957000D01*
X121217933Y-122190333D01*
X120517933Y-122790333D02*
X120517933Y-122390333D01*
X120517933Y-122590333D02*
X121217933Y-122590333D01*
X121117933Y-122523667D01*
X121051267Y-122457000D01*
X121017933Y-122390333D01*
X120584600Y-123090334D02*
X120551267Y-123123667D01*
X120517933Y-123090334D01*
X120551267Y-123057000D01*
X120584600Y-123090334D01*
X120517933Y-123090334D01*
X121217933Y-123557000D02*
X121217933Y-123623667D01*
X121184600Y-123690333D01*
X121151267Y-123723667D01*
X121084600Y-123757000D01*
X120951267Y-123790333D01*
X120784600Y-123790333D01*
X120651267Y-123757000D01*
X120584600Y-123723667D01*
X120551267Y-123690333D01*
X120517933Y-123623667D01*
X120517933Y-123557000D01*
X120551267Y-123490333D01*
X120584600Y-123457000D01*
X120651267Y-123423667D01*
X120784600Y-123390333D01*
X120951267Y-123390333D01*
X121084600Y-123423667D01*
X121151267Y-123457000D01*
X121184600Y-123490333D01*
X121217933Y-123557000D01*
X119804600Y-116007000D02*
X119771267Y-116107000D01*
X119737933Y-116140333D01*
X119671267Y-116173667D01*
X119571267Y-116173667D01*
X119504600Y-116140333D01*
X119471267Y-116107000D01*
X119437933Y-116040333D01*
X119437933Y-115773667D01*
X120137933Y-115773667D01*
X120137933Y-116007000D01*
X120104600Y-116073667D01*
X120071267Y-116107000D01*
X120004600Y-116140333D01*
X119937933Y-116140333D01*
X119871267Y-116107000D01*
X119837933Y-116073667D01*
X119804600Y-116007000D01*
X119804600Y-115773667D01*
X119437933Y-116473667D02*
X120137933Y-116473667D01*
X119437933Y-116873667D02*
X119837933Y-116573667D01*
X120137933Y-116873667D02*
X119737933Y-116473667D01*
X120071267Y-117673666D02*
X120104600Y-117707000D01*
X120137933Y-117773666D01*
X120137933Y-117940333D01*
X120104600Y-118007000D01*
X120071267Y-118040333D01*
X120004600Y-118073666D01*
X119937933Y-118073666D01*
X119837933Y-118040333D01*
X119437933Y-117640333D01*
X119437933Y-118073666D01*
X120137933Y-118507000D02*
X120137933Y-118573667D01*
X120104600Y-118640333D01*
X120071267Y-118673667D01*
X120004600Y-118707000D01*
X119871267Y-118740333D01*
X119704600Y-118740333D01*
X119571267Y-118707000D01*
X119504600Y-118673667D01*
X119471267Y-118640333D01*
X119437933Y-118573667D01*
X119437933Y-118507000D01*
X119471267Y-118440333D01*
X119504600Y-118407000D01*
X119571267Y-118373667D01*
X119704600Y-118340333D01*
X119871267Y-118340333D01*
X120004600Y-118373667D01*
X120071267Y-118407000D01*
X120104600Y-118440333D01*
X120137933Y-118507000D01*
X119437933Y-119407000D02*
X119437933Y-119007000D01*
X119437933Y-119207000D02*
X120137933Y-119207000D01*
X120037933Y-119140334D01*
X119971267Y-119073667D01*
X119937933Y-119007000D01*
X120137933Y-119640334D02*
X120137933Y-120107001D01*
X119437933Y-119807001D01*
D11*
X101511372Y-123576743D02*
X102654229Y-123576743D01*
X102082800Y-124148171D02*
X102082800Y-123005314D01*
X101536772Y-104348943D02*
X102679629Y-104348943D01*
X102108200Y-104920371D02*
X102108200Y-103777514D01*
D12*
X100000000Y-128000000D02*
X100000000Y-100000000D01*
X122000000Y-128000000D02*
X100000000Y-128000000D01*
X122000000Y-100000000D02*
X122000000Y-128000000D01*
X100000000Y-100000000D02*
X122000000Y-100000000D01*
D13*
X113389800Y-108455600D02*
X113389800Y-106455600D01*
X111349800Y-106455600D02*
X111349800Y-108455600D01*
X103712400Y-108356800D02*
X103712400Y-106356800D01*
X101672400Y-106356800D02*
X101672400Y-108356800D01*
X103403600Y-124527200D02*
X100803600Y-124527200D01*
X100803600Y-124527200D02*
X100803600Y-127187200D01*
X100803600Y-127187200D02*
X103403600Y-127187200D01*
X103403600Y-127187200D02*
X103403600Y-124527200D01*
X104673600Y-124527200D02*
X106003600Y-124527200D01*
X106003600Y-124527200D02*
X106003600Y-125857200D01*
X103301800Y-103438000D02*
X108441800Y-103438000D01*
X108441800Y-103438000D02*
X108441800Y-100778000D01*
X108441800Y-100778000D02*
X103301800Y-100778000D01*
X103301800Y-100778000D02*
X103301800Y-103438000D01*
X102031800Y-103438000D02*
X100701800Y-103438000D01*
X100701800Y-103438000D02*
X100701800Y-102108000D01*
X118542000Y-124781200D02*
X113402000Y-124781200D01*
X113402000Y-124781200D02*
X113402000Y-127441200D01*
X113402000Y-127441200D02*
X118542000Y-127441200D01*
X118542000Y-127441200D02*
X118542000Y-124781200D01*
X119812000Y-124781200D02*
X121142000Y-124781200D01*
X121142000Y-124781200D02*
X121142000Y-126111200D01*
X116230400Y-103311000D02*
X121370400Y-103311000D01*
X121370400Y-103311000D02*
X121370400Y-100651000D01*
X121370400Y-100651000D02*
X116230400Y-100651000D01*
X116230400Y-100651000D02*
X116230400Y-103311000D01*
X114960400Y-103311000D02*
X113630400Y-103311000D01*
X113630400Y-103311000D02*
X113630400Y-101981000D01*
X109338200Y-109285200D02*
X109338200Y-110485200D01*
X107578200Y-110485200D02*
X107578200Y-109285200D01*
X107458600Y-109285200D02*
X107458600Y-110485200D01*
X105698600Y-110485200D02*
X105698600Y-109285200D01*
X105638200Y-120620000D02*
X106838200Y-120620000D01*
X106838200Y-122380000D02*
X105638200Y-122380000D01*
X105579000Y-109285200D02*
X105579000Y-110485200D01*
X103819000Y-110485200D02*
X103819000Y-109285200D01*
X118380000Y-122317600D02*
X117180000Y-122317600D01*
X117180000Y-120557600D02*
X118380000Y-120557600D01*
X110074200Y-122380000D02*
X108874200Y-122380000D01*
X108874200Y-120620000D02*
X110074200Y-120620000D01*
X117161400Y-109336000D02*
X117161400Y-110536000D01*
X115401400Y-110536000D02*
X115401400Y-109336000D01*
X119041000Y-109336000D02*
X119041000Y-110536000D01*
X117281000Y-110536000D02*
X117281000Y-109336000D01*
X113989800Y-120557600D02*
X115189800Y-120557600D01*
X115189800Y-122317600D02*
X113989800Y-122317600D01*
X115307200Y-109336000D02*
X115307200Y-110536000D01*
X113547200Y-110536000D02*
X113547200Y-109336000D01*
X101387600Y-120534800D02*
X103387600Y-120534800D01*
X103387600Y-122674800D02*
X101387600Y-122674800D01*
X103387600Y-120363400D02*
X101387600Y-120363400D01*
X101387600Y-118223400D02*
X103387600Y-118223400D01*
X101364400Y-115861200D02*
X103364400Y-115861200D01*
X103364400Y-118001200D02*
X101364400Y-118001200D01*
X103362200Y-115664400D02*
X101362200Y-115664400D01*
X101362200Y-113524400D02*
X103362200Y-113524400D01*
D12*
X104863900Y-117942700D02*
X104913900Y-117942700D01*
X104863900Y-113792700D02*
X105008900Y-113792700D01*
X110013900Y-113792700D02*
X109868900Y-113792700D01*
X110013900Y-117942700D02*
X109868900Y-117942700D01*
X104863900Y-117942700D02*
X104863900Y-113792700D01*
X110013900Y-117942700D02*
X110013900Y-113792700D01*
X104913900Y-117942700D02*
X104913900Y-119342700D01*
X113576100Y-117783700D02*
X113626100Y-117783700D01*
X113576100Y-113633700D02*
X113721100Y-113633700D01*
X118726100Y-113633700D02*
X118581100Y-113633700D01*
X118726100Y-117783700D02*
X118581100Y-117783700D01*
X113576100Y-117783700D02*
X113576100Y-113633700D01*
X118726100Y-117783700D02*
X118726100Y-113633700D01*
X113626100Y-117783700D02*
X113626100Y-119183700D01*
D13*
X103940600Y-104867200D02*
X103940600Y-108167200D01*
X103940600Y-108167200D02*
X109340600Y-108167200D01*
X103940600Y-104867200D02*
X109340600Y-104867200D01*
X113592600Y-104867200D02*
X113592600Y-108167200D01*
X113592600Y-108167200D02*
X118992600Y-108167200D01*
X113592600Y-104867200D02*
X118992600Y-104867200D01*
X111443600Y-111198800D02*
X111443600Y-112198800D01*
X113143600Y-112198800D02*
X113143600Y-111198800D01*
X101842400Y-111071800D02*
X101842400Y-112071800D01*
X103542400Y-112071800D02*
X103542400Y-111071800D01*
X111645000Y-125620600D02*
X111645000Y-124620600D01*
X109945000Y-124620600D02*
X109945000Y-125620600D01*
X109841600Y-125620600D02*
X109841600Y-124620600D01*
X108141600Y-124620600D02*
X108141600Y-125620600D01*
D10*
X112202334Y-104949000D02*
X112169000Y-104982333D01*
X112069000Y-105015667D01*
X112002334Y-105015667D01*
X111902334Y-104982333D01*
X111835667Y-104915667D01*
X111802334Y-104849000D01*
X111769000Y-104715667D01*
X111769000Y-104615667D01*
X111802334Y-104482333D01*
X111835667Y-104415667D01*
X111902334Y-104349000D01*
X112002334Y-104315667D01*
X112069000Y-104315667D01*
X112169000Y-104349000D01*
X112202334Y-104382333D01*
X112869000Y-105015667D02*
X112469000Y-105015667D01*
X112669000Y-105015667D02*
X112669000Y-104315667D01*
X112602334Y-104415667D01*
X112535667Y-104482333D01*
X112469000Y-104515667D01*
X101266000Y-107660466D02*
X101299333Y-107693800D01*
X101332667Y-107793800D01*
X101332667Y-107860466D01*
X101299333Y-107960466D01*
X101232667Y-108027133D01*
X101166000Y-108060466D01*
X101032667Y-108093800D01*
X100932667Y-108093800D01*
X100799333Y-108060466D01*
X100732667Y-108027133D01*
X100666000Y-107960466D01*
X100632667Y-107860466D01*
X100632667Y-107793800D01*
X100666000Y-107693800D01*
X100699333Y-107660466D01*
X100699333Y-107393800D02*
X100666000Y-107360466D01*
X100632667Y-107293800D01*
X100632667Y-107127133D01*
X100666000Y-107060466D01*
X100699333Y-107027133D01*
X100766000Y-106993800D01*
X100832667Y-106993800D01*
X100932667Y-107027133D01*
X101332667Y-107427133D01*
X101332667Y-106993800D01*
D12*
X104494305Y-124175981D02*
X104494305Y-123175981D01*
X104875258Y-123175981D01*
X104970496Y-123223600D01*
X105018115Y-123271219D01*
X105065734Y-123366457D01*
X105065734Y-123509314D01*
X105018115Y-123604552D01*
X104970496Y-123652171D01*
X104875258Y-123699790D01*
X104494305Y-123699790D01*
X106018115Y-124175981D02*
X105446686Y-124175981D01*
X105732400Y-124175981D02*
X105732400Y-123175981D01*
X105637162Y-123318838D01*
X105541924Y-123414076D01*
X105446686Y-123461695D01*
X110053581Y-102693895D02*
X109053581Y-102693895D01*
X109053581Y-102312942D01*
X109101200Y-102217704D01*
X109148819Y-102170085D01*
X109244057Y-102122466D01*
X109386914Y-102122466D01*
X109482152Y-102170085D01*
X109529771Y-102217704D01*
X109577390Y-102312942D01*
X109577390Y-102693895D01*
X109148819Y-101741514D02*
X109101200Y-101693895D01*
X109053581Y-101598657D01*
X109053581Y-101360561D01*
X109101200Y-101265323D01*
X109148819Y-101217704D01*
X109244057Y-101170085D01*
X109339295Y-101170085D01*
X109482152Y-101217704D01*
X110053581Y-101789133D01*
X110053581Y-101170085D01*
X113587505Y-124379181D02*
X113587505Y-123379181D01*
X113968458Y-123379181D01*
X114063696Y-123426800D01*
X114111315Y-123474419D01*
X114158934Y-123569657D01*
X114158934Y-123712514D01*
X114111315Y-123807752D01*
X114063696Y-123855371D01*
X113968458Y-123902990D01*
X113587505Y-123902990D01*
X114492267Y-123379181D02*
X115111315Y-123379181D01*
X114777981Y-123760133D01*
X114920839Y-123760133D01*
X115016077Y-123807752D01*
X115063696Y-123855371D01*
X115111315Y-123950610D01*
X115111315Y-124188705D01*
X115063696Y-124283943D01*
X115016077Y-124331562D01*
X114920839Y-124379181D01*
X114635124Y-124379181D01*
X114539886Y-124331562D01*
X114492267Y-124283943D01*
X113082781Y-102719095D02*
X112082781Y-102719095D01*
X112082781Y-102338142D01*
X112130400Y-102242904D01*
X112178019Y-102195285D01*
X112273257Y-102147666D01*
X112416114Y-102147666D01*
X112511352Y-102195285D01*
X112558971Y-102242904D01*
X112606590Y-102338142D01*
X112606590Y-102719095D01*
X112416114Y-101290523D02*
X113082781Y-101290523D01*
X112035162Y-101528619D02*
X112749448Y-101766714D01*
X112749448Y-101147666D01*
D10*
X108341534Y-112229267D02*
X108108200Y-111895933D01*
X107941534Y-112229267D02*
X107941534Y-111529267D01*
X108208200Y-111529267D01*
X108274867Y-111562600D01*
X108308200Y-111595933D01*
X108341534Y-111662600D01*
X108341534Y-111762600D01*
X108308200Y-111829267D01*
X108274867Y-111862600D01*
X108208200Y-111895933D01*
X107941534Y-111895933D01*
X109008200Y-112229267D02*
X108608200Y-112229267D01*
X108808200Y-112229267D02*
X108808200Y-111529267D01*
X108741534Y-111629267D01*
X108674867Y-111695933D01*
X108608200Y-111729267D01*
X106512734Y-112178467D02*
X106279400Y-111845133D01*
X106112734Y-112178467D02*
X106112734Y-111478467D01*
X106379400Y-111478467D01*
X106446067Y-111511800D01*
X106479400Y-111545133D01*
X106512734Y-111611800D01*
X106512734Y-111711800D01*
X106479400Y-111778467D01*
X106446067Y-111811800D01*
X106379400Y-111845133D01*
X106112734Y-111845133D01*
X106779400Y-111545133D02*
X106812734Y-111511800D01*
X106879400Y-111478467D01*
X107046067Y-111478467D01*
X107112734Y-111511800D01*
X107146067Y-111545133D01*
X107179400Y-111611800D01*
X107179400Y-111678467D01*
X107146067Y-111778467D01*
X106746067Y-112178467D01*
X107179400Y-112178467D01*
X106106334Y-120455667D02*
X105873000Y-120122333D01*
X105706334Y-120455667D02*
X105706334Y-119755667D01*
X105973000Y-119755667D01*
X106039667Y-119789000D01*
X106073000Y-119822333D01*
X106106334Y-119889000D01*
X106106334Y-119989000D01*
X106073000Y-120055667D01*
X106039667Y-120089000D01*
X105973000Y-120122333D01*
X105706334Y-120122333D01*
X106706334Y-119989000D02*
X106706334Y-120455667D01*
X106539667Y-119722333D02*
X106373000Y-120222333D01*
X106806334Y-120222333D01*
X104633134Y-112153067D02*
X104399800Y-111819733D01*
X104233134Y-112153067D02*
X104233134Y-111453067D01*
X104499800Y-111453067D01*
X104566467Y-111486400D01*
X104599800Y-111519733D01*
X104633134Y-111586400D01*
X104633134Y-111686400D01*
X104599800Y-111753067D01*
X104566467Y-111786400D01*
X104499800Y-111819733D01*
X104233134Y-111819733D01*
X105266467Y-111453067D02*
X104933134Y-111453067D01*
X104899800Y-111786400D01*
X104933134Y-111753067D01*
X104999800Y-111719733D01*
X105166467Y-111719733D01*
X105233134Y-111753067D01*
X105266467Y-111786400D01*
X105299800Y-111853067D01*
X105299800Y-112019733D01*
X105266467Y-112086400D01*
X105233134Y-112119733D01*
X105166467Y-112153067D01*
X104999800Y-112153067D01*
X104933134Y-112119733D01*
X104899800Y-112086400D01*
X117714134Y-120367867D02*
X117480800Y-120034533D01*
X117314134Y-120367867D02*
X117314134Y-119667867D01*
X117580800Y-119667867D01*
X117647467Y-119701200D01*
X117680800Y-119734533D01*
X117714134Y-119801200D01*
X117714134Y-119901200D01*
X117680800Y-119967867D01*
X117647467Y-120001200D01*
X117580800Y-120034533D01*
X117314134Y-120034533D01*
X118314134Y-119667867D02*
X118180800Y-119667867D01*
X118114134Y-119701200D01*
X118080800Y-119734533D01*
X118014134Y-119834533D01*
X117980800Y-119967867D01*
X117980800Y-120234533D01*
X118014134Y-120301200D01*
X118047467Y-120334533D01*
X118114134Y-120367867D01*
X118247467Y-120367867D01*
X118314134Y-120334533D01*
X118347467Y-120301200D01*
X118380800Y-120234533D01*
X118380800Y-120067867D01*
X118347467Y-120001200D01*
X118314134Y-119967867D01*
X118247467Y-119934533D01*
X118114134Y-119934533D01*
X118047467Y-119967867D01*
X118014134Y-120001200D01*
X117980800Y-120067867D01*
X109382934Y-120481067D02*
X109149600Y-120147733D01*
X108982934Y-120481067D02*
X108982934Y-119781067D01*
X109249600Y-119781067D01*
X109316267Y-119814400D01*
X109349600Y-119847733D01*
X109382934Y-119914400D01*
X109382934Y-120014400D01*
X109349600Y-120081067D01*
X109316267Y-120114400D01*
X109249600Y-120147733D01*
X108982934Y-120147733D01*
X109616267Y-119781067D02*
X110082934Y-119781067D01*
X109782934Y-120481067D01*
X116088534Y-112076867D02*
X115855200Y-111743533D01*
X115688534Y-112076867D02*
X115688534Y-111376867D01*
X115955200Y-111376867D01*
X116021867Y-111410200D01*
X116055200Y-111443533D01*
X116088534Y-111510200D01*
X116088534Y-111610200D01*
X116055200Y-111676867D01*
X116021867Y-111710200D01*
X115955200Y-111743533D01*
X115688534Y-111743533D01*
X116488534Y-111676867D02*
X116421867Y-111643533D01*
X116388534Y-111610200D01*
X116355200Y-111543533D01*
X116355200Y-111510200D01*
X116388534Y-111443533D01*
X116421867Y-111410200D01*
X116488534Y-111376867D01*
X116621867Y-111376867D01*
X116688534Y-111410200D01*
X116721867Y-111443533D01*
X116755200Y-111510200D01*
X116755200Y-111543533D01*
X116721867Y-111610200D01*
X116688534Y-111643533D01*
X116621867Y-111676867D01*
X116488534Y-111676867D01*
X116421867Y-111710200D01*
X116388534Y-111743533D01*
X116355200Y-111810200D01*
X116355200Y-111943533D01*
X116388534Y-112010200D01*
X116421867Y-112043533D01*
X116488534Y-112076867D01*
X116621867Y-112076867D01*
X116688534Y-112043533D01*
X116721867Y-112010200D01*
X116755200Y-111943533D01*
X116755200Y-111810200D01*
X116721867Y-111743533D01*
X116688534Y-111710200D01*
X116621867Y-111676867D01*
X118095134Y-112127667D02*
X117861800Y-111794333D01*
X117695134Y-112127667D02*
X117695134Y-111427667D01*
X117961800Y-111427667D01*
X118028467Y-111461000D01*
X118061800Y-111494333D01*
X118095134Y-111561000D01*
X118095134Y-111661000D01*
X118061800Y-111727667D01*
X118028467Y-111761000D01*
X117961800Y-111794333D01*
X117695134Y-111794333D01*
X118428467Y-112127667D02*
X118561800Y-112127667D01*
X118628467Y-112094333D01*
X118661800Y-112061000D01*
X118728467Y-111961000D01*
X118761800Y-111827667D01*
X118761800Y-111561000D01*
X118728467Y-111494333D01*
X118695134Y-111461000D01*
X118628467Y-111427667D01*
X118495134Y-111427667D01*
X118428467Y-111461000D01*
X118395134Y-111494333D01*
X118361800Y-111561000D01*
X118361800Y-111727667D01*
X118395134Y-111794333D01*
X118428467Y-111827667D01*
X118495134Y-111861000D01*
X118628467Y-111861000D01*
X118695134Y-111827667D01*
X118728467Y-111794333D01*
X118761800Y-111727667D01*
X114165200Y-120393267D02*
X113931866Y-120059933D01*
X113765200Y-120393267D02*
X113765200Y-119693267D01*
X114031866Y-119693267D01*
X114098533Y-119726600D01*
X114131866Y-119759933D01*
X114165200Y-119826600D01*
X114165200Y-119926600D01*
X114131866Y-119993267D01*
X114098533Y-120026600D01*
X114031866Y-120059933D01*
X113765200Y-120059933D01*
X114831866Y-120393267D02*
X114431866Y-120393267D01*
X114631866Y-120393267D02*
X114631866Y-119693267D01*
X114565200Y-119793267D01*
X114498533Y-119859933D01*
X114431866Y-119893267D01*
X115498533Y-120393267D02*
X115098533Y-120393267D01*
X115298533Y-120393267D02*
X115298533Y-119693267D01*
X115231867Y-119793267D01*
X115165200Y-119859933D01*
X115098533Y-119893267D01*
X113951800Y-112076867D02*
X113718466Y-111743533D01*
X113551800Y-112076867D02*
X113551800Y-111376867D01*
X113818466Y-111376867D01*
X113885133Y-111410200D01*
X113918466Y-111443533D01*
X113951800Y-111510200D01*
X113951800Y-111610200D01*
X113918466Y-111676867D01*
X113885133Y-111710200D01*
X113818466Y-111743533D01*
X113551800Y-111743533D01*
X114618466Y-112076867D02*
X114218466Y-112076867D01*
X114418466Y-112076867D02*
X114418466Y-111376867D01*
X114351800Y-111476867D01*
X114285133Y-111543533D01*
X114218466Y-111576867D01*
X114885133Y-111443533D02*
X114918467Y-111410200D01*
X114985133Y-111376867D01*
X115151800Y-111376867D01*
X115218467Y-111410200D01*
X115251800Y-111443533D01*
X115285133Y-111510200D01*
X115285133Y-111576867D01*
X115251800Y-111676867D01*
X114851800Y-112076867D01*
X115285133Y-112076867D01*
X101937600Y-121906667D02*
X101704266Y-121573333D01*
X101537600Y-121906667D02*
X101537600Y-121206667D01*
X101804266Y-121206667D01*
X101870933Y-121240000D01*
X101904266Y-121273333D01*
X101937600Y-121340000D01*
X101937600Y-121440000D01*
X101904266Y-121506667D01*
X101870933Y-121540000D01*
X101804266Y-121573333D01*
X101537600Y-121573333D01*
X102604266Y-121906667D02*
X102204266Y-121906667D01*
X102404266Y-121906667D02*
X102404266Y-121206667D01*
X102337600Y-121306667D01*
X102270933Y-121373333D01*
X102204266Y-121406667D01*
X102837600Y-121206667D02*
X103270933Y-121206667D01*
X103037600Y-121473333D01*
X103137600Y-121473333D01*
X103204267Y-121506667D01*
X103237600Y-121540000D01*
X103270933Y-121606667D01*
X103270933Y-121773333D01*
X103237600Y-121840000D01*
X103204267Y-121873333D01*
X103137600Y-121906667D01*
X102937600Y-121906667D01*
X102870933Y-121873333D01*
X102837600Y-121840000D01*
X101912200Y-117360067D02*
X101678866Y-117026733D01*
X101512200Y-117360067D02*
X101512200Y-116660067D01*
X101778866Y-116660067D01*
X101845533Y-116693400D01*
X101878866Y-116726733D01*
X101912200Y-116793400D01*
X101912200Y-116893400D01*
X101878866Y-116960067D01*
X101845533Y-116993400D01*
X101778866Y-117026733D01*
X101512200Y-117026733D01*
X102578866Y-117360067D02*
X102178866Y-117360067D01*
X102378866Y-117360067D02*
X102378866Y-116660067D01*
X102312200Y-116760067D01*
X102245533Y-116826733D01*
X102178866Y-116860067D01*
X103178867Y-116893400D02*
X103178867Y-117360067D01*
X103012200Y-116626733D02*
X102845533Y-117126733D01*
X103278867Y-117126733D01*
X101912200Y-119696867D02*
X101678866Y-119363533D01*
X101512200Y-119696867D02*
X101512200Y-118996867D01*
X101778866Y-118996867D01*
X101845533Y-119030200D01*
X101878866Y-119063533D01*
X101912200Y-119130200D01*
X101912200Y-119230200D01*
X101878866Y-119296867D01*
X101845533Y-119330200D01*
X101778866Y-119363533D01*
X101512200Y-119363533D01*
X102578866Y-119696867D02*
X102178866Y-119696867D01*
X102378866Y-119696867D02*
X102378866Y-118996867D01*
X102312200Y-119096867D01*
X102245533Y-119163533D01*
X102178866Y-119196867D01*
X103212200Y-118996867D02*
X102878867Y-118996867D01*
X102845533Y-119330200D01*
X102878867Y-119296867D01*
X102945533Y-119263533D01*
X103112200Y-119263533D01*
X103178867Y-119296867D01*
X103212200Y-119330200D01*
X103245533Y-119396867D01*
X103245533Y-119563533D01*
X103212200Y-119630200D01*
X103178867Y-119663533D01*
X103112200Y-119696867D01*
X102945533Y-119696867D01*
X102878867Y-119663533D01*
X102845533Y-119630200D01*
X101886800Y-115048667D02*
X101653466Y-114715333D01*
X101486800Y-115048667D02*
X101486800Y-114348667D01*
X101753466Y-114348667D01*
X101820133Y-114382000D01*
X101853466Y-114415333D01*
X101886800Y-114482000D01*
X101886800Y-114582000D01*
X101853466Y-114648667D01*
X101820133Y-114682000D01*
X101753466Y-114715333D01*
X101486800Y-114715333D01*
X102553466Y-115048667D02*
X102153466Y-115048667D01*
X102353466Y-115048667D02*
X102353466Y-114348667D01*
X102286800Y-114448667D01*
X102220133Y-114515333D01*
X102153466Y-114548667D01*
X103153467Y-114348667D02*
X103020133Y-114348667D01*
X102953467Y-114382000D01*
X102920133Y-114415333D01*
X102853467Y-114515333D01*
X102820133Y-114648667D01*
X102820133Y-114915333D01*
X102853467Y-114982000D01*
X102886800Y-115015333D01*
X102953467Y-115048667D01*
X103086800Y-115048667D01*
X103153467Y-115015333D01*
X103186800Y-114982000D01*
X103220133Y-114915333D01*
X103220133Y-114748667D01*
X103186800Y-114682000D01*
X103153467Y-114648667D01*
X103086800Y-114615333D01*
X102953467Y-114615333D01*
X102886800Y-114648667D01*
X102853467Y-114682000D01*
X102820133Y-114748667D01*
X110259267Y-116382933D02*
X110825933Y-116382933D01*
X110892600Y-116349600D01*
X110925933Y-116316267D01*
X110959267Y-116249600D01*
X110959267Y-116116267D01*
X110925933Y-116049600D01*
X110892600Y-116016267D01*
X110825933Y-115982933D01*
X110259267Y-115982933D01*
X110959267Y-115282934D02*
X110959267Y-115682934D01*
X110959267Y-115482934D02*
X110259267Y-115482934D01*
X110359267Y-115549600D01*
X110425933Y-115616267D01*
X110459267Y-115682934D01*
X112596067Y-116230533D02*
X113162733Y-116230533D01*
X113229400Y-116197200D01*
X113262733Y-116163867D01*
X113296067Y-116097200D01*
X113296067Y-115963867D01*
X113262733Y-115897200D01*
X113229400Y-115863867D01*
X113162733Y-115830533D01*
X112596067Y-115830533D01*
X112662733Y-115530534D02*
X112629400Y-115497200D01*
X112596067Y-115430534D01*
X112596067Y-115263867D01*
X112629400Y-115197200D01*
X112662733Y-115163867D01*
X112729400Y-115130534D01*
X112796067Y-115130534D01*
X112896067Y-115163867D01*
X113296067Y-115563867D01*
X113296067Y-115130534D01*
X109135334Y-104482267D02*
X109135334Y-103782267D01*
X109302000Y-103782267D01*
X109402000Y-103815600D01*
X109468667Y-103882267D01*
X109502000Y-103948933D01*
X109535334Y-104082267D01*
X109535334Y-104182267D01*
X109502000Y-104315600D01*
X109468667Y-104382267D01*
X109402000Y-104448933D01*
X109302000Y-104482267D01*
X109135334Y-104482267D01*
X110202000Y-104482267D02*
X109802000Y-104482267D01*
X110002000Y-104482267D02*
X110002000Y-103782267D01*
X109935334Y-103882267D01*
X109868667Y-103948933D01*
X109802000Y-103982267D01*
X119092134Y-104482267D02*
X119092134Y-103782267D01*
X119258800Y-103782267D01*
X119358800Y-103815600D01*
X119425467Y-103882267D01*
X119458800Y-103948933D01*
X119492134Y-104082267D01*
X119492134Y-104182267D01*
X119458800Y-104315600D01*
X119425467Y-104382267D01*
X119358800Y-104448933D01*
X119258800Y-104482267D01*
X119092134Y-104482267D01*
X119758800Y-103848933D02*
X119792134Y-103815600D01*
X119858800Y-103782267D01*
X120025467Y-103782267D01*
X120092134Y-103815600D01*
X120125467Y-103848933D01*
X120158800Y-103915600D01*
X120158800Y-103982267D01*
X120125467Y-104082267D01*
X119725467Y-104482267D01*
X120158800Y-104482267D01*
X111043600Y-111815466D02*
X111076933Y-111848800D01*
X111110267Y-111948800D01*
X111110267Y-112015466D01*
X111076933Y-112115466D01*
X111010267Y-112182133D01*
X110943600Y-112215466D01*
X110810267Y-112248800D01*
X110710267Y-112248800D01*
X110576933Y-112215466D01*
X110510267Y-112182133D01*
X110443600Y-112115466D01*
X110410267Y-112015466D01*
X110410267Y-111948800D01*
X110443600Y-111848800D01*
X110476933Y-111815466D01*
X110410267Y-111582133D02*
X110410267Y-111148800D01*
X110676933Y-111382133D01*
X110676933Y-111282133D01*
X110710267Y-111215466D01*
X110743600Y-111182133D01*
X110810267Y-111148800D01*
X110976933Y-111148800D01*
X111043600Y-111182133D01*
X111076933Y-111215466D01*
X111110267Y-111282133D01*
X111110267Y-111482133D01*
X111076933Y-111548800D01*
X111043600Y-111582133D01*
X101442400Y-111688466D02*
X101475733Y-111721800D01*
X101509067Y-111821800D01*
X101509067Y-111888466D01*
X101475733Y-111988466D01*
X101409067Y-112055133D01*
X101342400Y-112088466D01*
X101209067Y-112121800D01*
X101109067Y-112121800D01*
X100975733Y-112088466D01*
X100909067Y-112055133D01*
X100842400Y-111988466D01*
X100809067Y-111888466D01*
X100809067Y-111821800D01*
X100842400Y-111721800D01*
X100875733Y-111688466D01*
X101042400Y-111088466D02*
X101509067Y-111088466D01*
X100775733Y-111255133D02*
X101275733Y-111421800D01*
X101275733Y-110988466D01*
X110602134Y-123313200D02*
X110568800Y-123346533D01*
X110468800Y-123379867D01*
X110402134Y-123379867D01*
X110302134Y-123346533D01*
X110235467Y-123279867D01*
X110202134Y-123213200D01*
X110168800Y-123079867D01*
X110168800Y-122979867D01*
X110202134Y-122846533D01*
X110235467Y-122779867D01*
X110302134Y-122713200D01*
X110402134Y-122679867D01*
X110468800Y-122679867D01*
X110568800Y-122713200D01*
X110602134Y-122746533D01*
X111235467Y-122679867D02*
X110902134Y-122679867D01*
X110868800Y-123013200D01*
X110902134Y-122979867D01*
X110968800Y-122946533D01*
X111135467Y-122946533D01*
X111202134Y-122979867D01*
X111235467Y-123013200D01*
X111268800Y-123079867D01*
X111268800Y-123246533D01*
X111235467Y-123313200D01*
X111202134Y-123346533D01*
X111135467Y-123379867D01*
X110968800Y-123379867D01*
X110902134Y-123346533D01*
X110868800Y-123313200D01*
X108874934Y-123338600D02*
X108841600Y-123371933D01*
X108741600Y-123405267D01*
X108674934Y-123405267D01*
X108574934Y-123371933D01*
X108508267Y-123305267D01*
X108474934Y-123238600D01*
X108441600Y-123105267D01*
X108441600Y-123005267D01*
X108474934Y-122871933D01*
X108508267Y-122805267D01*
X108574934Y-122738600D01*
X108674934Y-122705267D01*
X108741600Y-122705267D01*
X108841600Y-122738600D01*
X108874934Y-122771933D01*
X109474934Y-122705267D02*
X109341600Y-122705267D01*
X109274934Y-122738600D01*
X109241600Y-122771933D01*
X109174934Y-122871933D01*
X109141600Y-123005267D01*
X109141600Y-123271933D01*
X109174934Y-123338600D01*
X109208267Y-123371933D01*
X109274934Y-123405267D01*
X109408267Y-123405267D01*
X109474934Y-123371933D01*
X109508267Y-123338600D01*
X109541600Y-123271933D01*
X109541600Y-123105267D01*
X109508267Y-123038600D01*
X109474934Y-123005267D01*
X109408267Y-122971933D01*
X109274934Y-122971933D01*
X109208267Y-123005267D01*
X109174934Y-123038600D01*
X109141600Y-123105267D01*
M02*
