G04 #@! TF.FileFunction,Legend,Bot*
%FSLAX46Y46*%
G04 Gerber Fmt 4.6, Leading zero omitted, Abs format (unit mm)*
G04 Created by KiCad (PCBNEW 4.0.2-stable) date 6/22/2017 3:55:45 PM*
%MOMM*%
G01*
G04 APERTURE LIST*
%ADD10C,0.100000*%
%ADD11C,0.150000*%
%ADD12C,0.300000*%
%ADD13C,0.010000*%
G04 APERTURE END LIST*
D10*
X112845657Y-124280181D02*
X112512324Y-125280181D01*
X112178990Y-124280181D01*
X111845657Y-125280181D02*
X111845657Y-124280181D01*
X111369467Y-125280181D02*
X111369467Y-124280181D01*
X110798038Y-125280181D01*
X110798038Y-124280181D01*
X109559943Y-125280181D02*
X109559943Y-124280181D01*
X109226609Y-124994467D01*
X108893276Y-124280181D01*
X108893276Y-125280181D01*
X107988514Y-125280181D02*
X107988514Y-124756371D01*
X108036133Y-124661133D01*
X108131371Y-124613514D01*
X108321848Y-124613514D01*
X108417086Y-124661133D01*
X107988514Y-125232562D02*
X108083752Y-125280181D01*
X108321848Y-125280181D01*
X108417086Y-125232562D01*
X108464705Y-125137324D01*
X108464705Y-125042086D01*
X108417086Y-124946848D01*
X108321848Y-124899229D01*
X108083752Y-124899229D01*
X107988514Y-124851610D01*
X107607562Y-125280181D02*
X107083752Y-124613514D01*
X107607562Y-124613514D02*
X107083752Y-125280181D01*
X106702800Y-125184943D02*
X106655181Y-125232562D01*
X106702800Y-125280181D01*
X106750419Y-125232562D01*
X106702800Y-125184943D01*
X106702800Y-125280181D01*
X106702800Y-124661133D02*
X106655181Y-124708752D01*
X106702800Y-124756371D01*
X106750419Y-124708752D01*
X106702800Y-124661133D01*
X106702800Y-124756371D01*
X111798038Y-126113514D02*
X111798038Y-126780181D01*
X112036134Y-125732562D02*
X112274229Y-126446848D01*
X111655181Y-126446848D01*
X111083753Y-125780181D02*
X110988514Y-125780181D01*
X110893276Y-125827800D01*
X110845657Y-125875419D01*
X110798038Y-125970657D01*
X110750419Y-126161133D01*
X110750419Y-126399229D01*
X110798038Y-126589705D01*
X110845657Y-126684943D01*
X110893276Y-126732562D01*
X110988514Y-126780181D01*
X111083753Y-126780181D01*
X111178991Y-126732562D01*
X111226610Y-126684943D01*
X111274229Y-126589705D01*
X111321848Y-126399229D01*
X111321848Y-126161133D01*
X111274229Y-125970657D01*
X111226610Y-125875419D01*
X111178991Y-125827800D01*
X111083753Y-125780181D01*
X110464705Y-125780181D02*
X110131372Y-126780181D01*
X109798038Y-125780181D01*
X108702800Y-126780181D02*
X108702800Y-125780181D01*
X108464705Y-125780181D01*
X108321847Y-125827800D01*
X108226609Y-125923038D01*
X108178990Y-126018276D01*
X108131371Y-126208752D01*
X108131371Y-126351610D01*
X108178990Y-126542086D01*
X108226609Y-126637324D01*
X108321847Y-126732562D01*
X108464705Y-126780181D01*
X108702800Y-126780181D01*
X107131371Y-126684943D02*
X107178990Y-126732562D01*
X107321847Y-126780181D01*
X107417085Y-126780181D01*
X107559943Y-126732562D01*
X107655181Y-126637324D01*
X107702800Y-126542086D01*
X107750419Y-126351610D01*
X107750419Y-126208752D01*
X107702800Y-126018276D01*
X107655181Y-125923038D01*
X107559943Y-125827800D01*
X107417085Y-125780181D01*
X107321847Y-125780181D01*
X107178990Y-125827800D01*
X107131371Y-125875419D01*
D11*
X118244152Y-121000981D02*
X118720343Y-121000981D01*
X118720343Y-120000981D01*
X117910819Y-121000981D02*
X117910819Y-120000981D01*
X117339390Y-121000981D01*
X117339390Y-120000981D01*
X116910819Y-120096219D02*
X116863200Y-120048600D01*
X116767962Y-120000981D01*
X116529866Y-120000981D01*
X116434628Y-120048600D01*
X116387009Y-120096219D01*
X116339390Y-120191457D01*
X116339390Y-120286695D01*
X116387009Y-120429552D01*
X116958438Y-121000981D01*
X116339390Y-121000981D01*
X115434628Y-120000981D02*
X115910819Y-120000981D01*
X115958438Y-120477171D01*
X115910819Y-120429552D01*
X115815581Y-120381933D01*
X115577485Y-120381933D01*
X115482247Y-120429552D01*
X115434628Y-120477171D01*
X115387009Y-120572410D01*
X115387009Y-120810505D01*
X115434628Y-120905743D01*
X115482247Y-120953362D01*
X115577485Y-121000981D01*
X115815581Y-121000981D01*
X115910819Y-120953362D01*
X115958438Y-120905743D01*
X114529866Y-120334314D02*
X114529866Y-121000981D01*
X114767962Y-119953362D02*
X115006057Y-120667648D01*
X114387009Y-120667648D01*
X113577485Y-120334314D02*
X113577485Y-121000981D01*
X113815581Y-119953362D02*
X114053676Y-120667648D01*
X113434628Y-120667648D01*
X113291771Y-121096219D02*
X112529866Y-121096219D01*
X112339390Y-120096219D02*
X112291771Y-120048600D01*
X112196533Y-120000981D01*
X111958437Y-120000981D01*
X111863199Y-120048600D01*
X111815580Y-120096219D01*
X111767961Y-120191457D01*
X111767961Y-120286695D01*
X111815580Y-120429552D01*
X112387009Y-121000981D01*
X111767961Y-121000981D01*
X110910818Y-120953362D02*
X111006056Y-121000981D01*
X111196533Y-121000981D01*
X111291771Y-120953362D01*
X111339390Y-120905743D01*
X111387009Y-120810505D01*
X111387009Y-120524790D01*
X111339390Y-120429552D01*
X111291771Y-120381933D01*
X111196533Y-120334314D01*
X111006056Y-120334314D01*
X110910818Y-120381933D01*
X110482247Y-121000981D02*
X110482247Y-120000981D01*
X110053675Y-121000981D02*
X110053675Y-120477171D01*
X110101294Y-120381933D01*
X110196532Y-120334314D01*
X110339390Y-120334314D01*
X110434628Y-120381933D01*
X110482247Y-120429552D01*
X109815580Y-121096219D02*
X109053675Y-121096219D01*
X108244151Y-120905743D02*
X108291770Y-120953362D01*
X108434627Y-121000981D01*
X108529865Y-121000981D01*
X108672723Y-120953362D01*
X108767961Y-120858124D01*
X108815580Y-120762886D01*
X108863199Y-120572410D01*
X108863199Y-120429552D01*
X108815580Y-120239076D01*
X108767961Y-120143838D01*
X108672723Y-120048600D01*
X108529865Y-120000981D01*
X108434627Y-120000981D01*
X108291770Y-120048600D01*
X108244151Y-120096219D01*
X107910818Y-120000981D02*
X107672723Y-121000981D01*
X107482246Y-120286695D01*
X107291770Y-121000981D01*
X107053675Y-120000981D01*
X106767961Y-120000981D02*
X106529866Y-121000981D01*
X106339389Y-120286695D01*
X106148913Y-121000981D01*
X105910818Y-120000981D01*
X104910818Y-120000981D02*
X104577485Y-121000981D01*
X104244151Y-120000981D01*
X103387008Y-121000981D02*
X103958437Y-121000981D01*
X103672723Y-121000981D02*
X103672723Y-120000981D01*
X103767961Y-120143838D01*
X103863199Y-120239076D01*
X103958437Y-120286695D01*
X102958437Y-120905743D02*
X102910818Y-120953362D01*
X102958437Y-121000981D01*
X103006056Y-120953362D01*
X102958437Y-120905743D01*
X102958437Y-121000981D01*
X102291771Y-120000981D02*
X102196532Y-120000981D01*
X102101294Y-120048600D01*
X102053675Y-120096219D01*
X102006056Y-120191457D01*
X101958437Y-120381933D01*
X101958437Y-120620029D01*
X102006056Y-120810505D01*
X102053675Y-120905743D01*
X102101294Y-120953362D01*
X102196532Y-121000981D01*
X102291771Y-121000981D01*
X102387009Y-120953362D01*
X102434628Y-120905743D01*
X102482247Y-120810505D01*
X102529866Y-120620029D01*
X102529866Y-120381933D01*
X102482247Y-120191457D01*
X102434628Y-120096219D01*
X102387009Y-120048600D01*
X102291771Y-120000981D01*
X119423497Y-118705581D02*
X118852068Y-118705581D01*
X119137783Y-119705581D02*
X119137783Y-118705581D01*
X118613973Y-119038914D02*
X118423497Y-119705581D01*
X118233020Y-119229390D01*
X118042544Y-119705581D01*
X117852068Y-119038914D01*
X117328259Y-119705581D02*
X117423497Y-119657962D01*
X117471116Y-119610343D01*
X117518735Y-119515105D01*
X117518735Y-119229390D01*
X117471116Y-119134152D01*
X117423497Y-119086533D01*
X117328259Y-119038914D01*
X117185401Y-119038914D01*
X117090163Y-119086533D01*
X117042544Y-119134152D01*
X116994925Y-119229390D01*
X116994925Y-119515105D01*
X117042544Y-119610343D01*
X117090163Y-119657962D01*
X117185401Y-119705581D01*
X117328259Y-119705581D01*
X115375877Y-119657962D02*
X115471115Y-119705581D01*
X115661592Y-119705581D01*
X115756830Y-119657962D01*
X115804449Y-119610343D01*
X115852068Y-119515105D01*
X115852068Y-119229390D01*
X115804449Y-119134152D01*
X115756830Y-119086533D01*
X115661592Y-119038914D01*
X115471115Y-119038914D01*
X115375877Y-119086533D01*
X114947306Y-119705581D02*
X114947306Y-118705581D01*
X114518734Y-119705581D02*
X114518734Y-119181771D01*
X114566353Y-119086533D01*
X114661591Y-119038914D01*
X114804449Y-119038914D01*
X114899687Y-119086533D01*
X114947306Y-119134152D01*
X113613972Y-119705581D02*
X113613972Y-119181771D01*
X113661591Y-119086533D01*
X113756829Y-119038914D01*
X113947306Y-119038914D01*
X114042544Y-119086533D01*
X113613972Y-119657962D02*
X113709210Y-119705581D01*
X113947306Y-119705581D01*
X114042544Y-119657962D01*
X114090163Y-119562724D01*
X114090163Y-119467486D01*
X114042544Y-119372248D01*
X113947306Y-119324629D01*
X113709210Y-119324629D01*
X113613972Y-119277010D01*
X113137782Y-119038914D02*
X113137782Y-119705581D01*
X113137782Y-119134152D02*
X113090163Y-119086533D01*
X112994925Y-119038914D01*
X112852067Y-119038914D01*
X112756829Y-119086533D01*
X112709210Y-119181771D01*
X112709210Y-119705581D01*
X112233020Y-119038914D02*
X112233020Y-119705581D01*
X112233020Y-119134152D02*
X112185401Y-119086533D01*
X112090163Y-119038914D01*
X111947305Y-119038914D01*
X111852067Y-119086533D01*
X111804448Y-119181771D01*
X111804448Y-119705581D01*
X110947305Y-119657962D02*
X111042543Y-119705581D01*
X111233020Y-119705581D01*
X111328258Y-119657962D01*
X111375877Y-119562724D01*
X111375877Y-119181771D01*
X111328258Y-119086533D01*
X111233020Y-119038914D01*
X111042543Y-119038914D01*
X110947305Y-119086533D01*
X110899686Y-119181771D01*
X110899686Y-119277010D01*
X111375877Y-119372248D01*
X110328258Y-119705581D02*
X110423496Y-119657962D01*
X110471115Y-119562724D01*
X110471115Y-118705581D01*
X108709209Y-119705581D02*
X109185400Y-119705581D01*
X109185400Y-118705581D01*
X108375876Y-119181771D02*
X108042542Y-119181771D01*
X107899685Y-119705581D02*
X108375876Y-119705581D01*
X108375876Y-118705581D01*
X107899685Y-118705581D01*
X107471114Y-119705581D02*
X107471114Y-118705581D01*
X107233019Y-118705581D01*
X107090161Y-118753200D01*
X106994923Y-118848438D01*
X106947304Y-118943676D01*
X106899685Y-119134152D01*
X106899685Y-119277010D01*
X106947304Y-119467486D01*
X106994923Y-119562724D01*
X107090161Y-119657962D01*
X107233019Y-119705581D01*
X107471114Y-119705581D01*
X105709209Y-119705581D02*
X105709209Y-118705581D01*
X105471114Y-118705581D01*
X105328256Y-118753200D01*
X105233018Y-118848438D01*
X105185399Y-118943676D01*
X105137780Y-119134152D01*
X105137780Y-119277010D01*
X105185399Y-119467486D01*
X105233018Y-119562724D01*
X105328256Y-119657962D01*
X105471114Y-119705581D01*
X105709209Y-119705581D01*
X104709209Y-119705581D02*
X104709209Y-119038914D01*
X104709209Y-119229390D02*
X104661590Y-119134152D01*
X104613971Y-119086533D01*
X104518733Y-119038914D01*
X104423494Y-119038914D01*
X104090161Y-119705581D02*
X104090161Y-119038914D01*
X104090161Y-118705581D02*
X104137780Y-118753200D01*
X104090161Y-118800819D01*
X104042542Y-118753200D01*
X104090161Y-118705581D01*
X104090161Y-118800819D01*
X103709209Y-119038914D02*
X103471114Y-119705581D01*
X103233018Y-119038914D01*
X102471113Y-119657962D02*
X102566351Y-119705581D01*
X102756828Y-119705581D01*
X102852066Y-119657962D01*
X102899685Y-119562724D01*
X102899685Y-119181771D01*
X102852066Y-119086533D01*
X102756828Y-119038914D01*
X102566351Y-119038914D01*
X102471113Y-119086533D01*
X102423494Y-119181771D01*
X102423494Y-119277010D01*
X102899685Y-119372248D01*
X101994923Y-119705581D02*
X101994923Y-119038914D01*
X101994923Y-119229390D02*
X101947304Y-119134152D01*
X101899685Y-119086533D01*
X101804447Y-119038914D01*
X101709208Y-119038914D01*
X106806914Y-104821181D02*
X107283105Y-104821181D01*
X107283105Y-103821181D01*
X106473581Y-104297371D02*
X106140247Y-104297371D01*
X105997390Y-104821181D02*
X106473581Y-104821181D01*
X106473581Y-103821181D01*
X105997390Y-103821181D01*
X105568819Y-104821181D02*
X105568819Y-103821181D01*
X105330724Y-103821181D01*
X105187866Y-103868800D01*
X105092628Y-103964038D01*
X105045009Y-104059276D01*
X104997390Y-104249752D01*
X104997390Y-104392610D01*
X105045009Y-104583086D01*
X105092628Y-104678324D01*
X105187866Y-104773562D01*
X105330724Y-104821181D01*
X105568819Y-104821181D01*
X103616438Y-103821181D02*
X103425961Y-103821181D01*
X103330723Y-103868800D01*
X103235485Y-103964038D01*
X103187866Y-104154514D01*
X103187866Y-104487848D01*
X103235485Y-104678324D01*
X103330723Y-104773562D01*
X103425961Y-104821181D01*
X103616438Y-104821181D01*
X103711676Y-104773562D01*
X103806914Y-104678324D01*
X103854533Y-104487848D01*
X103854533Y-104154514D01*
X103806914Y-103964038D01*
X103711676Y-103868800D01*
X103616438Y-103821181D01*
X102330723Y-104154514D02*
X102330723Y-104821181D01*
X102759295Y-104154514D02*
X102759295Y-104678324D01*
X102711676Y-104773562D01*
X102616438Y-104821181D01*
X102473580Y-104821181D01*
X102378342Y-104773562D01*
X102330723Y-104725943D01*
X101997390Y-104154514D02*
X101616438Y-104154514D01*
X101854533Y-103821181D02*
X101854533Y-104678324D01*
X101806914Y-104773562D01*
X101711676Y-104821181D01*
X101616438Y-104821181D01*
X119840295Y-104592581D02*
X119840295Y-103592581D01*
X119268866Y-104592581D01*
X119268866Y-103592581D01*
X118935533Y-103592581D02*
X118364104Y-103592581D01*
X118649819Y-104592581D02*
X118649819Y-103592581D01*
X117459342Y-104497343D02*
X117506961Y-104544962D01*
X117649818Y-104592581D01*
X117745056Y-104592581D01*
X117887914Y-104544962D01*
X117983152Y-104449724D01*
X118030771Y-104354486D01*
X118078390Y-104164010D01*
X118078390Y-104021152D01*
X118030771Y-103830676D01*
X117983152Y-103735438D01*
X117887914Y-103640200D01*
X117745056Y-103592581D01*
X117649818Y-103592581D01*
X117506961Y-103640200D01*
X117459342Y-103687819D01*
X116268866Y-104592581D02*
X116268866Y-103592581D01*
X115792676Y-103925914D02*
X115792676Y-104592581D01*
X115792676Y-104021152D02*
X115745057Y-103973533D01*
X115649819Y-103925914D01*
X115506961Y-103925914D01*
X115411723Y-103973533D01*
X115364104Y-104068771D01*
X115364104Y-104592581D01*
D12*
X102705028Y-123627543D02*
X101562171Y-123627543D01*
X102133600Y-124198971D02*
X102133600Y-123056114D01*
X104331543Y-122897400D02*
X104474400Y-122825971D01*
X104688686Y-122825971D01*
X104902971Y-122897400D01*
X105045829Y-123040257D01*
X105117257Y-123183114D01*
X105188686Y-123468829D01*
X105188686Y-123683114D01*
X105117257Y-123968829D01*
X105045829Y-124111686D01*
X104902971Y-124254543D01*
X104688686Y-124325971D01*
X104545829Y-124325971D01*
X104331543Y-124254543D01*
X104260114Y-124183114D01*
X104260114Y-123683114D01*
X104545829Y-123683114D01*
D11*
X105465533Y-122347181D02*
X105465533Y-121347181D01*
X105227438Y-121347181D01*
X105084580Y-121394800D01*
X104989342Y-121490038D01*
X104941723Y-121585276D01*
X104894104Y-121775752D01*
X104894104Y-121918610D01*
X104941723Y-122109086D01*
X104989342Y-122204324D01*
X105084580Y-122299562D01*
X105227438Y-122347181D01*
X105465533Y-122347181D01*
X103894104Y-122251943D02*
X103941723Y-122299562D01*
X104084580Y-122347181D01*
X104179818Y-122347181D01*
X104322676Y-122299562D01*
X104417914Y-122204324D01*
X104465533Y-122109086D01*
X104513152Y-121918610D01*
X104513152Y-121775752D01*
X104465533Y-121585276D01*
X104417914Y-121490038D01*
X104322676Y-121394800D01*
X104179818Y-121347181D01*
X104084580Y-121347181D01*
X103941723Y-121394800D01*
X103894104Y-121442419D01*
X102703628Y-122347181D02*
X102703628Y-121347181D01*
X102227438Y-121680514D02*
X102227438Y-122347181D01*
X102227438Y-121775752D02*
X102179819Y-121728133D01*
X102084581Y-121680514D01*
X101941723Y-121680514D01*
X101846485Y-121728133D01*
X101798866Y-121823371D01*
X101798866Y-122347181D01*
D12*
X119520743Y-122973600D02*
X119663600Y-122902171D01*
X119877886Y-122902171D01*
X120092171Y-122973600D01*
X120235029Y-123116457D01*
X120306457Y-123259314D01*
X120377886Y-123545029D01*
X120377886Y-123759314D01*
X120306457Y-124045029D01*
X120235029Y-124187886D01*
X120092171Y-124330743D01*
X119877886Y-124402171D01*
X119735029Y-124402171D01*
X119520743Y-124330743D01*
X119449314Y-124259314D01*
X119449314Y-123759314D01*
X119735029Y-123759314D01*
X117624371Y-123070429D02*
X117552942Y-122999000D01*
X117410085Y-122927571D01*
X117052942Y-122927571D01*
X116910085Y-122999000D01*
X116838656Y-123070429D01*
X116767228Y-123213286D01*
X116767228Y-123356143D01*
X116838656Y-123570429D01*
X117695799Y-124427571D01*
X116767228Y-124427571D01*
X114252628Y-124325971D02*
X115109771Y-124325971D01*
X114681199Y-124325971D02*
X114681199Y-122825971D01*
X114824056Y-123040257D01*
X114966914Y-123183114D01*
X115109771Y-123254543D01*
D11*
X120624371Y-122474181D02*
X120624371Y-121474181D01*
X120386276Y-121474181D01*
X120243418Y-121521800D01*
X120148180Y-121617038D01*
X120100561Y-121712276D01*
X120052942Y-121902752D01*
X120052942Y-122045610D01*
X120100561Y-122236086D01*
X120148180Y-122331324D01*
X120243418Y-122426562D01*
X120386276Y-122474181D01*
X120624371Y-122474181D01*
X119624371Y-122474181D02*
X119624371Y-121807514D01*
X119624371Y-121474181D02*
X119671990Y-121521800D01*
X119624371Y-121569419D01*
X119576752Y-121521800D01*
X119624371Y-121474181D01*
X119624371Y-121569419D01*
X119148181Y-122474181D02*
X119148181Y-121807514D01*
X119148181Y-121902752D02*
X119100562Y-121855133D01*
X119005324Y-121807514D01*
X118862466Y-121807514D01*
X118767228Y-121855133D01*
X118719609Y-121950371D01*
X118719609Y-122474181D01*
X118719609Y-121950371D02*
X118671990Y-121855133D01*
X118576752Y-121807514D01*
X118433895Y-121807514D01*
X118338657Y-121855133D01*
X118291038Y-121950371D01*
X118291038Y-122474181D01*
X117052943Y-122474181D02*
X117052943Y-121474181D01*
X116576753Y-121807514D02*
X116576753Y-122474181D01*
X116576753Y-121902752D02*
X116529134Y-121855133D01*
X116433896Y-121807514D01*
X116291038Y-121807514D01*
X116195800Y-121855133D01*
X116148181Y-121950371D01*
X116148181Y-122474181D01*
X115671991Y-121807514D02*
X115671991Y-122807514D01*
X115671991Y-121855133D02*
X115576753Y-121807514D01*
X115386276Y-121807514D01*
X115291038Y-121855133D01*
X115243419Y-121902752D01*
X115195800Y-121997990D01*
X115195800Y-122283705D01*
X115243419Y-122378943D01*
X115291038Y-122426562D01*
X115386276Y-122474181D01*
X115576753Y-122474181D01*
X115671991Y-122426562D01*
X114338657Y-121807514D02*
X114338657Y-122474181D01*
X114767229Y-121807514D02*
X114767229Y-122331324D01*
X114719610Y-122426562D01*
X114624372Y-122474181D01*
X114481514Y-122474181D01*
X114386276Y-122426562D01*
X114338657Y-122378943D01*
X114005324Y-121807514D02*
X113624372Y-121807514D01*
X113862467Y-121474181D02*
X113862467Y-122331324D01*
X113814848Y-122426562D01*
X113719610Y-122474181D01*
X113624372Y-122474181D01*
X100000000Y-128000000D02*
X100000000Y-100000000D01*
X122000000Y-128000000D02*
X100000000Y-128000000D01*
X122000000Y-100000000D02*
X122000000Y-128000000D01*
X100000000Y-100000000D02*
X122000000Y-100000000D01*
X106923800Y-105771400D02*
X108123800Y-105771400D01*
X106923800Y-110971400D02*
X108123800Y-110971400D01*
X116550400Y-105796800D02*
X117750400Y-105796800D01*
X116550400Y-110996800D02*
X117750400Y-110996800D01*
D13*
G36*
X106489656Y-117058318D02*
X106434199Y-117085968D01*
X106385252Y-117136880D01*
X106371771Y-117155738D01*
X106357086Y-117180415D01*
X106347558Y-117207216D01*
X106342107Y-117242987D01*
X106339653Y-117294569D01*
X106339114Y-117362667D01*
X106341548Y-117455988D01*
X106350006Y-117526057D01*
X106366226Y-117578331D01*
X106391946Y-117618269D01*
X106428903Y-117651329D01*
X106431618Y-117653286D01*
X106468040Y-117673308D01*
X106511898Y-117683215D01*
X106567676Y-117685657D01*
X106658352Y-117685657D01*
X106658390Y-117773683D01*
X106659234Y-117822708D01*
X106664376Y-117851465D01*
X106677813Y-117868711D01*
X106703542Y-117883208D01*
X106709721Y-117886169D01*
X106738636Y-117900048D01*
X106761024Y-117908814D01*
X106777671Y-117909571D01*
X106789364Y-117899423D01*
X106796890Y-117875473D01*
X106801034Y-117834826D01*
X106802585Y-117774586D01*
X106802329Y-117691855D01*
X106801051Y-117583739D01*
X106800652Y-117551400D01*
X106799215Y-117439924D01*
X106797928Y-117367003D01*
X106658429Y-117367003D01*
X106657645Y-117428899D01*
X106654160Y-117469397D01*
X106646276Y-117496108D01*
X106632295Y-117516644D01*
X106622803Y-117526660D01*
X106583996Y-117555967D01*
X106549637Y-117558352D01*
X106514184Y-117534150D01*
X106513286Y-117533257D01*
X106498861Y-117514553D01*
X106490087Y-117489132D01*
X106485661Y-117449984D01*
X106484282Y-117390097D01*
X106484257Y-117376830D01*
X106487588Y-117294301D01*
X106498431Y-117237091D01*
X106518060Y-117202166D01*
X106547750Y-117186494D01*
X106564909Y-117184914D01*
X106605634Y-117192326D01*
X106633568Y-117216730D01*
X106650383Y-117261380D01*
X106657750Y-117329530D01*
X106658429Y-117367003D01*
X106797928Y-117367003D01*
X106797692Y-117353645D01*
X106795723Y-117288733D01*
X106792950Y-117241358D01*
X106789012Y-117207690D01*
X106783551Y-117183898D01*
X106776208Y-117166153D01*
X106766623Y-117150624D01*
X106762513Y-117144781D01*
X106707995Y-117089585D01*
X106639064Y-117058290D01*
X106559328Y-117049565D01*
X106489656Y-117058318D01*
X106489656Y-117058318D01*
G37*
X106489656Y-117058318D02*
X106434199Y-117085968D01*
X106385252Y-117136880D01*
X106371771Y-117155738D01*
X106357086Y-117180415D01*
X106347558Y-117207216D01*
X106342107Y-117242987D01*
X106339653Y-117294569D01*
X106339114Y-117362667D01*
X106341548Y-117455988D01*
X106350006Y-117526057D01*
X106366226Y-117578331D01*
X106391946Y-117618269D01*
X106428903Y-117651329D01*
X106431618Y-117653286D01*
X106468040Y-117673308D01*
X106511898Y-117683215D01*
X106567676Y-117685657D01*
X106658352Y-117685657D01*
X106658390Y-117773683D01*
X106659234Y-117822708D01*
X106664376Y-117851465D01*
X106677813Y-117868711D01*
X106703542Y-117883208D01*
X106709721Y-117886169D01*
X106738636Y-117900048D01*
X106761024Y-117908814D01*
X106777671Y-117909571D01*
X106789364Y-117899423D01*
X106796890Y-117875473D01*
X106801034Y-117834826D01*
X106802585Y-117774586D01*
X106802329Y-117691855D01*
X106801051Y-117583739D01*
X106800652Y-117551400D01*
X106799215Y-117439924D01*
X106797928Y-117367003D01*
X106658429Y-117367003D01*
X106657645Y-117428899D01*
X106654160Y-117469397D01*
X106646276Y-117496108D01*
X106632295Y-117516644D01*
X106622803Y-117526660D01*
X106583996Y-117555967D01*
X106549637Y-117558352D01*
X106514184Y-117534150D01*
X106513286Y-117533257D01*
X106498861Y-117514553D01*
X106490087Y-117489132D01*
X106485661Y-117449984D01*
X106484282Y-117390097D01*
X106484257Y-117376830D01*
X106487588Y-117294301D01*
X106498431Y-117237091D01*
X106518060Y-117202166D01*
X106547750Y-117186494D01*
X106564909Y-117184914D01*
X106605634Y-117192326D01*
X106633568Y-117216730D01*
X106650383Y-117261380D01*
X106657750Y-117329530D01*
X106658429Y-117367003D01*
X106797928Y-117367003D01*
X106797692Y-117353645D01*
X106795723Y-117288733D01*
X106792950Y-117241358D01*
X106789012Y-117207690D01*
X106783551Y-117183898D01*
X106776208Y-117166153D01*
X106766623Y-117150624D01*
X106762513Y-117144781D01*
X106707995Y-117089585D01*
X106639064Y-117058290D01*
X106559328Y-117049565D01*
X106489656Y-117058318D01*
G36*
X105373307Y-117066180D02*
X105326728Y-117093123D01*
X105294343Y-117119866D01*
X105270658Y-117147884D01*
X105254341Y-117182148D01*
X105244061Y-117227627D01*
X105238486Y-117289292D01*
X105236284Y-117372111D01*
X105236029Y-117431646D01*
X105236029Y-117650791D01*
X105297714Y-117678444D01*
X105359400Y-117706097D01*
X105366657Y-117466070D01*
X105369656Y-117376428D01*
X105372802Y-117311362D01*
X105376699Y-117266426D01*
X105381953Y-117237170D01*
X105389169Y-117219148D01*
X105398950Y-117207911D01*
X105402088Y-117205479D01*
X105449639Y-117186483D01*
X105497703Y-117194000D01*
X105526314Y-117213943D01*
X105537953Y-117228075D01*
X105546009Y-117246620D01*
X105551129Y-117274734D01*
X105553959Y-117317573D01*
X105555144Y-117380295D01*
X105555343Y-117445661D01*
X105555382Y-117527668D01*
X105556786Y-117585716D01*
X105561486Y-117624865D01*
X105571413Y-117650180D01*
X105588497Y-117666723D01*
X105614668Y-117679556D01*
X105649625Y-117692891D01*
X105687804Y-117707407D01*
X105683259Y-117449789D01*
X105681429Y-117356919D01*
X105679288Y-117288289D01*
X105676219Y-117239111D01*
X105671606Y-117204598D01*
X105664832Y-117179962D01*
X105655281Y-117160416D01*
X105643766Y-117143170D01*
X105588210Y-117088080D01*
X105520420Y-117056222D01*
X105446687Y-117048591D01*
X105373307Y-117066180D01*
X105373307Y-117066180D01*
G37*
X105373307Y-117066180D02*
X105326728Y-117093123D01*
X105294343Y-117119866D01*
X105270658Y-117147884D01*
X105254341Y-117182148D01*
X105244061Y-117227627D01*
X105238486Y-117289292D01*
X105236284Y-117372111D01*
X105236029Y-117431646D01*
X105236029Y-117650791D01*
X105297714Y-117678444D01*
X105359400Y-117706097D01*
X105366657Y-117466070D01*
X105369656Y-117376428D01*
X105372802Y-117311362D01*
X105376699Y-117266426D01*
X105381953Y-117237170D01*
X105389169Y-117219148D01*
X105398950Y-117207911D01*
X105402088Y-117205479D01*
X105449639Y-117186483D01*
X105497703Y-117194000D01*
X105526314Y-117213943D01*
X105537953Y-117228075D01*
X105546009Y-117246620D01*
X105551129Y-117274734D01*
X105553959Y-117317573D01*
X105555144Y-117380295D01*
X105555343Y-117445661D01*
X105555382Y-117527668D01*
X105556786Y-117585716D01*
X105561486Y-117624865D01*
X105571413Y-117650180D01*
X105588497Y-117666723D01*
X105614668Y-117679556D01*
X105649625Y-117692891D01*
X105687804Y-117707407D01*
X105683259Y-117449789D01*
X105681429Y-117356919D01*
X105679288Y-117288289D01*
X105676219Y-117239111D01*
X105671606Y-117204598D01*
X105664832Y-117179962D01*
X105655281Y-117160416D01*
X105643766Y-117143170D01*
X105588210Y-117088080D01*
X105520420Y-117056222D01*
X105446687Y-117048591D01*
X105373307Y-117066180D01*
G36*
X107048285Y-117060362D02*
X106980255Y-117096133D01*
X106930049Y-117153701D01*
X106912215Y-117190712D01*
X106898337Y-117246282D01*
X106891233Y-117316496D01*
X106890560Y-117393127D01*
X106895973Y-117467952D01*
X106907130Y-117532742D01*
X106923686Y-117579273D01*
X106928774Y-117587287D01*
X106989045Y-117647107D01*
X107060631Y-117682935D01*
X107138308Y-117693420D01*
X107216852Y-117677210D01*
X107238711Y-117667492D01*
X107281278Y-117637543D01*
X107318637Y-117597833D01*
X107322168Y-117592797D01*
X107336519Y-117568524D01*
X107346006Y-117542578D01*
X107351610Y-117508422D01*
X107354314Y-117459519D01*
X107355101Y-117389335D01*
X107355114Y-117373600D01*
X107355078Y-117368592D01*
X107209971Y-117368592D01*
X107209127Y-117434830D01*
X107205804Y-117478786D01*
X107198817Y-117507179D01*
X107186984Y-117526725D01*
X107180943Y-117533257D01*
X107146214Y-117558080D01*
X107112497Y-117556948D01*
X107078405Y-117535416D01*
X107058071Y-117512429D01*
X107046029Y-117478878D01*
X107039266Y-117425969D01*
X107038802Y-117419799D01*
X107037648Y-117323913D01*
X107049712Y-117252699D01*
X107074830Y-117206594D01*
X107112840Y-117186035D01*
X107126408Y-117184914D01*
X107162036Y-117190552D01*
X107186406Y-117210086D01*
X107201307Y-117247442D01*
X107208525Y-117306550D01*
X107209971Y-117368592D01*
X107355078Y-117368592D01*
X107354574Y-117298813D01*
X107352304Y-117246559D01*
X107347332Y-117210349D01*
X107338687Y-117183699D01*
X107325395Y-117160122D01*
X107322457Y-117155738D01*
X107273087Y-117096649D01*
X107219291Y-117062347D01*
X107153798Y-117048731D01*
X107131558Y-117048065D01*
X107048285Y-117060362D01*
X107048285Y-117060362D01*
G37*
X107048285Y-117060362D02*
X106980255Y-117096133D01*
X106930049Y-117153701D01*
X106912215Y-117190712D01*
X106898337Y-117246282D01*
X106891233Y-117316496D01*
X106890560Y-117393127D01*
X106895973Y-117467952D01*
X106907130Y-117532742D01*
X106923686Y-117579273D01*
X106928774Y-117587287D01*
X106989045Y-117647107D01*
X107060631Y-117682935D01*
X107138308Y-117693420D01*
X107216852Y-117677210D01*
X107238711Y-117667492D01*
X107281278Y-117637543D01*
X107318637Y-117597833D01*
X107322168Y-117592797D01*
X107336519Y-117568524D01*
X107346006Y-117542578D01*
X107351610Y-117508422D01*
X107354314Y-117459519D01*
X107355101Y-117389335D01*
X107355114Y-117373600D01*
X107355078Y-117368592D01*
X107209971Y-117368592D01*
X107209127Y-117434830D01*
X107205804Y-117478786D01*
X107198817Y-117507179D01*
X107186984Y-117526725D01*
X107180943Y-117533257D01*
X107146214Y-117558080D01*
X107112497Y-117556948D01*
X107078405Y-117535416D01*
X107058071Y-117512429D01*
X107046029Y-117478878D01*
X107039266Y-117425969D01*
X107038802Y-117419799D01*
X107037648Y-117323913D01*
X107049712Y-117252699D01*
X107074830Y-117206594D01*
X107112840Y-117186035D01*
X107126408Y-117184914D01*
X107162036Y-117190552D01*
X107186406Y-117210086D01*
X107201307Y-117247442D01*
X107208525Y-117306550D01*
X107209971Y-117368592D01*
X107355078Y-117368592D01*
X107354574Y-117298813D01*
X107352304Y-117246559D01*
X107347332Y-117210349D01*
X107338687Y-117183699D01*
X107325395Y-117160122D01*
X107322457Y-117155738D01*
X107273087Y-117096649D01*
X107219291Y-117062347D01*
X107153798Y-117048731D01*
X107131558Y-117048065D01*
X107048285Y-117060362D01*
G36*
X105921097Y-117069639D02*
X105863873Y-117108135D01*
X105819651Y-117163735D01*
X105793233Y-117234486D01*
X105787890Y-117286562D01*
X105788497Y-117308293D01*
X105793578Y-117324931D01*
X105807545Y-117339837D01*
X105834811Y-117356373D01*
X105879788Y-117377898D01*
X105946889Y-117407774D01*
X105947229Y-117407924D01*
X106008993Y-117436213D01*
X106059641Y-117461333D01*
X106093996Y-117480579D01*
X106106882Y-117491248D01*
X106106886Y-117491334D01*
X106095528Y-117514566D01*
X106068969Y-117540174D01*
X106038477Y-117558621D01*
X106023030Y-117562286D01*
X105980885Y-117549612D01*
X105944592Y-117517871D01*
X105926883Y-117482972D01*
X105909848Y-117457245D01*
X105876478Y-117427946D01*
X105837251Y-117402635D01*
X105802644Y-117388871D01*
X105795407Y-117388114D01*
X105787261Y-117400560D01*
X105786770Y-117432372D01*
X105792757Y-117475266D01*
X105804043Y-117520958D01*
X105819450Y-117561161D01*
X105820229Y-117562722D01*
X105866596Y-117627462D01*
X105926689Y-117671497D01*
X105994935Y-117693111D01*
X106065762Y-117690585D01*
X106133596Y-117662204D01*
X106136612Y-117660208D01*
X106189973Y-117611848D01*
X106225060Y-117548752D01*
X106244478Y-117465787D01*
X106247084Y-117442478D01*
X106251699Y-117332455D01*
X106246167Y-117281148D01*
X106106886Y-117281148D01*
X106105076Y-117313153D01*
X106095178Y-117322493D01*
X106070502Y-117315505D01*
X106031605Y-117298987D01*
X105988125Y-117278281D01*
X105987044Y-117277733D01*
X105950191Y-117258349D01*
X105935400Y-117245413D01*
X105939047Y-117231851D01*
X105954405Y-117214032D01*
X105993477Y-117188245D01*
X106035554Y-117186350D01*
X106073297Y-117205117D01*
X106099366Y-117241315D01*
X106106886Y-117281148D01*
X106246167Y-117281148D01*
X106242206Y-117244427D01*
X106217850Y-117174612D01*
X106183944Y-117125702D01*
X106122747Y-117076278D01*
X106055337Y-117051759D01*
X105986520Y-117050197D01*
X105921097Y-117069639D01*
X105921097Y-117069639D01*
G37*
X105921097Y-117069639D02*
X105863873Y-117108135D01*
X105819651Y-117163735D01*
X105793233Y-117234486D01*
X105787890Y-117286562D01*
X105788497Y-117308293D01*
X105793578Y-117324931D01*
X105807545Y-117339837D01*
X105834811Y-117356373D01*
X105879788Y-117377898D01*
X105946889Y-117407774D01*
X105947229Y-117407924D01*
X106008993Y-117436213D01*
X106059641Y-117461333D01*
X106093996Y-117480579D01*
X106106882Y-117491248D01*
X106106886Y-117491334D01*
X106095528Y-117514566D01*
X106068969Y-117540174D01*
X106038477Y-117558621D01*
X106023030Y-117562286D01*
X105980885Y-117549612D01*
X105944592Y-117517871D01*
X105926883Y-117482972D01*
X105909848Y-117457245D01*
X105876478Y-117427946D01*
X105837251Y-117402635D01*
X105802644Y-117388871D01*
X105795407Y-117388114D01*
X105787261Y-117400560D01*
X105786770Y-117432372D01*
X105792757Y-117475266D01*
X105804043Y-117520958D01*
X105819450Y-117561161D01*
X105820229Y-117562722D01*
X105866596Y-117627462D01*
X105926689Y-117671497D01*
X105994935Y-117693111D01*
X106065762Y-117690585D01*
X106133596Y-117662204D01*
X106136612Y-117660208D01*
X106189973Y-117611848D01*
X106225060Y-117548752D01*
X106244478Y-117465787D01*
X106247084Y-117442478D01*
X106251699Y-117332455D01*
X106246167Y-117281148D01*
X106106886Y-117281148D01*
X106105076Y-117313153D01*
X106095178Y-117322493D01*
X106070502Y-117315505D01*
X106031605Y-117298987D01*
X105988125Y-117278281D01*
X105987044Y-117277733D01*
X105950191Y-117258349D01*
X105935400Y-117245413D01*
X105939047Y-117231851D01*
X105954405Y-117214032D01*
X105993477Y-117188245D01*
X106035554Y-117186350D01*
X106073297Y-117205117D01*
X106099366Y-117241315D01*
X106106886Y-117281148D01*
X106246167Y-117281148D01*
X106242206Y-117244427D01*
X106217850Y-117174612D01*
X106183944Y-117125702D01*
X106122747Y-117076278D01*
X106055337Y-117051759D01*
X105986520Y-117050197D01*
X105921097Y-117069639D01*
G36*
X104713514Y-116989689D02*
X104709261Y-117049013D01*
X104704375Y-117083972D01*
X104697605Y-117099220D01*
X104687698Y-117099415D01*
X104684486Y-117097595D01*
X104641756Y-117084415D01*
X104586173Y-117085185D01*
X104529663Y-117098733D01*
X104494318Y-117116261D01*
X104458079Y-117144261D01*
X104431587Y-117175949D01*
X104413401Y-117216213D01*
X104402078Y-117269943D01*
X104396178Y-117342026D01*
X104394257Y-117437351D01*
X104394223Y-117455637D01*
X104394200Y-117661046D01*
X104439909Y-117676980D01*
X104472373Y-117687820D01*
X104490185Y-117692868D01*
X104490709Y-117692914D01*
X104492463Y-117679228D01*
X104493956Y-117641476D01*
X104495074Y-117584624D01*
X104495703Y-117513634D01*
X104495800Y-117470473D01*
X104496002Y-117385373D01*
X104497042Y-117324381D01*
X104499569Y-117282577D01*
X104504236Y-117255042D01*
X104511693Y-117236856D01*
X104522589Y-117223098D01*
X104529393Y-117216473D01*
X104576128Y-117189775D01*
X104627128Y-117187775D01*
X104673399Y-117210355D01*
X104681956Y-117218507D01*
X104694507Y-117233836D01*
X104703212Y-117252018D01*
X104708769Y-117278309D01*
X104711874Y-117317962D01*
X104713224Y-117376232D01*
X104713514Y-117456573D01*
X104713514Y-117661046D01*
X104759223Y-117676980D01*
X104791687Y-117687820D01*
X104809499Y-117692868D01*
X104810023Y-117692914D01*
X104811363Y-117679023D01*
X104812572Y-117639839D01*
X104813599Y-117579100D01*
X104814398Y-117500541D01*
X104814919Y-117407898D01*
X104815114Y-117304909D01*
X104815114Y-116907742D01*
X104767943Y-116887844D01*
X104720771Y-116867947D01*
X104713514Y-116989689D01*
X104713514Y-116989689D01*
G37*
X104713514Y-116989689D02*
X104709261Y-117049013D01*
X104704375Y-117083972D01*
X104697605Y-117099220D01*
X104687698Y-117099415D01*
X104684486Y-117097595D01*
X104641756Y-117084415D01*
X104586173Y-117085185D01*
X104529663Y-117098733D01*
X104494318Y-117116261D01*
X104458079Y-117144261D01*
X104431587Y-117175949D01*
X104413401Y-117216213D01*
X104402078Y-117269943D01*
X104396178Y-117342026D01*
X104394257Y-117437351D01*
X104394223Y-117455637D01*
X104394200Y-117661046D01*
X104439909Y-117676980D01*
X104472373Y-117687820D01*
X104490185Y-117692868D01*
X104490709Y-117692914D01*
X104492463Y-117679228D01*
X104493956Y-117641476D01*
X104495074Y-117584624D01*
X104495703Y-117513634D01*
X104495800Y-117470473D01*
X104496002Y-117385373D01*
X104497042Y-117324381D01*
X104499569Y-117282577D01*
X104504236Y-117255042D01*
X104511693Y-117236856D01*
X104522589Y-117223098D01*
X104529393Y-117216473D01*
X104576128Y-117189775D01*
X104627128Y-117187775D01*
X104673399Y-117210355D01*
X104681956Y-117218507D01*
X104694507Y-117233836D01*
X104703212Y-117252018D01*
X104708769Y-117278309D01*
X104711874Y-117317962D01*
X104713224Y-117376232D01*
X104713514Y-117456573D01*
X104713514Y-117661046D01*
X104759223Y-117676980D01*
X104791687Y-117687820D01*
X104809499Y-117692868D01*
X104810023Y-117692914D01*
X104811363Y-117679023D01*
X104812572Y-117639839D01*
X104813599Y-117579100D01*
X104814398Y-117500541D01*
X104814919Y-117407898D01*
X104815114Y-117304909D01*
X104815114Y-116907742D01*
X104767943Y-116887844D01*
X104720771Y-116867947D01*
X104713514Y-116989689D01*
G36*
X104049656Y-117089368D02*
X103992784Y-117110487D01*
X103992133Y-117110893D01*
X103956960Y-117136780D01*
X103930993Y-117167033D01*
X103912730Y-117206458D01*
X103900668Y-117259862D01*
X103893304Y-117332051D01*
X103889136Y-117427832D01*
X103888771Y-117441478D01*
X103883524Y-117647242D01*
X103927684Y-117670078D01*
X103959637Y-117685510D01*
X103978930Y-117692823D01*
X103979822Y-117692914D01*
X103983161Y-117679422D01*
X103985813Y-117643026D01*
X103987444Y-117589852D01*
X103987800Y-117546793D01*
X103987808Y-117477041D01*
X103990997Y-117433237D01*
X104002112Y-117412344D01*
X104025899Y-117411325D01*
X104067104Y-117427141D01*
X104129314Y-117456215D01*
X104175059Y-117480363D01*
X104198587Y-117501313D01*
X104205504Y-117524147D01*
X104205514Y-117525277D01*
X104194101Y-117564612D01*
X104160308Y-117585862D01*
X104108591Y-117588939D01*
X104071339Y-117588406D01*
X104051697Y-117599135D01*
X104039448Y-117624905D01*
X104032398Y-117657737D01*
X104042558Y-117676366D01*
X104046383Y-117679032D01*
X104082399Y-117689740D01*
X104132834Y-117691256D01*
X104184774Y-117684159D01*
X104221578Y-117671188D01*
X104272462Y-117627985D01*
X104301386Y-117567846D01*
X104307114Y-117520862D01*
X104302743Y-117478482D01*
X104286925Y-117443888D01*
X104255603Y-117413163D01*
X104204722Y-117382390D01*
X104130224Y-117347652D01*
X104125686Y-117345688D01*
X104058579Y-117314687D01*
X104017168Y-117289262D01*
X103999419Y-117266414D01*
X104003293Y-117243145D01*
X104026757Y-117216456D01*
X104033773Y-117210314D01*
X104080770Y-117186500D01*
X104129467Y-117187503D01*
X104171878Y-117210851D01*
X104200016Y-117254075D01*
X104202631Y-117262560D01*
X104228092Y-117303708D01*
X104260399Y-117323528D01*
X104307114Y-117343170D01*
X104307114Y-117292350D01*
X104292904Y-117218482D01*
X104250725Y-117150727D01*
X104228776Y-117128061D01*
X104178883Y-117098969D01*
X104115433Y-117085800D01*
X104049656Y-117089368D01*
X104049656Y-117089368D01*
G37*
X104049656Y-117089368D02*
X103992784Y-117110487D01*
X103992133Y-117110893D01*
X103956960Y-117136780D01*
X103930993Y-117167033D01*
X103912730Y-117206458D01*
X103900668Y-117259862D01*
X103893304Y-117332051D01*
X103889136Y-117427832D01*
X103888771Y-117441478D01*
X103883524Y-117647242D01*
X103927684Y-117670078D01*
X103959637Y-117685510D01*
X103978930Y-117692823D01*
X103979822Y-117692914D01*
X103983161Y-117679422D01*
X103985813Y-117643026D01*
X103987444Y-117589852D01*
X103987800Y-117546793D01*
X103987808Y-117477041D01*
X103990997Y-117433237D01*
X104002112Y-117412344D01*
X104025899Y-117411325D01*
X104067104Y-117427141D01*
X104129314Y-117456215D01*
X104175059Y-117480363D01*
X104198587Y-117501313D01*
X104205504Y-117524147D01*
X104205514Y-117525277D01*
X104194101Y-117564612D01*
X104160308Y-117585862D01*
X104108591Y-117588939D01*
X104071339Y-117588406D01*
X104051697Y-117599135D01*
X104039448Y-117624905D01*
X104032398Y-117657737D01*
X104042558Y-117676366D01*
X104046383Y-117679032D01*
X104082399Y-117689740D01*
X104132834Y-117691256D01*
X104184774Y-117684159D01*
X104221578Y-117671188D01*
X104272462Y-117627985D01*
X104301386Y-117567846D01*
X104307114Y-117520862D01*
X104302743Y-117478482D01*
X104286925Y-117443888D01*
X104255603Y-117413163D01*
X104204722Y-117382390D01*
X104130224Y-117347652D01*
X104125686Y-117345688D01*
X104058579Y-117314687D01*
X104017168Y-117289262D01*
X103999419Y-117266414D01*
X104003293Y-117243145D01*
X104026757Y-117216456D01*
X104033773Y-117210314D01*
X104080770Y-117186500D01*
X104129467Y-117187503D01*
X104171878Y-117210851D01*
X104200016Y-117254075D01*
X104202631Y-117262560D01*
X104228092Y-117303708D01*
X104260399Y-117323528D01*
X104307114Y-117343170D01*
X104307114Y-117292350D01*
X104292904Y-117218482D01*
X104250725Y-117150727D01*
X104228776Y-117128061D01*
X104178883Y-117098969D01*
X104115433Y-117085800D01*
X104049656Y-117089368D01*
G36*
X103559474Y-117088155D02*
X103493542Y-117112484D01*
X103440127Y-117155517D01*
X103419236Y-117185809D01*
X103396461Y-117241394D01*
X103396934Y-117281586D01*
X103420838Y-117308617D01*
X103429683Y-117313213D01*
X103467870Y-117327544D01*
X103487372Y-117323872D01*
X103493978Y-117299807D01*
X103494314Y-117286514D01*
X103506408Y-117237610D01*
X103537929Y-117203399D01*
X103581741Y-117186876D01*
X103630705Y-117191034D01*
X103670506Y-117212627D01*
X103683950Y-117224944D01*
X103693479Y-117239887D01*
X103699915Y-117262475D01*
X103704083Y-117297728D01*
X103706803Y-117350666D01*
X103708898Y-117426307D01*
X103709440Y-117450257D01*
X103711419Y-117532190D01*
X103713669Y-117589855D01*
X103717043Y-117628008D01*
X103722394Y-117651404D01*
X103730576Y-117664798D01*
X103742441Y-117672945D01*
X103750038Y-117676544D01*
X103782298Y-117688852D01*
X103801289Y-117692914D01*
X103807564Y-117679348D01*
X103811394Y-117638334D01*
X103812800Y-117569399D01*
X103811802Y-117472069D01*
X103811492Y-117457057D01*
X103809299Y-117368259D01*
X103806707Y-117303419D01*
X103803018Y-117257467D01*
X103797536Y-117225335D01*
X103789565Y-117201953D01*
X103778407Y-117182252D01*
X103772570Y-117173810D01*
X103739104Y-117136457D01*
X103701673Y-117107403D01*
X103697091Y-117104867D01*
X103629974Y-117084843D01*
X103559474Y-117088155D01*
X103559474Y-117088155D01*
G37*
X103559474Y-117088155D02*
X103493542Y-117112484D01*
X103440127Y-117155517D01*
X103419236Y-117185809D01*
X103396461Y-117241394D01*
X103396934Y-117281586D01*
X103420838Y-117308617D01*
X103429683Y-117313213D01*
X103467870Y-117327544D01*
X103487372Y-117323872D01*
X103493978Y-117299807D01*
X103494314Y-117286514D01*
X103506408Y-117237610D01*
X103537929Y-117203399D01*
X103581741Y-117186876D01*
X103630705Y-117191034D01*
X103670506Y-117212627D01*
X103683950Y-117224944D01*
X103693479Y-117239887D01*
X103699915Y-117262475D01*
X103704083Y-117297728D01*
X103706803Y-117350666D01*
X103708898Y-117426307D01*
X103709440Y-117450257D01*
X103711419Y-117532190D01*
X103713669Y-117589855D01*
X103717043Y-117628008D01*
X103722394Y-117651404D01*
X103730576Y-117664798D01*
X103742441Y-117672945D01*
X103750038Y-117676544D01*
X103782298Y-117688852D01*
X103801289Y-117692914D01*
X103807564Y-117679348D01*
X103811394Y-117638334D01*
X103812800Y-117569399D01*
X103811802Y-117472069D01*
X103811492Y-117457057D01*
X103809299Y-117368259D01*
X103806707Y-117303419D01*
X103803018Y-117257467D01*
X103797536Y-117225335D01*
X103789565Y-117201953D01*
X103778407Y-117182252D01*
X103772570Y-117173810D01*
X103739104Y-117136457D01*
X103701673Y-117107403D01*
X103697091Y-117104867D01*
X103629974Y-117084843D01*
X103559474Y-117088155D01*
G36*
X102899283Y-117203758D02*
X102899467Y-117312237D01*
X102900181Y-117395687D01*
X102901725Y-117458104D01*
X102904399Y-117503485D01*
X102908506Y-117535829D01*
X102914345Y-117559133D01*
X102922218Y-117577395D01*
X102928179Y-117587818D01*
X102977545Y-117644345D01*
X103040136Y-117679777D01*
X103109387Y-117692490D01*
X103178732Y-117680863D01*
X103220025Y-117659968D01*
X103263375Y-117623822D01*
X103292919Y-117579676D01*
X103310745Y-117521862D01*
X103318937Y-117444713D01*
X103320098Y-117388114D01*
X103319942Y-117384047D01*
X103218543Y-117384047D01*
X103217924Y-117448950D01*
X103215086Y-117491914D01*
X103208560Y-117520022D01*
X103196877Y-117540353D01*
X103182917Y-117555688D01*
X103136035Y-117585290D01*
X103085699Y-117587819D01*
X103038124Y-117563105D01*
X103034421Y-117559756D01*
X103018617Y-117542335D01*
X103008707Y-117521609D01*
X103003342Y-117490762D01*
X103001172Y-117442977D01*
X103000829Y-117390148D01*
X103001573Y-117323781D01*
X103004652Y-117279506D01*
X103011339Y-117250409D01*
X103022904Y-117229573D01*
X103032387Y-117218507D01*
X103076440Y-117190598D01*
X103127176Y-117187243D01*
X103175604Y-117208559D01*
X103184950Y-117216473D01*
X103200860Y-117234047D01*
X103210790Y-117254987D01*
X103216122Y-117286182D01*
X103218237Y-117334522D01*
X103218543Y-117384047D01*
X103319942Y-117384047D01*
X103316590Y-117296968D01*
X103304674Y-117228486D01*
X103282265Y-117177000D01*
X103247276Y-117136843D01*
X103220025Y-117116261D01*
X103170493Y-117094025D01*
X103113084Y-117083704D01*
X103059718Y-117086467D01*
X103029857Y-117097612D01*
X103018139Y-117100783D01*
X103010363Y-117088957D01*
X103004935Y-117057266D01*
X103000829Y-117008993D01*
X102996333Y-116955229D01*
X102990087Y-116922882D01*
X102978724Y-116904385D01*
X102958872Y-116892170D01*
X102946400Y-116886762D01*
X102899229Y-116867001D01*
X102899283Y-117203758D01*
X102899283Y-117203758D01*
G37*
X102899283Y-117203758D02*
X102899467Y-117312237D01*
X102900181Y-117395687D01*
X102901725Y-117458104D01*
X102904399Y-117503485D01*
X102908506Y-117535829D01*
X102914345Y-117559133D01*
X102922218Y-117577395D01*
X102928179Y-117587818D01*
X102977545Y-117644345D01*
X103040136Y-117679777D01*
X103109387Y-117692490D01*
X103178732Y-117680863D01*
X103220025Y-117659968D01*
X103263375Y-117623822D01*
X103292919Y-117579676D01*
X103310745Y-117521862D01*
X103318937Y-117444713D01*
X103320098Y-117388114D01*
X103319942Y-117384047D01*
X103218543Y-117384047D01*
X103217924Y-117448950D01*
X103215086Y-117491914D01*
X103208560Y-117520022D01*
X103196877Y-117540353D01*
X103182917Y-117555688D01*
X103136035Y-117585290D01*
X103085699Y-117587819D01*
X103038124Y-117563105D01*
X103034421Y-117559756D01*
X103018617Y-117542335D01*
X103008707Y-117521609D01*
X103003342Y-117490762D01*
X103001172Y-117442977D01*
X103000829Y-117390148D01*
X103001573Y-117323781D01*
X103004652Y-117279506D01*
X103011339Y-117250409D01*
X103022904Y-117229573D01*
X103032387Y-117218507D01*
X103076440Y-117190598D01*
X103127176Y-117187243D01*
X103175604Y-117208559D01*
X103184950Y-117216473D01*
X103200860Y-117234047D01*
X103210790Y-117254987D01*
X103216122Y-117286182D01*
X103218237Y-117334522D01*
X103218543Y-117384047D01*
X103319942Y-117384047D01*
X103316590Y-117296968D01*
X103304674Y-117228486D01*
X103282265Y-117177000D01*
X103247276Y-117136843D01*
X103220025Y-117116261D01*
X103170493Y-117094025D01*
X103113084Y-117083704D01*
X103059718Y-117086467D01*
X103029857Y-117097612D01*
X103018139Y-117100783D01*
X103010363Y-117088957D01*
X103004935Y-117057266D01*
X103000829Y-117008993D01*
X102996333Y-116955229D01*
X102990087Y-116922882D01*
X102978724Y-116904385D01*
X102958872Y-116892170D01*
X102946400Y-116886762D01*
X102899229Y-116867001D01*
X102899283Y-117203758D01*
G36*
X102309567Y-117097063D02*
X102307352Y-117135250D01*
X102305616Y-117193286D01*
X102304501Y-117266580D01*
X102304143Y-117343455D01*
X102304143Y-117603596D01*
X102350074Y-117649527D01*
X102381725Y-117677829D01*
X102409510Y-117689293D01*
X102447485Y-117688568D01*
X102462560Y-117686721D01*
X102509674Y-117681348D01*
X102548644Y-117678269D01*
X102558143Y-117677985D01*
X102590167Y-117679845D01*
X102635968Y-117684514D01*
X102653726Y-117686721D01*
X102697343Y-117690135D01*
X102726655Y-117682720D01*
X102755720Y-117659827D01*
X102766212Y-117649527D01*
X102812143Y-117603596D01*
X102812143Y-117117002D01*
X102775174Y-117100158D01*
X102743341Y-117087682D01*
X102724717Y-117083314D01*
X102719942Y-117097118D01*
X102715479Y-117135686D01*
X102711625Y-117194756D01*
X102708678Y-117270063D01*
X102707257Y-117333686D01*
X102703286Y-117584057D01*
X102668641Y-117588956D01*
X102637132Y-117585531D01*
X102621692Y-117574441D01*
X102617377Y-117553708D01*
X102613692Y-117509545D01*
X102610931Y-117447546D01*
X102609388Y-117373309D01*
X102609165Y-117335106D01*
X102608943Y-117115183D01*
X102563234Y-117099249D01*
X102530882Y-117088415D01*
X102513285Y-117083362D01*
X102512777Y-117083314D01*
X102511012Y-117097048D01*
X102509071Y-117135130D01*
X102507118Y-117192882D01*
X102505316Y-117265627D01*
X102504057Y-117333686D01*
X102500086Y-117584057D01*
X102413000Y-117584057D01*
X102409004Y-117355640D01*
X102405008Y-117127222D01*
X102362553Y-117105268D01*
X102331208Y-117090193D01*
X102312656Y-117083351D01*
X102312121Y-117083314D01*
X102309567Y-117097063D01*
X102309567Y-117097063D01*
G37*
X102309567Y-117097063D02*
X102307352Y-117135250D01*
X102305616Y-117193286D01*
X102304501Y-117266580D01*
X102304143Y-117343455D01*
X102304143Y-117603596D01*
X102350074Y-117649527D01*
X102381725Y-117677829D01*
X102409510Y-117689293D01*
X102447485Y-117688568D01*
X102462560Y-117686721D01*
X102509674Y-117681348D01*
X102548644Y-117678269D01*
X102558143Y-117677985D01*
X102590167Y-117679845D01*
X102635968Y-117684514D01*
X102653726Y-117686721D01*
X102697343Y-117690135D01*
X102726655Y-117682720D01*
X102755720Y-117659827D01*
X102766212Y-117649527D01*
X102812143Y-117603596D01*
X102812143Y-117117002D01*
X102775174Y-117100158D01*
X102743341Y-117087682D01*
X102724717Y-117083314D01*
X102719942Y-117097118D01*
X102715479Y-117135686D01*
X102711625Y-117194756D01*
X102708678Y-117270063D01*
X102707257Y-117333686D01*
X102703286Y-117584057D01*
X102668641Y-117588956D01*
X102637132Y-117585531D01*
X102621692Y-117574441D01*
X102617377Y-117553708D01*
X102613692Y-117509545D01*
X102610931Y-117447546D01*
X102609388Y-117373309D01*
X102609165Y-117335106D01*
X102608943Y-117115183D01*
X102563234Y-117099249D01*
X102530882Y-117088415D01*
X102513285Y-117083362D01*
X102512777Y-117083314D01*
X102511012Y-117097048D01*
X102509071Y-117135130D01*
X102507118Y-117192882D01*
X102505316Y-117265627D01*
X102504057Y-117333686D01*
X102500086Y-117584057D01*
X102413000Y-117584057D01*
X102409004Y-117355640D01*
X102405008Y-117127222D01*
X102362553Y-117105268D01*
X102331208Y-117090193D01*
X102312656Y-117083351D01*
X102312121Y-117083314D01*
X102309567Y-117097063D01*
G36*
X101944524Y-117094735D02*
X101902733Y-117113744D01*
X101869931Y-117136778D01*
X101845897Y-117162533D01*
X101829303Y-117195758D01*
X101818823Y-117241200D01*
X101813129Y-117303607D01*
X101810893Y-117387727D01*
X101810657Y-117443121D01*
X101810657Y-117659226D01*
X101847626Y-117676070D01*
X101876744Y-117688381D01*
X101891169Y-117692914D01*
X101893928Y-117679425D01*
X101896118Y-117643053D01*
X101897458Y-117589942D01*
X101897743Y-117547772D01*
X101898966Y-117486847D01*
X101902264Y-117438515D01*
X101907079Y-117408918D01*
X101910904Y-117402629D01*
X101936617Y-117409052D01*
X101976982Y-117425525D01*
X102023721Y-117447858D01*
X102068555Y-117471857D01*
X102103207Y-117493330D01*
X102119398Y-117508085D01*
X102119462Y-117508245D01*
X102118070Y-117535552D01*
X102105582Y-117561619D01*
X102083657Y-117582792D01*
X102051657Y-117589874D01*
X102024308Y-117589049D01*
X101985574Y-117588442D01*
X101965242Y-117597516D01*
X101953031Y-117621492D01*
X101951491Y-117626013D01*
X101946197Y-117660206D01*
X101960353Y-117680968D01*
X101997252Y-117690862D01*
X102037111Y-117692692D01*
X102108838Y-117679127D01*
X102145968Y-117659755D01*
X102191824Y-117614245D01*
X102216144Y-117558383D01*
X102218327Y-117499357D01*
X102197771Y-117444353D01*
X102166851Y-117409886D01*
X102135980Y-117390589D01*
X102087458Y-117366159D01*
X102030915Y-117341385D01*
X102021490Y-117337599D01*
X101959381Y-117310191D01*
X101923578Y-117286034D01*
X101912063Y-117262019D01*
X101922820Y-117235035D01*
X101941286Y-117213943D01*
X101984931Y-117187972D01*
X102032954Y-117186024D01*
X102076994Y-117206037D01*
X102108691Y-117245951D01*
X102112851Y-117256248D01*
X102137073Y-117294124D01*
X102172435Y-117322242D01*
X102217057Y-117345317D01*
X102217057Y-117279885D01*
X102214431Y-117239906D01*
X102203170Y-117208397D01*
X102178201Y-117174778D01*
X102154231Y-117148884D01*
X102116959Y-117112217D01*
X102087999Y-117092521D01*
X102056895Y-117084620D01*
X102021687Y-117083314D01*
X101944524Y-117094735D01*
X101944524Y-117094735D01*
G37*
X101944524Y-117094735D02*
X101902733Y-117113744D01*
X101869931Y-117136778D01*
X101845897Y-117162533D01*
X101829303Y-117195758D01*
X101818823Y-117241200D01*
X101813129Y-117303607D01*
X101810893Y-117387727D01*
X101810657Y-117443121D01*
X101810657Y-117659226D01*
X101847626Y-117676070D01*
X101876744Y-117688381D01*
X101891169Y-117692914D01*
X101893928Y-117679425D01*
X101896118Y-117643053D01*
X101897458Y-117589942D01*
X101897743Y-117547772D01*
X101898966Y-117486847D01*
X101902264Y-117438515D01*
X101907079Y-117408918D01*
X101910904Y-117402629D01*
X101936617Y-117409052D01*
X101976982Y-117425525D01*
X102023721Y-117447858D01*
X102068555Y-117471857D01*
X102103207Y-117493330D01*
X102119398Y-117508085D01*
X102119462Y-117508245D01*
X102118070Y-117535552D01*
X102105582Y-117561619D01*
X102083657Y-117582792D01*
X102051657Y-117589874D01*
X102024308Y-117589049D01*
X101985574Y-117588442D01*
X101965242Y-117597516D01*
X101953031Y-117621492D01*
X101951491Y-117626013D01*
X101946197Y-117660206D01*
X101960353Y-117680968D01*
X101997252Y-117690862D01*
X102037111Y-117692692D01*
X102108838Y-117679127D01*
X102145968Y-117659755D01*
X102191824Y-117614245D01*
X102216144Y-117558383D01*
X102218327Y-117499357D01*
X102197771Y-117444353D01*
X102166851Y-117409886D01*
X102135980Y-117390589D01*
X102087458Y-117366159D01*
X102030915Y-117341385D01*
X102021490Y-117337599D01*
X101959381Y-117310191D01*
X101923578Y-117286034D01*
X101912063Y-117262019D01*
X101922820Y-117235035D01*
X101941286Y-117213943D01*
X101984931Y-117187972D01*
X102032954Y-117186024D01*
X102076994Y-117206037D01*
X102108691Y-117245951D01*
X102112851Y-117256248D01*
X102137073Y-117294124D01*
X102172435Y-117322242D01*
X102217057Y-117345317D01*
X102217057Y-117279885D01*
X102214431Y-117239906D01*
X102203170Y-117208397D01*
X102178201Y-117174778D01*
X102154231Y-117148884D01*
X102116959Y-117112217D01*
X102087999Y-117092521D01*
X102056895Y-117084620D01*
X102021687Y-117083314D01*
X101944524Y-117094735D01*
G36*
X101436800Y-117097152D02*
X101419452Y-117104734D01*
X101378044Y-117137528D01*
X101342635Y-117184947D01*
X101320736Y-117235551D01*
X101317171Y-117260498D01*
X101329121Y-117295327D01*
X101355333Y-117313757D01*
X101383436Y-117324916D01*
X101396305Y-117326972D01*
X101402571Y-117312049D01*
X101414944Y-117279575D01*
X101420372Y-117264902D01*
X101450810Y-117214144D01*
X101494880Y-117188827D01*
X101551390Y-117189606D01*
X101555575Y-117190603D01*
X101585745Y-117204907D01*
X101607924Y-117232793D01*
X101623073Y-117277687D01*
X101632150Y-117343015D01*
X101636114Y-117432204D01*
X101636486Y-117479661D01*
X101636670Y-117554471D01*
X101637878Y-117605469D01*
X101641091Y-117637871D01*
X101647291Y-117656895D01*
X101657460Y-117667756D01*
X101672581Y-117675672D01*
X101673454Y-117676070D01*
X101702572Y-117688381D01*
X101716997Y-117692914D01*
X101719214Y-117679209D01*
X101721111Y-117641325D01*
X101722553Y-117584115D01*
X101723402Y-117512427D01*
X101723571Y-117459965D01*
X101722708Y-117358447D01*
X101719330Y-117281432D01*
X101712258Y-117224423D01*
X101700312Y-117182926D01*
X101682310Y-117152443D01*
X101657073Y-117128480D01*
X101632153Y-117111755D01*
X101572229Y-117089497D01*
X101502489Y-117084476D01*
X101436800Y-117097152D01*
X101436800Y-117097152D01*
G37*
X101436800Y-117097152D02*
X101419452Y-117104734D01*
X101378044Y-117137528D01*
X101342635Y-117184947D01*
X101320736Y-117235551D01*
X101317171Y-117260498D01*
X101329121Y-117295327D01*
X101355333Y-117313757D01*
X101383436Y-117324916D01*
X101396305Y-117326972D01*
X101402571Y-117312049D01*
X101414944Y-117279575D01*
X101420372Y-117264902D01*
X101450810Y-117214144D01*
X101494880Y-117188827D01*
X101551390Y-117189606D01*
X101555575Y-117190603D01*
X101585745Y-117204907D01*
X101607924Y-117232793D01*
X101623073Y-117277687D01*
X101632150Y-117343015D01*
X101636114Y-117432204D01*
X101636486Y-117479661D01*
X101636670Y-117554471D01*
X101637878Y-117605469D01*
X101641091Y-117637871D01*
X101647291Y-117656895D01*
X101657460Y-117667756D01*
X101672581Y-117675672D01*
X101673454Y-117676070D01*
X101702572Y-117688381D01*
X101716997Y-117692914D01*
X101719214Y-117679209D01*
X101721111Y-117641325D01*
X101722553Y-117584115D01*
X101723402Y-117512427D01*
X101723571Y-117459965D01*
X101722708Y-117358447D01*
X101719330Y-117281432D01*
X101712258Y-117224423D01*
X101700312Y-117182926D01*
X101682310Y-117152443D01*
X101657073Y-117128480D01*
X101632153Y-117111755D01*
X101572229Y-117089497D01*
X101502489Y-117084476D01*
X101436800Y-117097152D01*
G36*
X100935805Y-117105366D02*
X100878379Y-117142897D01*
X100850681Y-117176496D01*
X100828738Y-117237464D01*
X100826995Y-117285708D01*
X100830943Y-117350216D01*
X100979714Y-117415334D01*
X101052051Y-117448602D01*
X101099316Y-117475364D01*
X101123893Y-117498544D01*
X101128163Y-117521067D01*
X101114511Y-117545855D01*
X101099457Y-117562286D01*
X101055654Y-117588635D01*
X101008011Y-117590481D01*
X100964255Y-117569946D01*
X100932111Y-117529152D01*
X100926362Y-117514747D01*
X100898824Y-117469756D01*
X100867142Y-117450582D01*
X100823686Y-117434179D01*
X100823686Y-117496366D01*
X100827528Y-117538683D01*
X100842577Y-117574369D01*
X100874120Y-117615343D01*
X100878808Y-117620667D01*
X100913894Y-117657120D01*
X100944053Y-117676683D01*
X100981785Y-117685683D01*
X101013065Y-117688630D01*
X101069015Y-117689365D01*
X101108845Y-117680060D01*
X101133692Y-117666246D01*
X101172744Y-117635867D01*
X101199775Y-117603013D01*
X101216883Y-117561694D01*
X101226162Y-117505921D01*
X101229707Y-117429705D01*
X101229990Y-117391022D01*
X101229028Y-117344647D01*
X101141393Y-117344647D01*
X101140377Y-117369526D01*
X101137844Y-117373600D01*
X101121126Y-117368065D01*
X101085151Y-117353417D01*
X101037069Y-117332590D01*
X101027014Y-117328114D01*
X100966248Y-117297214D01*
X100932768Y-117270057D01*
X100925410Y-117244620D01*
X100943009Y-117218881D01*
X100957544Y-117207509D01*
X101009990Y-117184764D01*
X101059078Y-117188522D01*
X101100173Y-117216284D01*
X101128642Y-117265552D01*
X101137769Y-117304657D01*
X101141393Y-117344647D01*
X101229028Y-117344647D01*
X101228115Y-117300649D01*
X101221204Y-117233784D01*
X101207516Y-117185095D01*
X101185304Y-117149249D01*
X101152826Y-117120913D01*
X101138667Y-117111755D01*
X101074347Y-117087907D01*
X101003927Y-117086406D01*
X100935805Y-117105366D01*
X100935805Y-117105366D01*
G37*
X100935805Y-117105366D02*
X100878379Y-117142897D01*
X100850681Y-117176496D01*
X100828738Y-117237464D01*
X100826995Y-117285708D01*
X100830943Y-117350216D01*
X100979714Y-117415334D01*
X101052051Y-117448602D01*
X101099316Y-117475364D01*
X101123893Y-117498544D01*
X101128163Y-117521067D01*
X101114511Y-117545855D01*
X101099457Y-117562286D01*
X101055654Y-117588635D01*
X101008011Y-117590481D01*
X100964255Y-117569946D01*
X100932111Y-117529152D01*
X100926362Y-117514747D01*
X100898824Y-117469756D01*
X100867142Y-117450582D01*
X100823686Y-117434179D01*
X100823686Y-117496366D01*
X100827528Y-117538683D01*
X100842577Y-117574369D01*
X100874120Y-117615343D01*
X100878808Y-117620667D01*
X100913894Y-117657120D01*
X100944053Y-117676683D01*
X100981785Y-117685683D01*
X101013065Y-117688630D01*
X101069015Y-117689365D01*
X101108845Y-117680060D01*
X101133692Y-117666246D01*
X101172744Y-117635867D01*
X101199775Y-117603013D01*
X101216883Y-117561694D01*
X101226162Y-117505921D01*
X101229707Y-117429705D01*
X101229990Y-117391022D01*
X101229028Y-117344647D01*
X101141393Y-117344647D01*
X101140377Y-117369526D01*
X101137844Y-117373600D01*
X101121126Y-117368065D01*
X101085151Y-117353417D01*
X101037069Y-117332590D01*
X101027014Y-117328114D01*
X100966248Y-117297214D01*
X100932768Y-117270057D01*
X100925410Y-117244620D01*
X100943009Y-117218881D01*
X100957544Y-117207509D01*
X101009990Y-117184764D01*
X101059078Y-117188522D01*
X101100173Y-117216284D01*
X101128642Y-117265552D01*
X101137769Y-117304657D01*
X101141393Y-117344647D01*
X101229028Y-117344647D01*
X101228115Y-117300649D01*
X101221204Y-117233784D01*
X101207516Y-117185095D01*
X101185304Y-117149249D01*
X101152826Y-117120913D01*
X101138667Y-117111755D01*
X101074347Y-117087907D01*
X101003927Y-117086406D01*
X100935805Y-117105366D01*
G36*
X103985490Y-112380748D02*
X103906946Y-112381178D01*
X103850102Y-112382342D01*
X103811295Y-112384607D01*
X103786862Y-112388340D01*
X103773138Y-112393906D01*
X103766460Y-112401673D01*
X103763164Y-112412005D01*
X103762844Y-112413343D01*
X103757838Y-112437479D01*
X103748571Y-112485101D01*
X103736008Y-112551141D01*
X103721113Y-112630528D01*
X103704849Y-112718196D01*
X103704281Y-112721275D01*
X103687990Y-112807189D01*
X103672748Y-112883096D01*
X103659539Y-112944445D01*
X103649346Y-112986682D01*
X103643152Y-113005255D01*
X103642857Y-113005584D01*
X103624612Y-113014653D01*
X103586995Y-113029767D01*
X103538129Y-113047662D01*
X103537857Y-113047758D01*
X103476307Y-113070893D01*
X103403743Y-113100365D01*
X103335343Y-113129997D01*
X103332106Y-113131462D01*
X103220698Y-113182026D01*
X102974001Y-113013560D01*
X102898323Y-112962203D01*
X102829769Y-112916289D01*
X102772312Y-112878430D01*
X102729924Y-112851237D01*
X102706575Y-112837321D01*
X102704358Y-112836289D01*
X102687390Y-112840884D01*
X102655699Y-112863055D01*
X102608048Y-112903847D01*
X102543202Y-112964305D01*
X102477003Y-113028627D01*
X102413186Y-113092012D01*
X102356071Y-113149851D01*
X102309095Y-113198575D01*
X102275697Y-113234610D01*
X102259315Y-113254384D01*
X102258706Y-113255402D01*
X102256895Y-113268972D01*
X102263717Y-113291133D01*
X102280860Y-113324878D01*
X102310007Y-113373200D01*
X102352845Y-113439092D01*
X102409952Y-113523917D01*
X102460634Y-113598577D01*
X102505939Y-113665540D01*
X102543250Y-113720916D01*
X102569948Y-113760820D01*
X102583415Y-113781362D01*
X102584263Y-113782756D01*
X102582619Y-113802438D01*
X102570155Y-113840693D01*
X102549352Y-113890289D01*
X102541938Y-113906128D01*
X102509586Y-113976690D01*
X102475072Y-114056753D01*
X102447035Y-114126029D01*
X102426832Y-114177445D01*
X102410785Y-114216519D01*
X102401512Y-114236941D01*
X102400359Y-114238514D01*
X102383304Y-114241121D01*
X102343102Y-114248263D01*
X102285098Y-114258923D01*
X102214637Y-114272085D01*
X102137065Y-114286733D01*
X102057728Y-114301849D01*
X101981969Y-114316418D01*
X101915136Y-114329422D01*
X101862572Y-114339845D01*
X101829624Y-114346670D01*
X101821543Y-114348599D01*
X101813195Y-114353362D01*
X101806894Y-114364118D01*
X101802355Y-114384498D01*
X101799296Y-114418134D01*
X101797433Y-114468655D01*
X101796482Y-114539692D01*
X101796160Y-114634876D01*
X101796143Y-114673892D01*
X101796143Y-114991199D01*
X101872343Y-115006239D01*
X101914737Y-115014395D01*
X101978000Y-115026299D01*
X102054438Y-115040516D01*
X102136357Y-115055610D01*
X102159000Y-115059755D01*
X102234594Y-115074453D01*
X102300447Y-115088905D01*
X102351034Y-115101775D01*
X102380826Y-115111722D01*
X102385788Y-115114687D01*
X102397974Y-115135683D01*
X102415447Y-115176367D01*
X102434823Y-115228722D01*
X102438666Y-115240000D01*
X102464061Y-115309923D01*
X102495583Y-115388818D01*
X102526431Y-115459666D01*
X102526583Y-115459995D01*
X102577953Y-115571133D01*
X102409001Y-115819653D01*
X102240048Y-116068172D01*
X102456971Y-116285458D01*
X102522581Y-116350126D01*
X102582421Y-116407133D01*
X102633133Y-116453433D01*
X102671354Y-116485984D01*
X102693725Y-116501743D01*
X102696934Y-116502743D01*
X102715774Y-116494869D01*
X102754220Y-116472978D01*
X102808070Y-116439667D01*
X102873124Y-116397531D01*
X102943460Y-116350343D01*
X103014845Y-116302210D01*
X103078492Y-116260328D01*
X103130359Y-116227271D01*
X103166405Y-116205618D01*
X103182533Y-116197943D01*
X103202211Y-116204437D01*
X103239525Y-116221550D01*
X103286779Y-116245726D01*
X103291788Y-116248413D01*
X103355423Y-116280327D01*
X103399059Y-116295979D01*
X103426198Y-116296145D01*
X103440343Y-116281604D01*
X103440425Y-116281400D01*
X103447495Y-116264179D01*
X103464358Y-116223299D01*
X103489705Y-116161925D01*
X103522229Y-116083219D01*
X103560622Y-115990347D01*
X103603578Y-115886472D01*
X103645178Y-115785902D01*
X103690896Y-115674916D01*
X103732874Y-115572103D01*
X103769852Y-115480615D01*
X103800573Y-115403601D01*
X103823778Y-115344215D01*
X103838210Y-115305609D01*
X103842657Y-115291200D01*
X103831504Y-115274672D01*
X103802331Y-115248330D01*
X103763429Y-115219287D01*
X103652643Y-115127439D01*
X103566049Y-115022159D01*
X103504684Y-114905666D01*
X103469585Y-114780176D01*
X103461792Y-114647907D01*
X103467457Y-114586857D01*
X103498322Y-114460195D01*
X103551480Y-114348341D01*
X103623633Y-114252401D01*
X103711483Y-114173476D01*
X103811735Y-114112670D01*
X103921090Y-114071087D01*
X104036253Y-114049828D01*
X104153925Y-114049999D01*
X104270810Y-114072701D01*
X104383611Y-114119038D01*
X104489031Y-114190113D01*
X104533032Y-114230311D01*
X104617421Y-114333529D01*
X104676178Y-114446325D01*
X104709696Y-114565410D01*
X104718365Y-114687495D01*
X104702577Y-114809293D01*
X104662722Y-114927516D01*
X104599193Y-115038875D01*
X104512379Y-115140084D01*
X104415371Y-115219287D01*
X104374963Y-115249562D01*
X104346418Y-115275619D01*
X104336143Y-115291225D01*
X104341523Y-115308243D01*
X104356825Y-115348900D01*
X104380788Y-115410042D01*
X104412156Y-115488519D01*
X104449668Y-115581180D01*
X104492067Y-115684872D01*
X104533737Y-115785926D01*
X104579710Y-115897007D01*
X104622293Y-115999941D01*
X104660179Y-116091565D01*
X104692060Y-116168716D01*
X104716629Y-116228231D01*
X104732580Y-116266944D01*
X104738490Y-116281400D01*
X104752452Y-116296085D01*
X104779460Y-116296042D01*
X104822987Y-116280499D01*
X104886510Y-116248684D01*
X104887012Y-116248413D01*
X104934840Y-116223723D01*
X104973503Y-116205738D01*
X104995305Y-116198014D01*
X104996267Y-116197943D01*
X105012679Y-116205778D01*
X105048913Y-116227565D01*
X105100926Y-116260728D01*
X105164675Y-116302691D01*
X105235340Y-116350343D01*
X105307284Y-116398591D01*
X105372126Y-116440551D01*
X105425665Y-116473627D01*
X105463703Y-116495221D01*
X105481867Y-116502743D01*
X105498592Y-116492857D01*
X105532220Y-116465226D01*
X105579390Y-116422895D01*
X105636742Y-116368905D01*
X105700916Y-116306299D01*
X105721903Y-116285383D01*
X105938901Y-116068023D01*
X105773732Y-115825620D01*
X105723536Y-115751181D01*
X105679481Y-115684372D01*
X105644038Y-115629065D01*
X105619681Y-115589129D01*
X105608878Y-115568436D01*
X105608562Y-115566963D01*
X105614257Y-115547458D01*
X105629574Y-115508222D01*
X105651863Y-115455830D01*
X105667507Y-115420755D01*
X105696759Y-115353601D01*
X105724306Y-115285758D01*
X105745663Y-115228434D01*
X105751465Y-115210972D01*
X105767948Y-115164338D01*
X105784060Y-115128305D01*
X105792910Y-115114687D01*
X105812440Y-115106352D01*
X105855066Y-115094537D01*
X105915255Y-115080581D01*
X105987478Y-115065822D01*
X106019800Y-115059755D01*
X106101878Y-115044673D01*
X106180605Y-115030069D01*
X106248291Y-115017380D01*
X106297240Y-115008042D01*
X106306457Y-115006239D01*
X106382657Y-114991199D01*
X106382657Y-114673892D01*
X106382486Y-114569554D01*
X106381784Y-114490613D01*
X106380266Y-114433438D01*
X106377651Y-114394399D01*
X106373654Y-114369865D01*
X106367991Y-114356205D01*
X106360380Y-114349789D01*
X106357257Y-114348599D01*
X106338422Y-114344380D01*
X106296812Y-114335962D01*
X106237770Y-114324361D01*
X106166643Y-114310595D01*
X106088775Y-114295680D01*
X106009513Y-114280632D01*
X105934202Y-114266469D01*
X105868187Y-114254206D01*
X105816813Y-114244861D01*
X105785425Y-114239450D01*
X105778441Y-114238514D01*
X105772115Y-114225996D01*
X105758110Y-114192646D01*
X105739045Y-114144777D01*
X105731766Y-114126029D01*
X105702404Y-114053595D01*
X105667829Y-113973570D01*
X105636863Y-113906128D01*
X105614077Y-113854559D01*
X105598918Y-113812185D01*
X105593858Y-113786234D01*
X105594664Y-113782756D01*
X105605359Y-113766336D01*
X105629780Y-113729817D01*
X105665305Y-113677087D01*
X105709313Y-113612035D01*
X105759183Y-113538551D01*
X105769044Y-113524045D01*
X105826908Y-113438104D01*
X105869444Y-113372661D01*
X105898346Y-113324704D01*
X105915310Y-113291220D01*
X105922033Y-113269195D01*
X105920210Y-113255617D01*
X105920164Y-113255531D01*
X105905814Y-113237697D01*
X105874077Y-113203217D01*
X105828390Y-113155668D01*
X105772196Y-113098622D01*
X105708932Y-113035655D01*
X105701798Y-113028627D01*
X105622070Y-112951420D01*
X105560543Y-112894730D01*
X105515979Y-112857510D01*
X105487143Y-112838715D01*
X105474442Y-112836289D01*
X105455906Y-112846871D01*
X105417439Y-112871316D01*
X105363014Y-112907012D01*
X105296602Y-112951347D01*
X105222175Y-113001711D01*
X105204799Y-113013560D01*
X104958103Y-113182026D01*
X104846694Y-113131462D01*
X104778943Y-113101995D01*
X104706217Y-113072359D01*
X104643697Y-113048730D01*
X104640943Y-113047758D01*
X104592040Y-113029857D01*
X104554343Y-113014720D01*
X104535975Y-113005610D01*
X104535944Y-113005584D01*
X104530115Y-112989117D01*
X104520208Y-112948619D01*
X104507205Y-112888642D01*
X104492091Y-112813740D01*
X104475848Y-112728464D01*
X104474519Y-112721275D01*
X104458225Y-112633414D01*
X104443267Y-112553660D01*
X104430609Y-112487081D01*
X104421214Y-112438747D01*
X104416046Y-112413725D01*
X104415956Y-112413343D01*
X104412811Y-112402699D01*
X104406696Y-112394662D01*
X104393947Y-112388867D01*
X104370900Y-112384947D01*
X104333891Y-112382535D01*
X104279256Y-112381265D01*
X104203333Y-112380771D01*
X104102456Y-112380686D01*
X104089400Y-112380686D01*
X103985490Y-112380748D01*
X103985490Y-112380748D01*
G37*
X103985490Y-112380748D02*
X103906946Y-112381178D01*
X103850102Y-112382342D01*
X103811295Y-112384607D01*
X103786862Y-112388340D01*
X103773138Y-112393906D01*
X103766460Y-112401673D01*
X103763164Y-112412005D01*
X103762844Y-112413343D01*
X103757838Y-112437479D01*
X103748571Y-112485101D01*
X103736008Y-112551141D01*
X103721113Y-112630528D01*
X103704849Y-112718196D01*
X103704281Y-112721275D01*
X103687990Y-112807189D01*
X103672748Y-112883096D01*
X103659539Y-112944445D01*
X103649346Y-112986682D01*
X103643152Y-113005255D01*
X103642857Y-113005584D01*
X103624612Y-113014653D01*
X103586995Y-113029767D01*
X103538129Y-113047662D01*
X103537857Y-113047758D01*
X103476307Y-113070893D01*
X103403743Y-113100365D01*
X103335343Y-113129997D01*
X103332106Y-113131462D01*
X103220698Y-113182026D01*
X102974001Y-113013560D01*
X102898323Y-112962203D01*
X102829769Y-112916289D01*
X102772312Y-112878430D01*
X102729924Y-112851237D01*
X102706575Y-112837321D01*
X102704358Y-112836289D01*
X102687390Y-112840884D01*
X102655699Y-112863055D01*
X102608048Y-112903847D01*
X102543202Y-112964305D01*
X102477003Y-113028627D01*
X102413186Y-113092012D01*
X102356071Y-113149851D01*
X102309095Y-113198575D01*
X102275697Y-113234610D01*
X102259315Y-113254384D01*
X102258706Y-113255402D01*
X102256895Y-113268972D01*
X102263717Y-113291133D01*
X102280860Y-113324878D01*
X102310007Y-113373200D01*
X102352845Y-113439092D01*
X102409952Y-113523917D01*
X102460634Y-113598577D01*
X102505939Y-113665540D01*
X102543250Y-113720916D01*
X102569948Y-113760820D01*
X102583415Y-113781362D01*
X102584263Y-113782756D01*
X102582619Y-113802438D01*
X102570155Y-113840693D01*
X102549352Y-113890289D01*
X102541938Y-113906128D01*
X102509586Y-113976690D01*
X102475072Y-114056753D01*
X102447035Y-114126029D01*
X102426832Y-114177445D01*
X102410785Y-114216519D01*
X102401512Y-114236941D01*
X102400359Y-114238514D01*
X102383304Y-114241121D01*
X102343102Y-114248263D01*
X102285098Y-114258923D01*
X102214637Y-114272085D01*
X102137065Y-114286733D01*
X102057728Y-114301849D01*
X101981969Y-114316418D01*
X101915136Y-114329422D01*
X101862572Y-114339845D01*
X101829624Y-114346670D01*
X101821543Y-114348599D01*
X101813195Y-114353362D01*
X101806894Y-114364118D01*
X101802355Y-114384498D01*
X101799296Y-114418134D01*
X101797433Y-114468655D01*
X101796482Y-114539692D01*
X101796160Y-114634876D01*
X101796143Y-114673892D01*
X101796143Y-114991199D01*
X101872343Y-115006239D01*
X101914737Y-115014395D01*
X101978000Y-115026299D01*
X102054438Y-115040516D01*
X102136357Y-115055610D01*
X102159000Y-115059755D01*
X102234594Y-115074453D01*
X102300447Y-115088905D01*
X102351034Y-115101775D01*
X102380826Y-115111722D01*
X102385788Y-115114687D01*
X102397974Y-115135683D01*
X102415447Y-115176367D01*
X102434823Y-115228722D01*
X102438666Y-115240000D01*
X102464061Y-115309923D01*
X102495583Y-115388818D01*
X102526431Y-115459666D01*
X102526583Y-115459995D01*
X102577953Y-115571133D01*
X102409001Y-115819653D01*
X102240048Y-116068172D01*
X102456971Y-116285458D01*
X102522581Y-116350126D01*
X102582421Y-116407133D01*
X102633133Y-116453433D01*
X102671354Y-116485984D01*
X102693725Y-116501743D01*
X102696934Y-116502743D01*
X102715774Y-116494869D01*
X102754220Y-116472978D01*
X102808070Y-116439667D01*
X102873124Y-116397531D01*
X102943460Y-116350343D01*
X103014845Y-116302210D01*
X103078492Y-116260328D01*
X103130359Y-116227271D01*
X103166405Y-116205618D01*
X103182533Y-116197943D01*
X103202211Y-116204437D01*
X103239525Y-116221550D01*
X103286779Y-116245726D01*
X103291788Y-116248413D01*
X103355423Y-116280327D01*
X103399059Y-116295979D01*
X103426198Y-116296145D01*
X103440343Y-116281604D01*
X103440425Y-116281400D01*
X103447495Y-116264179D01*
X103464358Y-116223299D01*
X103489705Y-116161925D01*
X103522229Y-116083219D01*
X103560622Y-115990347D01*
X103603578Y-115886472D01*
X103645178Y-115785902D01*
X103690896Y-115674916D01*
X103732874Y-115572103D01*
X103769852Y-115480615D01*
X103800573Y-115403601D01*
X103823778Y-115344215D01*
X103838210Y-115305609D01*
X103842657Y-115291200D01*
X103831504Y-115274672D01*
X103802331Y-115248330D01*
X103763429Y-115219287D01*
X103652643Y-115127439D01*
X103566049Y-115022159D01*
X103504684Y-114905666D01*
X103469585Y-114780176D01*
X103461792Y-114647907D01*
X103467457Y-114586857D01*
X103498322Y-114460195D01*
X103551480Y-114348341D01*
X103623633Y-114252401D01*
X103711483Y-114173476D01*
X103811735Y-114112670D01*
X103921090Y-114071087D01*
X104036253Y-114049828D01*
X104153925Y-114049999D01*
X104270810Y-114072701D01*
X104383611Y-114119038D01*
X104489031Y-114190113D01*
X104533032Y-114230311D01*
X104617421Y-114333529D01*
X104676178Y-114446325D01*
X104709696Y-114565410D01*
X104718365Y-114687495D01*
X104702577Y-114809293D01*
X104662722Y-114927516D01*
X104599193Y-115038875D01*
X104512379Y-115140084D01*
X104415371Y-115219287D01*
X104374963Y-115249562D01*
X104346418Y-115275619D01*
X104336143Y-115291225D01*
X104341523Y-115308243D01*
X104356825Y-115348900D01*
X104380788Y-115410042D01*
X104412156Y-115488519D01*
X104449668Y-115581180D01*
X104492067Y-115684872D01*
X104533737Y-115785926D01*
X104579710Y-115897007D01*
X104622293Y-115999941D01*
X104660179Y-116091565D01*
X104692060Y-116168716D01*
X104716629Y-116228231D01*
X104732580Y-116266944D01*
X104738490Y-116281400D01*
X104752452Y-116296085D01*
X104779460Y-116296042D01*
X104822987Y-116280499D01*
X104886510Y-116248684D01*
X104887012Y-116248413D01*
X104934840Y-116223723D01*
X104973503Y-116205738D01*
X104995305Y-116198014D01*
X104996267Y-116197943D01*
X105012679Y-116205778D01*
X105048913Y-116227565D01*
X105100926Y-116260728D01*
X105164675Y-116302691D01*
X105235340Y-116350343D01*
X105307284Y-116398591D01*
X105372126Y-116440551D01*
X105425665Y-116473627D01*
X105463703Y-116495221D01*
X105481867Y-116502743D01*
X105498592Y-116492857D01*
X105532220Y-116465226D01*
X105579390Y-116422895D01*
X105636742Y-116368905D01*
X105700916Y-116306299D01*
X105721903Y-116285383D01*
X105938901Y-116068023D01*
X105773732Y-115825620D01*
X105723536Y-115751181D01*
X105679481Y-115684372D01*
X105644038Y-115629065D01*
X105619681Y-115589129D01*
X105608878Y-115568436D01*
X105608562Y-115566963D01*
X105614257Y-115547458D01*
X105629574Y-115508222D01*
X105651863Y-115455830D01*
X105667507Y-115420755D01*
X105696759Y-115353601D01*
X105724306Y-115285758D01*
X105745663Y-115228434D01*
X105751465Y-115210972D01*
X105767948Y-115164338D01*
X105784060Y-115128305D01*
X105792910Y-115114687D01*
X105812440Y-115106352D01*
X105855066Y-115094537D01*
X105915255Y-115080581D01*
X105987478Y-115065822D01*
X106019800Y-115059755D01*
X106101878Y-115044673D01*
X106180605Y-115030069D01*
X106248291Y-115017380D01*
X106297240Y-115008042D01*
X106306457Y-115006239D01*
X106382657Y-114991199D01*
X106382657Y-114673892D01*
X106382486Y-114569554D01*
X106381784Y-114490613D01*
X106380266Y-114433438D01*
X106377651Y-114394399D01*
X106373654Y-114369865D01*
X106367991Y-114356205D01*
X106360380Y-114349789D01*
X106357257Y-114348599D01*
X106338422Y-114344380D01*
X106296812Y-114335962D01*
X106237770Y-114324361D01*
X106166643Y-114310595D01*
X106088775Y-114295680D01*
X106009513Y-114280632D01*
X105934202Y-114266469D01*
X105868187Y-114254206D01*
X105816813Y-114244861D01*
X105785425Y-114239450D01*
X105778441Y-114238514D01*
X105772115Y-114225996D01*
X105758110Y-114192646D01*
X105739045Y-114144777D01*
X105731766Y-114126029D01*
X105702404Y-114053595D01*
X105667829Y-113973570D01*
X105636863Y-113906128D01*
X105614077Y-113854559D01*
X105598918Y-113812185D01*
X105593858Y-113786234D01*
X105594664Y-113782756D01*
X105605359Y-113766336D01*
X105629780Y-113729817D01*
X105665305Y-113677087D01*
X105709313Y-113612035D01*
X105759183Y-113538551D01*
X105769044Y-113524045D01*
X105826908Y-113438104D01*
X105869444Y-113372661D01*
X105898346Y-113324704D01*
X105915310Y-113291220D01*
X105922033Y-113269195D01*
X105920210Y-113255617D01*
X105920164Y-113255531D01*
X105905814Y-113237697D01*
X105874077Y-113203217D01*
X105828390Y-113155668D01*
X105772196Y-113098622D01*
X105708932Y-113035655D01*
X105701798Y-113028627D01*
X105622070Y-112951420D01*
X105560543Y-112894730D01*
X105515979Y-112857510D01*
X105487143Y-112838715D01*
X105474442Y-112836289D01*
X105455906Y-112846871D01*
X105417439Y-112871316D01*
X105363014Y-112907012D01*
X105296602Y-112951347D01*
X105222175Y-113001711D01*
X105204799Y-113013560D01*
X104958103Y-113182026D01*
X104846694Y-113131462D01*
X104778943Y-113101995D01*
X104706217Y-113072359D01*
X104643697Y-113048730D01*
X104640943Y-113047758D01*
X104592040Y-113029857D01*
X104554343Y-113014720D01*
X104535975Y-113005610D01*
X104535944Y-113005584D01*
X104530115Y-112989117D01*
X104520208Y-112948619D01*
X104507205Y-112888642D01*
X104492091Y-112813740D01*
X104475848Y-112728464D01*
X104474519Y-112721275D01*
X104458225Y-112633414D01*
X104443267Y-112553660D01*
X104430609Y-112487081D01*
X104421214Y-112438747D01*
X104416046Y-112413725D01*
X104415956Y-112413343D01*
X104412811Y-112402699D01*
X104406696Y-112394662D01*
X104393947Y-112388867D01*
X104370900Y-112384947D01*
X104333891Y-112382535D01*
X104279256Y-112381265D01*
X104203333Y-112380771D01*
X104102456Y-112380686D01*
X104089400Y-112380686D01*
X103985490Y-112380748D01*
G36*
X121310571Y-117204266D02*
X121271089Y-117204667D01*
X121155400Y-117207459D01*
X121058511Y-117215750D01*
X120977119Y-117230432D01*
X120907923Y-117252393D01*
X120847620Y-117282522D01*
X120792908Y-117321710D01*
X120773367Y-117338732D01*
X120740950Y-117378563D01*
X120711720Y-117432613D01*
X120689191Y-117492523D01*
X120676879Y-117549939D01*
X120675600Y-117571156D01*
X120683617Y-117629969D01*
X120705099Y-117694213D01*
X120736199Y-117755021D01*
X120773066Y-117803530D01*
X120779054Y-117809382D01*
X120829779Y-117850521D01*
X120885325Y-117882635D01*
X120948896Y-117906565D01*
X121023694Y-117923153D01*
X121112922Y-117933241D01*
X121219782Y-117937669D01*
X121268728Y-117938045D01*
X121330962Y-117937745D01*
X121374728Y-117936492D01*
X121404131Y-117933754D01*
X121423279Y-117929001D01*
X121436277Y-117921701D01*
X121443245Y-117915467D01*
X121449826Y-117907894D01*
X121454988Y-117898124D01*
X121458903Y-117883540D01*
X121461743Y-117861526D01*
X121463680Y-117829464D01*
X121464884Y-117784736D01*
X121465528Y-117724726D01*
X121465783Y-117646817D01*
X121465822Y-117571156D01*
X121466070Y-117470241D01*
X121466017Y-117389627D01*
X121465057Y-117351022D01*
X121319067Y-117351022D01*
X121319067Y-117791289D01*
X121225934Y-117791204D01*
X121169893Y-117789596D01*
X121111199Y-117785456D01*
X121062228Y-117779664D01*
X121060738Y-117779426D01*
X120981592Y-117760290D01*
X120920202Y-117730487D01*
X120873505Y-117688078D01*
X120843835Y-117642161D01*
X120825553Y-117591226D01*
X120826971Y-117543400D01*
X120848188Y-117492133D01*
X120889689Y-117439099D01*
X120947198Y-117399800D01*
X121021950Y-117373531D01*
X121071908Y-117364235D01*
X121128616Y-117357707D01*
X121188719Y-117352982D01*
X121239839Y-117351017D01*
X121242867Y-117351008D01*
X121319067Y-117351022D01*
X121465057Y-117351022D01*
X121464460Y-117327051D01*
X121460198Y-117280255D01*
X121452030Y-117246978D01*
X121438756Y-117224959D01*
X121419174Y-117211939D01*
X121392083Y-117205657D01*
X121356282Y-117203853D01*
X121310571Y-117204266D01*
X121310571Y-117204266D01*
G37*
X121310571Y-117204266D02*
X121271089Y-117204667D01*
X121155400Y-117207459D01*
X121058511Y-117215750D01*
X120977119Y-117230432D01*
X120907923Y-117252393D01*
X120847620Y-117282522D01*
X120792908Y-117321710D01*
X120773367Y-117338732D01*
X120740950Y-117378563D01*
X120711720Y-117432613D01*
X120689191Y-117492523D01*
X120676879Y-117549939D01*
X120675600Y-117571156D01*
X120683617Y-117629969D01*
X120705099Y-117694213D01*
X120736199Y-117755021D01*
X120773066Y-117803530D01*
X120779054Y-117809382D01*
X120829779Y-117850521D01*
X120885325Y-117882635D01*
X120948896Y-117906565D01*
X121023694Y-117923153D01*
X121112922Y-117933241D01*
X121219782Y-117937669D01*
X121268728Y-117938045D01*
X121330962Y-117937745D01*
X121374728Y-117936492D01*
X121404131Y-117933754D01*
X121423279Y-117929001D01*
X121436277Y-117921701D01*
X121443245Y-117915467D01*
X121449826Y-117907894D01*
X121454988Y-117898124D01*
X121458903Y-117883540D01*
X121461743Y-117861526D01*
X121463680Y-117829464D01*
X121464884Y-117784736D01*
X121465528Y-117724726D01*
X121465783Y-117646817D01*
X121465822Y-117571156D01*
X121466070Y-117470241D01*
X121466017Y-117389627D01*
X121465057Y-117351022D01*
X121319067Y-117351022D01*
X121319067Y-117791289D01*
X121225934Y-117791204D01*
X121169893Y-117789596D01*
X121111199Y-117785456D01*
X121062228Y-117779664D01*
X121060738Y-117779426D01*
X120981592Y-117760290D01*
X120920202Y-117730487D01*
X120873505Y-117688078D01*
X120843835Y-117642161D01*
X120825553Y-117591226D01*
X120826971Y-117543400D01*
X120848188Y-117492133D01*
X120889689Y-117439099D01*
X120947198Y-117399800D01*
X121021950Y-117373531D01*
X121071908Y-117364235D01*
X121128616Y-117357707D01*
X121188719Y-117352982D01*
X121239839Y-117351017D01*
X121242867Y-117351008D01*
X121319067Y-117351022D01*
X121465057Y-117351022D01*
X121464460Y-117327051D01*
X121460198Y-117280255D01*
X121452030Y-117246978D01*
X121438756Y-117224959D01*
X121419174Y-117211939D01*
X121392083Y-117205657D01*
X121356282Y-117203853D01*
X121310571Y-117204266D01*
G36*
X119901994Y-117204346D02*
X119832586Y-117204718D01*
X119780197Y-117205585D01*
X119742047Y-117207146D01*
X119715359Y-117209603D01*
X119697353Y-117213157D01*
X119685249Y-117218010D01*
X119676269Y-117224361D01*
X119673018Y-117227284D01*
X119653243Y-117258342D01*
X119649682Y-117294028D01*
X119662691Y-117325710D01*
X119668706Y-117332113D01*
X119678435Y-117338321D01*
X119694101Y-117343110D01*
X119718608Y-117346714D01*
X119754861Y-117349364D01*
X119805765Y-117351295D01*
X119874226Y-117352739D01*
X119936817Y-117353618D01*
X120184534Y-117356667D01*
X120187919Y-117421578D01*
X120191305Y-117486489D01*
X120023158Y-117486489D01*
X119950159Y-117487119D01*
X119896717Y-117489753D01*
X119859828Y-117495509D01*
X119836488Y-117505504D01*
X119823694Y-117520856D01*
X119818442Y-117542682D01*
X119817645Y-117562938D01*
X119820123Y-117587792D01*
X119829477Y-117606106D01*
X119848583Y-117618837D01*
X119880318Y-117626941D01*
X119927559Y-117631376D01*
X119993183Y-117633099D01*
X120029001Y-117633245D01*
X120190178Y-117633245D01*
X120190178Y-117791289D01*
X119941822Y-117791289D01*
X119860413Y-117791402D01*
X119798542Y-117791912D01*
X119753168Y-117793070D01*
X119721254Y-117795130D01*
X119699759Y-117798346D01*
X119685643Y-117802972D01*
X119675868Y-117809259D01*
X119670889Y-117813867D01*
X119653810Y-117840760D01*
X119648311Y-117864667D01*
X119656163Y-117893867D01*
X119670889Y-117915467D01*
X119678746Y-117922266D01*
X119688888Y-117927546D01*
X119704044Y-117931498D01*
X119726941Y-117934313D01*
X119760309Y-117936182D01*
X119806875Y-117937298D01*
X119869367Y-117937851D01*
X119950514Y-117938033D01*
X119992622Y-117938045D01*
X120082798Y-117937965D01*
X120153124Y-117937598D01*
X120206329Y-117936752D01*
X120245140Y-117935236D01*
X120272287Y-117932859D01*
X120290498Y-117929429D01*
X120302500Y-117924754D01*
X120311022Y-117918644D01*
X120314356Y-117915467D01*
X120320955Y-117907870D01*
X120326127Y-117898070D01*
X120330046Y-117883439D01*
X120332884Y-117861352D01*
X120334815Y-117829182D01*
X120336012Y-117784303D01*
X120336648Y-117724089D01*
X120336897Y-117645913D01*
X120336934Y-117573123D01*
X120336900Y-117479907D01*
X120336665Y-117406631D01*
X120336030Y-117350658D01*
X120334794Y-117309351D01*
X120332756Y-117280072D01*
X120329717Y-117260184D01*
X120325477Y-117247050D01*
X120319835Y-117238032D01*
X120312591Y-117230493D01*
X120310806Y-117228812D01*
X120302145Y-117221372D01*
X120292082Y-117215609D01*
X120277825Y-117211312D01*
X120256583Y-117208264D01*
X120225564Y-117206251D01*
X120181977Y-117205060D01*
X120123031Y-117204475D01*
X120045934Y-117204283D01*
X119991201Y-117204267D01*
X119901994Y-117204346D01*
X119901994Y-117204346D01*
G37*
X119901994Y-117204346D02*
X119832586Y-117204718D01*
X119780197Y-117205585D01*
X119742047Y-117207146D01*
X119715359Y-117209603D01*
X119697353Y-117213157D01*
X119685249Y-117218010D01*
X119676269Y-117224361D01*
X119673018Y-117227284D01*
X119653243Y-117258342D01*
X119649682Y-117294028D01*
X119662691Y-117325710D01*
X119668706Y-117332113D01*
X119678435Y-117338321D01*
X119694101Y-117343110D01*
X119718608Y-117346714D01*
X119754861Y-117349364D01*
X119805765Y-117351295D01*
X119874226Y-117352739D01*
X119936817Y-117353618D01*
X120184534Y-117356667D01*
X120187919Y-117421578D01*
X120191305Y-117486489D01*
X120023158Y-117486489D01*
X119950159Y-117487119D01*
X119896717Y-117489753D01*
X119859828Y-117495509D01*
X119836488Y-117505504D01*
X119823694Y-117520856D01*
X119818442Y-117542682D01*
X119817645Y-117562938D01*
X119820123Y-117587792D01*
X119829477Y-117606106D01*
X119848583Y-117618837D01*
X119880318Y-117626941D01*
X119927559Y-117631376D01*
X119993183Y-117633099D01*
X120029001Y-117633245D01*
X120190178Y-117633245D01*
X120190178Y-117791289D01*
X119941822Y-117791289D01*
X119860413Y-117791402D01*
X119798542Y-117791912D01*
X119753168Y-117793070D01*
X119721254Y-117795130D01*
X119699759Y-117798346D01*
X119685643Y-117802972D01*
X119675868Y-117809259D01*
X119670889Y-117813867D01*
X119653810Y-117840760D01*
X119648311Y-117864667D01*
X119656163Y-117893867D01*
X119670889Y-117915467D01*
X119678746Y-117922266D01*
X119688888Y-117927546D01*
X119704044Y-117931498D01*
X119726941Y-117934313D01*
X119760309Y-117936182D01*
X119806875Y-117937298D01*
X119869367Y-117937851D01*
X119950514Y-117938033D01*
X119992622Y-117938045D01*
X120082798Y-117937965D01*
X120153124Y-117937598D01*
X120206329Y-117936752D01*
X120245140Y-117935236D01*
X120272287Y-117932859D01*
X120290498Y-117929429D01*
X120302500Y-117924754D01*
X120311022Y-117918644D01*
X120314356Y-117915467D01*
X120320955Y-117907870D01*
X120326127Y-117898070D01*
X120330046Y-117883439D01*
X120332884Y-117861352D01*
X120334815Y-117829182D01*
X120336012Y-117784303D01*
X120336648Y-117724089D01*
X120336897Y-117645913D01*
X120336934Y-117573123D01*
X120336900Y-117479907D01*
X120336665Y-117406631D01*
X120336030Y-117350658D01*
X120334794Y-117309351D01*
X120332756Y-117280072D01*
X120329717Y-117260184D01*
X120325477Y-117247050D01*
X120319835Y-117238032D01*
X120312591Y-117230493D01*
X120310806Y-117228812D01*
X120302145Y-117221372D01*
X120292082Y-117215609D01*
X120277825Y-117211312D01*
X120256583Y-117208264D01*
X120225564Y-117206251D01*
X120181977Y-117205060D01*
X120123031Y-117204475D01*
X120045934Y-117204283D01*
X119991201Y-117204267D01*
X119901994Y-117204346D01*
G36*
X118880903Y-117205551D02*
X118806088Y-117210781D01*
X118736506Y-117218950D01*
X118676202Y-117229750D01*
X118629220Y-117242873D01*
X118599606Y-117258013D01*
X118595060Y-117262469D01*
X118579254Y-117297050D01*
X118584047Y-117332551D01*
X118608564Y-117362925D01*
X118609734Y-117363796D01*
X118624154Y-117373154D01*
X118639208Y-117378076D01*
X118660205Y-117378673D01*
X118692457Y-117375061D01*
X118741273Y-117367354D01*
X118745200Y-117366705D01*
X118817939Y-117357769D01*
X118896417Y-117353361D01*
X118975127Y-117353319D01*
X119048561Y-117357479D01*
X119111211Y-117365679D01*
X119157570Y-117377757D01*
X119160616Y-117378971D01*
X119194248Y-117397815D01*
X119206064Y-117416885D01*
X119196814Y-117435639D01*
X119167247Y-117453537D01*
X119118111Y-117470037D01*
X119050157Y-117484596D01*
X119004845Y-117491606D01*
X118910656Y-117505089D01*
X118835744Y-117517414D01*
X118776917Y-117529649D01*
X118730985Y-117542861D01*
X118694755Y-117558117D01*
X118665038Y-117576485D01*
X118638642Y-117599031D01*
X118617430Y-117621171D01*
X118592265Y-117652019D01*
X118579881Y-117678545D01*
X118576008Y-117711226D01*
X118575867Y-117723195D01*
X118578776Y-117762912D01*
X118590402Y-117792459D01*
X118610523Y-117818686D01*
X118651416Y-117858776D01*
X118697017Y-117889349D01*
X118750713Y-117911403D01*
X118815892Y-117925935D01*
X118895944Y-117933941D01*
X118994257Y-117936418D01*
X119010489Y-117936377D01*
X119076049Y-117935018D01*
X119141066Y-117931930D01*
X119198452Y-117927556D01*
X119241122Y-117922340D01*
X119244572Y-117921741D01*
X119286996Y-117911691D01*
X119322980Y-117898996D01*
X119343350Y-117887390D01*
X119362307Y-117856772D01*
X119363627Y-117821118D01*
X119347285Y-117789344D01*
X119343629Y-117785751D01*
X119328515Y-117775076D01*
X119309615Y-117770476D01*
X119280362Y-117771259D01*
X119244851Y-117775327D01*
X119205170Y-117778962D01*
X119149545Y-117782028D01*
X119084606Y-117784253D01*
X119016985Y-117785364D01*
X118999200Y-117785437D01*
X118931328Y-117785164D01*
X118881654Y-117783846D01*
X118845810Y-117781027D01*
X118819424Y-117776250D01*
X118798126Y-117769057D01*
X118785326Y-117763067D01*
X118757200Y-117746433D01*
X118739268Y-117731368D01*
X118736647Y-117727097D01*
X118742176Y-117709463D01*
X118768460Y-117692392D01*
X118813678Y-117676658D01*
X118876008Y-117663038D01*
X118894371Y-117660004D01*
X118990290Y-117644938D01*
X119066841Y-117632346D01*
X119126980Y-117621311D01*
X119173660Y-117610920D01*
X119209837Y-117600256D01*
X119238465Y-117588405D01*
X119262498Y-117574451D01*
X119284892Y-117557481D01*
X119308602Y-117536578D01*
X119316580Y-117529249D01*
X119344553Y-117501899D01*
X119359360Y-117480229D01*
X119365152Y-117455432D01*
X119366089Y-117424183D01*
X119355775Y-117362905D01*
X119324952Y-117310840D01*
X119273795Y-117268158D01*
X119202483Y-117235025D01*
X119151600Y-117220164D01*
X119096300Y-117210566D01*
X119030053Y-117205136D01*
X118956906Y-117203567D01*
X118880903Y-117205551D01*
X118880903Y-117205551D01*
G37*
X118880903Y-117205551D02*
X118806088Y-117210781D01*
X118736506Y-117218950D01*
X118676202Y-117229750D01*
X118629220Y-117242873D01*
X118599606Y-117258013D01*
X118595060Y-117262469D01*
X118579254Y-117297050D01*
X118584047Y-117332551D01*
X118608564Y-117362925D01*
X118609734Y-117363796D01*
X118624154Y-117373154D01*
X118639208Y-117378076D01*
X118660205Y-117378673D01*
X118692457Y-117375061D01*
X118741273Y-117367354D01*
X118745200Y-117366705D01*
X118817939Y-117357769D01*
X118896417Y-117353361D01*
X118975127Y-117353319D01*
X119048561Y-117357479D01*
X119111211Y-117365679D01*
X119157570Y-117377757D01*
X119160616Y-117378971D01*
X119194248Y-117397815D01*
X119206064Y-117416885D01*
X119196814Y-117435639D01*
X119167247Y-117453537D01*
X119118111Y-117470037D01*
X119050157Y-117484596D01*
X119004845Y-117491606D01*
X118910656Y-117505089D01*
X118835744Y-117517414D01*
X118776917Y-117529649D01*
X118730985Y-117542861D01*
X118694755Y-117558117D01*
X118665038Y-117576485D01*
X118638642Y-117599031D01*
X118617430Y-117621171D01*
X118592265Y-117652019D01*
X118579881Y-117678545D01*
X118576008Y-117711226D01*
X118575867Y-117723195D01*
X118578776Y-117762912D01*
X118590402Y-117792459D01*
X118610523Y-117818686D01*
X118651416Y-117858776D01*
X118697017Y-117889349D01*
X118750713Y-117911403D01*
X118815892Y-117925935D01*
X118895944Y-117933941D01*
X118994257Y-117936418D01*
X119010489Y-117936377D01*
X119076049Y-117935018D01*
X119141066Y-117931930D01*
X119198452Y-117927556D01*
X119241122Y-117922340D01*
X119244572Y-117921741D01*
X119286996Y-117911691D01*
X119322980Y-117898996D01*
X119343350Y-117887390D01*
X119362307Y-117856772D01*
X119363627Y-117821118D01*
X119347285Y-117789344D01*
X119343629Y-117785751D01*
X119328515Y-117775076D01*
X119309615Y-117770476D01*
X119280362Y-117771259D01*
X119244851Y-117775327D01*
X119205170Y-117778962D01*
X119149545Y-117782028D01*
X119084606Y-117784253D01*
X119016985Y-117785364D01*
X118999200Y-117785437D01*
X118931328Y-117785164D01*
X118881654Y-117783846D01*
X118845810Y-117781027D01*
X118819424Y-117776250D01*
X118798126Y-117769057D01*
X118785326Y-117763067D01*
X118757200Y-117746433D01*
X118739268Y-117731368D01*
X118736647Y-117727097D01*
X118742176Y-117709463D01*
X118768460Y-117692392D01*
X118813678Y-117676658D01*
X118876008Y-117663038D01*
X118894371Y-117660004D01*
X118990290Y-117644938D01*
X119066841Y-117632346D01*
X119126980Y-117621311D01*
X119173660Y-117610920D01*
X119209837Y-117600256D01*
X119238465Y-117588405D01*
X119262498Y-117574451D01*
X119284892Y-117557481D01*
X119308602Y-117536578D01*
X119316580Y-117529249D01*
X119344553Y-117501899D01*
X119359360Y-117480229D01*
X119365152Y-117455432D01*
X119366089Y-117424183D01*
X119355775Y-117362905D01*
X119324952Y-117310840D01*
X119273795Y-117268158D01*
X119202483Y-117235025D01*
X119151600Y-117220164D01*
X119096300Y-117210566D01*
X119030053Y-117205136D01*
X118956906Y-117203567D01*
X118880903Y-117205551D01*
G36*
X118113022Y-117226845D02*
X118106442Y-117234418D01*
X118101279Y-117244187D01*
X118097364Y-117258771D01*
X118094524Y-117280785D01*
X118092587Y-117312848D01*
X118091383Y-117357575D01*
X118090739Y-117417585D01*
X118090484Y-117495494D01*
X118090445Y-117571156D01*
X118090514Y-117665002D01*
X118090838Y-117738889D01*
X118091586Y-117795432D01*
X118092932Y-117837249D01*
X118095046Y-117866957D01*
X118098100Y-117887173D01*
X118102266Y-117900514D01*
X118107716Y-117909598D01*
X118113022Y-117915467D01*
X118146026Y-117935147D01*
X118181191Y-117933381D01*
X118212655Y-117911917D01*
X118219884Y-117903537D01*
X118225534Y-117893814D01*
X118229799Y-117880061D01*
X118232873Y-117859589D01*
X118234952Y-117829712D01*
X118236230Y-117787741D01*
X118236901Y-117730989D01*
X118237159Y-117656767D01*
X118237200Y-117572737D01*
X118237200Y-117259685D01*
X118209491Y-117231976D01*
X118175337Y-117208663D01*
X118142206Y-117207823D01*
X118113022Y-117226845D01*
X118113022Y-117226845D01*
G37*
X118113022Y-117226845D02*
X118106442Y-117234418D01*
X118101279Y-117244187D01*
X118097364Y-117258771D01*
X118094524Y-117280785D01*
X118092587Y-117312848D01*
X118091383Y-117357575D01*
X118090739Y-117417585D01*
X118090484Y-117495494D01*
X118090445Y-117571156D01*
X118090514Y-117665002D01*
X118090838Y-117738889D01*
X118091586Y-117795432D01*
X118092932Y-117837249D01*
X118095046Y-117866957D01*
X118098100Y-117887173D01*
X118102266Y-117900514D01*
X118107716Y-117909598D01*
X118113022Y-117915467D01*
X118146026Y-117935147D01*
X118181191Y-117933381D01*
X118212655Y-117911917D01*
X118219884Y-117903537D01*
X118225534Y-117893814D01*
X118229799Y-117880061D01*
X118232873Y-117859589D01*
X118234952Y-117829712D01*
X118236230Y-117787741D01*
X118236901Y-117730989D01*
X118237159Y-117656767D01*
X118237200Y-117572737D01*
X118237200Y-117259685D01*
X118209491Y-117231976D01*
X118175337Y-117208663D01*
X118142206Y-117207823D01*
X118113022Y-117226845D01*
G36*
X117139281Y-117209799D02*
X117070765Y-117221295D01*
X117018143Y-117239167D01*
X116983908Y-117262699D01*
X116974579Y-117276124D01*
X116965093Y-117307348D01*
X116971477Y-117335595D01*
X116991630Y-117362382D01*
X117022945Y-117374913D01*
X117068383Y-117373896D01*
X117103526Y-117367106D01*
X117181619Y-117354171D01*
X117261426Y-117352942D01*
X117350755Y-117363441D01*
X117375429Y-117367890D01*
X117458491Y-117391308D01*
X117523473Y-117426145D01*
X117569661Y-117471804D01*
X117596345Y-117527694D01*
X117601863Y-117556588D01*
X117598251Y-117615212D01*
X117574929Y-117667079D01*
X117534024Y-117711178D01*
X117477659Y-117746499D01*
X117407960Y-117772029D01*
X117327052Y-117786759D01*
X117237060Y-117789678D01*
X117140110Y-117779775D01*
X117134636Y-117778841D01*
X117096075Y-117771659D01*
X117074694Y-117764721D01*
X117065427Y-117754427D01*
X117063206Y-117737176D01*
X117063156Y-117728041D01*
X117063156Y-117689689D01*
X117131631Y-117689689D01*
X117192100Y-117685547D01*
X117233365Y-117672347D01*
X117257375Y-117648930D01*
X117266077Y-117614136D01*
X117266183Y-117609594D01*
X117261092Y-117579854D01*
X117243633Y-117558619D01*
X117211139Y-117544566D01*
X117160943Y-117536373D01*
X117112323Y-117533361D01*
X117041656Y-117531633D01*
X116990398Y-117534270D01*
X116955439Y-117544000D01*
X116933670Y-117563553D01*
X116921980Y-117595656D01*
X116917260Y-117643038D01*
X116916400Y-117705271D01*
X116917809Y-117774735D01*
X116922048Y-117821986D01*
X116929136Y-117847212D01*
X116930511Y-117849188D01*
X116969428Y-117880708D01*
X117026486Y-117905670D01*
X117098069Y-117923540D01*
X117180558Y-117933786D01*
X117270339Y-117935873D01*
X117363792Y-117929268D01*
X117418756Y-117921156D01*
X117504966Y-117896754D01*
X117585092Y-117856862D01*
X117652177Y-117805087D01*
X117662373Y-117794739D01*
X117695502Y-117751235D01*
X117725394Y-117697318D01*
X117748557Y-117640792D01*
X117761498Y-117589459D01*
X117763058Y-117569744D01*
X117756418Y-117528619D01*
X117738768Y-117477452D01*
X117713497Y-117423594D01*
X117683989Y-117374395D01*
X117657919Y-117341534D01*
X117596965Y-117292652D01*
X117518169Y-117253745D01*
X117424357Y-117225694D01*
X117318350Y-117209379D01*
X117221200Y-117205392D01*
X117139281Y-117209799D01*
X117139281Y-117209799D01*
G37*
X117139281Y-117209799D02*
X117070765Y-117221295D01*
X117018143Y-117239167D01*
X116983908Y-117262699D01*
X116974579Y-117276124D01*
X116965093Y-117307348D01*
X116971477Y-117335595D01*
X116991630Y-117362382D01*
X117022945Y-117374913D01*
X117068383Y-117373896D01*
X117103526Y-117367106D01*
X117181619Y-117354171D01*
X117261426Y-117352942D01*
X117350755Y-117363441D01*
X117375429Y-117367890D01*
X117458491Y-117391308D01*
X117523473Y-117426145D01*
X117569661Y-117471804D01*
X117596345Y-117527694D01*
X117601863Y-117556588D01*
X117598251Y-117615212D01*
X117574929Y-117667079D01*
X117534024Y-117711178D01*
X117477659Y-117746499D01*
X117407960Y-117772029D01*
X117327052Y-117786759D01*
X117237060Y-117789678D01*
X117140110Y-117779775D01*
X117134636Y-117778841D01*
X117096075Y-117771659D01*
X117074694Y-117764721D01*
X117065427Y-117754427D01*
X117063206Y-117737176D01*
X117063156Y-117728041D01*
X117063156Y-117689689D01*
X117131631Y-117689689D01*
X117192100Y-117685547D01*
X117233365Y-117672347D01*
X117257375Y-117648930D01*
X117266077Y-117614136D01*
X117266183Y-117609594D01*
X117261092Y-117579854D01*
X117243633Y-117558619D01*
X117211139Y-117544566D01*
X117160943Y-117536373D01*
X117112323Y-117533361D01*
X117041656Y-117531633D01*
X116990398Y-117534270D01*
X116955439Y-117544000D01*
X116933670Y-117563553D01*
X116921980Y-117595656D01*
X116917260Y-117643038D01*
X116916400Y-117705271D01*
X116917809Y-117774735D01*
X116922048Y-117821986D01*
X116929136Y-117847212D01*
X116930511Y-117849188D01*
X116969428Y-117880708D01*
X117026486Y-117905670D01*
X117098069Y-117923540D01*
X117180558Y-117933786D01*
X117270339Y-117935873D01*
X117363792Y-117929268D01*
X117418756Y-117921156D01*
X117504966Y-117896754D01*
X117585092Y-117856862D01*
X117652177Y-117805087D01*
X117662373Y-117794739D01*
X117695502Y-117751235D01*
X117725394Y-117697318D01*
X117748557Y-117640792D01*
X117761498Y-117589459D01*
X117763058Y-117569744D01*
X117756418Y-117528619D01*
X117738768Y-117477452D01*
X117713497Y-117423594D01*
X117683989Y-117374395D01*
X117657919Y-117341534D01*
X117596965Y-117292652D01*
X117518169Y-117253745D01*
X117424357Y-117225694D01*
X117318350Y-117209379D01*
X117221200Y-117205392D01*
X117139281Y-117209799D01*
G36*
X116489314Y-117208648D02*
X116465748Y-117222473D01*
X116434935Y-117245081D01*
X116395278Y-117277538D01*
X116345180Y-117320908D01*
X116283043Y-117376258D01*
X116207272Y-117444651D01*
X116120534Y-117523284D01*
X115939911Y-117687078D01*
X115934267Y-117467229D01*
X115932229Y-117391551D01*
X115930263Y-117335194D01*
X115927934Y-117294906D01*
X115924806Y-117267435D01*
X115920445Y-117249529D01*
X115914416Y-117237937D01*
X115906284Y-117229408D01*
X115901972Y-117225823D01*
X115867441Y-117206870D01*
X115834583Y-117209641D01*
X115808518Y-117225833D01*
X115781867Y-117247399D01*
X115778552Y-117562351D01*
X115777635Y-117654979D01*
X115777168Y-117727744D01*
X115777313Y-117783361D01*
X115778232Y-117824542D01*
X115780087Y-117854003D01*
X115783039Y-117874455D01*
X115787250Y-117888613D01*
X115792882Y-117899191D01*
X115799127Y-117907674D01*
X115812639Y-117923407D01*
X115826083Y-117933836D01*
X115841324Y-117937839D01*
X115860226Y-117934294D01*
X115884655Y-117922079D01*
X115916473Y-117900071D01*
X115957548Y-117867149D01*
X116009742Y-117822191D01*
X116074922Y-117764075D01*
X116148756Y-117697299D01*
X116414045Y-117456658D01*
X116419689Y-117675789D01*
X116421731Y-117751328D01*
X116423702Y-117807554D01*
X116426039Y-117847724D01*
X116429181Y-117875096D01*
X116433564Y-117892928D01*
X116439624Y-117904479D01*
X116447800Y-117913007D01*
X116451984Y-117916482D01*
X116488965Y-117935572D01*
X116523908Y-117932693D01*
X116554336Y-117908300D01*
X116561297Y-117898486D01*
X116566723Y-117887026D01*
X116570803Y-117871168D01*
X116573729Y-117848163D01*
X116575692Y-117815262D01*
X116576883Y-117769716D01*
X116577492Y-117708773D01*
X116577711Y-117629686D01*
X116577734Y-117571156D01*
X116577660Y-117479607D01*
X116577313Y-117407887D01*
X116576501Y-117353245D01*
X116575033Y-117312932D01*
X116572719Y-117284198D01*
X116569367Y-117264293D01*
X116564788Y-117250468D01*
X116558789Y-117239972D01*
X116554336Y-117234011D01*
X116543050Y-117219891D01*
X116532501Y-117209229D01*
X116521093Y-117203092D01*
X116507230Y-117202543D01*
X116489314Y-117208648D01*
X116489314Y-117208648D01*
G37*
X116489314Y-117208648D02*
X116465748Y-117222473D01*
X116434935Y-117245081D01*
X116395278Y-117277538D01*
X116345180Y-117320908D01*
X116283043Y-117376258D01*
X116207272Y-117444651D01*
X116120534Y-117523284D01*
X115939911Y-117687078D01*
X115934267Y-117467229D01*
X115932229Y-117391551D01*
X115930263Y-117335194D01*
X115927934Y-117294906D01*
X115924806Y-117267435D01*
X115920445Y-117249529D01*
X115914416Y-117237937D01*
X115906284Y-117229408D01*
X115901972Y-117225823D01*
X115867441Y-117206870D01*
X115834583Y-117209641D01*
X115808518Y-117225833D01*
X115781867Y-117247399D01*
X115778552Y-117562351D01*
X115777635Y-117654979D01*
X115777168Y-117727744D01*
X115777313Y-117783361D01*
X115778232Y-117824542D01*
X115780087Y-117854003D01*
X115783039Y-117874455D01*
X115787250Y-117888613D01*
X115792882Y-117899191D01*
X115799127Y-117907674D01*
X115812639Y-117923407D01*
X115826083Y-117933836D01*
X115841324Y-117937839D01*
X115860226Y-117934294D01*
X115884655Y-117922079D01*
X115916473Y-117900071D01*
X115957548Y-117867149D01*
X116009742Y-117822191D01*
X116074922Y-117764075D01*
X116148756Y-117697299D01*
X116414045Y-117456658D01*
X116419689Y-117675789D01*
X116421731Y-117751328D01*
X116423702Y-117807554D01*
X116426039Y-117847724D01*
X116429181Y-117875096D01*
X116433564Y-117892928D01*
X116439624Y-117904479D01*
X116447800Y-117913007D01*
X116451984Y-117916482D01*
X116488965Y-117935572D01*
X116523908Y-117932693D01*
X116554336Y-117908300D01*
X116561297Y-117898486D01*
X116566723Y-117887026D01*
X116570803Y-117871168D01*
X116573729Y-117848163D01*
X116575692Y-117815262D01*
X116576883Y-117769716D01*
X116577492Y-117708773D01*
X116577711Y-117629686D01*
X116577734Y-117571156D01*
X116577660Y-117479607D01*
X116577313Y-117407887D01*
X116576501Y-117353245D01*
X116575033Y-117312932D01*
X116572719Y-117284198D01*
X116569367Y-117264293D01*
X116564788Y-117250468D01*
X116558789Y-117239972D01*
X116554336Y-117234011D01*
X116543050Y-117219891D01*
X116532501Y-117209229D01*
X116521093Y-117203092D01*
X116507230Y-117202543D01*
X116489314Y-117208648D01*
G36*
X114958857Y-117204460D02*
X114882499Y-117205374D01*
X114823983Y-117207511D01*
X114780945Y-117211375D01*
X114751017Y-117217467D01*
X114731832Y-117226290D01*
X114721024Y-117238346D01*
X114716227Y-117254139D01*
X114715073Y-117274170D01*
X114715067Y-117276535D01*
X114716069Y-117299192D01*
X114720804Y-117316703D01*
X114731867Y-117329774D01*
X114751852Y-117339113D01*
X114783354Y-117345427D01*
X114828968Y-117349422D01*
X114891287Y-117351806D01*
X114972907Y-117353286D01*
X114997923Y-117353614D01*
X115240000Y-117356667D01*
X115243386Y-117421578D01*
X115246771Y-117486489D01*
X115078624Y-117486489D01*
X115012934Y-117486731D01*
X114966028Y-117487756D01*
X114934117Y-117490011D01*
X114913409Y-117493942D01*
X114900116Y-117499998D01*
X114890445Y-117508624D01*
X114890383Y-117508693D01*
X114872844Y-117542312D01*
X114873478Y-117578648D01*
X114891886Y-117609623D01*
X114895529Y-117612807D01*
X114908459Y-117621012D01*
X114926176Y-117626721D01*
X114952630Y-117630362D01*
X114991768Y-117632367D01*
X115047538Y-117633164D01*
X115083206Y-117633245D01*
X115245645Y-117633245D01*
X115245645Y-117791289D01*
X114999039Y-117791289D01*
X114917620Y-117791431D01*
X114855790Y-117792014D01*
X114810563Y-117793268D01*
X114778952Y-117795427D01*
X114757969Y-117798723D01*
X114744627Y-117803389D01*
X114735939Y-117809657D01*
X114733750Y-117811933D01*
X114717586Y-117843480D01*
X114716403Y-117879368D01*
X114729664Y-117910485D01*
X114740157Y-117920471D01*
X114751071Y-117925969D01*
X114767983Y-117930222D01*
X114793567Y-117933380D01*
X114830499Y-117935592D01*
X114881454Y-117937006D01*
X114949106Y-117937772D01*
X115036131Y-117938038D01*
X115055806Y-117938045D01*
X115144289Y-117937987D01*
X115212973Y-117937667D01*
X115264636Y-117936867D01*
X115302055Y-117935367D01*
X115328010Y-117932949D01*
X115345278Y-117929394D01*
X115356638Y-117924482D01*
X115364868Y-117917995D01*
X115369383Y-117913338D01*
X115376179Y-117905089D01*
X115381488Y-117894869D01*
X115385494Y-117880000D01*
X115388379Y-117857802D01*
X115390326Y-117825593D01*
X115391519Y-117780696D01*
X115392139Y-117720428D01*
X115392371Y-117642111D01*
X115392400Y-117576194D01*
X115392329Y-117483828D01*
X115391992Y-117411317D01*
X115391202Y-117355937D01*
X115389774Y-117314965D01*
X115387521Y-117285678D01*
X115384257Y-117265353D01*
X115379796Y-117251266D01*
X115373952Y-117240695D01*
X115369003Y-117234011D01*
X115345606Y-117204267D01*
X115055426Y-117204267D01*
X114958857Y-117204460D01*
X114958857Y-117204460D01*
G37*
X114958857Y-117204460D02*
X114882499Y-117205374D01*
X114823983Y-117207511D01*
X114780945Y-117211375D01*
X114751017Y-117217467D01*
X114731832Y-117226290D01*
X114721024Y-117238346D01*
X114716227Y-117254139D01*
X114715073Y-117274170D01*
X114715067Y-117276535D01*
X114716069Y-117299192D01*
X114720804Y-117316703D01*
X114731867Y-117329774D01*
X114751852Y-117339113D01*
X114783354Y-117345427D01*
X114828968Y-117349422D01*
X114891287Y-117351806D01*
X114972907Y-117353286D01*
X114997923Y-117353614D01*
X115240000Y-117356667D01*
X115243386Y-117421578D01*
X115246771Y-117486489D01*
X115078624Y-117486489D01*
X115012934Y-117486731D01*
X114966028Y-117487756D01*
X114934117Y-117490011D01*
X114913409Y-117493942D01*
X114900116Y-117499998D01*
X114890445Y-117508624D01*
X114890383Y-117508693D01*
X114872844Y-117542312D01*
X114873478Y-117578648D01*
X114891886Y-117609623D01*
X114895529Y-117612807D01*
X114908459Y-117621012D01*
X114926176Y-117626721D01*
X114952630Y-117630362D01*
X114991768Y-117632367D01*
X115047538Y-117633164D01*
X115083206Y-117633245D01*
X115245645Y-117633245D01*
X115245645Y-117791289D01*
X114999039Y-117791289D01*
X114917620Y-117791431D01*
X114855790Y-117792014D01*
X114810563Y-117793268D01*
X114778952Y-117795427D01*
X114757969Y-117798723D01*
X114744627Y-117803389D01*
X114735939Y-117809657D01*
X114733750Y-117811933D01*
X114717586Y-117843480D01*
X114716403Y-117879368D01*
X114729664Y-117910485D01*
X114740157Y-117920471D01*
X114751071Y-117925969D01*
X114767983Y-117930222D01*
X114793567Y-117933380D01*
X114830499Y-117935592D01*
X114881454Y-117937006D01*
X114949106Y-117937772D01*
X115036131Y-117938038D01*
X115055806Y-117938045D01*
X115144289Y-117937987D01*
X115212973Y-117937667D01*
X115264636Y-117936867D01*
X115302055Y-117935367D01*
X115328010Y-117932949D01*
X115345278Y-117929394D01*
X115356638Y-117924482D01*
X115364868Y-117917995D01*
X115369383Y-117913338D01*
X115376179Y-117905089D01*
X115381488Y-117894869D01*
X115385494Y-117880000D01*
X115388379Y-117857802D01*
X115390326Y-117825593D01*
X115391519Y-117780696D01*
X115392139Y-117720428D01*
X115392371Y-117642111D01*
X115392400Y-117576194D01*
X115392329Y-117483828D01*
X115391992Y-117411317D01*
X115391202Y-117355937D01*
X115389774Y-117314965D01*
X115387521Y-117285678D01*
X115384257Y-117265353D01*
X115379796Y-117251266D01*
X115373952Y-117240695D01*
X115369003Y-117234011D01*
X115345606Y-117204267D01*
X115055426Y-117204267D01*
X114958857Y-117204460D01*
G36*
X114170891Y-117204475D02*
X114041912Y-117208836D01*
X113932209Y-117222061D01*
X113839974Y-117244941D01*
X113763398Y-117278270D01*
X113700673Y-117322838D01*
X113649988Y-117379436D01*
X113609537Y-117448858D01*
X113608741Y-117450551D01*
X113584599Y-117512683D01*
X113575997Y-117567709D01*
X113582969Y-117623087D01*
X113605546Y-117686273D01*
X113609828Y-117695889D01*
X113639028Y-117752166D01*
X113671844Y-117795651D01*
X113714198Y-117832617D01*
X113772010Y-117869335D01*
X113775369Y-117871252D01*
X113825696Y-117895427D01*
X113882579Y-117913482D01*
X113949673Y-117926039D01*
X114030635Y-117933722D01*
X114129118Y-117937153D01*
X114163914Y-117937451D01*
X114329606Y-117938045D01*
X114353003Y-117908300D01*
X114359943Y-117898519D01*
X114365358Y-117887097D01*
X114369435Y-117871295D01*
X114372363Y-117848375D01*
X114374333Y-117815596D01*
X114374975Y-117791289D01*
X114218356Y-117791289D01*
X114124474Y-117791289D01*
X114069536Y-117789683D01*
X114013140Y-117785455D01*
X113966855Y-117779492D01*
X113964061Y-117778990D01*
X113881852Y-117756936D01*
X113818086Y-117723800D01*
X113770748Y-117678047D01*
X113737818Y-117618139D01*
X113732092Y-117602261D01*
X113726479Y-117577533D01*
X113728909Y-117553102D01*
X113740733Y-117520600D01*
X113747860Y-117504634D01*
X113771200Y-117462206D01*
X113799320Y-117432440D01*
X113830260Y-117411711D01*
X113892234Y-117384737D01*
X113971549Y-117365198D01*
X114063947Y-117353946D01*
X114130867Y-117351470D01*
X114218356Y-117351022D01*
X114218356Y-117791289D01*
X114374975Y-117791289D01*
X114375532Y-117770221D01*
X114376150Y-117709511D01*
X114376375Y-117630726D01*
X114376400Y-117569120D01*
X114376400Y-117259685D01*
X114348691Y-117231976D01*
X114336394Y-117220744D01*
X114323097Y-117213053D01*
X114304528Y-117208240D01*
X114276414Y-117205646D01*
X114234483Y-117204610D01*
X114174463Y-117204470D01*
X114170891Y-117204475D01*
X114170891Y-117204475D01*
G37*
X114170891Y-117204475D02*
X114041912Y-117208836D01*
X113932209Y-117222061D01*
X113839974Y-117244941D01*
X113763398Y-117278270D01*
X113700673Y-117322838D01*
X113649988Y-117379436D01*
X113609537Y-117448858D01*
X113608741Y-117450551D01*
X113584599Y-117512683D01*
X113575997Y-117567709D01*
X113582969Y-117623087D01*
X113605546Y-117686273D01*
X113609828Y-117695889D01*
X113639028Y-117752166D01*
X113671844Y-117795651D01*
X113714198Y-117832617D01*
X113772010Y-117869335D01*
X113775369Y-117871252D01*
X113825696Y-117895427D01*
X113882579Y-117913482D01*
X113949673Y-117926039D01*
X114030635Y-117933722D01*
X114129118Y-117937153D01*
X114163914Y-117937451D01*
X114329606Y-117938045D01*
X114353003Y-117908300D01*
X114359943Y-117898519D01*
X114365358Y-117887097D01*
X114369435Y-117871295D01*
X114372363Y-117848375D01*
X114374333Y-117815596D01*
X114374975Y-117791289D01*
X114218356Y-117791289D01*
X114124474Y-117791289D01*
X114069536Y-117789683D01*
X114013140Y-117785455D01*
X113966855Y-117779492D01*
X113964061Y-117778990D01*
X113881852Y-117756936D01*
X113818086Y-117723800D01*
X113770748Y-117678047D01*
X113737818Y-117618139D01*
X113732092Y-117602261D01*
X113726479Y-117577533D01*
X113728909Y-117553102D01*
X113740733Y-117520600D01*
X113747860Y-117504634D01*
X113771200Y-117462206D01*
X113799320Y-117432440D01*
X113830260Y-117411711D01*
X113892234Y-117384737D01*
X113971549Y-117365198D01*
X114063947Y-117353946D01*
X114130867Y-117351470D01*
X114218356Y-117351022D01*
X114218356Y-117791289D01*
X114374975Y-117791289D01*
X114375532Y-117770221D01*
X114376150Y-117709511D01*
X114376375Y-117630726D01*
X114376400Y-117569120D01*
X114376400Y-117259685D01*
X114348691Y-117231976D01*
X114336394Y-117220744D01*
X114323097Y-117213053D01*
X114304528Y-117208240D01*
X114276414Y-117205646D01*
X114234483Y-117204610D01*
X114174463Y-117204470D01*
X114170891Y-117204475D01*
G36*
X111444535Y-117206234D02*
X111424945Y-117213235D01*
X111424190Y-117213577D01*
X111397587Y-117233878D01*
X111382930Y-117254761D01*
X111380062Y-117264552D01*
X111380204Y-117277561D01*
X111384239Y-117296095D01*
X111393054Y-117322457D01*
X111407531Y-117358952D01*
X111428555Y-117407887D01*
X111457012Y-117471565D01*
X111493785Y-117552293D01*
X111514025Y-117596416D01*
X111550575Y-117675185D01*
X111584885Y-117747623D01*
X111615648Y-117811080D01*
X111641552Y-117862908D01*
X111661290Y-117900459D01*
X111673550Y-117921084D01*
X111675976Y-117923933D01*
X111707017Y-117936502D01*
X111742079Y-117934819D01*
X111770200Y-117919532D01*
X111771346Y-117918289D01*
X111782532Y-117901354D01*
X111801296Y-117868370D01*
X111825325Y-117823580D01*
X111852303Y-117771232D01*
X111861999Y-117751942D01*
X111935186Y-117605350D01*
X112014960Y-117764593D01*
X112043433Y-117819615D01*
X112069850Y-117867332D01*
X112092052Y-117904093D01*
X112107881Y-117926244D01*
X112113246Y-117930941D01*
X112154943Y-117937302D01*
X112189351Y-117923933D01*
X112199472Y-117909646D01*
X112216986Y-117877892D01*
X112240465Y-117831797D01*
X112268480Y-117774485D01*
X112299601Y-117709080D01*
X112332401Y-117638707D01*
X112365450Y-117566491D01*
X112397319Y-117495555D01*
X112426581Y-117429025D01*
X112451805Y-117370026D01*
X112471564Y-117321681D01*
X112484428Y-117287115D01*
X112488969Y-117269453D01*
X112488923Y-117268813D01*
X112477874Y-117246588D01*
X112455790Y-117223953D01*
X112454490Y-117222968D01*
X112427347Y-117207625D01*
X112402242Y-117207774D01*
X112392832Y-117210666D01*
X112381366Y-117216918D01*
X112369190Y-117229214D01*
X112354843Y-117250108D01*
X112336864Y-117282149D01*
X112313793Y-117327888D01*
X112284170Y-117389877D01*
X112257455Y-117447098D01*
X112226720Y-117513426D01*
X112199179Y-117573074D01*
X112176262Y-117622925D01*
X112159402Y-117659864D01*
X112150027Y-117680773D01*
X112148660Y-117684045D01*
X112142511Y-117678697D01*
X112128378Y-117656309D01*
X112108143Y-117620146D01*
X112083685Y-117573477D01*
X112073952Y-117554222D01*
X112040983Y-117489204D01*
X112015557Y-117441854D01*
X111995588Y-117409419D01*
X111978990Y-117389146D01*
X111963676Y-117378282D01*
X111947560Y-117374075D01*
X111937057Y-117373600D01*
X111918530Y-117375242D01*
X111902296Y-117382031D01*
X111886165Y-117396766D01*
X111867949Y-117422244D01*
X111845461Y-117461261D01*
X111816511Y-117516614D01*
X111800538Y-117548103D01*
X111774630Y-117598287D01*
X111752033Y-117639904D01*
X111734742Y-117669442D01*
X111724750Y-117683389D01*
X111723391Y-117683970D01*
X111716939Y-117672993D01*
X111702492Y-117644490D01*
X111681497Y-117601444D01*
X111655403Y-117546838D01*
X111625654Y-117483654D01*
X111611020Y-117452271D01*
X111572950Y-117371278D01*
X111542295Y-117308956D01*
X111517463Y-117263271D01*
X111496863Y-117232189D01*
X111478902Y-117213678D01*
X111461990Y-117205704D01*
X111444535Y-117206234D01*
X111444535Y-117206234D01*
G37*
X111444535Y-117206234D02*
X111424945Y-117213235D01*
X111424190Y-117213577D01*
X111397587Y-117233878D01*
X111382930Y-117254761D01*
X111380062Y-117264552D01*
X111380204Y-117277561D01*
X111384239Y-117296095D01*
X111393054Y-117322457D01*
X111407531Y-117358952D01*
X111428555Y-117407887D01*
X111457012Y-117471565D01*
X111493785Y-117552293D01*
X111514025Y-117596416D01*
X111550575Y-117675185D01*
X111584885Y-117747623D01*
X111615648Y-117811080D01*
X111641552Y-117862908D01*
X111661290Y-117900459D01*
X111673550Y-117921084D01*
X111675976Y-117923933D01*
X111707017Y-117936502D01*
X111742079Y-117934819D01*
X111770200Y-117919532D01*
X111771346Y-117918289D01*
X111782532Y-117901354D01*
X111801296Y-117868370D01*
X111825325Y-117823580D01*
X111852303Y-117771232D01*
X111861999Y-117751942D01*
X111935186Y-117605350D01*
X112014960Y-117764593D01*
X112043433Y-117819615D01*
X112069850Y-117867332D01*
X112092052Y-117904093D01*
X112107881Y-117926244D01*
X112113246Y-117930941D01*
X112154943Y-117937302D01*
X112189351Y-117923933D01*
X112199472Y-117909646D01*
X112216986Y-117877892D01*
X112240465Y-117831797D01*
X112268480Y-117774485D01*
X112299601Y-117709080D01*
X112332401Y-117638707D01*
X112365450Y-117566491D01*
X112397319Y-117495555D01*
X112426581Y-117429025D01*
X112451805Y-117370026D01*
X112471564Y-117321681D01*
X112484428Y-117287115D01*
X112488969Y-117269453D01*
X112488923Y-117268813D01*
X112477874Y-117246588D01*
X112455790Y-117223953D01*
X112454490Y-117222968D01*
X112427347Y-117207625D01*
X112402242Y-117207774D01*
X112392832Y-117210666D01*
X112381366Y-117216918D01*
X112369190Y-117229214D01*
X112354843Y-117250108D01*
X112336864Y-117282149D01*
X112313793Y-117327888D01*
X112284170Y-117389877D01*
X112257455Y-117447098D01*
X112226720Y-117513426D01*
X112199179Y-117573074D01*
X112176262Y-117622925D01*
X112159402Y-117659864D01*
X112150027Y-117680773D01*
X112148660Y-117684045D01*
X112142511Y-117678697D01*
X112128378Y-117656309D01*
X112108143Y-117620146D01*
X112083685Y-117573477D01*
X112073952Y-117554222D01*
X112040983Y-117489204D01*
X112015557Y-117441854D01*
X111995588Y-117409419D01*
X111978990Y-117389146D01*
X111963676Y-117378282D01*
X111947560Y-117374075D01*
X111937057Y-117373600D01*
X111918530Y-117375242D01*
X111902296Y-117382031D01*
X111886165Y-117396766D01*
X111867949Y-117422244D01*
X111845461Y-117461261D01*
X111816511Y-117516614D01*
X111800538Y-117548103D01*
X111774630Y-117598287D01*
X111752033Y-117639904D01*
X111734742Y-117669442D01*
X111724750Y-117683389D01*
X111723391Y-117683970D01*
X111716939Y-117672993D01*
X111702492Y-117644490D01*
X111681497Y-117601444D01*
X111655403Y-117546838D01*
X111625654Y-117483654D01*
X111611020Y-117452271D01*
X111572950Y-117371278D01*
X111542295Y-117308956D01*
X111517463Y-117263271D01*
X111496863Y-117232189D01*
X111478902Y-117213678D01*
X111461990Y-117205704D01*
X111444535Y-117206234D01*
G36*
X111000586Y-117211077D02*
X110976873Y-117225847D01*
X110950222Y-117247427D01*
X110950222Y-117568973D01*
X110950307Y-117663030D01*
X110950671Y-117737132D01*
X110951476Y-117793904D01*
X110952887Y-117835968D01*
X110955067Y-117865948D01*
X110958179Y-117886467D01*
X110962386Y-117900149D01*
X110967852Y-117909616D01*
X110971728Y-117914282D01*
X111003166Y-117934775D01*
X111038967Y-117933939D01*
X111070327Y-117916464D01*
X111096978Y-117894884D01*
X111096978Y-117247427D01*
X111070327Y-117225847D01*
X111044606Y-117210149D01*
X111023600Y-117204267D01*
X111000586Y-117211077D01*
X111000586Y-117211077D01*
G37*
X111000586Y-117211077D02*
X110976873Y-117225847D01*
X110950222Y-117247427D01*
X110950222Y-117568973D01*
X110950307Y-117663030D01*
X110950671Y-117737132D01*
X110951476Y-117793904D01*
X110952887Y-117835968D01*
X110955067Y-117865948D01*
X110958179Y-117886467D01*
X110962386Y-117900149D01*
X110967852Y-117909616D01*
X110971728Y-117914282D01*
X111003166Y-117934775D01*
X111038967Y-117933939D01*
X111070327Y-117916464D01*
X111096978Y-117894884D01*
X111096978Y-117247427D01*
X111070327Y-117225847D01*
X111044606Y-117210149D01*
X111023600Y-117204267D01*
X111000586Y-117211077D01*
G36*
X110226135Y-117204363D02*
X110147428Y-117204742D01*
X110086337Y-117205533D01*
X110040383Y-117206870D01*
X110007086Y-117208883D01*
X109983964Y-117211706D01*
X109968538Y-117215469D01*
X109958329Y-117220305D01*
X109953387Y-117224022D01*
X109927743Y-117256558D01*
X109924641Y-117290338D01*
X109940489Y-117321026D01*
X109950852Y-117333289D01*
X109962004Y-117341650D01*
X109978165Y-117346857D01*
X110003558Y-117349657D01*
X110042402Y-117350796D01*
X110098920Y-117351021D01*
X110110020Y-117351022D01*
X110255956Y-117351022D01*
X110255956Y-117621956D01*
X110256052Y-117707354D01*
X110256489Y-117773064D01*
X110257488Y-117821974D01*
X110259272Y-117856973D01*
X110262063Y-117880949D01*
X110266083Y-117896793D01*
X110271555Y-117907391D01*
X110278534Y-117915467D01*
X110311466Y-117935312D01*
X110345846Y-117933748D01*
X110377024Y-117911106D01*
X110379314Y-117908300D01*
X110386771Y-117897692D01*
X110392453Y-117885281D01*
X110396599Y-117868050D01*
X110399450Y-117842984D01*
X110401246Y-117807067D01*
X110402228Y-117757283D01*
X110402636Y-117690617D01*
X110402711Y-117614789D01*
X110402711Y-117351022D01*
X110542073Y-117351022D01*
X110601878Y-117350618D01*
X110643282Y-117349040D01*
X110670452Y-117345747D01*
X110687554Y-117340192D01*
X110698757Y-117331831D01*
X110700117Y-117330378D01*
X110716475Y-117297139D01*
X110715028Y-117259562D01*
X110696222Y-117226845D01*
X110688950Y-117220498D01*
X110679573Y-117215466D01*
X110665591Y-117211596D01*
X110644504Y-117208737D01*
X110613811Y-117206735D01*
X110571011Y-117205439D01*
X110513605Y-117204698D01*
X110439090Y-117204358D01*
X110344967Y-117204268D01*
X110324940Y-117204267D01*
X110226135Y-117204363D01*
X110226135Y-117204363D01*
G37*
X110226135Y-117204363D02*
X110147428Y-117204742D01*
X110086337Y-117205533D01*
X110040383Y-117206870D01*
X110007086Y-117208883D01*
X109983964Y-117211706D01*
X109968538Y-117215469D01*
X109958329Y-117220305D01*
X109953387Y-117224022D01*
X109927743Y-117256558D01*
X109924641Y-117290338D01*
X109940489Y-117321026D01*
X109950852Y-117333289D01*
X109962004Y-117341650D01*
X109978165Y-117346857D01*
X110003558Y-117349657D01*
X110042402Y-117350796D01*
X110098920Y-117351021D01*
X110110020Y-117351022D01*
X110255956Y-117351022D01*
X110255956Y-117621956D01*
X110256052Y-117707354D01*
X110256489Y-117773064D01*
X110257488Y-117821974D01*
X110259272Y-117856973D01*
X110262063Y-117880949D01*
X110266083Y-117896793D01*
X110271555Y-117907391D01*
X110278534Y-117915467D01*
X110311466Y-117935312D01*
X110345846Y-117933748D01*
X110377024Y-117911106D01*
X110379314Y-117908300D01*
X110386771Y-117897692D01*
X110392453Y-117885281D01*
X110396599Y-117868050D01*
X110399450Y-117842984D01*
X110401246Y-117807067D01*
X110402228Y-117757283D01*
X110402636Y-117690617D01*
X110402711Y-117614789D01*
X110402711Y-117351022D01*
X110542073Y-117351022D01*
X110601878Y-117350618D01*
X110643282Y-117349040D01*
X110670452Y-117345747D01*
X110687554Y-117340192D01*
X110698757Y-117331831D01*
X110700117Y-117330378D01*
X110716475Y-117297139D01*
X110715028Y-117259562D01*
X110696222Y-117226845D01*
X110688950Y-117220498D01*
X110679573Y-117215466D01*
X110665591Y-117211596D01*
X110644504Y-117208737D01*
X110613811Y-117206735D01*
X110571011Y-117205439D01*
X110513605Y-117204698D01*
X110439090Y-117204358D01*
X110344967Y-117204268D01*
X110324940Y-117204267D01*
X110226135Y-117204363D01*
G36*
X108960377Y-117209733D02*
X108928998Y-117231976D01*
X108901289Y-117259685D01*
X108901289Y-117569120D01*
X108901362Y-117660999D01*
X108901705Y-117733040D01*
X108902508Y-117787980D01*
X108903959Y-117828560D01*
X108906248Y-117857517D01*
X108909564Y-117877591D01*
X108914095Y-117891521D01*
X108920031Y-117902045D01*
X108924686Y-117908300D01*
X108955417Y-117932873D01*
X108990704Y-117935541D01*
X109022955Y-117920471D01*
X109033612Y-117911574D01*
X109040736Y-117899757D01*
X109045033Y-117880726D01*
X109047209Y-117850192D01*
X109047972Y-117803862D01*
X109048045Y-117768071D01*
X109048045Y-117633245D01*
X109544756Y-117633245D01*
X109544756Y-117755900D01*
X109545269Y-117811987D01*
X109547324Y-117850533D01*
X109551692Y-117876561D01*
X109559144Y-117895097D01*
X109568153Y-117908300D01*
X109599056Y-117932804D01*
X109634004Y-117935706D01*
X109667462Y-117918289D01*
X109676596Y-117909159D01*
X109683048Y-117897055D01*
X109687303Y-117878201D01*
X109689848Y-117848820D01*
X109691171Y-117805137D01*
X109691757Y-117743375D01*
X109691825Y-117729200D01*
X109692309Y-117612831D01*
X109692559Y-117516927D01*
X109692477Y-117439377D01*
X109691969Y-117378069D01*
X109690938Y-117330890D01*
X109689287Y-117295730D01*
X109686921Y-117270476D01*
X109683743Y-117253017D01*
X109679656Y-117241241D01*
X109674566Y-117233035D01*
X109668934Y-117226845D01*
X109637072Y-117207044D01*
X109603843Y-117209733D01*
X109572465Y-117231976D01*
X109559767Y-117246326D01*
X109551674Y-117262178D01*
X109547158Y-117284754D01*
X109545194Y-117319278D01*
X109544756Y-117370976D01*
X109544756Y-117486489D01*
X109048045Y-117486489D01*
X109048045Y-117367956D01*
X109047538Y-117313348D01*
X109045502Y-117276475D01*
X109041165Y-117252507D01*
X109033753Y-117236615D01*
X109025467Y-117226845D01*
X108993606Y-117207044D01*
X108960377Y-117209733D01*
X108960377Y-117209733D01*
G37*
X108960377Y-117209733D02*
X108928998Y-117231976D01*
X108901289Y-117259685D01*
X108901289Y-117569120D01*
X108901362Y-117660999D01*
X108901705Y-117733040D01*
X108902508Y-117787980D01*
X108903959Y-117828560D01*
X108906248Y-117857517D01*
X108909564Y-117877591D01*
X108914095Y-117891521D01*
X108920031Y-117902045D01*
X108924686Y-117908300D01*
X108955417Y-117932873D01*
X108990704Y-117935541D01*
X109022955Y-117920471D01*
X109033612Y-117911574D01*
X109040736Y-117899757D01*
X109045033Y-117880726D01*
X109047209Y-117850192D01*
X109047972Y-117803862D01*
X109048045Y-117768071D01*
X109048045Y-117633245D01*
X109544756Y-117633245D01*
X109544756Y-117755900D01*
X109545269Y-117811987D01*
X109547324Y-117850533D01*
X109551692Y-117876561D01*
X109559144Y-117895097D01*
X109568153Y-117908300D01*
X109599056Y-117932804D01*
X109634004Y-117935706D01*
X109667462Y-117918289D01*
X109676596Y-117909159D01*
X109683048Y-117897055D01*
X109687303Y-117878201D01*
X109689848Y-117848820D01*
X109691171Y-117805137D01*
X109691757Y-117743375D01*
X109691825Y-117729200D01*
X109692309Y-117612831D01*
X109692559Y-117516927D01*
X109692477Y-117439377D01*
X109691969Y-117378069D01*
X109690938Y-117330890D01*
X109689287Y-117295730D01*
X109686921Y-117270476D01*
X109683743Y-117253017D01*
X109679656Y-117241241D01*
X109674566Y-117233035D01*
X109668934Y-117226845D01*
X109637072Y-117207044D01*
X109603843Y-117209733D01*
X109572465Y-117231976D01*
X109559767Y-117246326D01*
X109551674Y-117262178D01*
X109547158Y-117284754D01*
X109545194Y-117319278D01*
X109544756Y-117370976D01*
X109544756Y-117486489D01*
X109048045Y-117486489D01*
X109048045Y-117367956D01*
X109047538Y-117313348D01*
X109045502Y-117276475D01*
X109041165Y-117252507D01*
X109033753Y-117236615D01*
X109025467Y-117226845D01*
X108993606Y-117207044D01*
X108960377Y-117209733D01*
G36*
X118135600Y-112424254D02*
X118124735Y-112538193D01*
X118093118Y-112645816D01*
X118042215Y-112744815D01*
X117973493Y-112832884D01*
X117888419Y-112907716D01*
X117791432Y-112965584D01*
X117685164Y-113005205D01*
X117578150Y-113023773D01*
X117472500Y-113022634D01*
X117370325Y-113003130D01*
X117273734Y-112966606D01*
X117184838Y-112914405D01*
X117105746Y-112847873D01*
X117038569Y-112768352D01*
X116985417Y-112677187D01*
X116948399Y-112575723D01*
X116929627Y-112465302D01*
X116927689Y-112415406D01*
X116927689Y-112327467D01*
X116875760Y-112327467D01*
X116839453Y-112330311D01*
X116812555Y-112342111D01*
X116785449Y-112365849D01*
X116747067Y-112404231D01*
X116747067Y-114595802D01*
X116747076Y-114857939D01*
X116747108Y-115098441D01*
X116747172Y-115318248D01*
X116747276Y-115518301D01*
X116747427Y-115699544D01*
X116747634Y-115862916D01*
X116747906Y-116009360D01*
X116748250Y-116139817D01*
X116748674Y-116255229D01*
X116749187Y-116356538D01*
X116749797Y-116444684D01*
X116750512Y-116520610D01*
X116751340Y-116585257D01*
X116752289Y-116639567D01*
X116753367Y-116684480D01*
X116754583Y-116720940D01*
X116755945Y-116749887D01*
X116757461Y-116772263D01*
X116759138Y-116789009D01*
X116760986Y-116801068D01*
X116763013Y-116809380D01*
X116765225Y-116814887D01*
X116766308Y-116816737D01*
X116770471Y-116823749D01*
X116774005Y-116830196D01*
X116777835Y-116836100D01*
X116782882Y-116841486D01*
X116790071Y-116846378D01*
X116800323Y-116850798D01*
X116814564Y-116854772D01*
X116833714Y-116858321D01*
X116858699Y-116861470D01*
X116890440Y-116864242D01*
X116929862Y-116866661D01*
X116977886Y-116868751D01*
X117035437Y-116870535D01*
X117103437Y-116872037D01*
X117182810Y-116873280D01*
X117274479Y-116874289D01*
X117379366Y-116875085D01*
X117498396Y-116875694D01*
X117632490Y-116876139D01*
X117782573Y-116876443D01*
X117949567Y-116876630D01*
X118134396Y-116876724D01*
X118337983Y-116876748D01*
X118561250Y-116876725D01*
X118805122Y-116876680D01*
X119070521Y-116876637D01*
X119108904Y-116876632D01*
X119375882Y-116876589D01*
X119621202Y-116876518D01*
X119845783Y-116876413D01*
X120050545Y-116876266D01*
X120236406Y-116876069D01*
X120404288Y-116875816D01*
X120555108Y-116875500D01*
X120689787Y-116875113D01*
X120809244Y-116874647D01*
X120914399Y-116874097D01*
X121006171Y-116873453D01*
X121085479Y-116872711D01*
X121153243Y-116871861D01*
X121210382Y-116870897D01*
X121257817Y-116869811D01*
X121296466Y-116868597D01*
X121327249Y-116867247D01*
X121351085Y-116865755D01*
X121368894Y-116864111D01*
X121381595Y-116862311D01*
X121390108Y-116860345D01*
X121394466Y-116858677D01*
X121402928Y-116855106D01*
X121410697Y-116852470D01*
X121417802Y-116849834D01*
X121424273Y-116846262D01*
X121430139Y-116840821D01*
X121435429Y-116832575D01*
X121440174Y-116820590D01*
X121444402Y-116803931D01*
X121448143Y-116781663D01*
X121451427Y-116752852D01*
X121454283Y-116716563D01*
X121456740Y-116671861D01*
X121458829Y-116617811D01*
X121460578Y-116553479D01*
X121462017Y-116477930D01*
X121463176Y-116390230D01*
X121464083Y-116289443D01*
X121464769Y-116174634D01*
X121465263Y-116044870D01*
X121465595Y-115899215D01*
X121465793Y-115736735D01*
X121465887Y-115556495D01*
X121465908Y-115357560D01*
X121465885Y-115138996D01*
X121465846Y-114899868D01*
X121465822Y-114639240D01*
X121465822Y-114597089D01*
X121465836Y-114334192D01*
X121465861Y-114092932D01*
X121465871Y-113872365D01*
X121465842Y-113671552D01*
X121465748Y-113489549D01*
X121465562Y-113325416D01*
X121465259Y-113178211D01*
X121464814Y-113046992D01*
X121464234Y-112937067D01*
X121161397Y-112937067D01*
X121121607Y-112994911D01*
X121110436Y-113010679D01*
X121100366Y-113024641D01*
X121091338Y-113037984D01*
X121083297Y-113051893D01*
X121076186Y-113067556D01*
X121069947Y-113086158D01*
X121064525Y-113108886D01*
X121059862Y-113136927D01*
X121055901Y-113171467D01*
X121052585Y-113213692D01*
X121049859Y-113264789D01*
X121047664Y-113325944D01*
X121045945Y-113398344D01*
X121044644Y-113483175D01*
X121043705Y-113581622D01*
X121043070Y-113694874D01*
X121042684Y-113824116D01*
X121042488Y-113970534D01*
X121042427Y-114135316D01*
X121042443Y-114319647D01*
X121042480Y-114524713D01*
X121042489Y-114647333D01*
X121042465Y-114864282D01*
X121042431Y-115059842D01*
X121042443Y-115235199D01*
X121042558Y-115391541D01*
X121042830Y-115530057D01*
X121043318Y-115651934D01*
X121044076Y-115758360D01*
X121045162Y-115850522D01*
X121046631Y-115929609D01*
X121048540Y-115996808D01*
X121050944Y-116053307D01*
X121053901Y-116100293D01*
X121057466Y-116138955D01*
X121061695Y-116170480D01*
X121066646Y-116196055D01*
X121072373Y-116216870D01*
X121078933Y-116234111D01*
X121086383Y-116248965D01*
X121094779Y-116262622D01*
X121104176Y-116276269D01*
X121114632Y-116291093D01*
X121120723Y-116299983D01*
X121159496Y-116357600D01*
X120627932Y-116357600D01*
X120504683Y-116357565D01*
X120402187Y-116357415D01*
X120318620Y-116357078D01*
X120252156Y-116356486D01*
X120200971Y-116355567D01*
X120163241Y-116354251D01*
X120137140Y-116352469D01*
X120120844Y-116350151D01*
X120112528Y-116347226D01*
X120110368Y-116343624D01*
X120112539Y-116339275D01*
X120113735Y-116337845D01*
X120138885Y-116300773D01*
X120164783Y-116247972D01*
X120188392Y-116185970D01*
X120196661Y-116159557D01*
X120201278Y-116141616D01*
X120205179Y-116120555D01*
X120208448Y-116094289D01*
X120211166Y-116060732D01*
X120213415Y-116017799D01*
X120215277Y-115963404D01*
X120216836Y-115895462D01*
X120218172Y-115811888D01*
X120219369Y-115710595D01*
X120220508Y-115589500D01*
X120220885Y-115544800D01*
X120221902Y-115419649D01*
X120222660Y-115315282D01*
X120223103Y-115229907D01*
X120223170Y-115161733D01*
X120222805Y-115108965D01*
X120221948Y-115069814D01*
X120220541Y-115042485D01*
X120218525Y-115025186D01*
X120215843Y-115016126D01*
X120212436Y-115013512D01*
X120208244Y-115015551D01*
X120203771Y-115019867D01*
X120193416Y-115032802D01*
X120171358Y-115061876D01*
X120139157Y-115104959D01*
X120098374Y-115159918D01*
X120050570Y-115224623D01*
X119997305Y-115296942D01*
X119940140Y-115374744D01*
X119880637Y-115455898D01*
X119820355Y-115538272D01*
X119760855Y-115619736D01*
X119703698Y-115698157D01*
X119650445Y-115771404D01*
X119602657Y-115837347D01*
X119561893Y-115893854D01*
X119529716Y-115938793D01*
X119507685Y-115970034D01*
X119503117Y-115976666D01*
X119480196Y-116013569D01*
X119453388Y-116061559D01*
X119427989Y-116111097D01*
X119424768Y-116117777D01*
X119403090Y-116165972D01*
X119390504Y-116203534D01*
X119384774Y-116239360D01*
X119383656Y-116281400D01*
X119384290Y-116357600D01*
X118229851Y-116357600D01*
X118321015Y-116263869D01*
X118367812Y-116213975D01*
X118418099Y-116157495D01*
X118464144Y-116103226D01*
X118484569Y-116077873D01*
X118515007Y-116038328D01*
X118555062Y-115985116D01*
X118603561Y-115919867D01*
X118659335Y-115844211D01*
X118721211Y-115759777D01*
X118788019Y-115668194D01*
X118858587Y-115571092D01*
X118931745Y-115470101D01*
X119006321Y-115366850D01*
X119081144Y-115262968D01*
X119155043Y-115160085D01*
X119226846Y-115059831D01*
X119295384Y-114963836D01*
X119359484Y-114873727D01*
X119417975Y-114791136D01*
X119469686Y-114717692D01*
X119513447Y-114655024D01*
X119548085Y-114604761D01*
X119572430Y-114568534D01*
X119585311Y-114547971D01*
X119587069Y-114543868D01*
X119579110Y-114532542D01*
X119558315Y-114505362D01*
X119526047Y-114464029D01*
X119483670Y-114410244D01*
X119432547Y-114345706D01*
X119374041Y-114272118D01*
X119309514Y-114191178D01*
X119240331Y-114104588D01*
X119167853Y-114014048D01*
X119093446Y-113921260D01*
X119033717Y-113846902D01*
X118022711Y-113846902D01*
X118016802Y-113859859D01*
X118002472Y-113882108D01*
X118001425Y-113883591D01*
X117982638Y-113913744D01*
X117962991Y-113950575D01*
X117959092Y-113958711D01*
X117955556Y-113967140D01*
X117952430Y-113977259D01*
X117949686Y-113990460D01*
X117947292Y-114008138D01*
X117945219Y-114031684D01*
X117943435Y-114062493D01*
X117941912Y-114101957D01*
X117940619Y-114151469D01*
X117939526Y-114212423D01*
X117938603Y-114286211D01*
X117937819Y-114374228D01*
X117937145Y-114477865D01*
X117936550Y-114598516D01*
X117936005Y-114737574D01*
X117935479Y-114896432D01*
X117934945Y-115075289D01*
X117934406Y-115260407D01*
X117933972Y-115424345D01*
X117933709Y-115568503D01*
X117933684Y-115694279D01*
X117933965Y-115803071D01*
X117934619Y-115896277D01*
X117935714Y-115975297D01*
X117937318Y-116041528D01*
X117939497Y-116096370D01*
X117942319Y-116141221D01*
X117945851Y-116177478D01*
X117950161Y-116206541D01*
X117955317Y-116229809D01*
X117961385Y-116248679D01*
X117968433Y-116264551D01*
X117976529Y-116278822D01*
X117985740Y-116292891D01*
X117994240Y-116305358D01*
X118011376Y-116331652D01*
X118021522Y-116349237D01*
X118022711Y-116352457D01*
X118011804Y-116353534D01*
X117980611Y-116354535D01*
X117931423Y-116355435D01*
X117866533Y-116356210D01*
X117788230Y-116356837D01*
X117698807Y-116357291D01*
X117600556Y-116357549D01*
X117531645Y-116357600D01*
X117426652Y-116357380D01*
X117329810Y-116356748D01*
X117243307Y-116355749D01*
X117169332Y-116354427D01*
X117110074Y-116352826D01*
X117067720Y-116350991D01*
X117044460Y-116348965D01*
X117040578Y-116347693D01*
X117048276Y-116332791D01*
X117056274Y-116324760D01*
X117069446Y-116307634D01*
X117086685Y-116277383D01*
X117098607Y-116252822D01*
X117125245Y-116193911D01*
X117128320Y-115017045D01*
X117131395Y-113840178D01*
X117577053Y-113840178D01*
X117674870Y-113840342D01*
X117765264Y-113840811D01*
X117845830Y-113841547D01*
X117914162Y-113842516D01*
X117967856Y-113843680D01*
X118004505Y-113845003D01*
X118021704Y-113846449D01*
X118022711Y-113846902D01*
X119033717Y-113846902D01*
X119018470Y-113827922D01*
X118944290Y-113735737D01*
X118872269Y-113646404D01*
X118803769Y-113561624D01*
X118740155Y-113483098D01*
X118682788Y-113412526D01*
X118633033Y-113351609D01*
X118592252Y-113302047D01*
X118575088Y-113281378D01*
X118488796Y-113180716D01*
X118412197Y-113097459D01*
X118343383Y-113029638D01*
X118280448Y-112975289D01*
X118271067Y-112967922D01*
X118231556Y-112937317D01*
X119363316Y-112937067D01*
X119358027Y-112985044D01*
X119361330Y-113042388D01*
X119382861Y-113110663D01*
X119422835Y-113190412D01*
X119468143Y-113262695D01*
X119484361Y-113285340D01*
X119512414Y-113322896D01*
X119550630Y-113373221D01*
X119597337Y-113434173D01*
X119650861Y-113503611D01*
X119709531Y-113579394D01*
X119771675Y-113659380D01*
X119835621Y-113741428D01*
X119899695Y-113823396D01*
X119962227Y-113903143D01*
X120021543Y-113978527D01*
X120075971Y-114047407D01*
X120123839Y-114107642D01*
X120163475Y-114157089D01*
X120193206Y-114193608D01*
X120211361Y-114215058D01*
X120214420Y-114218356D01*
X120217279Y-114210349D01*
X120219493Y-114180055D01*
X120221057Y-114127756D01*
X120221967Y-114053731D01*
X120222220Y-113958263D01*
X120221813Y-113841634D01*
X120220904Y-113721645D01*
X120219582Y-113589533D01*
X120218057Y-113477794D01*
X120216081Y-113384225D01*
X120213406Y-113306619D01*
X120209782Y-113242774D01*
X120204961Y-113190483D01*
X120198694Y-113147544D01*
X120190732Y-113111751D01*
X120180827Y-113080900D01*
X120168731Y-113052786D01*
X120154193Y-113025205D01*
X120139511Y-113000166D01*
X120101514Y-112937067D01*
X121161397Y-112937067D01*
X121464234Y-112937067D01*
X121464201Y-112930817D01*
X121463395Y-112828744D01*
X121462370Y-112739833D01*
X121461100Y-112663141D01*
X121459560Y-112597727D01*
X121457724Y-112542649D01*
X121455567Y-112496965D01*
X121453063Y-112459734D01*
X121450187Y-112430013D01*
X121446913Y-112406862D01*
X121443215Y-112389339D01*
X121439069Y-112376501D01*
X121434447Y-112367408D01*
X121429326Y-112361118D01*
X121423678Y-112356688D01*
X121417479Y-112353178D01*
X121410704Y-112349645D01*
X121404708Y-112346076D01*
X121399475Y-112343500D01*
X121391299Y-112341172D01*
X121379086Y-112339078D01*
X121361741Y-112337207D01*
X121338169Y-112335547D01*
X121307277Y-112334084D01*
X121267968Y-112332808D01*
X121219150Y-112331704D01*
X121159727Y-112330761D01*
X121088604Y-112329967D01*
X121004688Y-112329309D01*
X120906883Y-112328775D01*
X120794094Y-112328353D01*
X120665229Y-112328029D01*
X120519191Y-112327792D01*
X120354886Y-112327630D01*
X120171220Y-112327530D01*
X119967097Y-112327480D01*
X119755953Y-112327467D01*
X118135600Y-112327467D01*
X118135600Y-112424254D01*
X118135600Y-112424254D01*
G37*
X118135600Y-112424254D02*
X118124735Y-112538193D01*
X118093118Y-112645816D01*
X118042215Y-112744815D01*
X117973493Y-112832884D01*
X117888419Y-112907716D01*
X117791432Y-112965584D01*
X117685164Y-113005205D01*
X117578150Y-113023773D01*
X117472500Y-113022634D01*
X117370325Y-113003130D01*
X117273734Y-112966606D01*
X117184838Y-112914405D01*
X117105746Y-112847873D01*
X117038569Y-112768352D01*
X116985417Y-112677187D01*
X116948399Y-112575723D01*
X116929627Y-112465302D01*
X116927689Y-112415406D01*
X116927689Y-112327467D01*
X116875760Y-112327467D01*
X116839453Y-112330311D01*
X116812555Y-112342111D01*
X116785449Y-112365849D01*
X116747067Y-112404231D01*
X116747067Y-114595802D01*
X116747076Y-114857939D01*
X116747108Y-115098441D01*
X116747172Y-115318248D01*
X116747276Y-115518301D01*
X116747427Y-115699544D01*
X116747634Y-115862916D01*
X116747906Y-116009360D01*
X116748250Y-116139817D01*
X116748674Y-116255229D01*
X116749187Y-116356538D01*
X116749797Y-116444684D01*
X116750512Y-116520610D01*
X116751340Y-116585257D01*
X116752289Y-116639567D01*
X116753367Y-116684480D01*
X116754583Y-116720940D01*
X116755945Y-116749887D01*
X116757461Y-116772263D01*
X116759138Y-116789009D01*
X116760986Y-116801068D01*
X116763013Y-116809380D01*
X116765225Y-116814887D01*
X116766308Y-116816737D01*
X116770471Y-116823749D01*
X116774005Y-116830196D01*
X116777835Y-116836100D01*
X116782882Y-116841486D01*
X116790071Y-116846378D01*
X116800323Y-116850798D01*
X116814564Y-116854772D01*
X116833714Y-116858321D01*
X116858699Y-116861470D01*
X116890440Y-116864242D01*
X116929862Y-116866661D01*
X116977886Y-116868751D01*
X117035437Y-116870535D01*
X117103437Y-116872037D01*
X117182810Y-116873280D01*
X117274479Y-116874289D01*
X117379366Y-116875085D01*
X117498396Y-116875694D01*
X117632490Y-116876139D01*
X117782573Y-116876443D01*
X117949567Y-116876630D01*
X118134396Y-116876724D01*
X118337983Y-116876748D01*
X118561250Y-116876725D01*
X118805122Y-116876680D01*
X119070521Y-116876637D01*
X119108904Y-116876632D01*
X119375882Y-116876589D01*
X119621202Y-116876518D01*
X119845783Y-116876413D01*
X120050545Y-116876266D01*
X120236406Y-116876069D01*
X120404288Y-116875816D01*
X120555108Y-116875500D01*
X120689787Y-116875113D01*
X120809244Y-116874647D01*
X120914399Y-116874097D01*
X121006171Y-116873453D01*
X121085479Y-116872711D01*
X121153243Y-116871861D01*
X121210382Y-116870897D01*
X121257817Y-116869811D01*
X121296466Y-116868597D01*
X121327249Y-116867247D01*
X121351085Y-116865755D01*
X121368894Y-116864111D01*
X121381595Y-116862311D01*
X121390108Y-116860345D01*
X121394466Y-116858677D01*
X121402928Y-116855106D01*
X121410697Y-116852470D01*
X121417802Y-116849834D01*
X121424273Y-116846262D01*
X121430139Y-116840821D01*
X121435429Y-116832575D01*
X121440174Y-116820590D01*
X121444402Y-116803931D01*
X121448143Y-116781663D01*
X121451427Y-116752852D01*
X121454283Y-116716563D01*
X121456740Y-116671861D01*
X121458829Y-116617811D01*
X121460578Y-116553479D01*
X121462017Y-116477930D01*
X121463176Y-116390230D01*
X121464083Y-116289443D01*
X121464769Y-116174634D01*
X121465263Y-116044870D01*
X121465595Y-115899215D01*
X121465793Y-115736735D01*
X121465887Y-115556495D01*
X121465908Y-115357560D01*
X121465885Y-115138996D01*
X121465846Y-114899868D01*
X121465822Y-114639240D01*
X121465822Y-114597089D01*
X121465836Y-114334192D01*
X121465861Y-114092932D01*
X121465871Y-113872365D01*
X121465842Y-113671552D01*
X121465748Y-113489549D01*
X121465562Y-113325416D01*
X121465259Y-113178211D01*
X121464814Y-113046992D01*
X121464234Y-112937067D01*
X121161397Y-112937067D01*
X121121607Y-112994911D01*
X121110436Y-113010679D01*
X121100366Y-113024641D01*
X121091338Y-113037984D01*
X121083297Y-113051893D01*
X121076186Y-113067556D01*
X121069947Y-113086158D01*
X121064525Y-113108886D01*
X121059862Y-113136927D01*
X121055901Y-113171467D01*
X121052585Y-113213692D01*
X121049859Y-113264789D01*
X121047664Y-113325944D01*
X121045945Y-113398344D01*
X121044644Y-113483175D01*
X121043705Y-113581622D01*
X121043070Y-113694874D01*
X121042684Y-113824116D01*
X121042488Y-113970534D01*
X121042427Y-114135316D01*
X121042443Y-114319647D01*
X121042480Y-114524713D01*
X121042489Y-114647333D01*
X121042465Y-114864282D01*
X121042431Y-115059842D01*
X121042443Y-115235199D01*
X121042558Y-115391541D01*
X121042830Y-115530057D01*
X121043318Y-115651934D01*
X121044076Y-115758360D01*
X121045162Y-115850522D01*
X121046631Y-115929609D01*
X121048540Y-115996808D01*
X121050944Y-116053307D01*
X121053901Y-116100293D01*
X121057466Y-116138955D01*
X121061695Y-116170480D01*
X121066646Y-116196055D01*
X121072373Y-116216870D01*
X121078933Y-116234111D01*
X121086383Y-116248965D01*
X121094779Y-116262622D01*
X121104176Y-116276269D01*
X121114632Y-116291093D01*
X121120723Y-116299983D01*
X121159496Y-116357600D01*
X120627932Y-116357600D01*
X120504683Y-116357565D01*
X120402187Y-116357415D01*
X120318620Y-116357078D01*
X120252156Y-116356486D01*
X120200971Y-116355567D01*
X120163241Y-116354251D01*
X120137140Y-116352469D01*
X120120844Y-116350151D01*
X120112528Y-116347226D01*
X120110368Y-116343624D01*
X120112539Y-116339275D01*
X120113735Y-116337845D01*
X120138885Y-116300773D01*
X120164783Y-116247972D01*
X120188392Y-116185970D01*
X120196661Y-116159557D01*
X120201278Y-116141616D01*
X120205179Y-116120555D01*
X120208448Y-116094289D01*
X120211166Y-116060732D01*
X120213415Y-116017799D01*
X120215277Y-115963404D01*
X120216836Y-115895462D01*
X120218172Y-115811888D01*
X120219369Y-115710595D01*
X120220508Y-115589500D01*
X120220885Y-115544800D01*
X120221902Y-115419649D01*
X120222660Y-115315282D01*
X120223103Y-115229907D01*
X120223170Y-115161733D01*
X120222805Y-115108965D01*
X120221948Y-115069814D01*
X120220541Y-115042485D01*
X120218525Y-115025186D01*
X120215843Y-115016126D01*
X120212436Y-115013512D01*
X120208244Y-115015551D01*
X120203771Y-115019867D01*
X120193416Y-115032802D01*
X120171358Y-115061876D01*
X120139157Y-115104959D01*
X120098374Y-115159918D01*
X120050570Y-115224623D01*
X119997305Y-115296942D01*
X119940140Y-115374744D01*
X119880637Y-115455898D01*
X119820355Y-115538272D01*
X119760855Y-115619736D01*
X119703698Y-115698157D01*
X119650445Y-115771404D01*
X119602657Y-115837347D01*
X119561893Y-115893854D01*
X119529716Y-115938793D01*
X119507685Y-115970034D01*
X119503117Y-115976666D01*
X119480196Y-116013569D01*
X119453388Y-116061559D01*
X119427989Y-116111097D01*
X119424768Y-116117777D01*
X119403090Y-116165972D01*
X119390504Y-116203534D01*
X119384774Y-116239360D01*
X119383656Y-116281400D01*
X119384290Y-116357600D01*
X118229851Y-116357600D01*
X118321015Y-116263869D01*
X118367812Y-116213975D01*
X118418099Y-116157495D01*
X118464144Y-116103226D01*
X118484569Y-116077873D01*
X118515007Y-116038328D01*
X118555062Y-115985116D01*
X118603561Y-115919867D01*
X118659335Y-115844211D01*
X118721211Y-115759777D01*
X118788019Y-115668194D01*
X118858587Y-115571092D01*
X118931745Y-115470101D01*
X119006321Y-115366850D01*
X119081144Y-115262968D01*
X119155043Y-115160085D01*
X119226846Y-115059831D01*
X119295384Y-114963836D01*
X119359484Y-114873727D01*
X119417975Y-114791136D01*
X119469686Y-114717692D01*
X119513447Y-114655024D01*
X119548085Y-114604761D01*
X119572430Y-114568534D01*
X119585311Y-114547971D01*
X119587069Y-114543868D01*
X119579110Y-114532542D01*
X119558315Y-114505362D01*
X119526047Y-114464029D01*
X119483670Y-114410244D01*
X119432547Y-114345706D01*
X119374041Y-114272118D01*
X119309514Y-114191178D01*
X119240331Y-114104588D01*
X119167853Y-114014048D01*
X119093446Y-113921260D01*
X119033717Y-113846902D01*
X118022711Y-113846902D01*
X118016802Y-113859859D01*
X118002472Y-113882108D01*
X118001425Y-113883591D01*
X117982638Y-113913744D01*
X117962991Y-113950575D01*
X117959092Y-113958711D01*
X117955556Y-113967140D01*
X117952430Y-113977259D01*
X117949686Y-113990460D01*
X117947292Y-114008138D01*
X117945219Y-114031684D01*
X117943435Y-114062493D01*
X117941912Y-114101957D01*
X117940619Y-114151469D01*
X117939526Y-114212423D01*
X117938603Y-114286211D01*
X117937819Y-114374228D01*
X117937145Y-114477865D01*
X117936550Y-114598516D01*
X117936005Y-114737574D01*
X117935479Y-114896432D01*
X117934945Y-115075289D01*
X117934406Y-115260407D01*
X117933972Y-115424345D01*
X117933709Y-115568503D01*
X117933684Y-115694279D01*
X117933965Y-115803071D01*
X117934619Y-115896277D01*
X117935714Y-115975297D01*
X117937318Y-116041528D01*
X117939497Y-116096370D01*
X117942319Y-116141221D01*
X117945851Y-116177478D01*
X117950161Y-116206541D01*
X117955317Y-116229809D01*
X117961385Y-116248679D01*
X117968433Y-116264551D01*
X117976529Y-116278822D01*
X117985740Y-116292891D01*
X117994240Y-116305358D01*
X118011376Y-116331652D01*
X118021522Y-116349237D01*
X118022711Y-116352457D01*
X118011804Y-116353534D01*
X117980611Y-116354535D01*
X117931423Y-116355435D01*
X117866533Y-116356210D01*
X117788230Y-116356837D01*
X117698807Y-116357291D01*
X117600556Y-116357549D01*
X117531645Y-116357600D01*
X117426652Y-116357380D01*
X117329810Y-116356748D01*
X117243307Y-116355749D01*
X117169332Y-116354427D01*
X117110074Y-116352826D01*
X117067720Y-116350991D01*
X117044460Y-116348965D01*
X117040578Y-116347693D01*
X117048276Y-116332791D01*
X117056274Y-116324760D01*
X117069446Y-116307634D01*
X117086685Y-116277383D01*
X117098607Y-116252822D01*
X117125245Y-116193911D01*
X117128320Y-115017045D01*
X117131395Y-113840178D01*
X117577053Y-113840178D01*
X117674870Y-113840342D01*
X117765264Y-113840811D01*
X117845830Y-113841547D01*
X117914162Y-113842516D01*
X117967856Y-113843680D01*
X118004505Y-113845003D01*
X118021704Y-113846449D01*
X118022711Y-113846902D01*
X119033717Y-113846902D01*
X119018470Y-113827922D01*
X118944290Y-113735737D01*
X118872269Y-113646404D01*
X118803769Y-113561624D01*
X118740155Y-113483098D01*
X118682788Y-113412526D01*
X118633033Y-113351609D01*
X118592252Y-113302047D01*
X118575088Y-113281378D01*
X118488796Y-113180716D01*
X118412197Y-113097459D01*
X118343383Y-113029638D01*
X118280448Y-112975289D01*
X118271067Y-112967922D01*
X118231556Y-112937317D01*
X119363316Y-112937067D01*
X119358027Y-112985044D01*
X119361330Y-113042388D01*
X119382861Y-113110663D01*
X119422835Y-113190412D01*
X119468143Y-113262695D01*
X119484361Y-113285340D01*
X119512414Y-113322896D01*
X119550630Y-113373221D01*
X119597337Y-113434173D01*
X119650861Y-113503611D01*
X119709531Y-113579394D01*
X119771675Y-113659380D01*
X119835621Y-113741428D01*
X119899695Y-113823396D01*
X119962227Y-113903143D01*
X120021543Y-113978527D01*
X120075971Y-114047407D01*
X120123839Y-114107642D01*
X120163475Y-114157089D01*
X120193206Y-114193608D01*
X120211361Y-114215058D01*
X120214420Y-114218356D01*
X120217279Y-114210349D01*
X120219493Y-114180055D01*
X120221057Y-114127756D01*
X120221967Y-114053731D01*
X120222220Y-113958263D01*
X120221813Y-113841634D01*
X120220904Y-113721645D01*
X120219582Y-113589533D01*
X120218057Y-113477794D01*
X120216081Y-113384225D01*
X120213406Y-113306619D01*
X120209782Y-113242774D01*
X120204961Y-113190483D01*
X120198694Y-113147544D01*
X120190732Y-113111751D01*
X120180827Y-113080900D01*
X120168731Y-113052786D01*
X120154193Y-113025205D01*
X120139511Y-113000166D01*
X120101514Y-112937067D01*
X121161397Y-112937067D01*
X121464234Y-112937067D01*
X121464201Y-112930817D01*
X121463395Y-112828744D01*
X121462370Y-112739833D01*
X121461100Y-112663141D01*
X121459560Y-112597727D01*
X121457724Y-112542649D01*
X121455567Y-112496965D01*
X121453063Y-112459734D01*
X121450187Y-112430013D01*
X121446913Y-112406862D01*
X121443215Y-112389339D01*
X121439069Y-112376501D01*
X121434447Y-112367408D01*
X121429326Y-112361118D01*
X121423678Y-112356688D01*
X121417479Y-112353178D01*
X121410704Y-112349645D01*
X121404708Y-112346076D01*
X121399475Y-112343500D01*
X121391299Y-112341172D01*
X121379086Y-112339078D01*
X121361741Y-112337207D01*
X121338169Y-112335547D01*
X121307277Y-112334084D01*
X121267968Y-112332808D01*
X121219150Y-112331704D01*
X121159727Y-112330761D01*
X121088604Y-112329967D01*
X121004688Y-112329309D01*
X120906883Y-112328775D01*
X120794094Y-112328353D01*
X120665229Y-112328029D01*
X120519191Y-112327792D01*
X120354886Y-112327630D01*
X120171220Y-112327530D01*
X119967097Y-112327480D01*
X119755953Y-112327467D01*
X118135600Y-112327467D01*
X118135600Y-112424254D01*
G36*
X114860771Y-112884271D02*
X114700630Y-112905445D01*
X114536690Y-112945585D01*
X114366887Y-113005089D01*
X114189157Y-113084354D01*
X114177890Y-113089899D01*
X114120195Y-113117925D01*
X114068648Y-113142002D01*
X114027009Y-113160449D01*
X113999038Y-113171586D01*
X113989467Y-113174133D01*
X113970250Y-113179141D01*
X113965639Y-113183347D01*
X113970742Y-113193780D01*
X113986782Y-113220068D01*
X114011912Y-113259457D01*
X114044286Y-113309191D01*
X114082057Y-113366515D01*
X114123378Y-113428676D01*
X114166402Y-113492918D01*
X114209283Y-113556485D01*
X114250174Y-113616625D01*
X114287229Y-113670580D01*
X114318600Y-113715597D01*
X114342441Y-113748921D01*
X114356906Y-113767797D01*
X114358891Y-113769987D01*
X114369009Y-113765338D01*
X114391350Y-113748162D01*
X114421920Y-113721640D01*
X114437664Y-113707164D01*
X114534153Y-113631882D01*
X114640864Y-113576441D01*
X114756368Y-113541341D01*
X114879238Y-113527080D01*
X114948639Y-113528251D01*
X115069777Y-113545412D01*
X115178995Y-113581294D01*
X115276618Y-113636159D01*
X115362972Y-113710270D01*
X115438385Y-113803888D01*
X115503182Y-113917276D01*
X115540599Y-114003867D01*
X115584452Y-114139566D01*
X115616772Y-114287050D01*
X115637643Y-114442514D01*
X115647149Y-114602156D01*
X115645373Y-114762173D01*
X115632397Y-114918761D01*
X115608306Y-115068118D01*
X115573182Y-115206440D01*
X115527108Y-115329924D01*
X115510827Y-115364178D01*
X115442580Y-115478264D01*
X115362121Y-115574757D01*
X115270630Y-115652870D01*
X115169289Y-115711817D01*
X115059280Y-115750812D01*
X114941785Y-115769068D01*
X114900317Y-115770411D01*
X114778759Y-115759490D01*
X114658322Y-115726674D01*
X114540534Y-115672639D01*
X114426923Y-115598065D01*
X114335515Y-115519739D01*
X114288985Y-115475208D01*
X114107717Y-115772471D01*
X114062620Y-115846633D01*
X114021381Y-115914846D01*
X113985465Y-115974659D01*
X113956334Y-116023620D01*
X113935450Y-116059279D01*
X113924276Y-116079184D01*
X113922825Y-116082279D01*
X113931054Y-116091918D01*
X113956633Y-116109199D01*
X113996327Y-116132483D01*
X114046903Y-116160134D01*
X114105126Y-116190515D01*
X114167763Y-116221990D01*
X114231579Y-116252922D01*
X114293340Y-116281673D01*
X114349812Y-116306608D01*
X114397762Y-116326089D01*
X114421214Y-116334518D01*
X114554979Y-116372333D01*
X114692873Y-116397336D01*
X114840578Y-116410340D01*
X114967367Y-116412668D01*
X115035322Y-116411573D01*
X115100923Y-116409475D01*
X115158353Y-116406634D01*
X115201797Y-116403306D01*
X115215902Y-116401622D01*
X115354916Y-116372787D01*
X115496443Y-116327668D01*
X115633925Y-116268950D01*
X115760806Y-116199320D01*
X115838311Y-116146641D01*
X115965719Y-116038439D01*
X116084022Y-115911871D01*
X116191028Y-115770066D01*
X116284548Y-115616151D01*
X116362390Y-115453253D01*
X116406244Y-115335956D01*
X116456492Y-115152328D01*
X116489991Y-114957781D01*
X116506751Y-114756525D01*
X116506784Y-114552768D01*
X116490099Y-114350721D01*
X116456707Y-114154592D01*
X116406620Y-113968591D01*
X116402803Y-113957003D01*
X116339919Y-113794950D01*
X116263172Y-113647032D01*
X116169958Y-113509065D01*
X116057673Y-113376861D01*
X116013808Y-113331599D01*
X115877666Y-113207657D01*
X115737709Y-113105115D01*
X115591789Y-113022856D01*
X115437758Y-112959764D01*
X115273468Y-112914723D01*
X115177911Y-112897233D01*
X115019177Y-112881666D01*
X114860771Y-112884271D01*
X114860771Y-112884271D01*
G37*
X114860771Y-112884271D02*
X114700630Y-112905445D01*
X114536690Y-112945585D01*
X114366887Y-113005089D01*
X114189157Y-113084354D01*
X114177890Y-113089899D01*
X114120195Y-113117925D01*
X114068648Y-113142002D01*
X114027009Y-113160449D01*
X113999038Y-113171586D01*
X113989467Y-113174133D01*
X113970250Y-113179141D01*
X113965639Y-113183347D01*
X113970742Y-113193780D01*
X113986782Y-113220068D01*
X114011912Y-113259457D01*
X114044286Y-113309191D01*
X114082057Y-113366515D01*
X114123378Y-113428676D01*
X114166402Y-113492918D01*
X114209283Y-113556485D01*
X114250174Y-113616625D01*
X114287229Y-113670580D01*
X114318600Y-113715597D01*
X114342441Y-113748921D01*
X114356906Y-113767797D01*
X114358891Y-113769987D01*
X114369009Y-113765338D01*
X114391350Y-113748162D01*
X114421920Y-113721640D01*
X114437664Y-113707164D01*
X114534153Y-113631882D01*
X114640864Y-113576441D01*
X114756368Y-113541341D01*
X114879238Y-113527080D01*
X114948639Y-113528251D01*
X115069777Y-113545412D01*
X115178995Y-113581294D01*
X115276618Y-113636159D01*
X115362972Y-113710270D01*
X115438385Y-113803888D01*
X115503182Y-113917276D01*
X115540599Y-114003867D01*
X115584452Y-114139566D01*
X115616772Y-114287050D01*
X115637643Y-114442514D01*
X115647149Y-114602156D01*
X115645373Y-114762173D01*
X115632397Y-114918761D01*
X115608306Y-115068118D01*
X115573182Y-115206440D01*
X115527108Y-115329924D01*
X115510827Y-115364178D01*
X115442580Y-115478264D01*
X115362121Y-115574757D01*
X115270630Y-115652870D01*
X115169289Y-115711817D01*
X115059280Y-115750812D01*
X114941785Y-115769068D01*
X114900317Y-115770411D01*
X114778759Y-115759490D01*
X114658322Y-115726674D01*
X114540534Y-115672639D01*
X114426923Y-115598065D01*
X114335515Y-115519739D01*
X114288985Y-115475208D01*
X114107717Y-115772471D01*
X114062620Y-115846633D01*
X114021381Y-115914846D01*
X113985465Y-115974659D01*
X113956334Y-116023620D01*
X113935450Y-116059279D01*
X113924276Y-116079184D01*
X113922825Y-116082279D01*
X113931054Y-116091918D01*
X113956633Y-116109199D01*
X113996327Y-116132483D01*
X114046903Y-116160134D01*
X114105126Y-116190515D01*
X114167763Y-116221990D01*
X114231579Y-116252922D01*
X114293340Y-116281673D01*
X114349812Y-116306608D01*
X114397762Y-116326089D01*
X114421214Y-116334518D01*
X114554979Y-116372333D01*
X114692873Y-116397336D01*
X114840578Y-116410340D01*
X114967367Y-116412668D01*
X115035322Y-116411573D01*
X115100923Y-116409475D01*
X115158353Y-116406634D01*
X115201797Y-116403306D01*
X115215902Y-116401622D01*
X115354916Y-116372787D01*
X115496443Y-116327668D01*
X115633925Y-116268950D01*
X115760806Y-116199320D01*
X115838311Y-116146641D01*
X115965719Y-116038439D01*
X116084022Y-115911871D01*
X116191028Y-115770066D01*
X116284548Y-115616151D01*
X116362390Y-115453253D01*
X116406244Y-115335956D01*
X116456492Y-115152328D01*
X116489991Y-114957781D01*
X116506751Y-114756525D01*
X116506784Y-114552768D01*
X116490099Y-114350721D01*
X116456707Y-114154592D01*
X116406620Y-113968591D01*
X116402803Y-113957003D01*
X116339919Y-113794950D01*
X116263172Y-113647032D01*
X116169958Y-113509065D01*
X116057673Y-113376861D01*
X116013808Y-113331599D01*
X115877666Y-113207657D01*
X115737709Y-113105115D01*
X115591789Y-113022856D01*
X115437758Y-112959764D01*
X115273468Y-112914723D01*
X115177911Y-112897233D01*
X115019177Y-112881666D01*
X114860771Y-112884271D01*
G36*
X112515626Y-113801752D02*
X112363708Y-113821767D01*
X112228444Y-113855402D01*
X112108961Y-113902925D01*
X112004385Y-113964605D01*
X111926776Y-114028165D01*
X111857935Y-114102299D01*
X111804194Y-114182071D01*
X111761290Y-114274291D01*
X111745816Y-114317361D01*
X111732956Y-114356342D01*
X111721754Y-114392489D01*
X111712080Y-114427634D01*
X111703804Y-114463610D01*
X111696797Y-114502250D01*
X111690928Y-114545385D01*
X111686069Y-114594849D01*
X111682090Y-114652473D01*
X111678860Y-114720091D01*
X111676251Y-114799534D01*
X111674133Y-114892636D01*
X111672376Y-115001227D01*
X111670851Y-115127142D01*
X111669428Y-115272212D01*
X111668175Y-115414978D01*
X111666849Y-115571168D01*
X111665644Y-115706439D01*
X111664434Y-115822446D01*
X111663094Y-115920845D01*
X111661500Y-116003293D01*
X111659525Y-116071446D01*
X111657044Y-116126960D01*
X111653931Y-116171492D01*
X111650062Y-116206698D01*
X111645311Y-116234234D01*
X111639552Y-116255756D01*
X111632661Y-116272922D01*
X111624511Y-116287386D01*
X111614977Y-116300806D01*
X111603934Y-116314838D01*
X111599634Y-116320271D01*
X111583814Y-116343110D01*
X111576778Y-116358663D01*
X111576756Y-116359122D01*
X111587633Y-116361321D01*
X111618618Y-116363347D01*
X111667243Y-116365142D01*
X111731037Y-116366651D01*
X111807531Y-116367816D01*
X111894256Y-116368580D01*
X111988743Y-116368886D01*
X111999650Y-116368889D01*
X112422543Y-116368889D01*
X112425805Y-116272822D01*
X112429067Y-116176756D01*
X112491156Y-116227743D01*
X112588486Y-116295257D01*
X112698387Y-116349949D01*
X112784851Y-116380178D01*
X112853922Y-116394866D01*
X112937275Y-116404859D01*
X113027041Y-116409846D01*
X113115355Y-116409513D01*
X113194349Y-116403551D01*
X113230578Y-116397838D01*
X113370597Y-116359976D01*
X113497022Y-116305132D01*
X113608940Y-116234124D01*
X113705438Y-116147768D01*
X113785600Y-116046879D01*
X113848513Y-115932276D01*
X113892888Y-115806184D01*
X113905222Y-115749601D01*
X113912832Y-115687402D01*
X113916461Y-115612563D01*
X113916955Y-115578667D01*
X113916890Y-115575482D01*
X113156952Y-115575482D01*
X113147659Y-115650533D01*
X113119472Y-115714360D01*
X113071003Y-115769998D01*
X113065946Y-115774411D01*
X113017652Y-115809237D01*
X112965943Y-115831820D01*
X112905211Y-115843740D01*
X112829848Y-115846583D01*
X112811741Y-115846178D01*
X112757922Y-115843525D01*
X112717892Y-115838109D01*
X112682876Y-115827945D01*
X112644097Y-115811050D01*
X112633455Y-115805872D01*
X112572804Y-115770044D01*
X112525985Y-115727412D01*
X112513248Y-115712173D01*
X112468578Y-115655662D01*
X112468578Y-115459786D01*
X112469114Y-115381139D01*
X112470804Y-115323188D01*
X112473772Y-115284075D01*
X112478143Y-115261941D01*
X112482228Y-115255474D01*
X112498153Y-115252311D01*
X112531936Y-115249688D01*
X112578860Y-115247855D01*
X112634207Y-115247057D01*
X112643094Y-115247042D01*
X112763870Y-115252296D01*
X112866540Y-115268463D01*
X112953094Y-115296161D01*
X113025519Y-115336008D01*
X113080449Y-115382958D01*
X113124996Y-115440845D01*
X113149720Y-115503893D01*
X113156952Y-115575482D01*
X113916890Y-115575482D01*
X113915022Y-115484912D01*
X113906678Y-115406012D01*
X113890432Y-115334790D01*
X113864795Y-115264064D01*
X113840799Y-115211693D01*
X113782180Y-115116396D01*
X113704083Y-115028370D01*
X113608885Y-114949217D01*
X113498962Y-114880540D01*
X113376690Y-114823941D01*
X113244445Y-114781021D01*
X113179778Y-114766082D01*
X113043596Y-114743977D01*
X112895151Y-114729394D01*
X112743695Y-114723013D01*
X112617136Y-114724645D01*
X112455250Y-114731424D01*
X112462670Y-114672445D01*
X112481962Y-114573292D01*
X112513096Y-114492572D01*
X112556931Y-114429666D01*
X112614329Y-114383956D01*
X112686152Y-114354822D01*
X112773259Y-114341647D01*
X112876514Y-114343811D01*
X112914489Y-114347812D01*
X113055680Y-114372980D01*
X113192493Y-114414014D01*
X113287022Y-114452015D01*
X113332182Y-114471390D01*
X113370615Y-114486960D01*
X113396966Y-114496605D01*
X113404654Y-114498652D01*
X113414398Y-114489574D01*
X113431117Y-114460605D01*
X113454968Y-114411417D01*
X113486107Y-114341684D01*
X113524693Y-114251079D01*
X113531290Y-114235289D01*
X113561347Y-114162972D01*
X113588326Y-114097625D01*
X113611064Y-114042106D01*
X113628394Y-113999272D01*
X113639152Y-113971981D01*
X113642259Y-113963142D01*
X113632260Y-113958387D01*
X113605983Y-113953110D01*
X113577711Y-113949431D01*
X113547554Y-113944674D01*
X113499767Y-113935228D01*
X113438588Y-113922020D01*
X113368254Y-113905976D01*
X113293006Y-113888020D01*
X113264445Y-113880997D01*
X113159384Y-113855409D01*
X113071720Y-113835347D01*
X112997132Y-113820169D01*
X112931297Y-113809235D01*
X112869893Y-113801904D01*
X112808598Y-113797535D01*
X112743090Y-113795487D01*
X112685072Y-113795089D01*
X112515626Y-113801752D01*
X112515626Y-113801752D01*
G37*
X112515626Y-113801752D02*
X112363708Y-113821767D01*
X112228444Y-113855402D01*
X112108961Y-113902925D01*
X112004385Y-113964605D01*
X111926776Y-114028165D01*
X111857935Y-114102299D01*
X111804194Y-114182071D01*
X111761290Y-114274291D01*
X111745816Y-114317361D01*
X111732956Y-114356342D01*
X111721754Y-114392489D01*
X111712080Y-114427634D01*
X111703804Y-114463610D01*
X111696797Y-114502250D01*
X111690928Y-114545385D01*
X111686069Y-114594849D01*
X111682090Y-114652473D01*
X111678860Y-114720091D01*
X111676251Y-114799534D01*
X111674133Y-114892636D01*
X111672376Y-115001227D01*
X111670851Y-115127142D01*
X111669428Y-115272212D01*
X111668175Y-115414978D01*
X111666849Y-115571168D01*
X111665644Y-115706439D01*
X111664434Y-115822446D01*
X111663094Y-115920845D01*
X111661500Y-116003293D01*
X111659525Y-116071446D01*
X111657044Y-116126960D01*
X111653931Y-116171492D01*
X111650062Y-116206698D01*
X111645311Y-116234234D01*
X111639552Y-116255756D01*
X111632661Y-116272922D01*
X111624511Y-116287386D01*
X111614977Y-116300806D01*
X111603934Y-116314838D01*
X111599634Y-116320271D01*
X111583814Y-116343110D01*
X111576778Y-116358663D01*
X111576756Y-116359122D01*
X111587633Y-116361321D01*
X111618618Y-116363347D01*
X111667243Y-116365142D01*
X111731037Y-116366651D01*
X111807531Y-116367816D01*
X111894256Y-116368580D01*
X111988743Y-116368886D01*
X111999650Y-116368889D01*
X112422543Y-116368889D01*
X112425805Y-116272822D01*
X112429067Y-116176756D01*
X112491156Y-116227743D01*
X112588486Y-116295257D01*
X112698387Y-116349949D01*
X112784851Y-116380178D01*
X112853922Y-116394866D01*
X112937275Y-116404859D01*
X113027041Y-116409846D01*
X113115355Y-116409513D01*
X113194349Y-116403551D01*
X113230578Y-116397838D01*
X113370597Y-116359976D01*
X113497022Y-116305132D01*
X113608940Y-116234124D01*
X113705438Y-116147768D01*
X113785600Y-116046879D01*
X113848513Y-115932276D01*
X113892888Y-115806184D01*
X113905222Y-115749601D01*
X113912832Y-115687402D01*
X113916461Y-115612563D01*
X113916955Y-115578667D01*
X113916890Y-115575482D01*
X113156952Y-115575482D01*
X113147659Y-115650533D01*
X113119472Y-115714360D01*
X113071003Y-115769998D01*
X113065946Y-115774411D01*
X113017652Y-115809237D01*
X112965943Y-115831820D01*
X112905211Y-115843740D01*
X112829848Y-115846583D01*
X112811741Y-115846178D01*
X112757922Y-115843525D01*
X112717892Y-115838109D01*
X112682876Y-115827945D01*
X112644097Y-115811050D01*
X112633455Y-115805872D01*
X112572804Y-115770044D01*
X112525985Y-115727412D01*
X112513248Y-115712173D01*
X112468578Y-115655662D01*
X112468578Y-115459786D01*
X112469114Y-115381139D01*
X112470804Y-115323188D01*
X112473772Y-115284075D01*
X112478143Y-115261941D01*
X112482228Y-115255474D01*
X112498153Y-115252311D01*
X112531936Y-115249688D01*
X112578860Y-115247855D01*
X112634207Y-115247057D01*
X112643094Y-115247042D01*
X112763870Y-115252296D01*
X112866540Y-115268463D01*
X112953094Y-115296161D01*
X113025519Y-115336008D01*
X113080449Y-115382958D01*
X113124996Y-115440845D01*
X113149720Y-115503893D01*
X113156952Y-115575482D01*
X113916890Y-115575482D01*
X113915022Y-115484912D01*
X113906678Y-115406012D01*
X113890432Y-115334790D01*
X113864795Y-115264064D01*
X113840799Y-115211693D01*
X113782180Y-115116396D01*
X113704083Y-115028370D01*
X113608885Y-114949217D01*
X113498962Y-114880540D01*
X113376690Y-114823941D01*
X113244445Y-114781021D01*
X113179778Y-114766082D01*
X113043596Y-114743977D01*
X112895151Y-114729394D01*
X112743695Y-114723013D01*
X112617136Y-114724645D01*
X112455250Y-114731424D01*
X112462670Y-114672445D01*
X112481962Y-114573292D01*
X112513096Y-114492572D01*
X112556931Y-114429666D01*
X112614329Y-114383956D01*
X112686152Y-114354822D01*
X112773259Y-114341647D01*
X112876514Y-114343811D01*
X112914489Y-114347812D01*
X113055680Y-114372980D01*
X113192493Y-114414014D01*
X113287022Y-114452015D01*
X113332182Y-114471390D01*
X113370615Y-114486960D01*
X113396966Y-114496605D01*
X113404654Y-114498652D01*
X113414398Y-114489574D01*
X113431117Y-114460605D01*
X113454968Y-114411417D01*
X113486107Y-114341684D01*
X113524693Y-114251079D01*
X113531290Y-114235289D01*
X113561347Y-114162972D01*
X113588326Y-114097625D01*
X113611064Y-114042106D01*
X113628394Y-113999272D01*
X113639152Y-113971981D01*
X113642259Y-113963142D01*
X113632260Y-113958387D01*
X113605983Y-113953110D01*
X113577711Y-113949431D01*
X113547554Y-113944674D01*
X113499767Y-113935228D01*
X113438588Y-113922020D01*
X113368254Y-113905976D01*
X113293006Y-113888020D01*
X113264445Y-113880997D01*
X113159384Y-113855409D01*
X113071720Y-113835347D01*
X112997132Y-113820169D01*
X112931297Y-113809235D01*
X112869893Y-113801904D01*
X112808598Y-113797535D01*
X112743090Y-113795487D01*
X112685072Y-113795089D01*
X112515626Y-113801752D01*
G36*
X109002693Y-114407445D02*
X109002674Y-114641862D01*
X109002648Y-114854803D01*
X109002575Y-115047368D01*
X109002418Y-115220659D01*
X109002136Y-115375776D01*
X109001691Y-115513820D01*
X109001044Y-115635892D01*
X109000155Y-115743094D01*
X108998987Y-115836526D01*
X108997499Y-115917290D01*
X108995654Y-115986486D01*
X108993411Y-116045215D01*
X108990731Y-116094579D01*
X108987577Y-116135678D01*
X108983908Y-116169613D01*
X108979687Y-116197486D01*
X108974873Y-116220398D01*
X108969427Y-116239449D01*
X108963312Y-116255740D01*
X108956488Y-116270373D01*
X108948915Y-116284449D01*
X108940555Y-116299068D01*
X108935361Y-116308174D01*
X108901096Y-116368889D01*
X109759245Y-116368889D01*
X109759245Y-116272933D01*
X109759976Y-116229570D01*
X109761928Y-116196405D01*
X109764737Y-116178624D01*
X109765979Y-116176978D01*
X109777401Y-116183862D01*
X109800116Y-116201705D01*
X109822815Y-116221079D01*
X109877400Y-116261814D01*
X109946879Y-116302817D01*
X110023930Y-116340323D01*
X110101235Y-116370564D01*
X110132087Y-116380212D01*
X110200584Y-116394778D01*
X110283436Y-116404739D01*
X110372829Y-116409783D01*
X110460952Y-116409596D01*
X110539993Y-116403866D01*
X110577689Y-116398058D01*
X110715786Y-116359997D01*
X110843087Y-116302273D01*
X110958908Y-116225411D01*
X111062563Y-116129939D01*
X111153367Y-116016379D01*
X111220169Y-115905581D01*
X111275036Y-115788825D01*
X111317037Y-115669476D01*
X111347033Y-115543483D01*
X111365889Y-115406794D01*
X111374468Y-115255358D01*
X111375194Y-115177911D01*
X111373100Y-115121134D01*
X110543983Y-115121134D01*
X110543776Y-115214202D01*
X110540863Y-115301892D01*
X110535200Y-115378972D01*
X110526745Y-115440209D01*
X110524162Y-115452550D01*
X110492360Y-115559833D01*
X110450702Y-115646858D01*
X110398837Y-115713842D01*
X110336419Y-115761005D01*
X110263100Y-115788565D01*
X110178531Y-115796741D01*
X110082365Y-115785751D01*
X110018889Y-115770029D01*
X109969746Y-115751839D01*
X109915617Y-115725991D01*
X109874956Y-115702289D01*
X109804400Y-115655921D01*
X109804400Y-114505730D01*
X109871808Y-114462162D01*
X109950333Y-114421240D01*
X110034519Y-114394589D01*
X110119643Y-114382665D01*
X110200984Y-114385922D01*
X110273820Y-114404815D01*
X110305774Y-114420384D01*
X110363699Y-114463381D01*
X110412656Y-114520153D01*
X110453810Y-114592775D01*
X110488326Y-114683321D01*
X110517367Y-114793866D01*
X110518648Y-114799733D01*
X110528819Y-114861988D01*
X110536461Y-114939794D01*
X110541530Y-115027920D01*
X110543983Y-115121134D01*
X111373100Y-115121134D01*
X111367343Y-114965095D01*
X111345398Y-114769259D01*
X111309414Y-114590532D01*
X111259441Y-114429045D01*
X111195532Y-114284926D01*
X111117738Y-114158306D01*
X111026111Y-114049315D01*
X110920703Y-113958083D01*
X110875538Y-113927132D01*
X110774589Y-113870985D01*
X110671299Y-113831374D01*
X110561211Y-113807214D01*
X110439870Y-113797419D01*
X110347364Y-113798465D01*
X110217710Y-113809431D01*
X110105116Y-113831246D01*
X110006325Y-113864914D01*
X109918079Y-113911436D01*
X109869214Y-113945648D01*
X109839847Y-113967562D01*
X109818157Y-113982533D01*
X109809947Y-113986933D01*
X109808332Y-113976104D01*
X109807041Y-113945451D01*
X109806062Y-113897726D01*
X109805383Y-113835679D01*
X109804990Y-113762062D01*
X109804870Y-113679627D01*
X109805012Y-113591125D01*
X109805403Y-113499307D01*
X109806029Y-113406924D01*
X109806880Y-113316728D01*
X109807940Y-113231471D01*
X109809199Y-113153903D01*
X109810644Y-113086776D01*
X109812262Y-113032841D01*
X109814039Y-112994850D01*
X109814531Y-112987867D01*
X109822108Y-112917451D01*
X109833669Y-112862302D01*
X109851408Y-112815181D01*
X109877518Y-112768847D01*
X109883785Y-112759267D01*
X109908217Y-112722578D01*
X109002889Y-112722578D01*
X109002693Y-114407445D01*
X109002693Y-114407445D01*
G37*
X109002693Y-114407445D02*
X109002674Y-114641862D01*
X109002648Y-114854803D01*
X109002575Y-115047368D01*
X109002418Y-115220659D01*
X109002136Y-115375776D01*
X109001691Y-115513820D01*
X109001044Y-115635892D01*
X109000155Y-115743094D01*
X108998987Y-115836526D01*
X108997499Y-115917290D01*
X108995654Y-115986486D01*
X108993411Y-116045215D01*
X108990731Y-116094579D01*
X108987577Y-116135678D01*
X108983908Y-116169613D01*
X108979687Y-116197486D01*
X108974873Y-116220398D01*
X108969427Y-116239449D01*
X108963312Y-116255740D01*
X108956488Y-116270373D01*
X108948915Y-116284449D01*
X108940555Y-116299068D01*
X108935361Y-116308174D01*
X108901096Y-116368889D01*
X109759245Y-116368889D01*
X109759245Y-116272933D01*
X109759976Y-116229570D01*
X109761928Y-116196405D01*
X109764737Y-116178624D01*
X109765979Y-116176978D01*
X109777401Y-116183862D01*
X109800116Y-116201705D01*
X109822815Y-116221079D01*
X109877400Y-116261814D01*
X109946879Y-116302817D01*
X110023930Y-116340323D01*
X110101235Y-116370564D01*
X110132087Y-116380212D01*
X110200584Y-116394778D01*
X110283436Y-116404739D01*
X110372829Y-116409783D01*
X110460952Y-116409596D01*
X110539993Y-116403866D01*
X110577689Y-116398058D01*
X110715786Y-116359997D01*
X110843087Y-116302273D01*
X110958908Y-116225411D01*
X111062563Y-116129939D01*
X111153367Y-116016379D01*
X111220169Y-115905581D01*
X111275036Y-115788825D01*
X111317037Y-115669476D01*
X111347033Y-115543483D01*
X111365889Y-115406794D01*
X111374468Y-115255358D01*
X111375194Y-115177911D01*
X111373100Y-115121134D01*
X110543983Y-115121134D01*
X110543776Y-115214202D01*
X110540863Y-115301892D01*
X110535200Y-115378972D01*
X110526745Y-115440209D01*
X110524162Y-115452550D01*
X110492360Y-115559833D01*
X110450702Y-115646858D01*
X110398837Y-115713842D01*
X110336419Y-115761005D01*
X110263100Y-115788565D01*
X110178531Y-115796741D01*
X110082365Y-115785751D01*
X110018889Y-115770029D01*
X109969746Y-115751839D01*
X109915617Y-115725991D01*
X109874956Y-115702289D01*
X109804400Y-115655921D01*
X109804400Y-114505730D01*
X109871808Y-114462162D01*
X109950333Y-114421240D01*
X110034519Y-114394589D01*
X110119643Y-114382665D01*
X110200984Y-114385922D01*
X110273820Y-114404815D01*
X110305774Y-114420384D01*
X110363699Y-114463381D01*
X110412656Y-114520153D01*
X110453810Y-114592775D01*
X110488326Y-114683321D01*
X110517367Y-114793866D01*
X110518648Y-114799733D01*
X110528819Y-114861988D01*
X110536461Y-114939794D01*
X110541530Y-115027920D01*
X110543983Y-115121134D01*
X111373100Y-115121134D01*
X111367343Y-114965095D01*
X111345398Y-114769259D01*
X111309414Y-114590532D01*
X111259441Y-114429045D01*
X111195532Y-114284926D01*
X111117738Y-114158306D01*
X111026111Y-114049315D01*
X110920703Y-113958083D01*
X110875538Y-113927132D01*
X110774589Y-113870985D01*
X110671299Y-113831374D01*
X110561211Y-113807214D01*
X110439870Y-113797419D01*
X110347364Y-113798465D01*
X110217710Y-113809431D01*
X110105116Y-113831246D01*
X110006325Y-113864914D01*
X109918079Y-113911436D01*
X109869214Y-113945648D01*
X109839847Y-113967562D01*
X109818157Y-113982533D01*
X109809947Y-113986933D01*
X109808332Y-113976104D01*
X109807041Y-113945451D01*
X109806062Y-113897726D01*
X109805383Y-113835679D01*
X109804990Y-113762062D01*
X109804870Y-113679627D01*
X109805012Y-113591125D01*
X109805403Y-113499307D01*
X109806029Y-113406924D01*
X109806880Y-113316728D01*
X109807940Y-113231471D01*
X109809199Y-113153903D01*
X109810644Y-113086776D01*
X109812262Y-113032841D01*
X109814039Y-112994850D01*
X109814531Y-112987867D01*
X109822108Y-112917451D01*
X109833669Y-112862302D01*
X109851408Y-112815181D01*
X109877518Y-112768847D01*
X109883785Y-112759267D01*
X109908217Y-112722578D01*
X109002889Y-112722578D01*
X109002693Y-114407445D01*
G36*
X117462243Y-111961771D02*
X117365968Y-111986009D01*
X117279384Y-112028841D01*
X117204573Y-112088619D01*
X117143618Y-112163694D01*
X117098599Y-112252420D01*
X117072336Y-112348730D01*
X117066486Y-112445995D01*
X117081340Y-112539854D01*
X117115040Y-112627711D01*
X117165728Y-112706970D01*
X117231545Y-112775036D01*
X117310634Y-112829312D01*
X117401134Y-112867202D01*
X117452400Y-112879626D01*
X117496898Y-112887147D01*
X117531199Y-112890119D01*
X117564160Y-112888294D01*
X117604634Y-112881425D01*
X117637731Y-112874450D01*
X117731147Y-112842941D01*
X117814819Y-112791817D01*
X117886865Y-112722629D01*
X117945400Y-112636928D01*
X117959348Y-112609689D01*
X117975786Y-112573322D01*
X117986094Y-112542782D01*
X117991660Y-112510650D01*
X117993869Y-112469507D01*
X117994148Y-112423422D01*
X117990061Y-112339065D01*
X117976646Y-112269786D01*
X117951456Y-112209161D01*
X117912046Y-112150767D01*
X117873498Y-112106502D01*
X117801606Y-112040684D01*
X117726513Y-111995253D01*
X117643762Y-111968050D01*
X117566128Y-111957776D01*
X117462243Y-111961771D01*
X117462243Y-111961771D01*
G37*
X117462243Y-111961771D02*
X117365968Y-111986009D01*
X117279384Y-112028841D01*
X117204573Y-112088619D01*
X117143618Y-112163694D01*
X117098599Y-112252420D01*
X117072336Y-112348730D01*
X117066486Y-112445995D01*
X117081340Y-112539854D01*
X117115040Y-112627711D01*
X117165728Y-112706970D01*
X117231545Y-112775036D01*
X117310634Y-112829312D01*
X117401134Y-112867202D01*
X117452400Y-112879626D01*
X117496898Y-112887147D01*
X117531199Y-112890119D01*
X117564160Y-112888294D01*
X117604634Y-112881425D01*
X117637731Y-112874450D01*
X117731147Y-112842941D01*
X117814819Y-112791817D01*
X117886865Y-112722629D01*
X117945400Y-112636928D01*
X117959348Y-112609689D01*
X117975786Y-112573322D01*
X117986094Y-112542782D01*
X117991660Y-112510650D01*
X117993869Y-112469507D01*
X117994148Y-112423422D01*
X117990061Y-112339065D01*
X117976646Y-112269786D01*
X117951456Y-112209161D01*
X117912046Y-112150767D01*
X117873498Y-112106502D01*
X117801606Y-112040684D01*
X117726513Y-111995253D01*
X117643762Y-111968050D01*
X117566128Y-111957776D01*
X117462243Y-111961771D01*
D11*
X103621066Y-106446781D02*
X104097257Y-106446781D01*
X104097257Y-105446781D01*
X102763923Y-106446781D02*
X103335352Y-106446781D01*
X103049638Y-106446781D02*
X103049638Y-105446781D01*
X103144876Y-105589638D01*
X103240114Y-105684876D01*
X103335352Y-105732495D01*
X113323866Y-106726181D02*
X113800057Y-106726181D01*
X113800057Y-105726181D01*
X113038152Y-105821419D02*
X112990533Y-105773800D01*
X112895295Y-105726181D01*
X112657199Y-105726181D01*
X112561961Y-105773800D01*
X112514342Y-105821419D01*
X112466723Y-105916657D01*
X112466723Y-106011895D01*
X112514342Y-106154752D01*
X113085771Y-106726181D01*
X112466723Y-106726181D01*
M02*
