%FSLAX45Y45*%
G04 Gerber Fmt 4.5, Leading zero omitted, Abs format (unit mm)*
G04 Created by KiCad (PCBNEW 4.0.2-stable) date 6/22/2017 3:55:48 PM*
%MOMM*%
G01*
G04 APERTURE LIST*
%ADD10C,0.127000*%
%ADD11C,0.150000*%
%ADD12C,0.200000*%
%ADD13C,0.300000*%
G04 APERTURE END LIST*
D10*
D11*
X10000000Y-12800000D02*
X10000000Y-10000000D01*
X12200000Y-12800000D02*
X10000000Y-12800000D01*
X12200000Y-10000000D02*
X12200000Y-12800000D01*
X10000000Y-10000000D02*
X12200000Y-10000000D01*
D12*
X10284800Y-10683580D02*
X10324800Y-10723580D01*
X10324800Y-10683580D02*
X10284800Y-10723580D01*
X10287340Y-10764860D02*
X10327340Y-10804860D01*
X10327340Y-10764860D02*
X10287340Y-10804860D01*
X10409260Y-11204280D02*
X10449260Y-11244280D01*
X10449260Y-11204280D02*
X10409260Y-11244280D01*
X10652340Y-11490160D02*
X10692340Y-11530160D01*
X10692340Y-11490160D02*
X10652340Y-11530160D01*
X10652340Y-11640160D02*
X10692340Y-11680160D01*
X10692340Y-11640160D02*
X10652340Y-11680160D01*
X10722340Y-11490160D02*
X10762340Y-11530160D01*
X10762340Y-11490160D02*
X10722340Y-11530160D01*
X10722340Y-11640160D02*
X10762340Y-11680160D01*
X10762340Y-11640160D02*
X10722340Y-11680160D01*
X10792340Y-11490160D02*
X10832340Y-11530160D01*
X10832340Y-11490160D02*
X10792340Y-11530160D01*
X10792340Y-11640160D02*
X10832340Y-11680160D01*
X10832340Y-11640160D02*
X10792340Y-11680160D01*
X10990920Y-11940880D02*
X11030920Y-11980880D01*
X11030920Y-11940880D02*
X10990920Y-11980880D01*
X11161100Y-12225360D02*
X11201100Y-12265360D01*
X11201100Y-12225360D02*
X11161100Y-12265360D01*
X11214440Y-10708980D02*
X11254440Y-10748980D01*
X11254440Y-10708980D02*
X11214440Y-10748980D01*
X11214440Y-10777560D02*
X11254440Y-10817560D01*
X11254440Y-10777560D02*
X11214440Y-10817560D01*
X11214440Y-12019620D02*
X11254440Y-12059620D01*
X11254440Y-12019620D02*
X11214440Y-12059620D01*
X11321120Y-11156020D02*
X11361120Y-11196020D01*
X11361120Y-11156020D02*
X11321120Y-11196020D01*
X11521020Y-11480000D02*
X11561020Y-11520000D01*
X11561020Y-11480000D02*
X11521020Y-11520000D01*
X11521020Y-11630000D02*
X11561020Y-11670000D01*
X11561020Y-11630000D02*
X11521020Y-11670000D01*
X11591020Y-11480000D02*
X11631020Y-11520000D01*
X11631020Y-11480000D02*
X11591020Y-11520000D01*
X11591020Y-11630000D02*
X11631020Y-11670000D01*
X11631020Y-11630000D02*
X11591020Y-11670000D01*
X11661020Y-11480000D02*
X11701020Y-11520000D01*
X11701020Y-11480000D02*
X11661020Y-11520000D01*
X11661020Y-11630000D02*
X11701020Y-11670000D01*
X11701020Y-11630000D02*
X11661020Y-11670000D01*
X11948500Y-11905320D02*
X11988500Y-11945320D01*
X11988500Y-11905320D02*
X11948500Y-11945320D01*
X11968820Y-11742760D02*
X12008820Y-11782760D01*
X12008820Y-11742760D02*
X11968820Y-11782760D01*
X10253180Y-10210800D02*
G75*
G03X10253180Y-10210800I-50000J0D01*
G01*
X10263360Y-12585720D02*
G75*
G03X10263360Y-12585720I-50000J0D01*
G01*
X10507180Y-10210800D02*
G75*
G03X10507180Y-10210800I-50000J0D01*
G01*
X10517360Y-12585720D02*
G75*
G03X10517360Y-12585720I-50000J0D01*
G01*
X10761180Y-10210800D02*
G75*
G03X10761180Y-10210800I-50000J0D01*
G01*
X11523200Y-12611120D02*
G75*
G03X11523200Y-12611120I-50000J0D01*
G01*
X11546040Y-10198100D02*
G75*
G03X11546040Y-10198100I-50000J0D01*
G01*
X11777200Y-12611120D02*
G75*
G03X11777200Y-12611120I-50000J0D01*
G01*
X11800040Y-10198100D02*
G75*
G03X11800040Y-10198100I-50000J0D01*
G01*
X12031200Y-12611120D02*
G75*
G03X12031200Y-12611120I-50000J0D01*
G01*
X12054040Y-10198100D02*
G75*
G03X12054040Y-10198100I-50000J0D01*
G01*
D13*
X10263929Y-13273214D02*
X10263929Y-12973214D01*
X10335357Y-12973214D01*
X10378214Y-12987500D01*
X10406786Y-13016071D01*
X10421071Y-13044643D01*
X10435357Y-13101786D01*
X10435357Y-13144643D01*
X10421071Y-13201786D01*
X10406786Y-13230357D01*
X10378214Y-13258929D01*
X10335357Y-13273214D01*
X10263929Y-13273214D01*
X10563929Y-13273214D02*
X10563929Y-13073214D01*
X10563929Y-13130357D02*
X10578214Y-13101786D01*
X10592500Y-13087500D01*
X10621071Y-13073214D01*
X10649643Y-13073214D01*
X10749643Y-13273214D02*
X10749643Y-13073214D01*
X10749643Y-12973214D02*
X10735357Y-12987500D01*
X10749643Y-13001786D01*
X10763929Y-12987500D01*
X10749643Y-12973214D01*
X10749643Y-13001786D01*
X10935357Y-13273214D02*
X10906786Y-13258929D01*
X10892500Y-13230357D01*
X10892500Y-12973214D01*
X11092500Y-13273214D02*
X11063929Y-13258929D01*
X11049643Y-13230357D01*
X11049643Y-12973214D01*
X11435357Y-13273214D02*
X11435357Y-12973214D01*
X11535357Y-13187500D01*
X11635357Y-12973214D01*
X11635357Y-13273214D01*
X11906786Y-13273214D02*
X11906786Y-13116071D01*
X11892500Y-13087500D01*
X11863928Y-13073214D01*
X11806786Y-13073214D01*
X11778214Y-13087500D01*
X11906786Y-13258929D02*
X11878214Y-13273214D01*
X11806786Y-13273214D01*
X11778214Y-13258929D01*
X11763928Y-13230357D01*
X11763928Y-13201786D01*
X11778214Y-13173214D01*
X11806786Y-13158929D01*
X11878214Y-13158929D01*
X11906786Y-13144643D01*
X12049643Y-13073214D02*
X12049643Y-13373214D01*
X12049643Y-13087500D02*
X12078214Y-13073214D01*
X12135357Y-13073214D01*
X12163928Y-13087500D01*
X12178214Y-13101786D01*
X12192500Y-13130357D01*
X12192500Y-13216071D01*
X12178214Y-13244643D01*
X12163928Y-13258929D01*
X12135357Y-13273214D01*
X12078214Y-13273214D01*
X12049643Y-13258929D01*
X12321071Y-13244643D02*
X12335357Y-13258929D01*
X12321071Y-13273214D01*
X12306786Y-13258929D01*
X12321071Y-13244643D01*
X12321071Y-13273214D01*
X12321071Y-13087500D02*
X12335357Y-13101786D01*
X12321071Y-13116071D01*
X12306786Y-13101786D01*
X12321071Y-13087500D01*
X12321071Y-13116071D01*
X9952500Y-13747500D02*
X9992500Y-13787500D01*
X9992500Y-13747500D02*
X9952500Y-13787500D01*
X10321071Y-13603214D02*
X10349643Y-13603214D01*
X10378214Y-13617500D01*
X10392500Y-13631786D01*
X10406786Y-13660357D01*
X10421071Y-13717500D01*
X10421071Y-13788929D01*
X10406786Y-13846071D01*
X10392500Y-13874643D01*
X10378214Y-13888929D01*
X10349643Y-13903214D01*
X10321071Y-13903214D01*
X10292500Y-13888929D01*
X10278214Y-13874643D01*
X10263929Y-13846071D01*
X10249643Y-13788929D01*
X10249643Y-13717500D01*
X10263929Y-13660357D01*
X10278214Y-13631786D01*
X10292500Y-13617500D01*
X10321071Y-13603214D01*
X10549643Y-13874643D02*
X10563929Y-13888929D01*
X10549643Y-13903214D01*
X10535357Y-13888929D01*
X10549643Y-13874643D01*
X10549643Y-13903214D01*
X10821071Y-13703214D02*
X10821071Y-13903214D01*
X10749643Y-13588929D02*
X10678214Y-13803214D01*
X10863928Y-13803214D01*
X11035357Y-13603214D02*
X11063929Y-13603214D01*
X11092500Y-13617500D01*
X11106786Y-13631786D01*
X11121071Y-13660357D01*
X11135357Y-13717500D01*
X11135357Y-13788929D01*
X11121071Y-13846071D01*
X11106786Y-13874643D01*
X11092500Y-13888929D01*
X11063929Y-13903214D01*
X11035357Y-13903214D01*
X11006786Y-13888929D01*
X10992500Y-13874643D01*
X10978214Y-13846071D01*
X10963929Y-13788929D01*
X10963929Y-13717500D01*
X10978214Y-13660357D01*
X10992500Y-13631786D01*
X11006786Y-13617500D01*
X11035357Y-13603214D01*
X11263928Y-13903214D02*
X11263928Y-13703214D01*
X11263928Y-13731786D02*
X11278214Y-13717500D01*
X11306786Y-13703214D01*
X11349643Y-13703214D01*
X11378214Y-13717500D01*
X11392500Y-13746071D01*
X11392500Y-13903214D01*
X11392500Y-13746071D02*
X11406786Y-13717500D01*
X11435357Y-13703214D01*
X11478214Y-13703214D01*
X11506786Y-13717500D01*
X11521071Y-13746071D01*
X11521071Y-13903214D01*
X11663928Y-13903214D02*
X11663928Y-13703214D01*
X11663928Y-13731786D02*
X11678214Y-13717500D01*
X11706786Y-13703214D01*
X11749643Y-13703214D01*
X11778214Y-13717500D01*
X11792500Y-13746071D01*
X11792500Y-13903214D01*
X11792500Y-13746071D02*
X11806786Y-13717500D01*
X11835357Y-13703214D01*
X11878214Y-13703214D01*
X11906786Y-13717500D01*
X11921071Y-13746071D01*
X11921071Y-13903214D01*
X12506786Y-13588929D02*
X12249643Y-13974643D01*
X12892500Y-13603214D02*
X12921071Y-13603214D01*
X12949643Y-13617500D01*
X12963928Y-13631786D01*
X12978214Y-13660357D01*
X12992500Y-13717500D01*
X12992500Y-13788929D01*
X12978214Y-13846071D01*
X12963928Y-13874643D01*
X12949643Y-13888929D01*
X12921071Y-13903214D01*
X12892500Y-13903214D01*
X12863928Y-13888929D01*
X12849643Y-13874643D01*
X12835357Y-13846071D01*
X12821071Y-13788929D01*
X12821071Y-13717500D01*
X12835357Y-13660357D01*
X12849643Y-13631786D01*
X12863928Y-13617500D01*
X12892500Y-13603214D01*
X13121071Y-13874643D02*
X13135357Y-13888929D01*
X13121071Y-13903214D01*
X13106786Y-13888929D01*
X13121071Y-13874643D01*
X13121071Y-13903214D01*
X13321071Y-13603214D02*
X13349643Y-13603214D01*
X13378214Y-13617500D01*
X13392500Y-13631786D01*
X13406785Y-13660357D01*
X13421071Y-13717500D01*
X13421071Y-13788929D01*
X13406785Y-13846071D01*
X13392500Y-13874643D01*
X13378214Y-13888929D01*
X13349643Y-13903214D01*
X13321071Y-13903214D01*
X13292500Y-13888929D01*
X13278214Y-13874643D01*
X13263928Y-13846071D01*
X13249643Y-13788929D01*
X13249643Y-13717500D01*
X13263928Y-13660357D01*
X13278214Y-13631786D01*
X13292500Y-13617500D01*
X13321071Y-13603214D01*
X13706785Y-13903214D02*
X13535357Y-13903214D01*
X13621071Y-13903214D02*
X13621071Y-13603214D01*
X13592500Y-13646071D01*
X13563928Y-13674643D01*
X13535357Y-13688929D01*
X13963928Y-13603214D02*
X13906785Y-13603214D01*
X13878214Y-13617500D01*
X13863928Y-13631786D01*
X13835357Y-13674643D01*
X13821071Y-13731786D01*
X13821071Y-13846071D01*
X13835357Y-13874643D01*
X13849643Y-13888929D01*
X13878214Y-13903214D01*
X13935357Y-13903214D01*
X13963928Y-13888929D01*
X13978214Y-13874643D01*
X13992500Y-13846071D01*
X13992500Y-13774643D01*
X13978214Y-13746071D01*
X13963928Y-13731786D01*
X13935357Y-13717500D01*
X13878214Y-13717500D01*
X13849643Y-13731786D01*
X13835357Y-13746071D01*
X13821071Y-13774643D01*
X14106786Y-13603214D02*
X14106786Y-13660357D01*
X14221071Y-13603214D02*
X14221071Y-13660357D01*
X14663928Y-14017500D02*
X14649643Y-14003214D01*
X14621071Y-13960357D01*
X14606785Y-13931786D01*
X14592500Y-13888929D01*
X14578214Y-13817500D01*
X14578214Y-13760357D01*
X14592500Y-13688929D01*
X14606785Y-13646071D01*
X14621071Y-13617500D01*
X14649643Y-13574643D01*
X14663928Y-13560357D01*
X14763928Y-13631786D02*
X14778214Y-13617500D01*
X14806785Y-13603214D01*
X14878214Y-13603214D01*
X14906785Y-13617500D01*
X14921071Y-13631786D01*
X14935357Y-13660357D01*
X14935357Y-13688929D01*
X14921071Y-13731786D01*
X14749643Y-13903214D01*
X14935357Y-13903214D01*
X15035357Y-13603214D02*
X15221071Y-13603214D01*
X15121071Y-13717500D01*
X15163928Y-13717500D01*
X15192500Y-13731786D01*
X15206785Y-13746071D01*
X15221071Y-13774643D01*
X15221071Y-13846071D01*
X15206785Y-13874643D01*
X15192500Y-13888929D01*
X15163928Y-13903214D01*
X15078214Y-13903214D01*
X15049643Y-13888929D01*
X15035357Y-13874643D01*
X15578214Y-13903214D02*
X15578214Y-13603214D01*
X15706785Y-13903214D02*
X15706785Y-13746071D01*
X15692500Y-13717500D01*
X15663928Y-13703214D01*
X15621071Y-13703214D01*
X15592500Y-13717500D01*
X15578214Y-13731786D01*
X15892500Y-13903214D02*
X15863928Y-13888929D01*
X15849643Y-13874643D01*
X15835357Y-13846071D01*
X15835357Y-13760357D01*
X15849643Y-13731786D01*
X15863928Y-13717500D01*
X15892500Y-13703214D01*
X15935357Y-13703214D01*
X15963928Y-13717500D01*
X15978214Y-13731786D01*
X15992500Y-13760357D01*
X15992500Y-13846071D01*
X15978214Y-13874643D01*
X15963928Y-13888929D01*
X15935357Y-13903214D01*
X15892500Y-13903214D01*
X16163928Y-13903214D02*
X16135357Y-13888929D01*
X16121071Y-13860357D01*
X16121071Y-13603214D01*
X16392500Y-13888929D02*
X16363928Y-13903214D01*
X16306786Y-13903214D01*
X16278214Y-13888929D01*
X16263928Y-13860357D01*
X16263928Y-13746071D01*
X16278214Y-13717500D01*
X16306786Y-13703214D01*
X16363928Y-13703214D01*
X16392500Y-13717500D01*
X16406786Y-13746071D01*
X16406786Y-13774643D01*
X16263928Y-13803214D01*
X16521071Y-13888929D02*
X16549643Y-13903214D01*
X16606786Y-13903214D01*
X16635357Y-13888929D01*
X16649643Y-13860357D01*
X16649643Y-13846071D01*
X16635357Y-13817500D01*
X16606786Y-13803214D01*
X16563928Y-13803214D01*
X16535357Y-13788929D01*
X16521071Y-13760357D01*
X16521071Y-13746071D01*
X16535357Y-13717500D01*
X16563928Y-13703214D01*
X16606786Y-13703214D01*
X16635357Y-13717500D01*
X16749643Y-14017500D02*
X16763928Y-14003214D01*
X16792500Y-13960357D01*
X16806786Y-13931786D01*
X16821071Y-13888929D01*
X16835357Y-13817500D01*
X16835357Y-13760357D01*
X16821071Y-13688929D01*
X16806786Y-13646071D01*
X16792500Y-13617500D01*
X16763928Y-13574643D01*
X16749643Y-13560357D01*
X9992500Y-14163500D02*
G75*
G03X9992500Y-14163500I-50000J0D01*
G01*
X10421071Y-14299214D02*
X10249643Y-14299214D01*
X10335357Y-14299214D02*
X10335357Y-13999214D01*
X10306786Y-14042071D01*
X10278214Y-14070643D01*
X10249643Y-14084929D01*
X10549643Y-14270643D02*
X10563929Y-14284929D01*
X10549643Y-14299214D01*
X10535357Y-14284929D01*
X10549643Y-14270643D01*
X10549643Y-14299214D01*
X10749643Y-13999214D02*
X10778214Y-13999214D01*
X10806786Y-14013500D01*
X10821071Y-14027786D01*
X10835357Y-14056357D01*
X10849643Y-14113500D01*
X10849643Y-14184929D01*
X10835357Y-14242071D01*
X10821071Y-14270643D01*
X10806786Y-14284929D01*
X10778214Y-14299214D01*
X10749643Y-14299214D01*
X10721071Y-14284929D01*
X10706786Y-14270643D01*
X10692500Y-14242071D01*
X10678214Y-14184929D01*
X10678214Y-14113500D01*
X10692500Y-14056357D01*
X10706786Y-14027786D01*
X10721071Y-14013500D01*
X10749643Y-13999214D01*
X11035357Y-13999214D02*
X11063929Y-13999214D01*
X11092500Y-14013500D01*
X11106786Y-14027786D01*
X11121071Y-14056357D01*
X11135357Y-14113500D01*
X11135357Y-14184929D01*
X11121071Y-14242071D01*
X11106786Y-14270643D01*
X11092500Y-14284929D01*
X11063929Y-14299214D01*
X11035357Y-14299214D01*
X11006786Y-14284929D01*
X10992500Y-14270643D01*
X10978214Y-14242071D01*
X10963929Y-14184929D01*
X10963929Y-14113500D01*
X10978214Y-14056357D01*
X10992500Y-14027786D01*
X11006786Y-14013500D01*
X11035357Y-13999214D01*
X11263928Y-14299214D02*
X11263928Y-14099214D01*
X11263928Y-14127786D02*
X11278214Y-14113500D01*
X11306786Y-14099214D01*
X11349643Y-14099214D01*
X11378214Y-14113500D01*
X11392500Y-14142071D01*
X11392500Y-14299214D01*
X11392500Y-14142071D02*
X11406786Y-14113500D01*
X11435357Y-14099214D01*
X11478214Y-14099214D01*
X11506786Y-14113500D01*
X11521071Y-14142071D01*
X11521071Y-14299214D01*
X11663928Y-14299214D02*
X11663928Y-14099214D01*
X11663928Y-14127786D02*
X11678214Y-14113500D01*
X11706786Y-14099214D01*
X11749643Y-14099214D01*
X11778214Y-14113500D01*
X11792500Y-14142071D01*
X11792500Y-14299214D01*
X11792500Y-14142071D02*
X11806786Y-14113500D01*
X11835357Y-14099214D01*
X11878214Y-14099214D01*
X11906786Y-14113500D01*
X11921071Y-14142071D01*
X11921071Y-14299214D01*
X12506786Y-13984929D02*
X12249643Y-14370643D01*
X12892500Y-13999214D02*
X12921071Y-13999214D01*
X12949643Y-14013500D01*
X12963928Y-14027786D01*
X12978214Y-14056357D01*
X12992500Y-14113500D01*
X12992500Y-14184929D01*
X12978214Y-14242071D01*
X12963928Y-14270643D01*
X12949643Y-14284929D01*
X12921071Y-14299214D01*
X12892500Y-14299214D01*
X12863928Y-14284929D01*
X12849643Y-14270643D01*
X12835357Y-14242071D01*
X12821071Y-14184929D01*
X12821071Y-14113500D01*
X12835357Y-14056357D01*
X12849643Y-14027786D01*
X12863928Y-14013500D01*
X12892500Y-13999214D01*
X13121071Y-14270643D02*
X13135357Y-14284929D01*
X13121071Y-14299214D01*
X13106786Y-14284929D01*
X13121071Y-14270643D01*
X13121071Y-14299214D01*
X13321071Y-13999214D02*
X13349643Y-13999214D01*
X13378214Y-14013500D01*
X13392500Y-14027786D01*
X13406785Y-14056357D01*
X13421071Y-14113500D01*
X13421071Y-14184929D01*
X13406785Y-14242071D01*
X13392500Y-14270643D01*
X13378214Y-14284929D01*
X13349643Y-14299214D01*
X13321071Y-14299214D01*
X13292500Y-14284929D01*
X13278214Y-14270643D01*
X13263928Y-14242071D01*
X13249643Y-14184929D01*
X13249643Y-14113500D01*
X13263928Y-14056357D01*
X13278214Y-14027786D01*
X13292500Y-14013500D01*
X13321071Y-13999214D01*
X13521071Y-13999214D02*
X13706785Y-13999214D01*
X13606785Y-14113500D01*
X13649643Y-14113500D01*
X13678214Y-14127786D01*
X13692500Y-14142071D01*
X13706785Y-14170643D01*
X13706785Y-14242071D01*
X13692500Y-14270643D01*
X13678214Y-14284929D01*
X13649643Y-14299214D01*
X13563928Y-14299214D01*
X13535357Y-14284929D01*
X13521071Y-14270643D01*
X13849643Y-14299214D02*
X13906785Y-14299214D01*
X13935357Y-14284929D01*
X13949643Y-14270643D01*
X13978214Y-14227786D01*
X13992500Y-14170643D01*
X13992500Y-14056357D01*
X13978214Y-14027786D01*
X13963928Y-14013500D01*
X13935357Y-13999214D01*
X13878214Y-13999214D01*
X13849643Y-14013500D01*
X13835357Y-14027786D01*
X13821071Y-14056357D01*
X13821071Y-14127786D01*
X13835357Y-14156357D01*
X13849643Y-14170643D01*
X13878214Y-14184929D01*
X13935357Y-14184929D01*
X13963928Y-14170643D01*
X13978214Y-14156357D01*
X13992500Y-14127786D01*
X14106786Y-13999214D02*
X14106786Y-14056357D01*
X14221071Y-13999214D02*
X14221071Y-14056357D01*
X14663928Y-14413500D02*
X14649643Y-14399214D01*
X14621071Y-14356357D01*
X14606785Y-14327786D01*
X14592500Y-14284929D01*
X14578214Y-14213500D01*
X14578214Y-14156357D01*
X14592500Y-14084929D01*
X14606785Y-14042071D01*
X14621071Y-14013500D01*
X14649643Y-13970643D01*
X14663928Y-13956357D01*
X14935357Y-14299214D02*
X14763928Y-14299214D01*
X14849643Y-14299214D02*
X14849643Y-13999214D01*
X14821071Y-14042071D01*
X14792500Y-14070643D01*
X14763928Y-14084929D01*
X15221071Y-14299214D02*
X15049643Y-14299214D01*
X15135357Y-14299214D02*
X15135357Y-13999214D01*
X15106785Y-14042071D01*
X15078214Y-14070643D01*
X15049643Y-14084929D01*
X15578214Y-14299214D02*
X15578214Y-13999214D01*
X15706785Y-14299214D02*
X15706785Y-14142071D01*
X15692500Y-14113500D01*
X15663928Y-14099214D01*
X15621071Y-14099214D01*
X15592500Y-14113500D01*
X15578214Y-14127786D01*
X15892500Y-14299214D02*
X15863928Y-14284929D01*
X15849643Y-14270643D01*
X15835357Y-14242071D01*
X15835357Y-14156357D01*
X15849643Y-14127786D01*
X15863928Y-14113500D01*
X15892500Y-14099214D01*
X15935357Y-14099214D01*
X15963928Y-14113500D01*
X15978214Y-14127786D01*
X15992500Y-14156357D01*
X15992500Y-14242071D01*
X15978214Y-14270643D01*
X15963928Y-14284929D01*
X15935357Y-14299214D01*
X15892500Y-14299214D01*
X16163928Y-14299214D02*
X16135357Y-14284929D01*
X16121071Y-14256357D01*
X16121071Y-13999214D01*
X16392500Y-14284929D02*
X16363928Y-14299214D01*
X16306786Y-14299214D01*
X16278214Y-14284929D01*
X16263928Y-14256357D01*
X16263928Y-14142071D01*
X16278214Y-14113500D01*
X16306786Y-14099214D01*
X16363928Y-14099214D01*
X16392500Y-14113500D01*
X16406786Y-14142071D01*
X16406786Y-14170643D01*
X16263928Y-14199214D01*
X16521071Y-14284929D02*
X16549643Y-14299214D01*
X16606786Y-14299214D01*
X16635357Y-14284929D01*
X16649643Y-14256357D01*
X16649643Y-14242071D01*
X16635357Y-14213500D01*
X16606786Y-14199214D01*
X16563928Y-14199214D01*
X16535357Y-14184929D01*
X16521071Y-14156357D01*
X16521071Y-14142071D01*
X16535357Y-14113500D01*
X16563928Y-14099214D01*
X16606786Y-14099214D01*
X16635357Y-14113500D01*
X16749643Y-14413500D02*
X16763928Y-14399214D01*
X16792500Y-14356357D01*
X16806786Y-14327786D01*
X16821071Y-14284929D01*
X16835357Y-14213500D01*
X16835357Y-14156357D01*
X16821071Y-14084929D01*
X16806786Y-14042071D01*
X16792500Y-14013500D01*
X16763928Y-13970643D01*
X16749643Y-13956357D01*
M02*
